<svg width="296" height="187" viewBox="0 0 296 187" fill="none" xmlns="http://www.w3.org/2000/svg">
<path d="M274.261 84.8323L277.817 85.4561C277.817 85.4561 281.589 84.101 282.506 84.1727C283.424 84.2444 287.554 86.7324 287.554 86.7324C287.554 86.7324 288.343 88.0231 288.228 88.3601C288.114 88.6971 282.306 91.7874 281.23 91.7372C280.155 91.687 277.781 89.4786 277.416 89.2061C277.057 88.9337 271.213 86.8973 271.213 86.8973L274.261 84.8323Z" fill="#FDAA95"/>
<path d="M260.293 38.9434L262.996 42.9372C262.688 43.4606 262.465 44.0414 262.25 44.6078C260.967 44.0485 259.511 42.0481 259.755 40.614C259.834 40.0332 260.013 39.4668 260.293 38.9434Z" fill="#F2967F"/>
<path d="M264.323 28.8617C262.774 30.3889 263.957 32.2819 268.553 34.7269C269.794 32.3177 269.306 28.1662 267.822 27.3775C266.33 26.5888 265.671 27.5352 264.323 28.8617Z" fill="#003A75"/>
<path d="M263.986 33.6802C264.043 34.0316 264.28 34.2897 264.509 34.2467C264.739 34.2036 264.875 33.8953 264.817 33.544C264.76 33.1926 264.531 32.9345 264.294 32.9704C264.072 32.999 263.95 33.3289 263.986 33.6802Z" fill="#003A75"/>
<path d="M268.001 33.0132C268.059 33.3646 268.295 33.6227 268.525 33.5797C268.754 33.5367 268.897 33.2283 268.84 32.8698C268.783 32.5113 268.546 32.2604 268.317 32.3034C268.087 32.3464 267.944 32.6619 268.001 33.0132Z" fill="#003A75"/>
<path d="M266.718 33.4001C267.32 34.4111 268.058 35.3289 268.912 36.1392C268.374 36.8275 267.277 36.7343 267.277 36.7343L266.718 33.4001Z" fill="#F2967F"/>
<path d="M262.68 32.5973C262.637 32.6117 262.587 32.6117 262.544 32.5902C262.444 32.54 262.401 32.4109 262.451 32.3034C262.752 31.6939 263.326 31.2709 264 31.1633C264.107 31.149 264.215 31.2278 264.229 31.3354C264.229 31.3426 264.229 31.3426 264.229 31.3497C264.236 31.4645 264.157 31.5648 264.043 31.5792C263.519 31.6724 263.068 32.0094 262.831 32.4898C262.795 32.5471 262.738 32.583 262.68 32.5973Z" fill="#003A75"/>
<path d="M269.607 31.3571C269.528 31.3714 269.449 31.3356 269.399 31.271C269.105 30.8265 268.61 30.5469 268.073 30.5253C267.958 30.5253 267.857 30.4393 267.857 30.3246C267.857 30.2099 267.943 30.1166 268.058 30.1023C268.739 30.1166 269.363 30.4608 269.743 31.0273C269.808 31.1205 269.786 31.2495 269.693 31.3141C269.664 31.3356 269.636 31.3499 269.607 31.3571Z" fill="#003A75"/>
<path d="M264.158 38.0469C264.158 38.0469 265.169 39.3303 267.255 38.8715" stroke="#003A75" stroke-width="0.377367" stroke-miterlimit="10" stroke-linecap="round" stroke-linejoin="round"/>
<path d="M263.405 23.4554C263.405 23.4554 265.886 22.258 265.864 20.6519C265.864 20.6519 266.897 21.8851 265.907 23.0825C264.911 24.2656 263.405 23.4554 263.405 23.4554Z" fill="#003A75"/>
<path d="M266.804 27.2627C267.635 26.8827 271.701 23.6919 269.177 20.4438" stroke="#003A75" stroke-width="0.179255" stroke-miterlimit="10"/>
<path d="M295.255 176.016H289.519V181.752H295.255V176.016Z" fill="#00BAEB"/>
<path d="M295.255 15.0015H289.519V20.7376H295.255V15.0015Z" fill="#00BAEB"/>
<path d="M295.255 95.5088H289.519V101.245H295.255V95.5088Z" fill="#00BAEB"/>
<g opacity="0.3">
<path d="M9.36497 120.863L12.1685 116.36C12.2617 116.209 12.1972 115.994 12.0108 115.836L7.85206 112.416C7.48638 112.101 6.97012 112.036 6.70483 112.273C6.66898 112.301 6.6403 112.337 6.61879 112.38C5.76553 113.822 5.24211 114.933 4.13073 116.718C3.44956 117.815 1.21963 121.028 0.273168 122.548C-0.673297 124.068 1.31284 125.573 1.89363 125.079C4.48207 122.827 6.97013 121.465 8.65512 121.279C8.97778 121.236 9.22874 121.092 9.36497 120.863Z" fill="#D1BCE3"/>
</g>
<path d="M39.494 9.03778C42.5987 8.32077 46.1407 10.565 48.8798 8.94457C52.2928 6.92974 52.0418 0.469403 55.9854 0.0391919C62.8401 -0.706508 65.5791 9.43214 69.745 9.76197C73.6384 10.0703 76.0548 4.82888 79.9482 4.45603C84.7953 3.98997 87.649 10.6511 92.4817 11.2175C95.149 11.533 97.7159 9.92689 100.398 10.0488C103.567 10.1922 106.313 13.1463 106.148 16.4446H30.2014C30.2014 16.4446 35.3353 9.99859 39.494 9.03778Z" fill="url(#paint0_linear_11160_39511)"/>
<path d="M139.855 12.2933C142.135 10.974 144.186 11.4401 146.401 11.856C148.61 12.2718 148.854 9.2962 151.471 8.0199C155.128 6.23453 157.35 10.0706 158.29 11.6409C159.229 13.2111 161.588 12.3507 163.904 12.7666C167.123 13.3474 167.231 16.703 167.231 16.703H137.345C137.345 16.703 137.41 13.713 139.855 12.2933Z" fill="url(#paint1_linear_11160_39511)"/>
<path d="M142.917 32.6995C141.648 32.4055 140.207 33.3233 139.081 32.6637C137.69 31.8391 137.79 29.2005 136.177 29.0284C133.381 28.7272 132.262 32.8644 130.556 33.0007C128.964 33.1297 127.981 30.9858 126.39 30.8353C124.411 30.6417 123.249 33.3663 121.27 33.5958C120.18 33.7248 119.133 33.0652 118.036 33.1154C116.746 33.1727 115.62 34.3845 115.692 35.7253H146.703C146.717 35.7253 144.616 33.0939 142.917 32.6995Z" fill="url(#paint2_linear_11160_39511)"/>
<path d="M243.694 13.7918C242.159 13.4405 240.403 14.5518 239.04 13.7488C237.348 12.7521 237.47 9.54705 235.52 9.33911C232.128 8.97344 230.766 13.9926 228.701 14.1575C226.772 14.3081 225.575 11.7124 223.646 11.526C221.244 11.2966 219.831 14.5949 217.437 14.8745C216.117 15.0322 214.841 14.2364 213.514 14.2937C211.944 14.3654 210.582 15.8281 210.668 17.4629H248.29C248.297 17.4629 245.752 14.265 243.694 13.7918Z" fill="url(#paint3_linear_11160_39511)"/>
<path d="M148.911 187C225.692 187 287.934 183.366 287.934 178.883C287.934 174.401 225.692 170.767 148.911 170.767C72.1313 170.767 9.88867 174.401 9.88867 178.883C9.88867 183.366 72.1313 187 148.911 187Z" fill="#F3F6F8"/>
<path d="M292.387 17.8699H190.763V178.884H292.387V17.8699Z" stroke="#D2DBE2" stroke-width="0.717019" stroke-miterlimit="10"/>
<path d="M233.304 64.6121C233.304 64.6121 226.12 73.9978 236.086 81.1824L238.517 75.396C238.517 75.396 237.319 73.5103 238.015 68.527L233.304 64.6121Z" fill="#FDAA95"/>
<path d="M252.944 50.5371C249.309 47.0954 243.953 49.06 231.455 64.4616C231.455 64.4616 236.395 69.6385 239.421 71.2088C239.421 71.2088 250.148 62.1815 252.034 60.0734C253.926 57.9582 257.361 54.7173 252.944 50.5371Z" fill="#407BFF"/>
<path d="M252.944 50.5371C249.309 47.0954 243.953 49.06 231.455 64.4616C231.455 64.4616 236.395 69.6385 239.421 71.2088C239.421 71.2088 250.148 62.1815 252.034 60.0734C253.926 57.9582 257.361 54.7173 252.944 50.5371Z" fill="#00B1E0"/>
<path d="M257.439 151.759L261.232 147.421L264.459 150.325L260.623 154.993L257.439 151.759Z" fill="#FDAA95"/>
<path d="M261.455 154.785L257.597 151.149C257.468 151.028 257.246 151.049 257.052 151.2L252.879 154.598C252.499 154.899 252.334 155.387 252.513 155.695C252.535 155.738 252.564 155.774 252.599 155.803C253.847 156.921 254.829 157.653 256.357 159.094C257.296 159.983 260.013 162.801 261.311 164.027C262.609 165.253 264.488 163.604 264.108 162.937C262.408 159.954 261.569 157.244 261.713 155.559C261.749 155.236 261.655 154.957 261.455 154.785Z" fill="#D1BCE3"/>
<path d="M242.526 101.302C242.526 101.302 253.568 114.144 276.347 120.92C276.347 120.92 265.915 128.069 262.072 144.23L259.648 147.636C259.648 147.636 261.469 150.253 264.488 151.443L266.897 148.188C266.897 148.188 282.578 134.242 289.605 118.131C289.505 110.136 252.406 86.7324 249.983 88.8619C247.552 90.9915 242.526 101.302 242.526 101.302Z" fill="#407BFF"/>
<path d="M242.526 101.302C242.526 101.302 253.568 114.144 276.347 120.92C276.347 120.92 265.915 128.069 262.072 144.23L259.648 147.636C259.648 147.636 261.469 150.253 264.488 151.443L266.897 148.188C266.897 148.188 282.578 134.242 289.605 118.131C289.505 110.136 252.406 86.7324 249.983 88.8619C247.552 90.9915 242.526 101.302 242.526 101.302Z" fill="#015EA5"/>
<path d="M197.253 167.347L200.178 161.933L203.77 164.256L201.454 168.738L197.253 167.347Z" fill="#FDAA95"/>
<path d="M201.756 168.401L197.389 166.45C197.232 166.379 197.024 166.472 196.887 166.68L193.589 171.054C193.331 171.462 193.338 171.979 193.603 172.208C193.639 172.237 193.682 172.265 193.725 172.28C195.267 172.925 196.443 173.291 198.357 174.151C199.54 174.682 203.025 176.446 204.66 177.17C206.295 177.901 207.521 175.721 206.94 175.22C204.352 172.961 202.667 170.681 202.251 169.039C202.179 168.731 202 168.501 201.756 168.401Z" fill="#D1BCE3"/>
<path d="M235.233 129.804C231.648 137.282 205.971 162.378 205.971 162.378L203.526 165.482C200.673 164.93 198.672 162.514 198.672 162.514L200.701 159.187C211.987 132.75 224.449 127.581 224.449 127.581C225.926 100.872 229.016 98.6204 232.336 87.9296C238.89 86.1801 249.975 88.8545 249.975 88.8545C249.975 88.8545 246.698 110.394 235.233 129.804Z" fill="#407BFF"/>
<path d="M235.233 129.804C231.648 137.282 205.971 162.378 205.971 162.378L203.526 165.482C200.673 164.93 198.672 162.514 198.672 162.514L200.701 159.187C211.987 132.75 224.449 127.581 224.449 127.581C225.926 100.872 229.016 98.6204 232.336 87.9296C238.89 86.1801 249.975 88.8545 249.975 88.8545C249.975 88.8545 246.698 110.394 235.233 129.804Z" fill="#015EA5"/>
<path d="M252.843 88.5535C252.843 88.5535 246.189 91.1921 232.337 87.9369C232.337 87.9369 242.927 54.5094 245.15 49.7484C247.05 45.6757 262 45.6758 266.137 51.6557C270.669 58.2092 258.587 84.4665 252.843 88.5535Z" fill="#407BFF"/>
<path d="M252.843 88.5535C252.843 88.5535 246.189 91.1921 232.337 87.9369C232.337 87.9369 242.927 54.5094 245.15 49.7484C247.05 45.6757 262 45.6758 266.137 51.6557C270.669 58.2092 258.587 84.4665 252.843 88.5535Z" fill="url(#paint4_linear_11160_39511)"/>
<path d="M250.513 68.6853C250.513 68.6853 257.769 88.7332 277.214 88.7475L278.419 85.2413C278.419 85.2413 266.524 85.5137 257.375 66.821L250.513 68.6853Z" fill="#FDAA95"/>
<path d="M246.16 47.5973C241.578 49.6193 241.313 55.3196 250.677 72.8006C250.677 72.8006 257.367 70.2552 259.977 68.0682C259.977 68.0682 255.811 54.6815 254.592 52.1289C253.38 49.5691 251.724 45.1451 246.16 47.5973Z" fill="#407BFF"/>
<path d="M246.16 47.5973C241.578 49.6193 241.313 55.3196 250.677 72.8006C250.677 72.8006 257.367 70.2552 259.977 68.0682C259.977 68.0682 255.811 54.6815 254.592 52.1289C253.38 49.5691 251.724 45.1451 246.16 47.5973Z" fill="#00BAEB"/>
<path d="M258.436 36.1895C258.185 39.4877 257.217 45.4318 254.449 46.9161C254.449 46.9161 256.127 50.5083 260.73 51.8922C264.717 53.0896 264.215 49.7483 264.215 49.7483C261.247 47.7406 261.727 45.2024 263.01 42.9366L258.436 36.1895Z" fill="#FDAA95"/>
<path d="M257.31 33.5727C258.034 36.7347 258.429 38.9575 259.597 40.6497C260.02 41.2591 260.544 41.7969 261.218 42.2916C265.075 45.088 270.095 42.2056 270.41 37.7099C270.424 37.5665 270.424 37.4231 270.424 37.2725C270.568 33.2142 268.861 27.2701 264.487 26.2949C261.254 25.5564 258.027 27.5784 257.289 30.8122C257.088 31.7156 257.088 32.6621 257.31 33.5727Z" fill="#FDAA95"/>
<path d="M259.662 26.7679C261.806 27.1264 260.651 32.0165 258.299 36.6556C255.897 35.3936 253.911 31.7153 254.679 30.2167C255.446 28.7325 257.79 26.4596 259.662 26.7679Z" fill="#003A75"/>
<path d="M255.819 37.3868C256.299 38.3906 257.152 39.1578 258.199 39.5307C259.59 40.0111 260.365 38.785 260.056 37.4298C259.777 36.2109 258.708 34.49 257.289 34.5976C255.862 34.7051 255.238 36.1535 255.819 37.3868Z" fill="#F2967F"/>
<path d="M268.782 25.3341C268.374 26.1443 267.793 27.2628 265.154 27.7432C262.516 28.2236 260.035 27.1768 259.239 27.9512C258.436 28.7184 257.654 31.1204 257.654 31.1204L254.707 30.5683C254.707 30.5683 253.682 28.4244 255.474 26.4024C259.181 22.2365 266.66 25.1907 267.893 20.064C267.893 20.0711 269.822 23.2906 268.782 25.3341Z" fill="#003A75"/>
<path d="M193.632 176.016H187.896V181.752H193.632V176.016Z" fill="#00BAEB"/>
<path d="M244.447 176.016H238.711V181.752H244.447V176.016Z" fill="#00BAEB"/>
<path d="M193.632 15.0012H187.896V20.7374H193.632V15.0012Z" fill="#00BAEB"/>
<path d="M193.632 95.5085H187.896V101.245H193.632V95.5085Z" fill="#00BAEB"/>
<path d="M244.447 15.0012H238.711V20.7374H244.447V15.0012Z" fill="#00BAEB"/>
<path d="M184.024 102.105C184.024 102.105 181.055 98.9 180.274 98.6132C179.492 98.3192 175.871 98.5486 175.871 98.5486C163.796 91.9162 166.055 83.5199 167.131 80.9243L168.629 81.1179L170.207 71.6389C174.179 64.0744 176.882 56.1656 174.602 52.8673C173.684 51.5409 172.049 50.3721 170.042 49.4113C170.042 49.3898 170.034 49.3755 170.034 49.3755C167.496 47.9773 167.425 46.1059 168.12 44.2846C168.199 44.0839 168.278 43.8903 168.371 43.6967C168.436 43.5604 168.5 43.4242 168.572 43.288C168.579 43.2736 168.586 43.2521 168.6 43.2378C171.21 44.1627 174.394 43.0585 175.878 40.341C175.95 40.2191 176.014 40.0829 176.072 39.9538C176.889 38.3262 177.52 36.2038 177.656 34.1101C177.685 34.1675 177.728 34.2177 177.793 34.232C177.821 34.2392 177.85 34.2392 177.886 34.232C178.001 34.2105 178.072 34.103 178.051 33.9882C178.008 33.7373 177.915 33.5078 177.785 33.2927C178.266 31.9017 178.345 30.5465 177.828 29.8725C177.649 29.6359 177.47 29.4638 177.284 29.3348C178.029 29.2989 178.56 29.0982 178.961 28.8472C180.632 28.1804 182.575 26.7607 181.959 24.1436L180.933 25.2047C181.041 24.1364 180.948 23.2616 180.948 23.2616C180.223 24.1866 179.377 24.6096 178.452 24.7459C179.141 24.0002 178.854 22.939 178.854 22.939C178.209 24.3873 175.534 24.459 175.455 24.459C172.817 23.8209 169.848 22.5948 167.016 23.8352C164.994 24.7243 164.65 26.4739 164.592 27.0833C163.768 27.8936 163.653 30.0303 164.184 31.9662C163.345 32.1598 162.735 32.9772 162.742 33.9595C162.757 35.0709 163.216 36.1249 164.012 36.8993C164.069 36.9567 164.133 37.0069 164.198 37.0571C163.832 40.4342 162.8 45.353 160.312 46.6866C160.312 46.6866 160.326 46.7153 160.348 46.7583C157.221 46.4142 154.339 46.5863 152.518 47.4037C152.518 47.4037 152.511 47.4037 152.511 47.3965C152.511 47.3965 146.839 47.0738 133.502 61.744C133.502 61.744 133.66 62.0882 133.947 62.6403C130.441 66.67 121.263 78.6298 121.521 92.9846C121.306 93.3789 119.535 96.0104 119.65 97.0572C119.764 98.1041 123.636 103.259 123.98 103.317C124.325 103.374 125.45 102.421 125.45 102.421C125.45 102.421 127.236 98.0467 127.164 97.1504C127.092 96.2542 125.214 92.8053 125.214 92.8053L125.221 92.5974C125.271 91.0773 126.06 81.039 137.998 68.2259C138.299 68.4912 138.615 68.7278 138.93 68.9142C138.93 68.9142 142.286 66.9424 145.771 64.777C142.128 75.4893 137.783 87.6499 137.783 87.6499C135.438 95.2002 140.615 102.535 149.162 112.237C150.883 116.001 152.962 120.052 155.501 124.29C155.501 124.29 141.927 124.662 128.153 133.962L124.059 134.83C124.059 134.83 124.002 135.238 124.002 135.891L120.202 136.307L120.18 136.027C120.166 135.855 119.987 135.719 119.743 135.697L114.365 135.375C113.885 135.339 113.433 135.59 113.354 135.934C113.347 135.977 113.34 136.027 113.347 136.07C113.505 137.734 113.741 138.938 113.892 141.039C113.985 142.33 114.078 146.238 114.207 148.023C114.336 149.808 116.832 149.859 117.011 149.113C117.778 145.764 118.99 143.205 120.238 142.057C120.474 141.842 120.589 141.577 120.567 141.319L120.531 140.81L124.755 140.215C124.848 140.444 124.941 140.681 125.056 140.91L129.035 140.143C129.035 140.143 142.902 140.58 154.683 135.045C150.431 141.9 145.541 151.759 144.717 161.897L143.354 165.547C143.354 165.547 143.62 165.762 144.071 166.049L142.824 170.523H142.544C142.372 170.523 142.221 170.695 142.178 170.932L140.945 176.266C140.873 176.747 141.088 177.213 141.433 177.313C141.476 177.328 141.526 177.335 141.569 177.335C143.239 177.299 144.458 177.148 146.559 177.148C147.857 177.148 151.758 177.342 153.543 177.342C155.328 177.342 155.565 174.854 154.834 174.624C151.55 173.621 149.083 172.222 148.029 170.896C147.836 170.645 147.585 170.516 147.326 170.516L148.101 167.504C148.287 167.519 148.481 167.533 148.674 167.533L150.489 164.02C150.489 164.02 170.952 134.521 173.06 126.498C174.2 122.146 168.916 111.362 163.839 102.399C161.975 94.8488 159.545 88.5964 158.146 88.5677C157.924 88.5606 157.652 88.5534 157.343 88.5462C157.974 88.3885 158.283 88.2594 158.283 88.2594C158.598 88.0371 158.942 87.7431 159.308 87.399C159.588 95.7092 170.35 99.9683 173.469 101.022C174.071 101.352 174.516 101.617 174.588 101.704C174.831 102.033 176.344 104.55 177.269 104.866C178.194 105.181 184.024 103.948 184.21 103.682C184.389 103.424 184.024 102.105 184.024 102.105Z" fill="white"/>
<g opacity="0.6">
<path d="M172.938 97.1143L175.871 98.5483C175.871 98.5483 179.492 98.3188 180.273 98.6128C181.055 98.9068 184.023 102.105 184.023 102.105C184.023 102.105 184.389 103.424 184.203 103.689C184.016 103.955 178.187 105.181 177.262 104.872C176.337 104.557 174.824 102.04 174.58 101.71C174.337 101.381 169.181 98.8279 169.181 98.8279L172.938 97.1143Z" fill="#FDAA95"/>
<path d="M125.271 89.2629L125.207 92.7978C125.207 92.7978 127.085 96.2467 127.157 97.1429C127.229 98.0392 125.443 102.413 125.443 102.413C125.443 102.413 124.318 103.374 123.974 103.309C123.629 103.252 119.757 98.0966 119.643 97.0497C119.528 96.0029 121.306 93.3714 121.514 92.9771C121.729 92.5827 122.812 86.6243 122.812 86.6243L125.271 89.2629Z" fill="#FDAA95"/>
<path d="M135.281 61.1772C135.281 61.1772 121.199 75.2523 121.514 92.977L125.207 92.7978C125.207 92.7978 124.999 81.4689 139.253 66.8991L135.281 61.1772Z" fill="#FDAA95"/>
<path d="M167.511 80.1282C167.511 80.1282 161.409 90.6039 175.871 98.5556L174.301 101.302C174.301 101.302 155.716 96.0317 159.889 83.5125C160.147 82.731 165.36 78.2998 165.36 78.2998L167.511 80.1282Z" fill="#FDAA95"/>
<path d="M119.635 136.371L125.371 135.747L125.78 140.071L119.793 140.91L119.635 136.371Z" fill="#FDAA95"/>
<path d="M162.177 80.3006L168.63 81.118L171.211 65.6304L162.177 80.3006Z" fill="#407BFF"/>
<path d="M162.177 80.3006L168.63 81.118L171.211 65.6304L162.177 80.3006Z" fill="#00B1E0"/>
<path d="M120.554 141.318L120.174 136.027C120.159 135.855 119.98 135.718 119.736 135.697L114.359 135.374C113.878 135.338 113.426 135.589 113.348 135.934C113.34 135.977 113.333 136.027 113.34 136.07C113.498 137.733 113.735 138.938 113.885 141.039C113.979 142.329 114.072 146.237 114.201 148.022C114.33 149.808 116.825 149.858 117.004 149.112C117.772 145.764 118.983 143.204 120.231 142.057C120.46 141.842 120.582 141.584 120.554 141.318Z" fill="#D1BCE3"/>
<path d="M142.688 170.931L144.337 165.002L148.359 166.472L147.097 171.355L142.688 170.931Z" fill="#FDAA95"/>
<path d="M141.419 87.8293C141.419 87.8293 143.297 103.891 155.487 124.29C155.487 124.29 141.906 124.663 128.14 133.962L124.045 134.83C124.045 134.83 123.615 137.992 125.035 140.903L129.014 140.136C129.014 140.136 153.07 140.91 164.729 127.76C170.064 121.809 161.359 88.6396 158.132 88.5679C154.913 88.5033 141.419 87.8293 141.419 87.8293Z" fill="#407BFF"/>
<path d="M141.419 87.8293C141.419 87.8293 143.297 103.891 155.487 124.29C155.487 124.29 141.906 124.663 128.14 133.962L124.045 134.83C124.045 134.83 123.615 137.992 125.035 140.903L129.014 140.136C129.014 140.136 153.07 140.91 164.729 127.76C170.064 121.809 161.359 88.6396 158.132 88.5679C154.913 88.5033 141.419 87.8293 141.419 87.8293Z" fill="#015EA5"/>
<path d="M137.769 87.6495C134.449 98.3403 146.201 108.601 161.266 125.759C161.266 125.759 146.208 143.369 144.703 161.897L143.34 165.546C143.34 165.546 145.764 167.547 148.668 167.547L150.482 164.034C150.482 164.034 170.946 134.535 173.054 126.512C175.162 118.489 155.415 88.5817 155.415 88.5817C155.415 88.5817 144.323 85.8928 137.769 87.6495Z" fill="#407BFF"/>
<path d="M137.769 87.6495C134.449 98.3403 146.201 108.601 161.266 125.759C161.266 125.759 146.208 143.369 144.703 161.897L143.34 165.546C143.34 165.546 145.764 167.547 148.668 167.547L150.482 164.034C150.482 164.034 170.946 134.535 173.054 126.512C175.162 118.489 155.415 88.5817 155.415 88.5817C155.415 88.5817 144.323 85.8928 137.769 87.6495Z" fill="#015EA5"/>
<path d="M158.276 88.2665C158.276 88.2665 151.622 90.9052 137.769 87.6499C137.769 87.6499 149.571 54.6168 150.582 49.4614C151.636 44.0695 170.465 46.8802 174.602 52.8673C179.134 59.4208 164.012 84.1795 158.276 88.2665Z" fill="#407BFF"/>
<path d="M158.276 88.2665C158.276 88.2665 151.622 90.9052 137.769 87.6499C137.769 87.6499 149.571 54.6168 150.582 49.4614C151.636 44.0695 170.465 46.8802 174.602 52.8673C179.134 59.4208 164.012 84.1795 158.276 88.2665Z" fill="url(#paint5_linear_11160_39511)"/>
<path d="M152.511 47.3966C152.511 47.3966 146.839 47.0739 133.503 61.7441C133.503 61.7441 135.984 67.172 138.923 68.9071C138.923 68.9071 151.199 61.7011 153.199 59.7006C155.193 57.7001 158.763 50.1643 152.511 47.3966Z" fill="#407BFF"/>
<path d="M152.511 47.3966C152.511 47.3966 146.839 47.0739 133.503 61.7441C133.503 61.7441 135.984 67.172 138.923 68.9071C138.923 68.9071 151.199 61.7011 153.199 59.7006C155.193 57.7001 158.763 50.1643 152.511 47.3966Z" fill="#00BAEB"/>
<path d="M147.298 170.523H142.515C142.343 170.523 142.193 170.695 142.15 170.931L140.916 176.266C140.845 176.746 141.06 177.213 141.404 177.313C141.447 177.327 141.497 177.334 141.54 177.334C143.211 177.299 144.43 177.148 146.531 177.148C147.828 177.148 151.729 177.342 153.514 177.342C155.3 177.342 155.536 174.854 154.805 174.624C151.521 173.62 149.055 172.222 148 170.896C147.821 170.652 147.563 170.516 147.298 170.523Z" fill="#D1BCE3"/>
<path d="M164.299 36.0027C164.048 39.301 163.08 45.202 160.312 46.6863C160.312 46.6863 161.99 50.3216 166.593 51.7054C170.58 52.9028 170.042 49.3751 170.042 49.3751C166.78 47.5754 167.59 45.0084 168.866 42.7427L164.299 36.0027Z" fill="#FDAA95"/>
<path d="M166.163 38.749L168.866 42.7428C168.558 43.2662 168.3 43.8183 168.092 44.3848C166.808 43.8255 165.388 41.8537 165.632 40.4197C165.697 39.8389 165.876 39.2724 166.163 38.749Z" fill="#F2967F"/>
<path d="M174.029 29.7577C171.985 30.5034 172.272 32.7119 175.427 36.8562C177.556 35.1784 178.847 31.2061 177.829 29.8725C176.811 28.5316 175.814 29.1196 174.029 29.7577Z" fill="#003A75"/>
<path d="M165.697 31.1125C165.038 34.2889 164.464 36.4686 164.823 38.4978C164.952 39.2291 165.203 39.939 165.611 40.6632C167.949 44.8147 173.714 44.2913 175.879 40.3333C175.951 40.2114 176.015 40.0752 176.073 39.9461C177.894 36.318 178.826 30.209 175.255 27.4915C172.624 25.4695 168.852 25.9571 166.83 28.5886C166.264 29.3343 165.877 30.1947 165.697 31.1125Z" fill="#FDAA95"/>
<path d="M171.72 33.9949C171.627 34.3391 171.734 34.6689 171.964 34.7335C172.186 34.7908 172.444 34.5685 172.537 34.2172C172.63 33.873 172.53 33.5432 172.301 33.4787C172.078 33.4141 171.835 33.6651 171.72 33.9949Z" fill="#003A75"/>
<path d="M175.642 35.0706C175.549 35.4147 175.656 35.7446 175.886 35.8091C176.108 35.8665 176.373 35.6442 176.466 35.2929C176.56 34.9415 176.452 34.6189 176.223 34.5543C176 34.4898 175.735 34.7264 175.642 35.0706Z" fill="#003A75"/>
<path d="M174.323 34.884C174.445 36.0528 174.732 37.2 175.169 38.2899C174.387 38.6914 173.434 38.1465 173.434 38.1465L174.323 34.884Z" fill="#F2967F"/>
<path d="M170.982 32.4678C170.939 32.4606 170.896 32.4391 170.86 32.4033C170.788 32.3101 170.802 32.181 170.896 32.1093C171.419 31.6791 172.122 31.5357 172.774 31.7221C172.882 31.758 172.939 31.8655 172.91 31.9731C172.91 31.9802 172.91 31.9802 172.903 31.9874C172.86 32.095 172.746 32.1523 172.638 32.1165C172.122 31.9802 171.57 32.1021 171.161 32.4391C171.104 32.475 171.039 32.4822 170.982 32.4678Z" fill="#003A75"/>
<path d="M177.793 34.2313C177.715 34.2098 177.657 34.1453 177.643 34.0664C177.557 33.5358 177.227 33.0841 176.747 32.8403C176.639 32.7973 176.589 32.6754 176.632 32.5678C176.675 32.4603 176.797 32.4101 176.904 32.4531C177.514 32.7543 177.944 33.3279 178.052 33.9947C178.073 34.1094 178.001 34.217 177.887 34.2385C177.851 34.2385 177.822 34.2385 177.793 34.2313Z" fill="#003A75"/>
<path d="M170.673 25.9139C172.473 27.1328 169.383 31.0979 165.31 34.3317C163.654 32.1806 163.381 28.0076 164.701 26.9679C166.02 25.9354 169.103 24.8527 170.673 25.9139Z" fill="#003A75"/>
<path d="M162.75 33.9596C162.765 35.0709 163.224 36.125 164.02 36.8994C165.081 37.9103 166.3 37.1288 166.579 35.7665C166.83 34.5404 166.586 32.5327 165.246 32.038C163.905 31.5432 162.736 32.5972 162.75 33.9596Z" fill="#F2967F"/>
<path d="M170.05 38.0391C170.05 38.0391 170.437 39.6237 172.516 40.0826" stroke="#003A75" stroke-width="0.377367" stroke-miterlimit="10" stroke-linecap="round" stroke-linejoin="round"/>
<path d="M179.557 28.4169C178.847 28.9762 177.858 29.7578 175.255 29.0909C172.652 28.4313 170.838 26.4451 169.792 26.8108C168.745 27.1765 167.031 29.0264 167.031 29.0264L164.586 27.2984C164.586 27.2984 164.55 24.9179 167.024 23.8352C172.129 21.5909 177.693 27.3988 180.948 23.2544C180.948 23.2616 181.357 26.9901 179.557 28.4169Z" fill="#003A75"/>
<path d="M175.455 24.459C175.455 24.459 178.209 24.4089 178.861 22.939C178.861 22.939 179.284 24.4949 177.886 25.1617C176.481 25.8285 175.455 24.459 175.455 24.459Z" fill="#003A75"/>
<path d="M176.954 29.3486C177.865 29.3486 182.891 28.144 181.959 24.1431" stroke="#003A75" stroke-width="0.179255" stroke-miterlimit="10"/>
</g>
<path d="M122.389 63.8307C122.217 63.5582 120.861 63.379 120.861 63.379C120.861 63.379 116.76 64.8775 116.187 65.4798C115.613 66.0893 114.423 69.5166 114.423 69.5166L113.046 70.7212C106.93 75.683 101.932 74.5716 98.3758 72.313L98.7199 71.3307C92.697 66.0965 91.5928 59.2776 91.5928 59.2776L91.5856 59.292C91.478 58.6968 91.2844 58.1591 90.969 57.7002C89.8289 56.051 87.4269 54.5166 84.5229 53.2762C84.5158 53.2045 84.5086 53.1543 84.5086 53.1543C81.9704 51.7561 81.8987 49.8847 82.5942 48.0634C82.673 47.8627 82.7519 47.6691 82.8451 47.4683C82.9097 47.3321 82.9742 47.1958 83.0459 47.0596C83.0889 46.9807 83.1248 46.9019 83.1678 46.823C85.9498 47.4611 89.0617 45.8694 90.1229 42.8579C90.1731 42.7216 90.2161 42.5854 90.2519 42.442C90.7969 40.7068 91.0837 38.5056 90.8829 36.419C90.9188 36.4692 90.969 36.5123 91.0335 36.5194C91.0622 36.5194 91.098 36.5194 91.1267 36.5051C91.2343 36.4621 91.2916 36.3473 91.2486 36.2398C91.1697 35.996 91.0335 35.7881 90.8757 35.5945C91.1267 34.1461 90.9833 32.7981 90.3667 32.2101C90.1516 32.0094 89.9508 31.866 89.7572 31.7728C90.4885 31.615 90.9618 31.3282 91.3275 31.0127C92.8691 30.0878 94.554 28.3741 93.5287 25.8932L92.6898 27.105C92.6253 26.0366 92.3886 25.1833 92.3886 25.1833C91.8222 26.2087 91.055 26.768 90.1659 27.0476C90.7252 26.2015 90.2734 25.1977 90.2734 25.1977C89.8719 26.7321 87.2405 27.234 87.1616 27.2484C84.4513 27.0404 81.325 26.3019 78.7294 27.9797C76.8795 29.1772 76.815 30.9625 76.858 31.572C76.1768 32.5041 76.4063 34.6337 77.238 36.4621C76.4421 36.7919 75.9689 37.6882 76.1338 38.6561C76.3274 39.746 76.9441 40.7212 77.8547 41.3593C78.0985 41.5242 78.3351 41.6174 78.5574 41.6533C78.12 44.9587 77.0588 49.225 74.7643 50.4583C74.7643 50.4583 74.7787 50.4941 74.8073 50.5371C71.7313 50.0783 68.935 50.0783 67.1137 50.7021C67.0635 50.659 67.0133 50.616 66.956 50.573C66.956 50.573 61.5425 48.8665 45.0009 59.8082C45.0009 59.8082 45.0726 60.1811 45.2088 60.7834C40.8206 63.8307 28.9826 73.1663 25.6987 87.141C25.3976 87.4708 23.0314 89.586 22.8808 90.6257C22.7374 91.6725 25.2183 97.6166 25.541 97.76C25.8636 97.9034 27.1901 97.251 27.1901 97.251C27.1901 97.251 29.9936 93.4507 30.1442 92.5616C30.2948 91.6725 29.3196 87.8723 29.3196 87.8723L29.377 87.6716C29.8 86.2089 33.0266 76.6797 47.7542 67.1935C47.9837 67.5233 48.2274 67.8245 48.4856 68.0898C48.4856 68.0898 56.7313 65.6949 61.5497 63.9526C58.1008 74.2777 53.2537 87.901 52.3575 90.4249C51.074 92.4182 50.6295 95.9388 51.7839 101.797C50.9593 109.577 49.5611 118.762 45.2518 125.946C45.2518 125.946 36.411 119.98 19.8048 119.4L15.9831 117.693C15.9831 117.693 15.6963 117.994 15.3091 118.518L11.9965 116.618L12.147 116.381C12.2402 116.23 12.1757 116.015 11.9893 115.858L7.83058 112.437C7.4649 112.122 6.94864 112.057 6.68335 112.294C6.6475 112.323 6.61882 112.359 6.5973 112.402C5.74405 113.843 5.22063 114.954 4.10925 116.74C3.42808 117.837 1.19815 121.049 0.251683 122.569C-0.694782 124.089 1.29136 125.595 1.87215 125.1C4.46059 122.849 6.94864 121.486 8.63364 121.3C8.94913 121.271 9.20008 121.121 9.33632 120.891L9.60879 120.454L13.3731 122.461C13.3086 122.698 13.2512 122.949 13.2082 123.2L16.8794 124.921C16.8794 124.921 35.8732 139.706 53.0386 135.941C56.3656 135.231 60.6821 127.351 64.3389 118.403C68.5693 121.959 74.1477 126.025 81.5115 130.635C81.5115 130.635 80.0057 144.044 97.6946 166.701L99.6234 170.086C99.6234 170.086 100.054 170.007 100.685 169.792L102.699 172.932L102.456 173.112C102.319 173.219 102.298 173.441 102.413 173.657L104.643 178.661C104.872 179.084 105.331 179.328 105.661 179.206C105.704 179.192 105.747 179.17 105.783 179.142C107.095 178.102 107.984 177.256 109.662 175.987C110.694 175.205 113.928 173.011 115.355 171.928C116.782 170.853 115.469 168.731 114.752 168.989C111.526 170.165 108.715 170.537 107.073 170.107C106.765 170.021 106.478 170.071 106.27 170.236L106.177 170.308L104.327 167.548C104.406 167.461 104.485 167.375 104.564 167.289L103.029 163.647C103.029 163.647 93.4785 129.036 88.6602 122.282C82.0277 111.025 75.5172 102.37 71.2079 97.0789C71.7385 94.5765 71.9679 92.6907 71.7887 91.7657C72.4053 91.608 72.7136 91.4861 72.7136 91.4861C75.1945 88.195 81.9273 80.1787 86.6597 72.5783C89.5708 77.705 95.1277 81.5196 95.1277 81.5196L95.6081 80.15C106.478 85.1763 114.401 74.8584 116.007 72.5281C116.409 72.2126 116.71 71.9975 116.803 71.9688C117.205 71.8685 120.109 71.4526 120.754 70.7212C121.435 69.954 122.561 64.1032 122.389 63.8307Z" fill="white"/>
<path d="M11.5381 116.323L16.5429 119.192L14.3273 122.927L8.99268 120.088L11.5381 116.323Z" fill="#FDAA95"/>
<path d="M52.8594 91.8592C51.6691 100.177 51.6691 115.263 45.2733 125.932C45.2733 125.932 36.4325 119.966 19.8263 119.386L16.0046 117.679C16.0046 117.679 13.7962 119.981 13.2297 123.171L16.9009 124.892C16.9009 124.892 35.8947 139.677 53.0601 135.913C60.8757 134.242 74.1118 93.1211 71.5449 91.1637C68.978 89.2062 57.5272 90.1885 52.8594 91.8592Z" fill="#407BFF"/>
<path d="M52.8594 91.8592C51.6691 100.177 51.6691 115.263 45.2733 125.932C45.2733 125.932 36.4325 119.966 19.8263 119.386L16.0046 117.679C16.0046 117.679 13.7962 119.981 13.2297 123.171L16.9009 124.892C16.9009 124.892 35.8947 139.677 53.0601 135.913C60.8757 134.242 74.1118 93.1211 71.5449 91.1637C68.978 89.2062 57.5272 90.1885 52.8594 91.8592Z" fill="#015EA5"/>
<path d="M103.187 173.635L99.8604 168.451L103.632 166.436L106.435 170.624L103.187 173.635Z" fill="#FDAA95"/>
<path d="M106.292 170.2L102.477 173.083C102.341 173.19 102.32 173.413 102.434 173.628L104.664 178.633C104.894 179.056 105.353 179.299 105.682 179.178C105.725 179.163 105.768 179.142 105.804 179.113C107.116 178.073 108.005 177.227 109.683 175.958C110.716 175.177 113.95 172.983 115.376 171.9C116.803 170.824 115.491 168.702 114.767 168.96C111.54 170.136 108.73 170.509 107.095 170.079C106.779 169.985 106.493 170.036 106.292 170.2Z" fill="#D1BCE3"/>
<path d="M88.6825 122.239C93.5009 128.994 103.052 163.604 103.052 163.604L104.586 167.247C102.729 169.477 99.6386 170.057 99.6386 170.057L97.7098 166.673C80.0281 144.015 81.5267 130.607 81.5267 130.607C58.8617 116.403 52.9821 107.376 51.9496 102.521C47.0022 79.2685 66.1323 91.128 66.1323 91.128C66.1323 91.128 77.2389 102.815 88.6825 122.239Z" fill="#407BFF"/>
<path d="M88.6825 122.239C93.5009 128.994 103.052 163.604 103.052 163.604L104.586 167.247C102.729 169.477 99.6386 170.057 99.6386 170.057L97.7098 166.673C80.0281 144.015 81.5267 130.607 81.5267 130.607C58.8617 116.403 52.9821 107.376 51.9496 102.521C47.0022 79.2685 66.1323 91.128 66.1323 91.128C66.1323 91.128 77.2389 102.815 88.6825 122.239Z" fill="#015EA5"/>
<path d="M111.957 71.6681L114.416 69.5171C114.416 69.5171 115.606 66.0897 116.18 65.4803C116.754 64.8708 120.855 63.3794 120.855 63.3794C120.855 63.3794 122.21 63.5515 122.382 63.8311C122.554 64.1108 121.429 69.9545 120.783 70.6858C120.138 71.4172 117.227 71.8331 116.833 71.9334C116.431 72.0338 112.079 75.791 112.079 75.791L111.957 71.6681Z" fill="#FDAA95"/>
<path d="M114.416 69.5168C106.808 76.6584 100.793 74.3352 96.9853 71.3309C96.383 73.568 94.7841 77.232 94.4829 79.5264C107.31 86.6249 116.345 72.0264 116.345 72.0264L114.416 69.5168Z" fill="#FDAA95"/>
<path d="M91.5862 59.2776C91.5862 59.2776 92.6976 66.0964 98.7134 71.3307L95.1498 81.4765C95.1498 81.4765 87.9725 76.5578 85.6565 70.3771L91.5862 59.2776Z" fill="#407BFF"/>
<path d="M91.5862 59.2776C91.5862 59.2776 92.6976 66.0964 98.7134 71.3307L95.1498 81.4765C95.1498 81.4765 87.9725 76.5578 85.6565 70.3771L91.5862 59.2776Z" fill="#00B1E0"/>
<path d="M72.7355 91.4434C72.7355 91.4434 66.0816 94.082 52.2288 90.8268C52.2288 90.8268 64.0309 57.7937 65.0419 52.6383C66.0959 47.2463 86.8249 51.7134 90.955 57.7005C95.4937 64.2469 77.2169 85.5065 72.7355 91.4434Z" fill="#407BFF"/>
<path d="M72.7355 91.4434C72.7355 91.4434 66.0816 94.082 52.2288 90.8268C52.2288 90.8268 64.0309 57.7937 65.0419 52.6383C66.0959 47.2463 86.8249 51.7134 90.955 57.7005C95.4937 64.2469 77.2169 85.5065 72.7355 91.4434Z" fill="url(#paint6_linear_11160_39511)"/>
<path d="M30.2737 84.4589L29.3415 87.8648C29.3415 87.8648 30.3167 91.665 30.1661 92.5541C30.0155 93.4432 27.212 97.2434 27.212 97.2434C27.212 97.2434 25.8855 97.8959 25.5628 97.7525C25.2402 97.6091 22.7593 91.665 22.9027 90.6181C23.0461 89.5713 25.4194 87.4561 25.7206 87.1334C26.0217 86.8036 28.5385 81.2969 28.5385 81.2969L30.2737 84.4589Z" fill="#FDAA95"/>
<path d="M46.8792 59.6931C46.8792 59.6931 29.764 69.8748 25.72 87.1334L29.3409 87.8648C29.3409 87.8648 31.9222 76.8299 49.3242 66.218L46.8792 59.6931Z" fill="#FDAA95"/>
<path d="M66.9708 50.573C66.9708 50.573 61.5573 48.8665 45.0156 59.8082C45.0156 59.8082 46.084 65.6806 48.5075 68.0826C48.5075 68.0826 62.1739 64.1175 64.6046 62.6692C67.0353 61.2208 72.3484 54.7891 66.9708 50.573Z" fill="#407BFF"/>
<path d="M66.9708 50.573C66.9708 50.573 61.5573 48.8665 45.0156 59.8082C45.0156 59.8082 46.084 65.6806 48.5075 68.0826C48.5075 68.0826 62.1739 64.1175 64.6046 62.6692C67.0353 61.2208 72.3484 54.7891 66.9708 50.573Z" fill="#00BAEB"/>
<path d="M78.7662 39.7749C78.5152 43.0732 77.5472 48.9743 74.7795 50.4585C74.7795 50.4585 76.4574 54.0938 81.0606 55.4776C85.0473 56.675 84.5095 53.1473 84.5095 53.1473C81.247 51.3476 82.0573 48.7807 83.3336 46.5149L78.7662 39.7749Z" fill="#FDAA95"/>
<path opacity="0.2" d="M80.6228 42.5215L83.326 46.5153C83.0177 47.0387 82.7596 47.5908 82.5516 48.1573C81.2682 47.598 79.8485 45.6262 80.0922 44.1921C80.1639 43.6114 80.3432 43.0449 80.6228 42.5215Z" fill="black"/>
<path d="M86.6029 32.7196C84.7028 33.7808 85.341 35.9175 89.1125 39.5026C90.948 37.5093 91.5862 33.3792 90.3673 32.2248C89.1483 31.0561 88.2592 31.8018 86.6029 32.7196Z" fill="#003A75"/>
<path d="M78.5938 35.3871C78.4504 38.628 78.2353 40.8723 78.9165 42.8154C79.1603 43.5109 79.5188 44.1777 80.0422 44.8302C83.0107 48.5587 88.6249 47.1175 90.1235 42.8584C90.1737 42.7222 90.2167 42.586 90.2525 42.4425C91.4715 38.5706 91.4141 32.3899 87.4562 30.2819C84.5379 28.7045 80.8883 29.7943 79.3108 32.7198C78.8734 33.5372 78.6225 34.455 78.5938 35.3871Z" fill="#FDAA95"/>
<path d="M84.997 37.2659C84.9612 37.6244 85.1189 37.9327 85.3555 37.9542C85.585 37.9757 85.8001 37.7104 85.8431 37.3591C85.8789 37.0006 85.7284 36.6994 85.4918 36.6707C85.2623 36.642 85.0615 36.9217 84.997 37.2659Z" fill="#003A75"/>
<path d="M89.0476 37.696C89.0117 38.0545 89.1694 38.3628 89.4061 38.3844C89.6355 38.4059 89.8578 38.1406 89.9008 37.7821C89.9367 37.4236 89.7789 37.1152 89.5423 37.0937C89.3057 37.0722 89.0834 37.3447 89.0476 37.696Z" fill="#003A75"/>
<path d="M87.7068 37.7246C88.0151 38.8575 88.4812 39.9402 89.0907 40.9512C88.388 41.4746 87.3555 41.0874 87.3555 41.0874L87.7068 37.7246Z" fill="#F2967F"/>
<path d="M84.0287 35.8746C83.9785 35.8746 83.9355 35.8603 83.8996 35.8316C83.8136 35.7527 83.8064 35.6237 83.8853 35.5305C84.337 35.0214 85.0038 34.7704 85.6778 34.8421C85.7854 34.8565 85.8642 34.9568 85.8499 35.0716C85.8499 35.0787 85.8499 35.0787 85.8499 35.0859C85.8284 35.2006 85.7208 35.2723 85.6061 35.258C85.0755 35.2078 84.5521 35.4086 84.1936 35.8101C84.1506 35.8603 84.0932 35.8818 84.0287 35.8746Z" fill="#003A75"/>
<path d="M91.0338 36.527C90.9549 36.5199 90.8832 36.4625 90.8546 36.3908C90.6897 35.8817 90.2881 35.4873 89.779 35.3224C89.6643 35.2938 89.5998 35.179 89.6213 35.0715C89.65 34.9639 89.7575 34.8922 89.8723 34.9137C90.5247 35.1145 91.0338 35.6092 91.2489 36.2546C91.292 36.3621 91.2346 36.484 91.127 36.5199C91.0912 36.5199 91.0625 36.527 91.0338 36.527Z" fill="#003A75"/>
<path d="M82.6737 29.4576C84.6455 30.3754 82.2291 34.785 78.7229 38.6283C76.7439 36.7712 75.8118 32.6985 76.9447 31.4581C78.0848 30.2248 80.9528 28.6617 82.6737 29.4576Z" fill="#003A75"/>
<path d="M76.1414 38.664C76.335 39.7539 76.9517 40.729 77.8623 41.3672C79.0741 42.1989 80.1496 41.231 80.2141 39.8399C80.2715 38.5852 79.705 36.6492 78.2997 36.3696C76.8943 36.0971 75.912 37.3232 76.1414 38.664Z" fill="#F2967F"/>
<path d="M84.0002 41.5251C84.0002 41.5251 84.6384 43.0309 86.7608 43.1456" stroke="#003A75" stroke-width="0.377367" stroke-miterlimit="10" stroke-linecap="round" stroke-linejoin="round"/>
<path d="M91.8441 30.504C91.2346 31.1709 90.3814 32.0958 87.7069 31.8592C85.0324 31.6226 82.9244 29.9519 81.9492 30.4825C80.9741 31.0131 79.5831 33.114 79.5831 33.114L76.8942 31.7947C76.8942 31.7947 76.4784 29.45 78.7442 27.9873C83.4263 24.9543 89.8436 29.8014 92.4034 25.1909C92.3962 25.1909 93.3929 28.8119 91.8441 30.504Z" fill="#003A75"/>
<path d="M87.1621 27.2558C87.1621 27.2558 89.8724 26.761 90.2811 25.2051C90.2811 25.2051 90.948 26.675 89.6717 27.5569C88.3954 28.4388 87.1621 27.2558 87.1621 27.2558Z" fill="#003A75"/>
<path d="M89.428 31.8376C90.3314 31.6942 95.0996 29.7008 93.5293 25.9006" stroke="#003A75" stroke-width="0.179255" stroke-miterlimit="10"/>
<path d="M222.199 56.3632L208.856 50.1538L209.343 64.867L212.197 61.1529L215.567 66.2509L221.038 62.6371L217.668 57.5391L222.199 56.3632Z" fill="white" stroke="#D2DBE2" stroke-width="0.717019" stroke-miterlimit="10" stroke-linecap="round" stroke-linejoin="round"/>
<defs>
<linearGradient id="paint0_linear_11160_39511" x1="68.1783" y1="0" x2="68.1783" y2="16.4446" gradientUnits="userSpaceOnUse">
<stop stop-color="#EDF1F4"/>
<stop offset="1" stop-color="#EDF1F4" stop-opacity="0"/>
</linearGradient>
<linearGradient id="paint1_linear_11160_39511" x1="152.288" y1="7.55615" x2="152.288" y2="16.703" gradientUnits="userSpaceOnUse">
<stop stop-color="#EDF1F4"/>
<stop offset="1" stop-color="#EDF1F4" stop-opacity="0"/>
</linearGradient>
<linearGradient id="paint2_linear_11160_39511" x1="131.196" y1="29.0127" x2="131.196" y2="35.7253" gradientUnits="userSpaceOnUse">
<stop stop-color="#EDF1F4"/>
<stop offset="1" stop-color="#EDF1F4" stop-opacity="0"/>
</linearGradient>
<linearGradient id="paint3_linear_11160_39511" x1="229.477" y1="9.32007" x2="229.477" y2="17.4629" gradientUnits="userSpaceOnUse">
<stop stop-color="#EDF1F4"/>
<stop offset="1" stop-color="#EDF1F4" stop-opacity="0"/>
</linearGradient>
<linearGradient id="paint4_linear_11160_39511" x1="249.735" y1="46.8982" x2="249.735" y2="89.5628" gradientUnits="userSpaceOnUse">
<stop stop-color="#00BAEB"/>
<stop offset="1" stop-color="white"/>
</linearGradient>
<linearGradient id="paint5_linear_11160_39511" x1="156.603" y1="46.5906" x2="156.603" y2="89.2759" gradientUnits="userSpaceOnUse">
<stop stop-color="#00BAEB"/>
<stop offset="1" stop-color="white"/>
</linearGradient>
<linearGradient id="paint6_linear_11160_39511" x1="71.951" y1="50.217" x2="71.951" y2="92.4527" gradientUnits="userSpaceOnUse">
<stop stop-color="#00BAEB"/>
<stop offset="1" stop-color="white"/>
</linearGradient>
</defs>
</svg>
