<svg width="630" height="657" viewBox="0 0 630 657" fill="none" xmlns="http://www.w3.org/2000/svg">
<g opacity="0.3">
<path d="M121.636 229.898L110.661 236.259L99.6377 229.898L110.661 223.529L121.636 229.898Z" fill="url(#paint0_linear_10900_9821)"/>
<path d="M121.635 229.898V444.836L110.66 451.197V236.259L121.635 229.898Z" fill="url(#paint1_linear_10900_9821)"/>
<path d="M110.661 236.259V451.197L99.6377 444.836V229.898L110.661 236.259Z" fill="url(#paint2_linear_10900_9821)"/>
<path d="M103.695 273.785L96.3545 278.046L88.9819 273.785L96.3545 269.531L103.695 273.785Z" fill="url(#paint3_linear_10900_9821)"/>
<path d="M103.695 273.785V417.566L96.3547 421.82V278.046L103.695 273.785Z" fill="url(#paint4_linear_10900_9821)"/>
<path d="M96.3545 278.046V421.82L88.9819 417.566V273.785L96.3545 278.046Z" fill="url(#paint5_linear_10900_9821)"/>
<path d="M143.586 266.985L136.7 270.975L129.775 266.985L136.7 262.986L143.586 266.985Z" fill="url(#paint6_linear_10900_9821)"/>
<path d="M143.586 266.985V401.932L136.7 405.93V270.975L143.586 266.985Z" fill="url(#paint7_linear_10900_9821)"/>
<path d="M136.7 270.975V405.93L129.775 401.932V266.985L136.7 270.975Z" fill="url(#paint8_linear_10900_9821)"/>
<path d="M435.022 308.669L291.269 392.044L146.9 308.669L291.269 225.293L435.022 308.669Z" fill="url(#paint9_linear_10900_9821)"/>
<path d="M435.022 308.668V517.414L291.269 600.789V392.044L435.022 308.668Z" fill="url(#paint10_linear_10900_9821)"/>
<path d="M291.269 392.044V600.789L146.9 517.422V308.668L291.269 392.044Z" fill="url(#paint11_linear_10900_9821)"/>
<path opacity="0.1" d="M291.269 407.822L435.022 324.446V323.026L291.269 406.401V407.822Z" fill="white"/>
<path opacity="0.1" d="M146.9 324.454L291.269 407.822V406.401L146.9 323.026V324.454Z" fill="white"/>
<path d="M273.456 450.902V421.086L216.992 388.484V418.301L273.456 450.902Z" fill="#003D7C"/>
<path d="M217.136 388.564L216.992 388.644V418.3L242.808 403.392L217.136 388.564Z" fill="#004184"/>
<path d="M273.456 495.315V465.499L216.992 432.889V462.705L273.456 495.315Z" fill="#003D7C"/>
<path d="M217.136 432.969L216.992 433.049V462.705L242.808 447.797L217.136 432.969Z" fill="#004184"/>
<path d="M273.456 539.72V509.903L216.992 477.294V507.11L273.456 539.72Z" fill="#003D7C"/>
<path d="M217.136 477.374L216.992 477.454V507.11L242.808 492.202L217.136 477.374Z" fill="#004184"/>
<path d="M80.1398 312.515L40.1618 335.707L0 312.515L40.1618 289.323L80.1398 312.515Z" fill="url(#paint12_linear_10900_9821)"/>
<path d="M80.1399 312.515V523.367L40.1619 546.559V335.707L80.1399 312.515Z" fill="url(#paint13_linear_10900_9821)"/>
<path d="M40.1618 335.707V546.559L0 523.367V312.515L40.1618 335.707Z" fill="url(#paint14_linear_10900_9821)"/>
<path opacity="0.1" d="M40.1619 340.663L80.1399 317.471V316.505L40.1619 339.697V340.663Z" fill="white"/>
<path opacity="0.1" d="M0 317.471L40.1618 340.663V339.697L0 316.505V317.471Z" fill="white"/>
<path d="M13.6111 467.366L24.8497 473.854V460.878L13.6111 467.366Z" fill="#003D7C"/>
<path d="M630 272.954L542.687 323.6L454.991 272.954L542.687 222.316L630 272.954Z" fill="url(#paint15_linear_10900_9821)"/>
<path d="M630 272.955V510.191L542.687 560.829V323.601L630 272.955Z" fill="url(#paint16_linear_10900_9821)"/>
<path d="M542.687 323.601V560.829L454.991 510.191V272.955L542.687 323.601Z" fill="url(#paint17_linear_10900_9821)"/>
<path opacity="0.1" d="M542.687 333.624L630 282.986V281.677L542.687 332.323V333.624Z" fill="white"/>
<path opacity="0.1" d="M454.991 282.986L542.687 333.624V332.323L454.991 281.677V282.986Z" fill="white"/>
<path d="M474.106 432.083L485.344 438.571V425.586L474.106 432.083Z" fill="url(#paint18_linear_10900_9821)"/>
<path d="M493.388 443.081L504.626 449.569V436.592L493.388 443.081Z" fill="url(#paint19_linear_10900_9821)"/>
<path d="M506.272 416.345L418.951 466.983L331.263 416.345L418.951 365.699L506.272 416.345Z" fill="url(#paint20_linear_10900_9821)"/>
<path d="M506.272 416.345V541.587L418.951 592.225V466.983L506.272 416.345Z" fill="url(#paint21_linear_10900_9821)"/>
<path d="M418.951 466.983V592.225L331.263 541.587V416.345L418.951 466.983Z" fill="url(#paint22_linear_10900_9821)"/>
<path opacity="0.1" d="M418.951 477.015L506.272 426.369V425.06L418.951 475.706V477.015Z" fill="white"/>
<path opacity="0.1" d="M331.263 426.369L418.951 477.015V475.706L331.263 425.06V426.369Z" fill="white"/>
<path d="M175.744 399.211L119.527 431.82L63.0542 399.211L119.527 366.601L175.744 399.211Z" fill="url(#paint23_linear_10900_9821)"/>
<path d="M175.744 399.21V522.697L119.527 555.306V431.82L175.744 399.21Z" fill="url(#paint24_linear_10900_9821)"/>
<path d="M119.527 431.82V555.306L63.0542 522.697V399.21L119.527 431.82Z" fill="url(#paint25_linear_10900_9821)"/>
<path opacity="0.1" d="M119.527 438.787L175.744 406.178V404.821L119.527 437.431V438.787Z" fill="white"/>
<path opacity="0.1" d="M63.0542 406.178L119.527 438.787V437.431L63.0542 404.821V406.178Z" fill="white"/>
</g>
<g opacity="0.03">
<path d="M213.096 98.2361C211.036 93.9261 211.946 88.3661 215.276 84.9361C218.606 81.5061 224.126 80.4261 228.496 82.3461C228.356 72.6861 235.306 64.3161 243.066 58.5561C247.076 55.5861 251.566 52.9861 256.526 52.4261C263.056 51.6961 269.586 54.6861 274.456 59.0961C279.326 63.5061 282.796 69.2361 285.996 74.9761C287.996 71.6161 292.726 70.2261 296.236 71.9561C299.746 73.6861 301.496 78.2961 300.046 81.9261C307.786 80.6461 315.886 87.2061 316.236 95.0461" fill="url(#paint26_linear_10900_9821)"/>
<path d="M217.29 169.708C218.65 166.848 218.05 163.178 215.85 160.908C213.65 158.638 209.99 157.918 207.09 159.198C207.18 152.798 202.58 147.258 197.44 143.448C194.79 141.478 191.81 139.758 188.53 139.388C184.2 138.908 179.88 140.878 176.66 143.798C173.43 146.718 171.14 150.508 169.02 154.308C167.69 152.088 164.56 151.158 162.24 152.308C159.92 153.458 158.75 156.508 159.72 158.908C154.59 158.058 149.23 162.408 149 167.598" fill="url(#paint27_linear_10900_9821)"/>
<path d="M601.29 150.708C602.65 147.848 602.05 144.178 599.85 141.908C597.65 139.638 593.99 138.918 591.09 140.198C591.18 133.798 586.58 128.258 581.44 124.448C578.79 122.478 575.81 120.758 572.53 120.388C568.2 119.908 563.88 121.878 560.66 124.798C557.44 127.718 555.14 131.508 553.02 135.308C551.69 133.088 548.56 132.158 546.24 133.308C543.92 134.458 542.75 137.508 543.72 139.908C538.59 139.058 533.23 143.408 533 148.598" fill="url(#paint28_linear_10900_9821)"/>
</g>
<path d="M239.66 431.184C239.66 431.184 208.831 416.078 191.238 426.697C173.645 437.316 138.429 490.162 138.429 490.162L144.287 498.521L239.66 431.184Z" fill="url(#paint29_linear_10900_9821)"/>
<path d="M287.006 502.274C287.006 502.274 287.505 533.56 269.912 544.181C252.319 554.8 186.976 562.658 186.976 562.658L182.318 555.703L287.006 502.274Z" fill="url(#paint30_linear_10900_9821)"/>
<path d="M235.551 532.272L191.847 463.65C191.847 463.65 263.945 399.3 313.64 367.768C363.335 336.236 423.376 364.918 423.376 364.918C423.376 364.918 427.29 429.213 374.221 462.887C321.153 496.56 235.551 532.272 235.551 532.272Z" fill="url(#paint31_linear_10900_9821)"/>
<g opacity="0.5">
<path opacity="0.5" d="M318.543 385.487C362.897 353.302 415.244 366.614 424.195 368.552C413.702 364.668 363.489 348.521 319.253 376.594C269.56 408.131 196.685 471.257 196.685 471.257L202.894 480.819C221.707 463.485 278.421 414.602 318.543 385.487Z" fill="#E9F4FF"/>
</g>
<path d="M379.974 418.921C369.349 425.662 355.261 422.532 348.51 411.93C341.756 401.328 344.896 387.268 355.52 380.526C366.144 373.783 380.233 376.914 386.985 387.516C393.738 398.118 390.598 412.18 379.974 418.921Z" fill="url(#paint32_linear_10900_9821)"/>
<path d="M325.49 453.491C314.865 460.232 300.777 457.103 294.026 446.501C287.272 435.899 290.413 421.839 301.036 415.096C311.66 408.354 325.749 411.485 332.501 422.087C339.254 432.689 336.115 446.749 325.49 453.491Z" fill="url(#paint33_linear_10900_9821)"/>
<path d="M271.008 488.061C260.382 494.802 246.295 491.672 239.543 481.07C232.79 470.468 235.93 456.408 246.554 449.666C257.179 442.925 271.267 446.054 278.018 456.656C284.772 467.26 281.632 481.32 271.008 488.061Z" fill="url(#paint34_linear_10900_9821)"/>
<path opacity="0.05" d="M188.351 477.374C191.486 482.751 0.993809 573.291 0.993809 573.291L118.632 537.454L0 629.46L137.756 564.673L53.4638 656.652C53.4638 656.652 214.053 520.946 217.877 526.651C217.877 526.651 185.215 471.996 188.351 477.374Z" fill="url(#paint35_linear_10900_9821)"/>
<path opacity="0.1" d="M110.521 656.492C124.376 647.041 138.444 637.941 152.589 628.963C166.719 619.964 180.958 611.142 195.256 602.42C209.561 593.705 223.927 585.095 238.403 576.659C252.865 568.203 267.402 559.872 282.155 551.896C268.302 561.351 254.235 570.453 240.09 579.429C225.958 588.428 211.721 597.25 197.42 605.968C183.112 614.678 168.746 623.288 154.27 631.722C139.808 640.177 125.272 648.509 110.521 656.492Z" fill="url(#paint36_linear_10900_9821)"/>
<path opacity="0.1" d="M178.671 627.89C192.526 618.439 206.595 609.339 220.74 600.361C234.87 591.363 249.109 582.54 263.407 573.818C277.712 565.103 292.078 556.493 306.554 548.057C321.016 539.602 335.553 531.271 350.306 523.294C336.453 532.75 322.385 541.851 308.241 550.828C294.109 559.826 279.872 568.649 265.57 577.366C251.263 586.076 236.896 594.686 222.421 603.121C207.959 611.577 193.421 619.909 178.671 627.89Z" fill="url(#paint37_linear_10900_9821)"/>
<path d="M514.053 92.9531C514.053 92.9531 518.898 86.5634 505.838 76.2879C492.199 65.5563 488.872 73.5237 488.872 73.5237C488.872 73.5237 483.774 84.8162 488.399 89.8191C493.025 94.822 506.303 99.4167 507.761 98.5384C509.218 97.6617 514.053 92.9531 514.053 92.9531Z" fill="url(#paint38_linear_10900_9821)"/>
<path d="M490.162 71.8813C424.267 122.208 416.469 127.975 358.637 147.003C358.44 163.595 367.849 238.527 367.849 238.527C367.849 238.527 359.682 237.877 426.64 180.815C478.158 136.912 514.053 92.9547 514.053 92.9547C508.471 98.4384 486.419 85.3694 490.162 71.8813Z" fill="url(#paint39_linear_10900_9821)"/>
<path d="M500.928 100.064C502.1 98.8411 502.17 97.0051 501.084 95.9632C499.997 94.9214 498.166 95.0682 496.993 96.2911C495.821 97.514 495.751 99.35 496.837 100.392C497.924 101.434 499.755 101.287 500.928 100.064Z" fill="#00CEC6"/>
<path d="M497.268 96.5479C498.44 95.3245 500.271 95.1781 501.359 96.2212C502.445 97.2628 502.377 99.0994 501.205 100.321C500.032 101.545 498.202 101.691 497.114 100.648C496.026 99.6064 496.095 97.7713 497.268 96.5479Z" fill="#00F5EB"/>
<path d="M499.453 97.9256C499.325 97.6359 499.456 97.2985 499.744 97.1706C500.034 97.0427 500.371 97.1737 500.499 97.4618C500.627 97.7515 500.496 98.0889 500.208 98.2168C499.918 98.3447 499.581 98.2153 499.453 97.9256Z" fill="url(#paint40_linear_10900_9821)"/>
<path d="M497.971 99.4095C497.843 99.1198 497.974 98.7824 498.262 98.6545C498.551 98.5266 498.889 98.6576 499.017 98.9457C499.145 99.2354 499.014 99.5728 498.726 99.7007C498.437 99.8286 498.098 99.6992 497.971 99.4095Z" fill="url(#paint41_linear_10900_9821)"/>
<path d="M489.775 105.046C490.41 103.475 492.057 102.66 493.453 103.226C494.849 103.791 495.465 105.522 494.829 107.092C494.194 108.662 492.547 109.477 491.151 108.911C489.757 108.347 489.14 106.616 489.775 105.046Z" fill="#00CEC6"/>
<path d="M490.154 105.2C490.789 103.63 492.436 102.815 493.832 103.38C495.228 103.946 495.844 105.676 495.208 107.246C494.573 108.816 492.926 109.631 491.53 109.066C490.136 108.5 489.52 106.77 490.154 105.2Z" fill="#00F5EB"/>
<path d="M492.695 105.668C492.469 105.446 492.465 105.084 492.686 104.858C492.908 104.631 493.27 104.628 493.496 104.849C493.723 105.07 493.726 105.432 493.505 105.659C493.285 105.885 492.92 105.89 492.695 105.668Z" fill="url(#paint42_linear_10900_9821)"/>
<path d="M491.869 107.596C491.643 107.374 491.64 107.012 491.86 106.785C492.082 106.559 492.444 106.556 492.67 106.776C492.897 106.998 492.9 107.36 492.68 107.587C492.458 107.813 492.096 107.816 491.869 107.596Z" fill="url(#paint43_linear_10900_9821)"/>
<path d="M331.328 154.862L339.06 151.42L357.449 161.834L364.7 159.92L366.92 160.497C366.92 160.497 396.616 214.836 341.653 301.101C331.046 317.75 274.388 331.453 274.388 331.453L249.708 325.962C249.708 325.962 348.107 220.295 344.124 199.211C340.142 178.125 331.328 154.862 331.328 154.862Z" fill="url(#paint44_linear_10900_9821)"/>
<path d="M366.84 213.605L366.706 212.613C365.964 207.133 358.96 203.558 351.062 204.626L353.882 225.462C354.624 230.943 361.628 234.518 369.526 233.449" stroke="#00BAEB" stroke-width="1.5" stroke-miterlimit="10"/>
<path d="M366.84 213.605L366.706 212.613C365.964 207.133 358.96 203.558 351.062 204.626L352.539 215.54C360.437 214.471 367.441 218.046 368.183 223.527L368.317 224.518" stroke="#00BAEB" stroke-width="1.5" stroke-miterlimit="10"/>
<path d="M378.588 192.817C370.69 193.886 364.888 199.194 365.63 204.675L366.704 212.611L366.838 213.603L368.181 223.525C368.678 227.197 366.236 230.791 362.195 233.084C364.412 233.644 366.92 233.8 369.524 233.447C377.422 232.378 383.224 227.07 382.482 221.59L378.588 192.817Z" stroke="#00BAEB" stroke-width="1.5" stroke-miterlimit="10"/>
<path d="M352.046 366.666L352.727 367.256C352.727 367.256 356.281 367.493 363.862 367.724C367.831 367.846 374.133 363.969 374.423 361.992C370.868 358.039 368.7 357.635 364.688 358.205C361.458 358.664 354.412 361.576 354.412 361.576L352.046 366.666Z" fill="#00345B"/>
<path d="M352.046 361.246C351.707 362.522 351.822 365.181 352.046 366.665C352.046 366.665 355.465 366.878 363.044 367.109C367.013 367.231 372.939 363.434 373.228 361.457C372.877 359 369.655 356.474 363.871 357.59C361.942 357.961 358.101 359.129 355.349 359.998C353.532 360.573 353.623 357.972 353.623 357.972L352.046 361.246Z" fill="url(#paint45_linear_10900_9821)"/>
<path d="M357.816 363.736C357.632 363.736 357.461 363.636 357.372 363.473C357.053 362.886 356.804 362.416 356.637 361.971C356.485 362.373 356.431 362.739 356.415 363.088C356.403 363.359 356.18 363.57 355.911 363.57C355.904 363.57 355.896 363.57 355.888 363.57C355.609 363.558 355.394 363.32 355.406 363.043C355.452 362.006 355.833 361.119 356.408 360.333C356.434 360.034 356.492 359.709 356.586 359.336C356.654 359.065 356.93 358.901 357.2 358.969C357.317 358.998 357.412 359.066 357.48 359.154C358.019 358.658 358.623 358.2 359.24 357.767C359.421 357.639 359.666 357.646 359.842 357.783C360.018 357.92 360.082 358.156 360.002 358.362C359.995 358.384 359.987 358.404 359.978 358.425C360.341 358.069 360.731 357.763 361.149 357.499C361.341 357.379 361.589 357.401 361.757 357.553C361.925 357.706 361.971 357.951 361.871 358.153C361.81 358.277 361.762 358.413 361.729 358.555C362.517 357.824 363.43 357.27 364.34 357.034C364.544 356.98 364.76 357.062 364.882 357.234C364.934 357.31 364.964 357.396 364.971 357.484C365.152 357.35 365.341 357.216 365.543 357.082C365.729 356.957 365.976 356.969 366.148 357.114C366.321 357.259 366.378 357.498 366.289 357.704L364.606 361.572C364.534 361.738 364.377 361.854 364.196 361.872C364.016 361.892 363.839 361.812 363.732 361.664C363.541 361.399 363.39 361.14 363.278 360.883C363.058 361.271 362.847 361.696 362.623 362.174C362.549 362.334 362.397 362.444 362.221 362.462C362.044 362.482 361.873 362.408 361.765 362.27C361.492 361.917 361.249 361.488 361.059 361.025C360.765 361.55 360.56 362.091 360.484 362.607C360.454 362.813 360.3 362.98 360.096 363.026C359.893 363.072 359.682 362.989 359.565 362.815C359.3 362.422 359.098 362.054 358.95 361.704C358.713 362.216 358.495 362.776 358.298 363.385C358.236 363.578 358.065 363.715 357.864 363.733C357.847 363.736 357.831 363.736 357.816 363.736ZM357.4 360.709C357.406 361.131 357.515 361.502 357.731 361.971C357.99 361.324 358.278 360.736 358.592 360.206C358.583 359.963 358.597 359.729 358.628 359.501C358.109 359.938 357.708 360.337 357.4 360.709ZM359.629 360.456C359.663 360.696 359.729 360.948 359.836 361.216C360.051 360.696 360.347 360.186 360.699 359.709C360.674 359.53 360.66 359.351 360.659 359.174C360.287 359.539 359.944 359.966 359.629 360.456ZM361.779 359.981C361.856 360.302 361.97 360.618 362.112 360.912C362.412 360.328 362.717 359.815 363.073 359.339C363.11 359.109 363.176 358.874 363.272 358.629C362.732 358.985 362.218 359.455 361.779 359.981ZM364.041 359.741C364.036 359.901 364.056 360.054 364.096 360.203L364.54 359.183C364.36 359.364 364.195 359.549 364.041 359.741Z" fill="#00345B"/>
<path d="M236.958 446.01L236.79 446.896C236.79 446.896 234.151 449.289 228.353 454.178C225.317 456.737 217.969 457.612 216.515 456.242C216.846 450.937 218.295 449.273 221.794 447.229C224.61 445.583 231.941 443.491 231.941 443.491L236.958 446.01Z" fill="#00345B"/>
<path d="M235.761 441.447C235.355 442.988 237.34 444.557 236.958 446.008C236.958 446.008 234.411 448.298 228.613 453.187C225.578 455.746 218.575 456.45 217.12 455.08C215.869 452.936 216.827 448.957 222.054 446.239C223.796 445.333 227.533 443.862 230.229 442.836C232.01 442.158 230.323 440.175 230.323 440.175L235.761 441.447Z" fill="url(#paint46_linear_10900_9821)"/>
<path d="M224.189 449.873C224.108 449.873 224.026 449.853 223.951 449.813L220.231 447.825C220.034 447.719 219.929 447.495 219.974 447.277C220.02 447.056 220.205 446.894 220.428 446.876C220.67 446.856 220.903 446.844 221.126 446.836C221.077 446.763 221.048 446.677 221.042 446.586C221.028 446.375 221.148 446.178 221.342 446.092C222.2 445.711 223.262 445.58 224.331 445.663C224.217 445.572 224.097 445.495 223.971 445.435C223.766 445.338 223.65 445.118 223.687 444.894C223.724 444.671 223.906 444.5 224.131 444.475C224.621 444.421 225.119 444.421 225.624 444.474C225.605 444.463 225.585 444.451 225.565 444.44C225.374 444.327 225.279 444.101 225.331 443.885C225.384 443.67 225.572 443.512 225.793 443.5C226.547 443.457 227.303 443.44 228.034 443.494C228.031 443.383 228.065 443.269 228.138 443.173C228.308 442.952 228.625 442.91 228.847 443.081C229.152 443.315 229.4 443.534 229.605 443.751C230.544 444.009 231.391 444.469 232.072 445.253C232.255 445.465 232.232 445.784 232.021 445.967C231.81 446.15 231.491 446.127 231.308 445.916C231.054 445.623 230.764 445.386 230.447 445.196C230.588 445.645 230.684 446.163 230.796 446.813C230.83 447.012 230.744 447.212 230.574 447.323C230.405 447.434 230.186 447.432 230.018 447.32C229.485 446.964 228.967 446.66 228.464 446.406C228.564 446.771 228.635 447.186 228.672 447.659C228.687 447.867 228.575 448.064 228.387 448.153C228.199 448.243 227.974 448.209 227.823 448.065C227.442 447.708 226.946 447.411 226.388 447.183C226.528 447.663 226.604 448.152 226.608 448.597C226.61 448.773 226.521 448.937 226.371 449.031C226.222 449.125 226.034 449.133 225.877 449.055C225.405 448.819 224.977 448.617 224.562 448.449C224.635 448.72 224.676 449.018 224.692 449.344C224.699 449.526 224.61 449.699 224.456 449.794C224.377 449.847 224.283 449.873 224.189 449.873ZM222.518 447.902L223.499 448.426C223.438 448.284 223.359 448.153 223.256 448.03C223.015 447.975 222.77 447.933 222.518 447.902ZM223.764 447.113C224.337 447.266 224.897 447.478 225.494 447.75C225.422 447.432 225.316 447.113 225.177 446.814C224.507 446.674 223.812 446.625 223.166 446.68C223.393 446.813 223.592 446.956 223.764 447.113ZM225.853 445.93C226.427 446.086 226.975 446.303 227.467 446.575C227.383 446.3 227.28 446.062 227.159 445.851C226.608 445.663 226.075 445.542 225.555 445.485C225.661 445.625 225.761 445.774 225.853 445.93ZM227.815 445.013C228.391 445.232 228.981 445.515 229.587 445.861C229.465 445.357 229.319 444.998 229.06 444.662C228.518 444.54 227.937 444.488 227.34 444.474C227.51 444.637 227.669 444.814 227.815 445.013Z" fill="#00345B"/>
<path d="M281.428 371.799C281.428 371.799 336.263 335.509 346.882 331.454C356.802 327.665 351.579 361.813 351.579 361.813C351.579 361.813 361.643 360.14 362.959 355.642C362.959 355.642 390.972 299.316 378.396 295.439C365.82 291.563 288.878 330.91 288.878 330.91L281.428 371.799Z" fill="url(#paint47_linear_10900_9821)"/>
<path d="M245.767 369.999L230.414 442.477C230.414 442.477 236.47 447.834 239.924 443.575L317.195 317.388L246.089 343.171L245.767 369.999Z" fill="url(#paint48_linear_10900_9821)"/>
<path d="M363.575 145.756C363.44 145.727 363.304 145.696 363.167 145.662C360.834 145.62 358.537 144.747 356.277 143.041C353.278 140.939 350.737 138.018 348.651 134.28L349.047 131.37C347.08 136.65 344.143 145.483 342.698 145.717C339.302 146.269 344.909 153.448 349.092 160.381C352.734 166.421 362.321 173.674 360.779 167.792C358.025 157.284 362.501 149.83 363.575 145.756Z" fill="url(#paint49_linear_10900_9821)"/>
<path d="M360.87 153.864C361.776 150.416 363.064 147.699 363.577 145.756C363.441 145.727 363.306 145.696 363.169 145.662C360.836 145.621 358.538 144.747 356.278 143.041C353.28 140.94 350.739 138.019 348.653 134.281L349.474 130.51C349.15 132.165 347.063 136.829 346.46 138.744C347.491 142.877 351.633 147.051 360.87 153.864Z" fill="url(#paint50_linear_10900_9821)"/>
<path d="M360.144 125.247L370.406 107.7C366.176 112.27 360.501 111.275 360.501 111.275C365.765 108.549 368.067 102.689 368.067 102.689C364.617 108.324 356.911 108.809 355.455 108.851C356.206 108.786 358.767 108.212 363.941 103.763C366.597 101.478 368.042 99.3813 368.826 97.7173C365.162 99.688 361.56 102.887 356.606 103.406C336.152 105.549 345.642 132.26 350.405 133.325C354.184 134.171 352.301 128.672 355.793 127.014C356.931 126.473 358.429 125.891 360.144 125.247Z" fill="url(#paint51_linear_10900_9821)"/>
<path d="M366.156 111.79C363.142 115.729 357.374 109.351 352.908 112.734C349.919 114.998 348.833 121.221 348.667 120.891C344.009 111.723 344.662 126.301 347.657 127.254C347.707 127.27 346.254 134.408 347.033 137.453C347.811 140.498 359.041 149.631 367.346 146.477C369.312 144.467 373.903 116.478 366.156 111.79Z" fill="url(#paint52_linear_10900_9821)"/>
<path opacity="0.5" d="M360.118 129.747C360.118 129.747 359.549 132.468 360.492 133.294C361.435 134.121 364.033 132.587 364.033 132.587L360.118 129.747Z" fill="url(#paint53_linear_10900_9821)"/>
<path opacity="0.3" d="M354.149 112.041C353.727 112.202 353.312 112.427 352.908 112.732C349.919 114.996 348.833 121.219 348.667 120.889C344.009 111.722 344.662 126.299 347.657 127.253C347.707 127.268 346.254 134.407 347.033 137.451C347.619 139.741 354.116 145.476 360.834 146.836L355.726 141.616C355.726 141.616 356.289 138.866 353.734 131.485C350.757 122.889 352.848 116.882 354.149 112.041Z" fill="url(#paint54_linear_10900_9821)"/>
<path opacity="0.5" d="M357.296 118.277C357.296 118.277 361.96 118.196 363.023 120.527C364.088 122.858 361.763 130.513 361.763 130.513L360.116 129.745C360.116 129.745 360.965 124.601 358.401 122.889C355.837 121.18 357.296 118.277 357.296 118.277Z" fill="url(#paint55_linear_10900_9821)"/>
<path d="M360.118 129.747C360.118 129.747 361.344 130.604 362.521 131.157C363.611 131.668 364.86 131.146 364.86 131.146C364.86 131.146 364.722 132.248 364.033 132.587C363.848 132.678 363.621 132.715 363.349 132.659C360.148 132.014 360.118 129.747 360.118 129.747Z" fill="url(#paint56_linear_10900_9821)"/>
<path d="M355.161 133.938C355.161 133.938 358.148 138.385 361.131 139.311C364.114 140.237 363.363 141.087 359.905 139.183C356.449 137.277 355.161 133.938 355.161 133.938Z" fill="url(#paint57_linear_10900_9821)"/>
<path d="M347.856 121.565C347.856 121.565 346.438 118.399 345.933 119.957C345.004 122.824 346.854 124.675 346.854 124.675L347.856 121.565Z" fill="url(#paint58_linear_10900_9821)"/>
<path d="M363.321 120.185C363.531 120.053 364.019 119.225 363.735 118.96C361.255 116.637 356.58 117.406 356.58 117.406C356.58 117.406 356.612 118.198 357.041 118.614C360.355 118.567 362.874 120.469 363.321 120.185Z" fill="url(#paint59_linear_10900_9821)"/>
<path d="M362.068 122.583C361.919 123.481 361.712 123.573 360.367 123.351C359.024 123.128 358.073 122.191 357.199 121.775C357.199 121.775 358.532 120.489 359.877 120.712C361.222 120.934 362.218 121.684 362.068 122.583Z" fill="url(#paint60_linear_10900_9821)"/>
<path d="M361.597 122.162C361.621 122.857 361.216 123.422 360.691 123.424C360.167 123.425 359.722 122.863 359.697 122.168C359.672 121.473 360.077 120.908 360.603 120.906C361.127 120.905 361.572 121.467 361.597 122.162Z" fill="#3E89AE"/>
<path d="M357.201 121.775C357.201 121.775 359.662 119.789 362.044 122.099C362.195 120.653 358.568 119.855 357.201 121.775Z" fill="black"/>
<path d="M361.376 121.892C361.39 122.305 361.15 122.643 360.837 122.643C360.524 122.644 360.261 122.31 360.245 121.895C360.232 121.482 360.472 121.145 360.785 121.145C361.096 121.145 361.361 121.479 361.376 121.892Z" fill="black"/>
<path d="M360.706 122.53C360.674 122.721 360.494 122.851 360.304 122.818C360.113 122.786 359.984 122.606 360.016 122.416C360.048 122.227 360.229 122.096 360.418 122.128C360.608 122.159 360.737 122.339 360.706 122.53Z" fill="white"/>
<path d="M362.587 128.835C362.587 128.835 360.558 127.906 360.487 129.362C360.45 130.111 362.275 131.046 362.275 131.046L362.587 128.835Z" fill="url(#paint61_linear_10900_9821)"/>
<path opacity="0.44" d="M360.792 131.313C360.792 131.313 361.632 131.1 362.191 131.604C362.751 132.108 362.309 132.356 362.309 132.356L360.792 131.313Z" fill="url(#paint62_linear_10900_9821)"/>
<path d="M369.433 124.781C369.304 125.561 369.124 125.643 367.956 125.448C366.788 125.254 365.963 124.441 365.204 124.079C365.204 124.079 366.363 122.962 367.53 123.154C368.698 123.35 369.563 124.002 369.433 124.781Z" fill="url(#paint63_linear_10900_9821)"/>
<path d="M369.023 124.416C369.045 125.02 368.692 125.512 368.236 125.513C367.78 125.515 367.393 125.026 367.372 124.422C367.35 123.818 367.703 123.327 368.159 123.325C368.615 123.324 369.002 123.812 369.023 124.416Z" fill="#3E89AE"/>
<path d="M365.204 124.08C365.204 124.08 367.341 122.355 369.412 124.362C369.543 123.105 366.392 122.413 365.204 124.08Z" fill="black"/>
<path d="M368.832 124.182C368.845 124.541 368.635 124.834 368.364 124.834C368.093 124.835 367.863 124.544 367.851 124.185C367.839 123.826 368.048 123.533 368.319 123.533C368.589 123.532 368.818 123.823 368.832 124.182Z" fill="black"/>
<path d="M368.25 124.737C368.222 124.903 368.065 125.014 367.9 124.986C367.735 124.959 367.623 124.802 367.65 124.637C367.678 124.47 367.835 124.359 368 124.387C368.165 124.415 368.276 124.57 368.25 124.737Z" fill="white"/>
<path d="M365.178 121.199C365.102 121.022 365.121 120.225 365.39 120.133C367.741 119.316 370.241 121.613 370.241 121.613C370.241 121.613 369.925 122.193 369.512 122.344C367.554 121.088 365.338 121.576 365.178 121.199Z" fill="url(#paint64_linear_10900_9821)"/>
<path d="M358.634 140.379C358.634 140.379 362.472 140.484 362.313 141.735C362.156 142.986 358.634 140.379 358.634 140.379Z" fill="url(#paint65_linear_10900_9821)"/>
<path d="M355.545 134.473C355.545 134.473 358.831 137.792 360.15 138.219C361.469 138.647 361.839 139.168 361.839 139.168C361.839 139.168 363.09 139.347 363.093 139.448C363.096 139.548 362.973 140.191 362.973 140.191C362.973 140.191 359.671 139.012 358.58 138.18C357.491 137.347 355.545 134.473 355.545 134.473Z" fill="url(#paint66_linear_10900_9821)"/>
<path d="M362.193 132.605C362.193 132.605 361.446 138.924 361.839 139.169C362.23 139.414 363.093 139.45 363.093 139.45L362.193 132.605Z" fill="url(#paint67_linear_10900_9821)"/>
<path d="M355.632 158.295C355.484 157.427 348.73 154.178 345.916 149.143C343.885 145.508 345.129 141.693 345.129 141.693L336.641 152.169L351.062 171.022C351.062 171.022 351.737 165.361 353.589 162.02C354.549 160.29 355.632 158.295 355.632 158.295Z" fill="url(#paint68_linear_10900_9821)"/>
<path d="M361.591 151.406C361.591 151.406 365.999 157.015 366.92 160.495C367.842 163.976 363.367 170.645 363.367 170.645C363.762 166.264 362.306 162.444 359.569 159.038C359.696 157.602 360.246 154.976 361.591 151.406Z" fill="url(#paint69_linear_10900_9821)"/>
<path d="M265.088 207.133C271.103 184.874 286.334 170.644 305.505 160.212C318.606 153.081 336.433 146.378 342.802 144.565C338.479 153.086 339.864 163.754 343.687 173.826C358.953 214.036 346.932 303.681 310.344 326.959C240.657 371.295 207.968 356.331 207.968 356.331C207.968 356.331 242.794 289.633 265.088 207.133Z" fill="url(#paint70_radial_10900_9821)"/>
<path d="M309.05 327.247C345.638 303.969 357.659 214.326 342.393 174.114C338.568 164.042 337.185 153.374 341.508 144.853C338.288 145.77 331.958 148.58 324.971 151.42C322.007 161.948 317.768 180.952 318.837 201.64L335.347 213.541L318.837 222.005C318.837 222.005 324.127 283.402 303.246 330.856C305.15 329.697 307.084 328.497 309.05 327.247Z" fill="#004072"/>
<path d="M310.344 326.959C346.932 303.681 358.953 214.038 343.687 173.826C339.863 163.754 338.479 153.086 342.802 144.565C339.582 145.482 333.431 147.65 326.445 150.489C323.481 161.017 319.062 180.664 320.131 201.352L336.641 213.253L320.131 221.717C320.131 221.717 325.421 283.114 304.54 330.567C306.446 329.409 308.38 328.208 310.344 326.959Z" fill="url(#paint71_linear_10900_9821)"/>
<path d="M285.887 298.403C285.887 298.403 285.245 315.485 276.891 320.276C268.536 325.067 246.69 332.527 237.693 333.456C228.696 334.385 237.693 313.179 237.693 313.179L285.887 298.403Z" fill="url(#paint72_linear_10900_9821)"/>
<path d="M285.887 297.439C285.887 297.439 285.245 312.596 276.891 317.388C268.536 322.178 246.69 329.638 237.693 330.567C228.696 331.497 237.693 310.291 237.693 310.291L285.887 297.439Z" fill="url(#paint73_linear_10900_9821)"/>
<path d="M143.115 251.662C143.115 251.662 137.803 254.396 139.497 268.686C142.632 295.171 151.789 290.108 151.789 290.108C151.789 290.108 161.452 277.495 161.481 270.682C161.51 263.868 153.7 250.331 152.034 249.978C150.369 249.625 143.115 251.662 143.115 251.662Z" fill="url(#paint74_linear_10900_9821)"/>
<path d="M109.31 265.817C110.301 265.446 115.405 263.762 116.461 263.831C114.858 264.323 111.971 264.896 105.874 268.773C104.969 269.347 105.493 272.363 110.089 269.987C111.952 269.024 115.32 267.99 117.327 267.397C114.733 268.933 109.26 271.76 106.723 273.899C105.493 274.934 106.156 277.695 109.994 275.412C110.903 274.871 118.37 271.085 119.414 270.923C117.957 271.751 113.062 274.244 110.24 276.572C108.342 278.139 109.356 281.171 113.601 278.473C116.279 276.771 120.282 274.574 123.263 273.487C126.245 272.4 132.647 271.161 133.076 274.061C133.237 276.888 124.232 282.501 129.377 286.153C131.043 282.786 137.617 278.145 140.22 274.045C141.52 271.997 141.386 270.218 146.665 268.867C147.025 268.774 147.908 253.318 147.036 253.337C145.261 253.374 134.314 256.523 130.637 257.457C122.519 259.519 112.083 261.027 108.707 263.916C107.489 264.961 106.723 266.788 109.31 265.817Z" fill="#FFA8A8"/>
<path d="M142.066 270.686C148.549 267.954 144.911 254.443 139.21 255.136L157.168 246.477L160.341 264.689L142.066 270.686Z" fill="#FFA8A8"/>
<path d="M148.919 268.436L160.339 264.688L157.167 246.476L147.387 251.192C151.381 254.364 152.35 264.165 148.919 268.436Z" fill="#FFA8A8"/>
<path d="M151.789 290.11C151.789 290.11 210.826 267.059 270.737 249.251C341.653 222.022 305.503 160.212 305.503 160.212L143.115 251.662C157.091 247.165 160.464 277.065 151.789 290.11Z" fill="url(#paint75_linear_10900_9821)"/>
<path d="M174.727 277.99C176.363 277.55 177.372 276.015 176.982 274.561C176.591 273.108 174.948 272.286 173.312 272.726C171.675 273.165 170.666 274.7 171.057 276.154C171.447 277.608 173.091 278.43 174.727 277.99Z" fill="#00CEC6"/>
<path d="M173.425 273.119C175.061 272.68 176.704 273.501 177.095 274.956C177.487 276.41 176.477 277.945 174.841 278.386C173.205 278.825 171.562 278.004 171.171 276.549C170.78 275.095 171.789 273.558 173.425 273.119Z" fill="#00F5EB"/>
<path d="M174.582 275.428C174.622 275.113 174.909 274.891 175.223 274.931C175.538 274.971 175.759 275.258 175.719 275.572C175.679 275.887 175.393 276.109 175.078 276.069C174.764 276.028 174.542 275.742 174.582 275.428Z" fill="url(#paint76_linear_10900_9821)"/>
<path d="M172.547 275.931C172.587 275.617 172.873 275.395 173.188 275.435C173.502 275.475 173.724 275.762 173.684 276.076C173.644 276.39 173.357 276.612 173.043 276.572C172.728 276.532 172.507 276.245 172.547 275.931Z" fill="url(#paint77_linear_10900_9821)"/>
<path d="M165.888 280.881C167.245 279.866 167.613 278.067 166.712 276.861C165.81 275.656 163.979 275.502 162.622 276.517C161.266 277.532 160.897 279.332 161.799 280.537C162.701 281.742 164.532 281.897 165.888 280.881Z" fill="#00CEC6"/>
<path d="M162.862 276.842C164.217 275.826 166.048 275.982 166.951 277.187C167.852 278.392 167.485 280.193 166.128 281.207C164.772 282.222 162.942 282.066 162.039 280.861C161.137 279.657 161.506 277.857 162.862 276.842Z" fill="#00F5EB"/>
<path d="M164.792 278.557C164.714 278.25 164.897 277.938 165.203 277.859C165.51 277.78 165.823 277.964 165.901 278.27C165.98 278.577 165.797 278.89 165.49 278.968C165.183 279.047 164.872 278.864 164.792 278.557Z" fill="url(#paint78_linear_10900_9821)"/>
<path d="M163.089 279.779C163.011 279.472 163.194 279.159 163.501 279.081C163.807 279.002 164.12 279.185 164.199 279.492C164.277 279.799 164.094 280.111 163.787 280.19C163.481 280.27 163.168 280.085 163.089 279.779Z" fill="url(#paint79_linear_10900_9821)"/>
<path d="M359.571 159.04L355.633 158.297C353.503 161.415 351.876 164.596 351.597 167.938L353.85 169.175C353.85 169.175 355.545 176.241 344.126 199.213C330.264 227.099 288.41 231.178 288.41 231.178L270.738 257.527L301.26 277.069C301.26 277.069 342.929 259.815 357.893 217.683C368.341 188.267 360.947 169.338 360.947 169.338L362.785 164.457C362.118 162.445 361.119 160.603 359.571 159.04Z" fill="url(#paint80_linear_10900_9821)"/>
<path opacity="0.2" d="M307.269 274.112C313.102 270.964 322.427 265.222 331.801 256.499L332.994 213.254C326.746 218.625 319.396 222.434 312.486 225.113L307.269 274.112Z" fill="white"/>
<path opacity="0.2" d="M353.85 227.265C355.343 224.225 356.703 221.033 357.894 217.682C360.945 209.092 362.474 201.397 363.11 194.806L353.3 175.439C352.491 179.237 350.714 185.002 346.912 193.365L353.85 227.265Z" fill="white"/>
<path d="M537.101 53.3179L535.951 57.4169C540.077 57.5299 539.304 57.899 543.168 56.1632C546.83 55.1133 548.8 50.8632 545.495 51.3878L544.902 51.5245L537.101 53.3179Z" fill="#FFA8A8"/>
<path d="M519.204 71.6231L533.169 77.2958C533.169 77.2958 529.657 80.5989 522.748 81.3422C521.037 81.5263 517.157 80.9197 514.312 82.7583L510.675 85.7568C510.675 85.7568 517.087 77.2892 519.204 71.6231Z" fill="#FFA8A8"/>
<path d="M539.689 49.0548L539.999 47.5385C541.714 39.1594 533.353 30.3705 521.326 27.9097L514.808 59.7663C513.093 68.1455 521.455 76.9317 533.481 79.3926C545.508 81.8535 556.649 77.0576 558.363 68.6785C560.075 60.3014 551.716 51.5156 539.689 49.0548Z" fill="url(#paint81_linear_10900_9821)"/>
<path d="M536.585 64.225L536.275 65.7412C543.875 67.2964 550.009 71.3795 553.062 76.289C555.82 74.3594 557.729 71.7643 558.36 68.6805C560.075 60.3014 551.713 51.5151 539.687 49.0542L539.997 47.538C541.714 39.1594 533.353 30.3705 521.326 27.9097L517.912 44.5961C529.938 47.0595 538.3 55.8458 536.585 64.225Z" fill="url(#paint82_linear_10900_9821)"/>
<path d="M567.362 24.6853C555.335 22.2245 544.195 27.0203 542.48 35.3994L539.997 47.5346L539.687 49.0508L536.583 64.221C535.434 69.8345 530.052 73.8385 523.008 75.129C525.946 77.0748 529.513 78.5797 533.479 79.3912C545.505 81.8521 556.646 77.0563 558.361 68.6771L567.362 24.6853Z" fill="url(#paint83_linear_10900_9821)"/>
<path d="M500.304 74.6265L492.016 82.4269C493.527 84.6943 496.908 89.6265 503.869 92.5698C506.063 90.7107 511.536 85.7719 513.666 83.3487C515.065 81.3182 518.683 74.7342 519.342 74.0734C521.392 67.5761 515.841 64.7028 519.545 55.8832C523.665 53.357 523.978 46.4066 520.552 49.0526C514.242 54.4804 510.04 60.3456 507.209 67.5596C506.467 69.4493 501.879 73.3462 500.304 74.6265C496.859 79.6206 503.748 69.6323 500.304 74.6265Z" fill="#FFA8A8"/>
<path d="M521.394 48.5492C522.22 49.5821 520.495 51.8923 519.771 52.1013C519.771 52.1013 519.332 51.2498 518.669 50.7092C518.669 50.7092 520.425 48.8908 521.394 48.5492Z" fill="#FCB5A7"/>
<path d="M331.753 328.266C331.753 328.266 406.047 241.436 391.732 179.772C378.008 120.661 358.634 150.67 358.634 150.67C358.634 150.67 371.067 166.864 373.011 192.834C375.503 226.118 359.571 274.896 337.364 307.633C329.134 319.768 331.753 328.266 331.753 328.266Z" fill="url(#paint84_linear_10900_9821)"/>
<path d="M377.735 205.753L384.471 188.524C380.113 167.868 372.433 152.827 367.134 144.268C362.261 146.661 358.636 150.672 358.636 150.672C358.636 150.672 371.068 166.865 373.013 192.835C375.504 226.119 359.572 274.898 337.365 307.635C329.134 319.769 331.755 328.266 331.755 328.266C331.755 328.266 335.316 322.793 344.015 311.254C374.425 265.192 387.977 213.252 387.977 213.252L377.735 205.753Z" fill="url(#paint85_linear_10900_9821)"/>
<defs>
<linearGradient id="paint0_linear_10900_9821" x1="110.637" y1="223.529" x2="110.637" y2="236.259" gradientUnits="userSpaceOnUse">
<stop stop-color="#00468C"/>
<stop offset="1" stop-color="#00478F"/>
</linearGradient>
<linearGradient id="paint1_linear_10900_9821" x1="116.148" y1="229.898" x2="116.148" y2="451.197" gradientUnits="userSpaceOnUse">
<stop stop-color="#004286"/>
<stop offset="0.9999" stop-color="#003A75"/>
<stop offset="1" stop-color="#004286" stop-opacity="0"/>
</linearGradient>
<linearGradient id="paint2_linear_10900_9821" x1="105.149" y1="229.898" x2="105.149" y2="451.197" gradientUnits="userSpaceOnUse">
<stop stop-color="#00356B"/>
<stop offset="1" stop-color="#003A75"/>
</linearGradient>
<linearGradient id="paint3_linear_10900_9821" x1="96.3385" y1="269.531" x2="96.3385" y2="278.046" gradientUnits="userSpaceOnUse">
<stop stop-color="#00468C"/>
<stop offset="1" stop-color="#00478F"/>
</linearGradient>
<linearGradient id="paint4_linear_10900_9821" x1="100.025" y1="273.785" x2="100.025" y2="421.82" gradientUnits="userSpaceOnUse">
<stop stop-color="#004286"/>
<stop offset="0.9999" stop-color="#003A75"/>
<stop offset="1" stop-color="#004286" stop-opacity="0"/>
</linearGradient>
<linearGradient id="paint5_linear_10900_9821" x1="92.6682" y1="273.785" x2="92.6682" y2="421.82" gradientUnits="userSpaceOnUse">
<stop stop-color="#00356B"/>
<stop offset="1" stop-color="#003A75"/>
</linearGradient>
<linearGradient id="paint6_linear_10900_9821" x1="136.68" y1="262.986" x2="136.68" y2="270.975" gradientUnits="userSpaceOnUse">
<stop stop-color="#00468C"/>
<stop offset="1" stop-color="#00478F"/>
</linearGradient>
<linearGradient id="paint7_linear_10900_9821" x1="140.143" y1="266.985" x2="140.143" y2="405.93" gradientUnits="userSpaceOnUse">
<stop stop-color="#004286"/>
<stop offset="0.9999" stop-color="#003A75"/>
<stop offset="1" stop-color="#004286" stop-opacity="0"/>
</linearGradient>
<linearGradient id="paint8_linear_10900_9821" x1="133.238" y1="266.985" x2="133.238" y2="405.93" gradientUnits="userSpaceOnUse">
<stop stop-color="#00356B"/>
<stop offset="1" stop-color="#003A75"/>
</linearGradient>
<linearGradient id="paint9_linear_10900_9821" x1="290.961" y1="225.293" x2="290.961" y2="392.044" gradientUnits="userSpaceOnUse">
<stop stop-color="#00468C"/>
<stop offset="1" stop-color="#00478F"/>
</linearGradient>
<linearGradient id="paint10_linear_10900_9821" x1="363.145" y1="308.668" x2="363.145" y2="600.789" gradientUnits="userSpaceOnUse">
<stop stop-color="#004286"/>
<stop offset="0.9999" stop-color="#003A75"/>
<stop offset="1" stop-color="#004286" stop-opacity="0"/>
</linearGradient>
<linearGradient id="paint11_linear_10900_9821" x1="219.085" y1="308.668" x2="219.085" y2="600.789" gradientUnits="userSpaceOnUse">
<stop stop-color="#00356B"/>
<stop offset="1" stop-color="#003A75"/>
</linearGradient>
<linearGradient id="paint12_linear_10900_9821" x1="40.0699" y1="289.323" x2="40.0699" y2="335.707" gradientUnits="userSpaceOnUse">
<stop stop-color="#00468C"/>
<stop offset="1" stop-color="#00478F"/>
</linearGradient>
<linearGradient id="paint13_linear_10900_9821" x1="60.1509" y1="312.515" x2="60.1509" y2="546.559" gradientUnits="userSpaceOnUse">
<stop stop-color="#004286"/>
<stop offset="0.9999" stop-color="#003A75"/>
<stop offset="1" stop-color="#004286" stop-opacity="0"/>
</linearGradient>
<linearGradient id="paint14_linear_10900_9821" x1="20.0809" y1="312.515" x2="20.0809" y2="546.559" gradientUnits="userSpaceOnUse">
<stop stop-color="#00356B"/>
<stop offset="1" stop-color="#003A75"/>
</linearGradient>
<linearGradient id="paint15_linear_10900_9821" x1="542.496" y1="222.316" x2="542.496" y2="323.6" gradientUnits="userSpaceOnUse">
<stop stop-color="#00468C"/>
<stop offset="1" stop-color="#00478F"/>
</linearGradient>
<linearGradient id="paint16_linear_10900_9821" x1="586.344" y1="272.955" x2="586.344" y2="560.829" gradientUnits="userSpaceOnUse">
<stop stop-color="#004286"/>
<stop offset="0.9999" stop-color="#003A75"/>
<stop offset="1" stop-color="#004286" stop-opacity="0"/>
</linearGradient>
<linearGradient id="paint17_linear_10900_9821" x1="498.839" y1="272.955" x2="498.839" y2="560.829" gradientUnits="userSpaceOnUse">
<stop stop-color="#00356B"/>
<stop offset="1" stop-color="#003A75"/>
</linearGradient>
<linearGradient id="paint18_linear_10900_9821" x1="489.197" y1="432.155" x2="477.925" y2="431.931" gradientUnits="userSpaceOnUse">
<stop stop-color="#144188"/>
<stop offset="0.9975" stop-color="#1A7CDE"/>
</linearGradient>
<linearGradient id="paint19_linear_10900_9821" x1="508.48" y1="443.155" x2="497.208" y2="442.931" gradientUnits="userSpaceOnUse">
<stop stop-color="#144188"/>
<stop offset="0.9975" stop-color="#1A7CDE"/>
</linearGradient>
<linearGradient id="paint20_linear_10900_9821" x1="418.767" y1="365.699" x2="418.767" y2="466.983" gradientUnits="userSpaceOnUse">
<stop stop-color="#00468C"/>
<stop offset="1" stop-color="#00478F"/>
</linearGradient>
<linearGradient id="paint21_linear_10900_9821" x1="462.611" y1="416.345" x2="462.611" y2="592.225" gradientUnits="userSpaceOnUse">
<stop stop-color="#004286"/>
<stop offset="0.9999" stop-color="#003A75"/>
<stop offset="1" stop-color="#004286" stop-opacity="0"/>
</linearGradient>
<linearGradient id="paint22_linear_10900_9821" x1="375.107" y1="416.345" x2="375.107" y2="592.225" gradientUnits="userSpaceOnUse">
<stop stop-color="#00356B"/>
<stop offset="1" stop-color="#003A75"/>
</linearGradient>
<linearGradient id="paint23_linear_10900_9821" x1="119.399" y1="366.601" x2="119.399" y2="431.82" gradientUnits="userSpaceOnUse">
<stop stop-color="#00468C"/>
<stop offset="1" stop-color="#00478F"/>
</linearGradient>
<linearGradient id="paint24_linear_10900_9821" x1="147.635" y1="399.21" x2="147.635" y2="555.306" gradientUnits="userSpaceOnUse">
<stop stop-color="#004286"/>
<stop offset="0.9999" stop-color="#003A75"/>
<stop offset="1" stop-color="#004286" stop-opacity="0"/>
</linearGradient>
<linearGradient id="paint25_linear_10900_9821" x1="91.2905" y1="399.21" x2="91.2905" y2="555.306" gradientUnits="userSpaceOnUse">
<stop stop-color="#00356B"/>
<stop offset="1" stop-color="#003A75"/>
</linearGradient>
<linearGradient id="paint26_linear_10900_9821" x1="264.118" y1="52.3164" x2="264.118" y2="98.2361" gradientUnits="userSpaceOnUse">
<stop stop-color="white"/>
<stop offset="1" stop-color="white" stop-opacity="0"/>
</linearGradient>
<linearGradient id="paint27_linear_10900_9821" x1="183.507" y1="139.316" x2="183.507" y2="169.708" gradientUnits="userSpaceOnUse">
<stop stop-color="white"/>
<stop offset="1" stop-color="white" stop-opacity="0"/>
</linearGradient>
<linearGradient id="paint28_linear_10900_9821" x1="567.507" y1="120.316" x2="567.507" y2="150.708" gradientUnits="userSpaceOnUse">
<stop stop-color="white"/>
<stop offset="1" stop-color="white" stop-opacity="0"/>
</linearGradient>
<linearGradient id="paint29_linear_10900_9821" x1="136.979" y1="462.729" x2="241.037" y2="457.227" gradientUnits="userSpaceOnUse">
<stop offset="0.001302" stop-color="#015EA5"/>
<stop offset="0.0471" stop-color="#005495"/>
<stop offset="0.2502" stop-color="#00467B"/>
<stop offset="0.4666" stop-color="#003D6C"/>
<stop offset="0.7036" stop-color="#00345C"/>
<stop offset="1" stop-color="#002A49"/>
</linearGradient>
<linearGradient id="paint30_linear_10900_9821" x1="180.819" y1="534.073" x2="288.229" y2="526.719" gradientUnits="userSpaceOnUse">
<stop offset="0.001302" stop-color="#015EA5"/>
<stop offset="0.0471" stop-color="#005495"/>
<stop offset="0.2502" stop-color="#00467B"/>
<stop offset="0.4666" stop-color="#003D6C"/>
<stop offset="0.7036" stop-color="#00345C"/>
<stop offset="1" stop-color="#002A49"/>
</linearGradient>
<linearGradient id="paint31_linear_10900_9821" x1="360.685" y1="498.472" x2="268.828" y2="352.761" gradientUnits="userSpaceOnUse">
<stop offset="0.001302" stop-color="#003055"/>
<stop offset="0.7619" stop-color="#56AEF1"/>
<stop offset="0.9709" stop-color="#3081BF"/>
</linearGradient>
<linearGradient id="paint32_linear_10900_9821" x1="383.818" y1="398.873" x2="429.352" y2="396.466" gradientUnits="userSpaceOnUse">
<stop stop-color="#00355E"/>
<stop offset="0.9987" stop-color="#005DA5"/>
</linearGradient>
<linearGradient id="paint33_linear_10900_9821" x1="305.21" y1="434.719" x2="350.744" y2="432.312" gradientUnits="userSpaceOnUse">
<stop stop-color="#003660"/>
<stop offset="0.9987" stop-color="#005697"/>
</linearGradient>
<linearGradient id="paint34_linear_10900_9821" x1="236.014" y1="470.068" x2="281.547" y2="467.66" gradientUnits="userSpaceOnUse">
<stop stop-color="#003054"/>
<stop offset="0.2964" stop-color="#00355E"/>
<stop offset="0.5334" stop-color="#003965"/>
<stop offset="0.7498" stop-color="#004981"/>
<stop offset="0.9529" stop-color="#005597"/>
<stop offset="0.9987" stop-color="#005FA9"/>
</linearGradient>
<linearGradient id="paint35_linear_10900_9821" x1="200" y1="504.316" x2="-7" y2="635.316" gradientUnits="userSpaceOnUse">
<stop stop-color="white"/>
<stop offset="1" stop-color="white" stop-opacity="0.3"/>
</linearGradient>
<linearGradient id="paint36_linear_10900_9821" x1="268.073" y1="567.615" x2="136.076" y2="680.404" gradientUnits="userSpaceOnUse">
<stop stop-color="white"/>
<stop offset="1" stop-color="white" stop-opacity="0.3"/>
</linearGradient>
<linearGradient id="paint37_linear_10900_9821" x1="336.223" y1="539.013" x2="204.227" y2="651.803" gradientUnits="userSpaceOnUse">
<stop stop-color="white"/>
<stop offset="1" stop-color="white" stop-opacity="0.3"/>
</linearGradient>
<linearGradient id="paint38_linear_10900_9821" x1="511.014" y1="82.4117" x2="481.83" y2="88.5361" gradientUnits="userSpaceOnUse">
<stop offset="0.1951" stop-color="#003258"/>
<stop offset="0.7989" stop-color="#015EA5"/>
</linearGradient>
<linearGradient id="paint39_linear_10900_9821" x1="436.25" y1="122.981" x2="431.787" y2="263.425" gradientUnits="userSpaceOnUse">
<stop offset="0.1327" stop-color="#015EA5"/>
<stop offset="0.7066" stop-color="#00487E"/>
</linearGradient>
<linearGradient id="paint40_linear_10900_9821" x1="498.198" y1="96.7911" x2="501.7" y2="98.5683" gradientUnits="userSpaceOnUse">
<stop offset="0.2011" stop-color="#0D7499"/>
<stop offset="0.3061" stop-color="#096388"/>
<stop offset="0.4932" stop-color="#044A70"/>
<stop offset="0.6647" stop-color="#013B61"/>
<stop offset="0.8049" stop-color="#00365C"/>
</linearGradient>
<linearGradient id="paint41_linear_10900_9821" x1="496.716" y1="98.275" x2="500.219" y2="100.052" gradientUnits="userSpaceOnUse">
<stop offset="0.2011" stop-color="#0D7499"/>
<stop offset="0.3061" stop-color="#096388"/>
<stop offset="0.4932" stop-color="#044A70"/>
<stop offset="0.6647" stop-color="#013B61"/>
<stop offset="0.8049" stop-color="#00365C"/>
</linearGradient>
<linearGradient id="paint42_linear_10900_9821" x1="491.109" y1="105.08" x2="495.021" y2="105.432" gradientUnits="userSpaceOnUse">
<stop offset="0.2011" stop-color="#0D7499"/>
<stop offset="0.3061" stop-color="#096388"/>
<stop offset="0.4932" stop-color="#044A70"/>
<stop offset="0.6647" stop-color="#013B61"/>
<stop offset="0.8049" stop-color="#00365C"/>
</linearGradient>
<linearGradient id="paint43_linear_10900_9821" x1="490.283" y1="107.008" x2="494.195" y2="107.36" gradientUnits="userSpaceOnUse">
<stop offset="0.2011" stop-color="#0D7499"/>
<stop offset="0.3061" stop-color="#096388"/>
<stop offset="0.4932" stop-color="#044A70"/>
<stop offset="0.6647" stop-color="#013B61"/>
<stop offset="0.8049" stop-color="#00365C"/>
</linearGradient>
<linearGradient id="paint44_linear_10900_9821" x1="297.605" y1="336.743" x2="339.307" y2="151.475" gradientUnits="userSpaceOnUse">
<stop stop-color="#E0F2FF"/>
<stop offset="0.1558" stop-color="#E0F2FF"/>
<stop offset="1" stop-color="#E0F2FF"/>
</linearGradient>
<linearGradient id="paint45_linear_10900_9821" x1="356.077" y1="369.688" x2="366.876" y2="355.285" gradientUnits="userSpaceOnUse">
<stop stop-color="#00335A"/>
<stop offset="0.9987" stop-color="#015EA5"/>
</linearGradient>
<linearGradient id="paint46_linear_10900_9821" x1="235.694" y1="450.808" x2="218.285" y2="446.225" gradientUnits="userSpaceOnUse">
<stop stop-color="#003359"/>
<stop offset="0.9987" stop-color="#015EA5"/>
</linearGradient>
<linearGradient id="paint47_linear_10900_9821" x1="364.654" y1="375.299" x2="368.038" y2="294.816" gradientUnits="userSpaceOnUse">
<stop offset="0.4117" stop-color="#003156"/>
<stop offset="0.7989" stop-color="#015EA5"/>
</linearGradient>
<linearGradient id="paint48_linear_10900_9821" x1="309.459" y1="430.494" x2="274.747" y2="329.79" gradientUnits="userSpaceOnUse">
<stop offset="0.2011" stop-color="#015EA5"/>
<stop offset="0.8259" stop-color="#00335A"/>
</linearGradient>
<linearGradient id="paint49_linear_10900_9821" x1="345.622" y1="182.446" x2="367.838" y2="147.944" gradientUnits="userSpaceOnUse">
<stop offset="0.0955" stop-color="#F7D5D5"/>
<stop offset="0.2215" stop-color="#F6D0D0"/>
<stop offset="0.3623" stop-color="#F4C3C3"/>
<stop offset="0.4415" stop-color="#F2B8B8"/>
</linearGradient>
<linearGradient id="paint50_linear_10900_9821" x1="359.129" y1="138.849" x2="345.423" y2="150.414" gradientUnits="userSpaceOnUse">
<stop offset="0.0566" stop-color="#F2B8B8"/>
<stop offset="0.2762" stop-color="#F7D5D5"/>
<stop offset="0.5" stop-color="#FBECEC"/>
<stop offset="0.7137" stop-color="#FEF9F9"/>
<stop offset="0.9045" stop-color="#FFFEFE"/>
</linearGradient>
<linearGradient id="paint51_linear_10900_9821" x1="369" y1="98.3169" x2="344" y2="125.317" gradientUnits="userSpaceOnUse">
<stop stop-color="#E45959"/>
<stop offset="1" stop-color="#E45959" stop-opacity="0"/>
</linearGradient>
<linearGradient id="paint52_linear_10900_9821" x1="356.578" y1="146.738" x2="358.649" y2="111.35" gradientUnits="userSpaceOnUse">
<stop offset="0.106" stop-color="#F2B8B8"/>
<stop offset="0.424" stop-color="#F6CFCF"/>
<stop offset="0.4958" stop-color="#F7D5D5"/>
</linearGradient>
<linearGradient id="paint53_linear_10900_9821" x1="362.272" y1="130.736" x2="360.978" y2="133.556" gradientUnits="userSpaceOnUse">
<stop stop-color="#E5928A"/>
<stop offset="0.3518" stop-color="#EAA09B"/>
<stop offset="0.9987" stop-color="#F2B8B8"/>
</linearGradient>
<linearGradient id="paint54_linear_10900_9821" x1="352.31" y1="146.336" x2="354.317" y2="112.051" gradientUnits="userSpaceOnUse">
<stop offset="0.106" stop-color="#F2B8B8"/>
<stop offset="0.424" stop-color="#F6CFCF"/>
<stop offset="0.4958" stop-color="#F7D5D5"/>
</linearGradient>
<linearGradient id="paint55_linear_10900_9821" x1="355.576" y1="122.033" x2="363.902" y2="125.845" gradientUnits="userSpaceOnUse">
<stop stop-color="#E5928A"/>
<stop offset="0.3518" stop-color="#EAA09B"/>
<stop offset="0.9987" stop-color="#F2B8B8"/>
</linearGradient>
<linearGradient id="paint56_linear_10900_9821" x1="362.527" y1="130.387" x2="361.923" y2="132.242" gradientUnits="userSpaceOnUse">
<stop stop-color="#E5928A"/>
<stop offset="0.3518" stop-color="#EAA09B"/>
<stop offset="0.9987" stop-color="#F2B8B8"/>
</linearGradient>
<linearGradient id="paint57_linear_10900_9821" x1="354.577" y1="135.752" x2="363.513" y2="138.631" gradientUnits="userSpaceOnUse">
<stop stop-color="#E5928A"/>
<stop offset="0.2432" stop-color="#DA8366"/>
<stop offset="0.7591" stop-color="#C5661D"/>
<stop offset="0.9987" stop-color="#BD5A00"/>
</linearGradient>
<linearGradient id="paint58_linear_10900_9821" x1="344.346" y1="121.369" x2="349.548" y2="123.044" gradientUnits="userSpaceOnUse">
<stop stop-color="#E5928A"/>
<stop offset="0.5823" stop-color="#F0BBB8"/>
<stop offset="0.9987" stop-color="#F7D5D5"/>
</linearGradient>
<linearGradient id="paint59_linear_10900_9821" x1="363.436" y1="117.333" x2="362.377" y2="121.156" gradientUnits="userSpaceOnUse">
<stop stop-color="#E45959"/>
<stop offset="1" stop-color="#E45959" stop-opacity="0"/>
</linearGradient>
<linearGradient id="paint60_linear_10900_9821" x1="357.238" y1="121.552" x2="362.106" y2="122.36" gradientUnits="userSpaceOnUse">
<stop offset="1.348e-05" stop-color="#CDE8F7"/>
<stop offset="1" stop-color="white"/>
</linearGradient>
<linearGradient id="paint61_linear_10900_9821" x1="360.528" y1="129.07" x2="362.72" y2="130.074" gradientUnits="userSpaceOnUse">
<stop offset="0.5042" stop-color="#F7D5D5"/>
<stop offset="0.576" stop-color="#F6CFCF"/>
<stop offset="0.894" stop-color="#F2B8B8"/>
</linearGradient>
<linearGradient id="paint62_linear_10900_9821" x1="360.804" y1="131.288" x2="362.508" y2="132.068" gradientUnits="userSpaceOnUse">
<stop offset="0.001302" stop-color="#F7D5D5"/>
<stop offset="0.4177" stop-color="#F0BBB8"/>
<stop offset="1" stop-color="#E5928A"/>
</linearGradient>
<linearGradient id="paint63_linear_10900_9821" x1="365.237" y1="123.886" x2="369.466" y2="124.588" gradientUnits="userSpaceOnUse">
<stop offset="1.348e-05" stop-color="#CDE8F7"/>
<stop offset="1" stop-color="white"/>
</linearGradient>
<linearGradient id="paint64_linear_10900_9821" x1="369.969" y1="119.997" x2="368.995" y2="123.038" gradientUnits="userSpaceOnUse">
<stop stop-color="#E45959"/>
<stop offset="1" stop-color="#E45959" stop-opacity="0"/>
</linearGradient>
<linearGradient id="paint65_linear_10900_9821" x1="360.531" y1="140.145" x2="360.359" y2="142.964" gradientUnits="userSpaceOnUse">
<stop stop-color="#E5928A"/>
<stop offset="0.3518" stop-color="#EAA09B"/>
<stop offset="0.9987" stop-color="#F2B8B8"/>
</linearGradient>
<linearGradient id="paint66_linear_10900_9821" x1="355.078" y1="135.492" x2="363.384" y2="139.295" gradientUnits="userSpaceOnUse">
<stop offset="0.001302" stop-color="#F2B8B8"/>
<stop offset="0.6482" stop-color="#EAA09B"/>
<stop offset="1" stop-color="#E5928A"/>
</linearGradient>
<linearGradient id="paint67_linear_10900_9821" x1="360.919" y1="135.389" x2="364.253" y2="136.915" gradientUnits="userSpaceOnUse">
<stop stop-color="#E5928A"/>
<stop offset="0.3518" stop-color="#EAA09B"/>
<stop offset="0.9987" stop-color="#F2B8B8"/>
</linearGradient>
<linearGradient id="paint68_linear_10900_9821" x1="355.684" y1="158.067" x2="336.296" y2="153.703" gradientUnits="userSpaceOnUse">
<stop stop-color="white"/>
<stop offset="0.8768" stop-color="#E3F2FB"/>
</linearGradient>
<linearGradient id="paint69_linear_10900_9821" x1="363.071" y1="150.506" x2="363.552" y2="170.29" gradientUnits="userSpaceOnUse">
<stop offset="1.348e-05" stop-color="#E3F2FB"/>
<stop offset="1" stop-color="white"/>
</linearGradient>
<radialGradient id="paint70_radial_10900_9821" cx="0" cy="0" r="1" gradientUnits="userSpaceOnUse" gradientTransform="translate(238.092 237.799) scale(170.194 170.194)">
<stop offset="0.1951" stop-color="#003D6C"/>
<stop offset="0.3354" stop-color="#004E89"/>
<stop offset="0.4861" stop-color="#005393"/>
<stop offset="0.6396" stop-color="#005596"/>
<stop offset="0.7989" stop-color="#0066B5"/>
</radialGradient>
<linearGradient id="paint71_linear_10900_9821" x1="335.253" y1="143.788" x2="322.722" y2="354.874" gradientUnits="userSpaceOnUse">
<stop offset="0.3052" stop-color="#0066B4"/>
<stop offset="0.449" stop-color="#0060AA"/>
<stop offset="0.5919" stop-color="#00579A"/>
<stop offset="0.7345" stop-color="#004F8C"/>
<stop offset="0.8761" stop-color="#003A67"/>
<stop offset="0.9568" stop-color="#00335B"/>
</linearGradient>
<linearGradient id="paint72_linear_10900_9821" x1="241.43" y1="270.802" x2="272.273" y2="344.056" gradientUnits="userSpaceOnUse">
<stop offset="0.1327" stop-color="#015EA5"/>
<stop offset="0.7066" stop-color="#003D6B"/>
</linearGradient>
<linearGradient id="paint73_linear_10900_9821" x1="241.086" y1="268.059" x2="271.929" y2="341.313" gradientUnits="userSpaceOnUse">
<stop offset="0.2934" stop-color="#003359"/>
<stop offset="0.8673" stop-color="#015EA5"/>
</linearGradient>
<linearGradient id="paint74_linear_10900_9821" x1="138.625" y1="263.134" x2="165.237" y2="279.214" gradientUnits="userSpaceOnUse">
<stop offset="0.1951" stop-color="#003761"/>
<stop offset="0.7989" stop-color="#00599C"/>
</linearGradient>
<linearGradient id="paint75_linear_10900_9821" x1="241.649" y1="285.572" x2="226.172" y2="206.219" gradientUnits="userSpaceOnUse">
<stop offset="0.2934" stop-color="#00487E"/>
<stop offset="0.8673" stop-color="#015EA5"/>
</linearGradient>
<linearGradient id="paint76_linear_10900_9821" x1="174.095" y1="273.808" x2="176.173" y2="277.141" gradientUnits="userSpaceOnUse">
<stop offset="0.2011" stop-color="#0D7499"/>
<stop offset="0.3061" stop-color="#096388"/>
<stop offset="0.4932" stop-color="#044A70"/>
<stop offset="0.6647" stop-color="#013B61"/>
<stop offset="0.8049" stop-color="#00365C"/>
</linearGradient>
<linearGradient id="paint77_linear_10900_9821" x1="172.06" y1="274.311" x2="174.138" y2="277.644" gradientUnits="userSpaceOnUse">
<stop offset="0.2011" stop-color="#0D7499"/>
<stop offset="0.3061" stop-color="#096388"/>
<stop offset="0.4932" stop-color="#044A70"/>
<stop offset="0.6647" stop-color="#013B61"/>
<stop offset="0.8049" stop-color="#00365C"/>
</linearGradient>
<linearGradient id="paint78_linear_10900_9821" x1="163.74" y1="277.233" x2="166.905" y2="279.559" gradientUnits="userSpaceOnUse">
<stop offset="0.2011" stop-color="#0D7499"/>
<stop offset="0.3061" stop-color="#096388"/>
<stop offset="0.4932" stop-color="#044A70"/>
<stop offset="0.6647" stop-color="#013B61"/>
<stop offset="0.8049" stop-color="#00365C"/>
</linearGradient>
<linearGradient id="paint79_linear_10900_9821" x1="162.036" y1="278.455" x2="165.202" y2="280.78" gradientUnits="userSpaceOnUse">
<stop offset="0.2011" stop-color="#0D7499"/>
<stop offset="0.3061" stop-color="#096388"/>
<stop offset="0.4932" stop-color="#044A70"/>
<stop offset="0.6647" stop-color="#013B61"/>
<stop offset="0.8049" stop-color="#00365C"/>
</linearGradient>
<linearGradient id="paint80_linear_10900_9821" x1="305.599" y1="278.043" x2="333.696" y2="153.215" gradientUnits="userSpaceOnUse">
<stop stop-color="#8F68AE"/>
<stop offset="0.1713" stop-color="#A683C2"/>
<stop offset="0.4097" stop-color="#B799D0"/>
<stop offset="0.6875" stop-color="#C5ABDB"/>
<stop offset="0.875" stop-color="#D1BCE3"/>
<stop offset="0.9929" stop-color="#D1BCE3"/>
</linearGradient>
<linearGradient id="paint81_linear_10900_9821" x1="516.515" y1="51.4248" x2="560.068" y2="60.3367" gradientUnits="userSpaceOnUse">
<stop stop-color="#1BB2E2"/>
<stop offset="0.00334227" stop-color="#1BB2E2"/>
<stop offset="0.313" stop-color="#3588C0"/>
<stop offset="0.5932" stop-color="#4769A8"/>
<stop offset="0.8316" stop-color="#525799"/>
<stop offset="1" stop-color="#565094"/>
</linearGradient>
<linearGradient id="paint82_linear_10900_9821" x1="545.69" y1="19.7212" x2="536.398" y2="65.1335" gradientUnits="userSpaceOnUse">
<stop stop-color="#1BB2E2"/>
<stop offset="0.00334227" stop-color="#1BB2E2"/>
<stop offset="0.313" stop-color="#3588C0"/>
<stop offset="0.5932" stop-color="#4769A8"/>
<stop offset="0.8316" stop-color="#525799"/>
<stop offset="1" stop-color="#565094"/>
</linearGradient>
<linearGradient id="paint83_linear_10900_9821" x1="554.604" y1="3.87909" x2="540.551" y2="72.5594" gradientUnits="userSpaceOnUse">
<stop stop-color="#565094"/>
<stop offset="1" stop-color="#1BB2E2"/>
</linearGradient>
<linearGradient id="paint84_linear_10900_9821" x1="333.431" y1="357.094" x2="377.654" y2="173.026" gradientUnits="userSpaceOnUse">
<stop offset="0.00640264" stop-color="#00345B"/>
<stop offset="0.1907" stop-color="#003863"/>
<stop offset="0.4432" stop-color="#004275"/>
<stop offset="0.7339" stop-color="#005392"/>
<stop offset="1" stop-color="#0066B4"/>
</linearGradient>
<linearGradient id="paint85_linear_10900_9821" x1="331.423" y1="356.291" x2="375.147" y2="174.297" gradientUnits="userSpaceOnUse">
<stop offset="0.0432" stop-color="#003258"/>
<stop offset="0.1239" stop-color="#003F70"/>
<stop offset="0.2655" stop-color="#004F8B"/>
<stop offset="0.4081" stop-color="#015EA5"/>
<stop offset="0.551" stop-color="#006CBF"/>
<stop offset="0.6948" stop-color="#006EC2"/>
</linearGradient>
</defs>
</svg>
