<svg width="239" height="239" viewBox="0 0 239 239" fill="none" xmlns="http://www.w3.org/2000/svg">
<g opacity="0.05" clip-path="url(#clip0_10606_13000)">
<path d="M79.8326 133.367L83.2949 127.37C102.428 94.2296 79.2143 45.0147 31.4568 17.4419L-41.2868 143.438C-60.4203 176.578 -37.2063 225.793 10.5513 253.365" stroke="white" stroke-width="5" stroke-miterlimit="10"/>
<path d="M79.8326 133.367L83.2949 127.37C102.428 94.2296 79.2143 45.0147 31.4568 17.4419L-6.64616 83.4381C41.1114 111.011 64.3254 160.226 45.1919 193.366L41.7296 199.363" stroke="white" stroke-width="5" stroke-miterlimit="10"/>
<path d="M232.12 69.2881C184.363 41.7152 130.134 46.2187 111.001 79.3589L83.2905 127.354L79.8282 133.351L45.1875 193.351C32.3693 215.552 3.78671 224.891 -28.0418 220.342C-18.2708 232.789 -5.2033 244.257 10.5468 253.35C58.3044 280.923 112.533 276.419 131.666 243.279L232.12 69.2881Z" stroke="white" stroke-width="5" stroke-miterlimit="10"/>
</g>
<defs>
<clipPath id="clip0_10606_13000">
<rect width="239" height="239" fill="white"/>
</clipPath>
</defs>
</svg>
