<svg width="299" height="248" viewBox="0 0 299 248" fill="none" xmlns="http://www.w3.org/2000/svg">
<g clip-path="url(#clip0_11117_32444)">
<path d="M194.884 110.206L204.247 172.998L199.938 171.019L188.205 117.766L195.392 172.998L191.667 168.926L179.073 105.565L194.884 110.206Z" fill="#015EA5"/>
<path d="M199.938 84.2938C199.471 83.9416 192.364 78.7321 192.364 78.7321L170.198 64.0791L160.084 53.5178L158.208 55.6179L166.554 67.534L179.073 77.0114V80.1344V106.69C179.073 106.69 191.348 111.94 194.884 110.206C197.465 100.634 199.938 84.2938 199.938 84.2938Z" fill="url(#paint0_linear_11117_32444)"/>
<path d="M193.475 79.5451C192.805 79.0506 192.364 78.7254 192.364 78.7254L189.648 76.9302L187.9 77.0995C187.9 77.0995 185.746 79.9245 187.229 80.7442C188.577 81.4961 192.026 81.1845 193.475 79.5451Z" fill="#00BAEB"/>
<path d="M187.392 59.3231C187.392 59.3231 185.312 57.1282 188.083 55.2788C190.854 53.4294 194.553 57.013 192.473 56.5524C195.826 58.9776 198.827 65.4471 198.827 65.4471L191.457 74.6264L187.392 59.3231Z" fill="#003A75"/>
<path d="M187.392 59.3235C187.392 59.3235 181.959 66.8295 181.038 72.2626C183.923 73.6513 187.392 75.6159 187.392 75.6159L188.083 79.8905C188.083 79.8905 190.739 80.927 192.358 78.7321C191.084 76.6524 191.03 75.8462 191.03 75.8462L195.359 63.483C195.365 63.483 192.595 60.36 187.392 59.3235Z" fill="#FDAA95"/>
<path d="M150.675 76.2865L130.27 49.1144L140.472 41.019H161.73L171.682 48.8231L150.675 76.2865Z" fill="#D1BCE3"/>
<path d="M140.472 41.019L140.215 49.1144L150.675 76.2865L130.27 49.1144L140.472 41.019Z" fill="#E1CFF1"/>
<path d="M150.675 49.1144V76.2865L161.9 49.1144L161.731 41.019L150.675 49.1144Z" fill="#E1CFF1"/>
<path opacity="0.5" d="M130.27 49.1144H150.675L140.472 41.019L130.27 49.1144Z" fill="#E1CFF1"/>
<path opacity="0.5" d="M150.675 49.1144L161.731 41.019L171.682 48.8231L150.675 49.1144Z" fill="#E1CFF1"/>
<path d="M192.48 68.1031C192.48 68.1031 195.02 66.5992 195.366 68.4486C195.711 70.298 192.825 73.4142 191.667 70.989" fill="#F2967F"/>
<path d="M198.055 84.5307L173.721 81.0893L156.291 73.4817L154.679 76.2863L173.369 85.4385L196.646 90.8783" fill="#00BAEB"/>
<path d="M156.02 73.9493L154.286 72.7366C154.286 72.7366 153.737 70.3859 153.344 67.9539C152.951 65.5219 152.247 67.7168 152.091 68.3468C151.935 68.9769 152.091 70.0675 152.091 70.0675C152.091 70.0675 149.659 68.1504 148.094 66.8362C146.529 65.5152 146.035 68.9498 146.739 70.4672C147.444 71.9847 150.052 74.9383 153.263 74.6199L155.051 75.6225L156.02 73.9493Z" fill="#FDAA95"/>
<path d="M186.647 65.8335C186.247 66.6871 185.793 67.5135 185.312 68.3265L185.258 68.4145H185.15C184.527 68.4281 183.897 68.4281 183.273 68.4213L183.368 68.0555C183.802 68.3129 184.235 68.5839 184.662 68.8616C185.089 69.1326 185.509 69.4239 185.922 69.7288C185.448 69.5323 184.987 69.3223 184.533 69.092C184.073 68.8684 183.626 68.6381 183.178 68.3942L182.528 68.0419L183.273 68.0284C183.903 68.0216 184.527 68.0216 185.15 68.0352L184.987 68.1232C185.509 67.3374 186.051 66.5719 186.647 65.8335Z" fill="#F2967F"/>
<path d="M189.594 70.6162C189.207 70.9278 188.781 71.1717 188.333 71.3749C187.886 71.5849 187.405 71.734 186.911 71.822C186.416 71.9033 185.881 71.9033 185.393 71.7001C185.271 71.6595 185.156 71.5985 185.048 71.5172C184.94 71.4495 184.831 71.3749 184.75 71.2666C184.567 71.0769 184.472 70.8398 184.384 70.6162C184.675 71.0159 185.055 71.3004 185.488 71.4088C185.922 71.5104 186.389 71.5104 186.843 71.4224C187.304 71.3478 187.758 71.2191 188.218 71.0904C188.679 70.9482 189.133 70.7788 189.594 70.6162Z" fill="#F2967F"/>
<path d="M194.207 69.1665C194.139 68.9497 193.963 68.821 193.787 68.8481C193.611 68.8684 193.428 68.9633 193.265 69.0852C192.926 69.3088 192.615 69.6001 192.29 69.871L192.242 69.5459C192.398 69.6272 192.547 69.722 192.683 69.8507C192.818 69.9794 192.954 70.1691 192.933 70.4062C192.906 70.6365 192.764 70.7856 192.622 70.8872C192.473 70.982 192.317 71.0565 192.154 71.0904C192.283 70.9888 192.412 70.8804 192.506 70.7585C192.601 70.6365 192.676 70.5078 192.655 70.4062C192.642 70.3046 192.547 70.2165 192.452 70.1285C192.337 70.0472 192.202 69.9794 192.066 69.9049L191.815 69.7762L192.019 69.5865C192.337 69.2817 192.683 68.9971 193.096 68.7871C193.306 68.6923 193.536 68.611 193.794 68.6313C194.085 68.6584 194.254 68.9497 194.207 69.1665Z" fill="#F2967F"/>
<path d="M188.334 66.0641C188.245 66.3012 188.049 66.4434 187.9 66.3892C187.744 66.335 187.69 66.0979 187.778 65.8608C187.866 65.6237 188.063 65.4815 188.212 65.5357C188.367 65.5899 188.422 65.827 188.334 66.0641Z" fill="#003A75"/>
<path d="M186.505 65.2237C186.417 65.4608 186.22 65.6031 186.064 65.5489C185.908 65.4947 185.854 65.2576 185.942 65.0205C186.03 64.7834 186.227 64.6411 186.383 64.6953C186.538 64.7495 186.593 64.9866 186.505 65.2237Z" fill="#003A75"/>
<path d="M188.286 63.8691C188.286 63.8691 189.627 63.6388 189.851 65.1224L188.286 63.8691Z" fill="#003A75"/>
<path d="M187.5 63.7469C187.5 63.7469 187.013 62.7918 186.037 63.5437L187.5 63.7469Z" fill="#003A75"/>
<path opacity="0.5" d="M189.675 234.841C189.675 234.841 188.801 225.906 192.439 221.8C196.077 217.695 192.453 230.505 192.453 230.505C192.453 230.505 197.323 209.39 202.966 209.633C208.609 209.877 193.882 234.841 193.882 234.841H189.675Z" fill="url(#paint1_linear_11117_32444)"/>
<path d="M206.807 157.552L175.354 138.591L172.258 184.744L206.807 157.552Z" fill="#F3F6F8"/>
<path d="M81 168.736L104.839 154.971C104.839 154.971 105.286 183.992 104.839 183.755C104.392 183.518 81 168.736 81 168.736Z" fill="#F3F6F8"/>
<path d="M102.055 107.489L102.481 132.493L127.628 121.011L102.055 107.489Z" fill="#D2DBE2"/>
<path d="M102.482 132.493L102.36 181.614L80.973 168.581L80.9053 193.558L143.717 230.905L143.9 157.376L102.482 132.493Z" fill="#D2DBE2"/>
<path d="M175.306 175.43L175.401 138.665L143.9 157.376L143.717 230.905L206.712 193.876L206.807 157.708L175.306 175.43Z" fill="#EDF1F4"/>
<path d="M175.692 101.656L175.401 138.665L137.295 121.038L175.692 101.656Z" fill="#D2DBE2"/>
<path d="M175.692 101.656L144.09 83.1216L102.055 107.489L123.36 119.751L102.481 132.493L143.9 157.376L175.401 138.665L143.995 120.096L175.692 101.656Z" fill="#F3F6F8"/>
<path opacity="0.1" d="M143.907 177.231L143.778 177.163L122.405 165.857V144.694H122.947V165.532L143.893 176.608L175.218 158.317L175.489 158.785L143.907 177.231Z" fill="#002448"/>
<path opacity="0.1" d="M122.818 144.924L122.527 144.464L143.148 131.457L123.137 120.035L123.401 119.568L144.198 131.43L122.818 144.924Z" fill="#002448"/>
<path opacity="0.1" d="M144.449 216.604L144.314 216.523L114.466 198.693V169.516L102.272 161.535L102.57 161.082L115.008 169.218V198.381L144.449 215.974L160.288 206.361V167.192H160.829V206.666L160.701 206.741L144.449 216.604Z" fill="#002448"/>
<path opacity="0.1" d="M194.518 200.894H193.976V177.387L160.687 196.139L160.423 195.664L194.518 176.459V200.894Z" fill="#002448"/>
<path opacity="0.1" d="M160.829 129.892H160.287V110.511L141.461 99.3329L115.007 115.348V125.015H114.465V115.043L141.454 98.7029L160.829 110.199V129.892Z" fill="#002448"/>
<path opacity="0.5" d="M283.703 234.915C283.703 234.915 275.486 221.373 277.213 215.039C278.941 208.705 283.331 224.625 283.331 224.625C283.331 224.625 283.907 192.44 289.462 187.169C295.023 181.899 289.462 222.091 289.462 222.091C289.462 222.091 291.9 206.043 297.36 208.346C302.821 210.649 292.869 234.99 292.869 234.99L283.703 234.915Z" fill="url(#paint2_linear_11117_32444)"/>
<path d="M250.753 153.813C250.753 153.813 251.748 152.376 248.991 148.285C246.234 144.193 243.111 150.737 243.111 150.737L248.984 155.31L250.753 153.813Z" fill="#FFC88F"/>
<path d="M219.367 137.412L247.542 115.497L252.264 150.859L224.238 173.899L219.367 137.412Z" fill="#EDF1F4"/>
<path d="M219.367 137.412L184.262 122.677L189.187 159.571L224.238 173.898L219.367 137.412Z" fill="#D2DBE2"/>
<path d="M247.542 115.497L214.456 100.613L184.262 122.677L219.367 137.412L247.542 115.497Z" fill="#F3F6F8"/>
<path d="M263.105 186.311C264.137 188.483 262.821 191.042 260.454 191.465C259.932 191.558 259.395 191.537 258.882 191.401L244.929 187.722C241.351 186.778 238.531 184.026 237.501 180.472L234.681 170.744C234.467 170.006 233.707 169.57 232.962 169.759C232.272 169.934 231.817 170.592 231.896 171.3L233.165 182.6C233.592 186.402 236.049 189.674 239.582 191.145L247.026 194.244C249.632 195.329 250.754 197.863 250.376 200.661C250.029 203.225 253.699 205.672 254.244 208.201C254.413 208.985 254.582 209.761 254.749 210.51C255.592 214.315 259.642 216.422 263.267 214.991C265.57 214.081 267.144 211.927 267.309 209.456L268.522 191.297C268.633 189.631 268.347 187.962 267.686 186.428L260.975 170.857L251.482 155.034C251.1 154.398 250.238 154.255 249.671 154.735C249.264 155.08 249.133 155.652 249.348 156.14L256.999 173.465L263.105 186.311Z" fill="url(#paint3_linear_11117_32444)"/>
<path d="M261.768 173.099C261.768 173.099 259.661 178.627 255.901 175.938C255 178.363 253.943 180.47 254.397 181.825C254.851 183.18 261.016 186.641 261.016 186.641L259.661 191.607C259.661 191.607 263.475 193.416 264.227 190.401C264.83 186.939 264.227 185.286 264.227 185.286L268.691 175.938C268.691 175.938 265.833 171.595 261.768 173.099Z" fill="#FDAA95"/>
<path d="M261.49 174.583C261.49 174.583 261.104 171.047 262.283 169.427C270.832 169.577 275.987 173.465 277.166 175.944C277.166 175.944 276.556 197.284 275.669 204.207C275.669 204.207 268.779 208.516 263.543 208.069C263.766 199.269 264.484 189.066 264.41 183.755C264.363 180.266 265.155 179.867 265.155 179.867C265.155 179.867 262.317 178.119 261.49 174.583Z" fill="#003A75"/>
<path d="M263.726 180.321C263.726 180.321 266.883 178.756 267.038 181.195C267.187 183.633 264.031 184.751 263.279 182.766" fill="#F2967F"/>
<path d="M231.757 170.064C231.757 170.064 230.721 168.188 231.757 167.334L233.451 165.939C233.451 165.939 232.767 163.534 232.977 161.982C233.187 160.438 235.741 161.799 236.134 163.73C236.526 165.661 233.715 168.581 233.715 168.581L234.298 169.421L231.757 170.064Z" fill="#FFC88F"/>
<path d="M256.402 217.702C256.402 217.702 244.872 213.251 233.193 212.946L238.918 242.523L241.228 244.372L240.55 220.933C240.55 220.933 254.289 230.2 262.052 228.175C261.625 234.678 263.272 244.379 263.272 244.379L288.669 240.348L290.058 237.693H269.294C269.294 237.693 280.987 217.769 267.038 213.515L256.402 217.702Z" fill="#015EA5"/>
<path d="M238.918 242.516C238.193 242.401 227.415 247.4 227.415 247.4L241.33 246.493L241.228 244.366L238.918 242.516Z" fill="#D1BCE3"/>
<path d="M266.286 181.608C266.164 181.384 265.988 181.208 265.799 181.12C265.609 181.032 265.412 181.107 265.223 181.195C264.843 181.411 264.505 181.771 264.173 182.116L264.085 181.825C264.2 181.865 264.322 181.913 264.43 181.981C264.525 182.055 264.708 182.096 264.721 182.36C264.667 182.59 264.505 182.604 264.396 182.651C264.274 182.692 264.159 182.712 264.037 182.719C264.139 182.658 264.247 182.597 264.335 182.529C264.423 182.468 264.511 182.36 264.491 182.346C264.505 182.353 264.403 182.279 264.308 182.258C264.207 182.224 264.098 182.204 263.99 182.177L263.732 182.102L263.902 181.886C264.213 181.486 264.566 181.093 265.081 180.863C265.331 180.754 265.683 180.727 265.934 180.91C266.164 181.086 266.259 181.357 266.286 181.608Z" fill="#F2967F"/>
<path d="M256.26 179.494C256.348 179.806 256.47 180.09 256.66 180.293C256.85 180.497 257.08 180.632 257.351 180.693C257.615 180.767 257.913 180.761 258.218 180.754C258.523 180.74 258.828 180.686 259.16 180.673C259.024 180.761 258.875 180.828 258.733 180.903C258.584 180.971 258.428 181.005 258.265 181.059C257.947 181.14 257.602 181.167 257.256 181.086C256.917 181.005 256.579 180.788 256.409 180.469C256.226 180.165 256.179 179.812 256.26 179.494Z" fill="#F2967F"/>
<path d="M256.078 176.879C256.173 176.886 256.22 176.913 256.267 176.94C256.315 176.967 256.335 177.001 256.355 177.042C256.369 177.082 256.376 177.123 256.355 177.177C256.342 177.225 256.322 177.279 256.254 177.347C256.159 177.34 256.112 177.313 256.064 177.286C256.017 177.259 255.996 177.225 255.976 177.184C255.969 177.143 255.956 177.103 255.976 177.049C255.996 177.001 256.017 176.947 256.078 176.879Z" fill="#F2967F"/>
<path d="M260.034 177.333C259.878 177.523 259.674 177.618 259.58 177.543C259.485 177.469 259.539 177.252 259.702 177.062C259.857 176.872 260.061 176.778 260.155 176.852C260.244 176.927 260.189 177.137 260.034 177.333Z" fill="#003A75"/>
<path d="M260.88 175.578C260.88 175.578 261.958 175.47 261.673 176.987L260.88 175.578Z" fill="#003A75"/>
<path d="M288.669 240.335L290.722 245.544L286.901 247.4H293.174L292.632 237.679H290.058L288.669 240.335Z" fill="#D1BCE3"/>
<path d="M75.4656 133.103L55.1696 119.351L52.9001 168.798L73.2165 182.116L75.4656 133.103Z" fill="#D2DBE2"/>
<path d="M73.2166 182.116L83.832 176.622L85.5527 139.085L96.5475 133.334L97.103 121.282L75.4656 133.103" fill="#EDF1F4"/>
<path d="M55.1699 119.351L76.6108 108.167L97.1033 121.282L75.466 133.103L55.1699 119.351Z" fill="#F3F6F8"/>
<path d="M43.4094 130.089L44.1478 136.111L46.9727 141.402L44.0191 140.047C44.0191 140.047 44.141 142.804 44.3849 145.358L39.3447 143.366L40.2051 148.779L37.0076 146.815V130.089H43.4094Z" fill="#FDAA95"/>
<path d="M49.0051 118.708L50.3329 118.274C50.3329 118.274 53.5033 115.537 55.644 115.226C57.7847 114.907 63.3262 117.217 60.8061 118.274C58.286 119.338 55.0682 119.236 55.0682 119.236C55.0682 119.236 55.7727 120.367 56.274 121.153C56.7753 121.939 56.8295 123.45 55.644 122.346C54.4585 121.235 52.3449 119.527 52.3449 119.527L49.4726 120.279L49.0051 118.708Z" fill="#FDAA95"/>
<path d="M42.0116 149.9C38.9054 147.982 36.7011 144.615 36.1227 141.01C36.0128 140.325 35.9001 139.626 35.7893 138.94C35.2034 135.314 36.5403 131.643 39.3268 129.25L49.0625 120.889C49.3696 120.625 49.493 120.206 49.3776 119.818C49.1879 119.18 48.4511 118.889 47.8766 119.224L34.9562 126.764C31.3115 128.891 29.2889 132.989 29.8171 137.176L31.0297 146.787C31.1128 147.445 31.1334 148.11 31.0914 148.772L29.3314 176.513C29.0529 180.903 32.5379 184.616 36.936 184.616H38.8032C41.6349 184.616 44.0111 182.481 44.3132 179.665L45.0303 172.983C45.3369 170.126 49.0404 169.205 50.6498 171.585C51.6043 172.997 53.5231 173.367 54.9337 172.411L69.7001 162.402C70.2667 162.018 70.4911 161.293 70.2402 160.656C69.9016 159.797 68.8616 159.463 68.0862 159.964L61.8372 164.002C57.8829 166.557 52.5799 164.913 50.7644 160.569L49.1037 156.595C48.2554 154.565 46.7926 152.852 44.9207 151.696L42.0116 149.9Z" fill="url(#paint4_linear_11117_32444)"/>
<path d="M43.7752 184.616L37.3937 237.828L34.6026 240.335L34.3926 189.995L26.2566 212.479L6.73962 232.626H3.52856L21.921 210.379L28.8173 184.616H43.7752Z" fill="#015EA5"/>
<path d="M37.0142 142.364L34.8396 129.147C34.8396 129.147 40.4149 125.753 42.725 125.875C45.0283 125.997 44.825 129.574 43.4092 130.088C41.8714 130.088 38.5994 131.572 38.5994 131.572L37.0142 142.364Z" fill="#003A75"/>
<path d="M38.7212 135.332C38.7212 135.332 37.2037 133.381 36.6008 134.777C35.9979 136.172 37.3866 140.183 38.7212 138.367" fill="#F2967F"/>
<path d="M69.5854 158.995C69.5854 158.995 71.8278 154.354 72.4036 153.094C72.9726 151.834 73.5485 153.467 72.9726 155.228C72.4036 156.983 72.4036 156.983 72.4036 156.983L73.5485 157.098C73.5485 157.098 76.3327 154.503 77.857 155.228C79.3812 155.953 76.6376 159.726 75.2692 160.756C73.894 161.786 70.6761 161.745 70.6761 161.745L69.5854 158.995Z" fill="#FDAA95"/>
<path d="M37.3936 237.829L55.2305 241.69H34.8396L34.6025 240.335L37.3936 237.829Z" fill="#D1BCE3"/>
<path d="M6.7394 232.625L8.9614 239.759L16.3658 241.69H6.7394L0.683105 234.055L3.52835 232.625H6.7394Z" fill="#D1BCE3"/>
<path d="M41.9934 141.768C41.7563 141.991 41.4582 142.14 41.1263 142.208C40.7943 142.276 40.4217 142.222 40.1169 142.039C39.8188 141.849 39.6088 141.565 39.4665 141.267C39.4056 141.111 39.3514 140.955 39.3107 140.806C39.2904 140.643 39.2565 140.488 39.2498 140.325C39.4056 140.609 39.5343 140.887 39.6969 141.138C39.873 141.375 40.0559 141.605 40.293 141.748C40.7672 142.046 41.3905 141.971 41.9934 141.768Z" fill="#F2967F"/>
<path d="M44.0191 140.047C43.5855 139.939 43.1926 139.769 42.8065 139.58L42.7048 139.525L42.7252 139.403C42.7794 139.099 42.8606 138.807 43.0165 138.53C43.1045 138.401 43.1926 138.238 43.4026 138.184C43.6465 138.164 43.721 138.367 43.7752 138.496C43.66 138.401 43.5245 138.306 43.45 138.36C43.3755 138.394 43.3145 138.536 43.2739 138.658C43.179 138.909 43.1113 139.2 43.0436 139.471L42.9623 139.295C43.3349 139.505 43.6939 139.749 44.0191 140.047Z" fill="#F2967F"/>
<path d="M37.1294 135.684C37.1497 135.562 37.1904 135.447 37.2581 135.339C37.3191 135.23 37.4546 135.108 37.6307 135.142C37.9491 135.23 38.0846 135.481 38.1997 135.691C38.4301 136.131 38.552 136.599 38.6536 137.066L38.6943 137.263L38.5046 137.242C38.4165 137.236 38.3285 137.222 38.2539 137.236C38.1726 137.249 38.1388 137.256 38.132 137.317C38.1185 137.459 38.2268 137.656 38.3217 137.825C38.2404 137.771 38.1659 137.696 38.0981 137.622C38.0372 137.54 37.9626 137.459 37.9491 137.324C37.922 137.175 38.0846 137.032 38.193 137.012C38.3081 136.978 38.4165 136.965 38.5249 136.965L38.3759 137.147C38.2946 136.924 38.2404 136.7 38.1591 136.484C38.0914 136.26 38.0101 136.043 37.922 135.84C37.8339 135.644 37.7255 135.42 37.5833 135.352C37.4546 135.278 37.2513 135.488 37.1294 135.684Z" fill="#F2967F"/>
<path d="M42.8878 135.447C42.8878 135.685 42.7726 135.881 42.6371 135.881C42.5016 135.881 42.3865 135.691 42.3865 135.447C42.3865 135.204 42.5016 135.014 42.6371 135.014C42.7726 135.014 42.8878 135.21 42.8878 135.447Z" fill="#003A75"/>
<path d="M43.05 133.456C43.05 133.456 41.939 132.399 41.3293 133.815L43.05 133.456Z" fill="#003A75"/>
<path opacity="0.5" d="M61.4498 242.056C61.4498 242.056 52.0402 232.26 52.9006 221.109C53.7609 209.959 61.4498 235.308 61.4498 235.308C61.4498 235.308 51.6947 203.97 55.231 195.428C58.7604 186.885 66.07 235.308 66.07 235.308C66.07 235.308 66.0429 221.882 70.6698 220.723C75.2967 219.571 69.5859 238.303 69.5859 238.303C69.5859 238.303 73.3389 230.295 75.466 232.626C77.6 234.956 73.2169 242.056 73.2169 242.056H61.4498Z" fill="url(#paint5_linear_11117_32444)"/>
<path d="M116.288 16.3403H116.099L115.726 16.3606H114.771L114.628 16.3403H114.446L114.093 16.32L113.883 16.2996L113.721 16.1574L113.741 15.9745L113.788 15.7441V15.3919L113.856 15.209L113.904 14.999L113.951 14.6738L113.998 14.396L114.019 14.2335L114.114 13.9286L114.161 13.6034L114.181 13.2783L114.229 13.136L114.249 12.9734L114.297 12.8108L114.317 12.6279L114.385 12.445L114.405 12.3028L114.452 11.9505L114.5 11.5779L114.595 11.3476L114.574 11.1172L114.642 10.7921L114.71 10.6092L114.757 10.4263L114.778 10.284V10.1214L114.845 9.81657L114.893 9.51172L114.913 9.34914L114.981 9.07139V8.92912L115.001 8.83428L115.048 8.60395L115.17 8.26523L115.191 7.94006L115.238 7.8249L115.333 7.52005L115.353 7.33037L115.448 7.0052L115.496 6.68003V6.49712L115.516 6.33454L115.563 6.17195L115.631 5.96195L115.651 5.75194L115.672 5.47419L115.719 5.3116L115.739 5.16934L115.807 4.98643L115.848 4.76965L115.868 4.62739V4.47158L115.916 4.32932L115.936 4.18706L115.983 3.83479L116.078 3.50962L116.126 2.76444L116.193 2.41217L116.261 2.10732L116.403 1.55182L116.471 1.24698V1.07084L116.491 0.908257L116.512 0.55599L116.559 0.345984L116.627 0.230819L116.837 0.047911L117.162 0.0275879H117.745L117.887 0.047911L118.144 0.0275879H118.632L119.77 0.0750086L120.698 0.0546854L121.023 0.0750086H121.721L121.979 0.122429L122.209 0.142752L122.561 0.237594L122.839 0.305337L123.069 0.420502L123.279 0.515343L123.537 0.725349L123.842 1.05052L124.052 1.23343L124.146 1.37569L124.214 1.49085L124.309 1.7686L124.451 2.09377L124.472 2.27668V2.43927L124.519 2.62218L124.566 2.89993L124.546 3.25219L124.526 3.39445V3.55704L124.506 3.6993L124.458 3.86189V4.00415L124.411 4.309L124.39 4.47158L124.296 4.77643L124.316 4.91869L124.268 5.08128L124.248 5.14902L124.228 5.3116L124.18 5.45387L124.133 5.61645L124.065 5.75871L123.97 5.96872L123.808 6.22615L123.645 6.45647L123.462 6.73422L123.157 7.03907L123.042 7.13391L122.927 7.27617L122.812 7.37102L122.643 7.45231L122.365 7.61489L122.087 7.73006L121.877 7.8249V7.96716L122.107 8.062L122.365 8.20426L122.575 8.29911L122.853 8.48201L122.995 8.6446L123.137 8.78686L123.279 9.01719L123.374 9.17978L123.489 9.4372L123.537 9.66753L123.605 9.80979L123.652 10.1146L123.747 10.4195L123.726 10.7243L123.774 10.9547L123.754 11.1647V11.4695L123.733 11.6321L123.686 11.9844L123.618 12.3366L123.55 12.6415L123.53 12.8041L123.462 13.1292L123.415 13.2715L123.367 13.4341L123.293 13.5493L123.245 13.7118L122.873 14.457L122.663 14.7348L122.521 14.9922L122.405 15.1074L122.243 15.2496L122.148 15.3648L121.965 15.4799L121.823 15.5477L121.708 15.6629L121.545 15.7577L121.43 15.8525L121.315 15.9203L121.152 15.988L120.969 16.0829L120.712 16.1506L120.529 16.2184L120.387 16.2387L120.177 16.259L119.872 16.3267L119.73 16.3064L119.377 16.3742L119.025 16.3538L118.862 16.3335L118.7 16.3538L118.07 16.3742L117.765 16.3538L117.575 16.3335H117.25L117.067 16.3538H117L116.647 16.3742L116.288 16.3403ZM118.009 13.3189L118.591 13.3867H119.032L119.194 13.3189H119.357L119.52 13.2512L119.73 13.0886L119.892 12.9463L120.034 12.7363L120.055 12.5466L120.17 12.2892L120.217 12.1266L120.238 11.9437L120.353 11.6389L120.4 11.2189L120.38 10.8259L120.4 10.5211L120.19 9.9656L119.933 9.73527L119.492 9.57269L119.262 9.52527L119.072 9.47785H118.747L118.49 9.45753H118.165L118.097 9.66753L118.05 10.0875L118.002 10.2705L117.955 10.3653L117.907 10.7176L117.86 10.8801V11.0427L117.812 11.185L117.792 11.3679L117.745 11.6931L117.697 11.8557L117.63 12.2079V12.3705L117.582 12.6957L117.541 12.8718L117.521 13.0547L117.426 13.3596L117.799 13.3799L118.009 13.3189ZM119.614 6.23969L119.892 6.19227L120.075 6.07711L120.332 5.91452L120.61 5.6842L120.725 5.47419L120.908 5.24386L121.023 4.91869L121.091 4.64094L121.139 4.49868L121.159 4.31577L121.267 4.07189L121.247 3.81447L121.227 3.65188L121.206 3.37413L121.064 3.09638L120.996 2.98122L120.813 2.81863L120.671 2.79831L120.461 2.75089L120.041 2.70347H119.459L119.276 2.75089V2.91347L119.208 3.12348L119.188 3.33349L119.167 3.49607L119.1 3.77382V3.93641L119.032 4.24125L119.011 4.40384L118.964 4.5461L118.801 5.6842L118.754 5.8671L118.707 6.09743V6.23969H119.011L119.289 6.26002L119.614 6.23969Z" fill="#D2DBE2"/>
<path d="M131.063 16.3875H130.758L130.033 16.3401L129.823 16.2926L129.776 16.1504V15.9404L129.844 15.71L129.864 15.4797L129.884 15.2223V15.0597L129.932 14.9174V14.7549L129.999 14.5923V14.45L130.02 14.2874L130.088 13.9622V13.7997L130.155 13.6168L130.135 13.4542L130.203 13.2713L130.223 12.9461L130.27 12.7632L130.291 12.6006L130.27 12.4177L130.365 12.2348V11.8825L130.48 11.4625V11.2457L130.528 11.0154L130.548 10.6631V10.4802L130.643 10.155L130.663 9.99246L130.684 9.80955V9.59955L130.799 9.43696L130.846 9.2947L130.826 9.15244L130.846 8.87469L130.894 8.7121L130.961 8.56984V8.42758L131.009 8.26499L131.056 8.00757L131.077 7.8653L131.124 7.56046L131.171 7.23529V7.05238L131.287 6.56462V6.40204L131.307 6.25978L131.368 6.09719L131.415 5.79234L131.436 5.65008V5.49427L131.456 5.35201L131.551 5.07426L131.571 4.74909L131.591 4.60683L131.659 4.28166L131.727 3.90907L131.795 3.5839L131.815 3.44163V3.30615L131.835 3.0013V2.86581L131.883 2.70323L131.95 2.42548L132.018 2.05289L132.113 1.40255L132.133 1.21964L132.154 1.05705V0.860595L132.276 0.677686L132.255 0.42026L132.35 0.305095L132.513 0.122187L132.743 0.0747665H133.068L134.464 0.0950896H135.466L135.629 0.0747665L135.859 0.0544434L136.042 0.101864L136.394 0.149285H136.604L136.909 0.196705L137.262 0.217028L137.519 0.264449H137.892L138.074 0.31187L138.332 0.427034L138.542 0.521876L138.705 0.569296L138.915 0.711558L139.057 0.779302L139.172 0.847046L139.45 1.00963L139.545 1.10447L139.66 1.24673L139.755 1.3619L139.917 1.63965L140.08 1.96482L140.147 2.33741L140.195 2.77774V2.94033L140.263 3.38066V3.56357L140.195 3.88874L140.175 4.05133L140.195 4.4036V4.56618L140.127 4.93877L140.08 5.31136L140.012 5.54169L139.917 5.81944L139.87 5.98203L139.822 6.12429L139.755 6.28687L139.639 6.56462L139.429 6.86947L139.362 7.03206L139.267 7.24206L139.084 7.54691L139.016 7.68917L138.759 7.99402L138.644 8.10918L138.318 8.46145L137.851 8.7663L137.526 8.92888L137.363 8.94921V9.15921L137.431 9.34212L137.546 9.69439V9.90439L137.594 10.2092L137.688 10.3515L137.709 10.5344L137.756 10.8393L137.824 10.9815L137.892 11.2864L137.939 11.4286L137.986 11.7538L138.054 11.9164L138.102 12.0993L138.196 12.4041V12.5464L138.312 12.8987L138.359 13.2035L138.616 14.0435L138.664 14.3687L138.826 14.7616L138.847 15.0394L138.867 15.202L138.915 15.412L139.077 15.8523L139.009 16.1571L138.894 16.1775L138.637 16.2249H138.332L137.844 16.2926L137.241 16.3604H136.936L136.679 16.3807H136.496L136.286 16.401L136.144 16.3807L135.934 16.1707L135.886 16.0555L135.819 15.7778L135.771 15.6626L135.703 15.4052L135.561 15.0529V14.87L135.493 14.6871L135.446 14.6194L135.399 14.3145L135.331 14.1519V13.9893L135.263 13.8471L135.243 13.6845L135.175 13.4271L135.08 13.1967V12.919L134.938 12.499L134.918 12.3364L134.816 12.0383L134.769 11.8757L134.721 11.5709L134.626 11.266L134.606 10.9409L134.559 10.8257L134.491 10.5005L134.443 10.2702L134.349 10.0873L134.301 9.90439L134.206 9.72149L134.111 9.62664L133.949 9.60632L133.929 9.70116L133.881 9.84342L133.813 10.1686L133.793 10.3515L133.725 10.8393V11.2322L133.61 11.537L133.563 11.8622V12.0045L133.515 12.3296L133.42 12.5125V13.0003L133.373 13.1832L133.278 13.6709L133.258 13.8606L133.21 14.0029V14.1858L133.143 14.511L133.163 14.6532L133.116 14.8158V14.9581L133.095 15.2629L133.075 15.4255V15.5678L133.055 15.7304L133.034 16.0081L132.967 16.1707L132.899 16.3807L132.669 16.3604L132.459 16.3807L132.106 16.401L131.917 16.4213L131.063 16.3875ZM135.304 6.82205L135.582 6.75431L135.724 6.65946L135.954 6.5172L136.117 6.42236L136.279 6.23945L136.374 6.09719L136.537 5.95493L136.652 5.65008L136.699 5.4604L136.72 5.31814L136.882 4.99297V4.81683L136.95 4.63392L136.97 4.26133L136.95 3.74648L136.882 3.25873L136.767 3.04872L136.604 2.88613L136.394 2.77097L135.88 2.70323L135.324 2.6829L135.114 2.75065L135.046 3.00807L134.979 3.17066L134.931 3.54325L134.911 3.89552L134.891 4.20036L134.843 4.38327L134.775 4.75586V4.91845L134.728 5.27072L134.66 5.48072L134.681 5.69073L134.633 5.90073L134.565 6.27332L134.545 6.43591L134.565 6.5985L134.531 6.77463L134.924 6.82205H135.304Z" fill="#D2DBE2"/>
<path d="M146.59 16.3874L146.427 16.3671L144.727 16.3468L144.517 16.2993L144.469 16.1164L144.517 15.9539L144.537 15.8116L144.679 15.5338L144.862 15.229L145.093 14.5312L145.235 14.2535L145.35 13.9757L145.608 13.4202L145.702 13.1154L145.892 12.6954L145.94 12.5531L146.055 12.3905L146.17 12.1128L146.217 11.9705L146.238 11.8079L146.305 11.6657L146.421 11.3608L146.488 11.1982L146.651 10.8731L146.698 10.7105L146.746 10.5005L146.861 10.3108L147.003 10.033L147.051 9.87046L147.193 9.54529L147.213 9.40303L147.281 9.24044L147.349 9.09818L147.464 8.77301L147.532 8.63075L147.714 7.98041L147.782 7.7975L147.945 7.49265L148.06 7.09974L148.202 6.84231L148.27 6.70005L148.338 6.3952L148.453 6.23262L148.521 5.92777L148.568 5.81261L148.71 5.50776L148.778 5.18259L148.893 5.02L148.988 4.87774L149.171 4.38999L149.286 4.08514L149.354 3.94288L149.496 3.73287L149.564 3.50254L149.632 3.33996L149.842 2.91995L149.889 2.75736L149.957 2.6151L150.004 2.47284L150.052 2.31025L150.194 2.05283L150.289 1.91056L150.336 1.7954L150.478 1.37539L150.641 1.07054L150.871 0.677627L150.939 0.515042L151.007 0.37278L151.102 0.115353L151.264 0.0950302H151.495L151.935 0.115353L152.165 0.0950302H152.538L152.978 0.074707H153.188L153.351 0.122128L153.561 0.101805H153.933L154.048 0.149225L154.211 0.26439L154.279 1.267V1.78185L154.326 1.92411V2.34412L154.347 3.18415V3.50932L154.367 3.81416L154.414 4.2816V4.60677L154.462 4.93871L154.435 5.1013V5.61615L154.482 5.94132V6.40875L154.502 6.73392L154.482 6.87618L154.502 7.18103V7.32329L154.523 7.69588L154.57 7.95331V8.86108L154.597 9.13883L154.618 9.32174V10.0195L154.638 11.0898V11.2524L154.658 11.6047L154.638 11.957L154.658 12.2821L154.638 12.4447L154.685 13.3322V13.4744L154.712 13.7793L154.733 13.9419V14.2941L154.712 14.6193L154.733 14.8022V15.0122L154.753 15.5271V16.0148C154.773 16.1097 154.8 16.3197 154.685 16.3874C154.59 16.4077 154.523 16.3874 154.428 16.3874L154.265 16.4077L154.082 16.3874H153.757L153.242 16.4077H153.053L152.775 16.3874L152.612 16.4077L152.382 16.4281L152.077 16.4077H151.732L151.637 16.34L151.589 16.1097L151.569 15.6897L151.549 15.4593L151.569 15.229V14.1383L151.549 13.9554L151.034 13.9351L150.661 13.8877L149.638 13.8673H149.008L148.893 14.1248L148.731 14.4296L148.683 14.5922L148.615 14.7548L148.521 15.0325L148.29 15.4729L148.148 15.8251L148.08 16.0826L148.012 16.1977L147.918 16.3603L147.775 16.4552L147.125 16.4348L146.942 16.4552L146.59 16.3874ZM151.481 10.7986L151.623 10.6834L151.644 10.3582L151.623 10.1753L151.644 9.9924V9.38948L151.664 9.22689V8.83398L151.711 8.65107L151.691 8.0888L151.711 7.20136L151.738 6.36133L151.711 5.82616L151.528 5.8939L151.434 6.19875L151.318 6.57134L151.251 6.80167L151.135 7.17426L151.041 7.35717L150.946 7.58749L150.925 7.75008L150.831 7.91267L150.763 8.12267L150.695 8.28526L150.627 8.49526L150.485 9.01011L150.465 9.1727L150.35 9.52497L150.255 9.68755L150.14 10.0805L150.092 10.2431L150.045 10.4531L149.977 10.6156L150.14 10.7579H150.323L150.58 10.7782L150.79 10.7986H151.481Z" fill="#D2DBE2"/>
<path d="M160.932 16.3669L160.816 16.0892L160.864 15.8995V15.5269L160.911 15.1543L161.006 14.8291L161.026 14.6665L161.094 14.3414L161.142 14.2262L161.209 13.901L161.257 13.691L161.324 13.3184V13.1558L161.372 12.9729V12.6681L161.467 12.5055L161.487 12.2278L161.507 12.0652L161.575 11.7874L161.595 11.6452L161.575 11.4826L161.623 11.1777L161.717 10.8051L161.765 10.5274L161.812 10.3174L161.88 10.06L161.927 9.7822L161.948 9.61962L161.995 9.47736L162.022 9.17251L162.043 9.03025V8.88799L162.158 8.61024L162.178 8.46798L162.198 8.30539L162.219 7.98022L162.239 7.74989L162.354 7.47214L162.402 7.28923L162.449 7.0589V6.72696L162.469 6.54405L162.537 6.36114V6.17146L162.605 6.00888V5.84629L162.652 5.68371L162.7 5.37886L162.767 5.12143L162.835 4.91143V4.63368L162.862 4.47109L162.91 4.32883L163.025 3.67849V3.5159L163.12 3.3059L163.167 3.09589L163.187 2.79104L163.208 2.62846L163.228 2.4862L163.255 2.32361L163.303 2.18135L163.323 2.01877L163.37 1.71392L163.418 1.43617L163.486 1.13132V0.955188L163.553 0.65034L163.601 0.508079L163.668 0.392914L163.811 0.135488L164.041 0.0880669L164.366 0.0677438L164.759 0.0880669H164.969L165.274 0.0677438L165.714 0.0880669L165.992 0.0677438L166.344 0.0880669H166.669L166.927 0.155811L167.069 0.365817L167.096 0.528402L167.191 0.758731L167.239 1.03648L167.259 1.29391L167.354 1.61908L167.449 2.17458L167.516 2.54717L167.584 2.94008L167.652 3.26525L167.747 3.73268L167.794 3.91559L167.814 4.07818L167.862 4.43044L167.93 4.73529V4.87755L167.997 5.13498V5.29757L168.018 5.55499L168.085 5.90726L168.133 6.30017L168.2 6.69309L168.221 7.06568L168.268 7.39085L168.316 7.57376L168.383 8.20377L168.478 8.73895L168.526 9.2538V9.41639L168.573 9.57897L168.62 9.85672L168.688 10.4867L168.756 11.0016H168.824L168.844 10.5342L168.891 9.97866V9.65349L168.959 8.53572L169.027 8.04796V7.25536L169.095 6.93019L169.115 6.78793L169.135 6.62534L169.156 6.44244L169.183 6.11727L169.23 5.975L169.278 5.64983V5.51435L169.372 5.2095V4.93852L169.393 4.66077V4.49141L169.535 4.21366L169.508 4.05108L169.576 3.63107V3.48881L169.643 3.18396L169.671 3.02137L169.718 2.87911L169.765 2.55394L169.792 2.37103L169.86 2.04586L169.908 1.88328L169.975 1.70037V1.49036L169.996 1.3481L170.063 0.975511L170.158 0.487755L170.341 0.162585L170.436 0.0948413L170.937 0L171.425 0.0474207L171.588 0.0270975H171.818L172.353 0.0474207H172.583L172.909 0.0270975L173.234 0.0948413L173.376 0.162585L173.396 0.345493V0.528402L173.329 0.853572L173.349 1.03648L173.281 1.55133L173.234 1.8765L173.092 2.432L173.024 2.68943L172.956 3.10944L172.909 3.29235L172.841 3.7801L172.753 4.16624L172.705 4.53883L172.638 4.74884L172.59 4.93175L172.543 5.09433V5.39918L172.495 5.56177L172.401 6.25953L172.333 6.46953L172.306 6.72696L172.285 6.88954L172.238 7.07245L172.17 7.3773L172.123 7.53989L172.055 7.84473L172.008 8.1699L171.96 8.35281L171.981 8.56282L171.933 8.70508L171.913 8.86766L171.865 9.00993L171.845 9.17251L171.825 9.31477V9.61962L171.757 9.76188L171.689 10.0871L171.642 10.2971L171.622 10.5071L171.601 10.6493L171.574 10.8119L171.554 10.9542V11.0964L171.459 11.4216L171.412 11.7468L171.364 11.9771L171.269 12.1871L171.174 12.4649L171.154 12.7223L171.134 13.0271L171.086 13.332L171.019 13.5149L170.924 13.8401V14.2126L170.809 14.5175V14.6598L170.761 14.8223L170.693 15.1272L170.578 15.8724L170.368 16.1501L170.138 16.3127L169.813 16.333L169.555 16.3805H169.461L169.02 16.3601L168.858 16.3805L168.627 16.3601L168.485 16.3805H168.018L167.713 16.3601H167.32L167.137 16.1975L166.947 15.825L166.832 15.4998L166.812 15.3846L166.791 15.1069L166.771 14.9646L166.724 14.4769L166.703 14.3346L166.608 13.8468L166.588 13.7046L166.541 13.3794L166.52 13.0271L166.453 12.7697L166.385 12.4174V12.2752L166.317 11.95L166.297 11.8077L166.229 11.4826L166.209 11.3403V10.988L166.114 10.5206L166.067 10.0803L165.972 9.42994L165.857 8.68476L165.789 8.03441L165.647 7.19439L165.504 6.30695H165.437L165.416 6.95729L165.389 7.42472L165.369 7.68215L165.321 8.07506L165.301 8.65766L165.138 9.77543L165.044 10.6832L164.996 10.8255L164.928 11.1303L164.976 11.2929L164.908 11.5706L164.861 11.7332L164.881 11.8958L164.861 12.0381L164.813 12.3632L164.718 12.7155L164.624 13.1829L164.576 13.5081L164.556 13.6504L164.508 13.813L164.414 14.4904L164.346 14.7952L164.326 14.9578V15.2627L164.278 15.4049L164.21 15.825L164.116 16.1027L164.048 16.333L163.79 16.4279H161.324L160.932 16.3669Z" fill="#D2DBE2"/>
<path d="M181.688 16.3874L181.383 16.367L181.078 16.3874L180.726 16.3399L180.448 16.3603L180.259 16.3399H180.049L179.724 16.2925L179.581 16.2722H179.392L179.229 16.2925H178.531L178.206 16.2451L178.016 16.1977V15.6625L178.037 15.4525L178.172 15.1747L178.22 14.8496L178.24 14.7073L178.308 14.3821L178.355 14.1518L178.403 13.9689V13.786L178.45 13.4608L178.477 13.2779L178.524 13.0205L178.619 12.8376L178.667 12.6072V12.4243L178.734 12.0992L178.782 11.9163L178.802 11.6114L178.823 11.4692L178.917 11.3066V10.7917L178.985 10.4665L179.005 10.2836L179.073 9.95847L179.1 9.79588L179.148 9.49103L179.195 9.32845L179.263 9.0507L179.283 8.90844L179.378 8.63069V8.16326L179.425 8.00067L179.473 7.85841L179.541 7.53324L179.588 7.39098L179.703 6.74064L179.771 6.57805L179.818 6.41547L179.845 6.25288V6.09707L179.866 5.93448L179.913 5.65673L179.934 5.49415L180.001 5.2164V5.07414L180.049 4.79639L180.144 4.51864V4.19347L180.164 4.01056L180.211 3.5228L180.259 3.24506L180.374 2.82504L180.421 2.66246V2.51342L180.448 2.35084L180.516 2.04599L180.564 1.72082L180.611 1.44307L180.679 1.30081L180.706 1.13822L180.726 0.860474L180.774 0.697888L180.841 0.46756L180.889 0.399816L180.956 0.142389L181.187 0.0746455H181.349L181.627 0.0949686L181.79 0.115292L182.162 0.0678711H182.352L182.867 0.0881942L183.334 0.0678711H183.917L184.174 0.0881942L184.317 0.0678711H184.689L184.872 0.0881942L185.082 0.108517L185.434 0.155938H185.597L185.78 0.223682L186.105 0.318523H186.152L186.301 0.372718L186.694 0.487883L186.81 0.555626L186.904 0.603047L187.135 0.745309L187.297 0.860474L187.44 0.975638L187.792 1.44307L187.975 1.72082L188.07 1.83598L188.185 2.04599L188.28 2.37116L188.422 2.72343L188.517 2.88601L188.584 3.27893V3.44151L188.7 3.76668L188.679 3.92927L188.727 4.3967L188.747 4.70155L188.679 4.84381L188.747 5.16898L188.767 5.31124L188.747 5.47383L188.794 5.63641L188.767 5.799V5.94126L188.7 6.31385V6.47643L188.652 6.86935L188.625 7.03193V7.68227L188.51 8.05487V8.21745L188.415 8.65778L188.368 9.01005L188.32 9.54523L188.273 9.72814L188.205 9.91105L188.185 10.1414L188.042 10.6291L188.015 10.934L187.968 11.2117L187.9 11.3743L187.738 11.6792L187.69 11.8214L187.67 12.0788L187.528 12.3837L187.507 12.526L187.412 12.8511L187.25 13.1763L187.087 13.6437L186.972 13.8741L186.782 14.057L186.762 14.1992L186.647 14.3618L186.532 14.5041L186.369 14.7818L186.044 15.1747L185.719 15.4322L185.509 15.6151L185.367 15.7099L185.062 15.8522L184.804 15.9199L184.574 16.0825L184.249 16.1773L184.018 16.2248L183.646 16.2722L183.388 16.367H182.664L182.501 16.3874H182.386L182.223 16.4077L181.688 16.3874ZM182.833 13.244L183.063 13.1763L183.253 13.0815L183.51 12.9392L183.626 12.8444L183.808 12.6614L183.971 12.4785L184.039 12.3363L184.134 12.1737L184.228 11.9434L184.344 11.713L184.459 11.4082L184.601 10.9678L184.669 10.7104L184.737 10.3853L184.831 10.0804L184.852 9.93814L184.899 9.82298L184.947 9.68072L185.014 9.40297L185.035 9.24038L185.082 8.93553L185.129 8.61036L185.177 8.2581L185.197 8.09551L185.245 7.9126L185.36 7.58743V7.26226L185.428 6.77451L185.448 6.63225L185.495 6.14449L185.475 5.65673L185.495 4.9793L185.448 4.34928L185.428 4.16637L185.285 3.77346L185.123 3.46861L184.98 3.35345L184.865 3.2586L184.472 3.14344L184.1 3.09602L183.795 3.0757L183.585 3.09602L183.517 3.27893L183.449 3.44151V3.58377L183.402 3.74636L183.334 4.09863L183.239 4.4238L183.192 4.72864L183.145 5.05381L183.097 5.56867L183.077 5.71093L183.029 5.87351V6.02933L183.009 6.21223L182.941 6.3545V6.49676L182.874 6.82193L182.826 7.19452V7.3571L182.758 7.68227L182.711 7.82454L182.643 8.14971V8.29197L182.576 8.61714L182.528 8.77972L182.548 8.92199L182.501 9.08457L182.406 9.68749V9.99234L182.386 10.1346L182.271 10.4598V10.602L182.203 10.9543L182.108 11.3743L182.088 11.5369L181.993 11.8621L181.946 12.2143L181.918 12.5666L181.851 12.9595L181.803 13.1695L182.128 13.2644H182.833V13.244Z" fill="#D2DBE2"/>
<path d="M151.197 31.0741C151.19 31.0741 151.197 31.0741 151.197 31.0741C151.102 31.0741 151.02 31.0132 150.993 30.9251L148.351 22.4029H106.892C106.811 22.4029 106.73 22.3555 106.696 22.2742L98.458 3.73952C98.4106 3.63113 98.4581 3.50919 98.5664 3.46177C98.6748 3.41435 98.7968 3.46177 98.8442 3.57016L107.021 21.9762H148.5C148.595 21.9762 148.677 22.0371 148.704 22.1252L151.203 30.1867L154.069 22.1184C154.096 22.0371 154.177 21.9762 154.265 21.9762H193.137L200.656 3.57016C200.697 3.46177 200.826 3.40758 200.934 3.455C201.042 3.50242 201.097 3.62436 201.049 3.73275L193.482 22.2742C193.448 22.3555 193.374 22.4029 193.286 22.4029H154.421L151.393 30.9319C151.366 31.0132 151.285 31.0741 151.197 31.0741Z" fill="#D2DBE2"/>
<path d="M124.356 49.1144C121.999 49.3786 119.635 49.4395 117.277 49.4531C114.92 49.4463 112.555 49.3853 110.198 49.1144C112.555 48.8434 114.92 48.7824 117.277 48.7756C119.635 48.7824 121.992 48.8434 124.356 49.1144Z" fill="white"/>
<path d="M127.059 43.0516C125.603 42.6519 124.173 42.1777 122.751 41.6967C121.321 41.2225 119.912 40.7009 118.503 40.1725C117.101 39.6305 115.699 39.0953 114.317 38.506L112.244 37.6185C111.56 37.3001 110.869 37.002 110.191 36.6633C110.923 36.8598 111.634 37.0901 112.359 37.3069L114.5 38.0182C115.929 38.4924 117.338 39.014 118.747 39.5424C120.15 40.0844 121.552 40.6196 122.934 41.2157C124.323 41.7915 125.704 42.3877 127.059 43.0516Z" fill="white"/>
<path d="M133.312 36.6633C131.185 35.1391 129.2 33.459 127.242 31.7451C125.298 30.0177 123.395 28.2428 121.62 26.3188C123.747 27.8431 125.732 29.5164 127.689 31.237C129.627 32.9713 131.537 34.7462 133.312 36.6633Z" fill="white"/>
<path d="M141.848 34.4479C141.008 33.2014 140.357 31.8737 139.748 30.5256C139.158 29.1707 138.616 27.7887 138.264 26.3254C139.104 27.5719 139.761 28.8997 140.364 30.2478C140.954 31.6095 141.496 32.9847 141.848 34.4479Z" fill="white"/>
<path d="M179.222 49.1144C181.58 48.8502 183.944 48.7892 186.301 48.7756C188.659 48.7824 191.023 48.8434 193.381 49.1144C191.023 49.3853 188.659 49.4463 186.301 49.4531C183.937 49.4395 181.58 49.3786 179.222 49.1144Z" fill="white"/>
<path d="M176.512 43.0516C177.867 42.3877 179.249 41.7983 180.638 41.2157C182.02 40.6263 183.422 40.0844 184.825 39.5424C186.234 39.0208 187.643 38.4924 189.072 38.0182L191.213 37.3069C191.938 37.0901 192.649 36.8598 193.381 36.6633C192.703 37.002 192.012 37.3001 191.328 37.6185L189.255 38.506C187.873 39.0953 186.471 39.6373 185.068 40.1725C183.659 40.6941 182.25 41.2225 180.821 41.6967C179.398 42.1777 177.969 42.6519 176.512 43.0516Z" fill="white"/>
<path d="M170.267 36.6633C172.042 34.7394 173.945 32.9713 175.89 31.237C177.847 29.5231 179.832 27.8431 181.959 26.3188C180.191 28.2428 178.281 30.0109 176.337 31.7451C174.379 33.4658 172.394 35.1391 170.267 36.6633Z" fill="white"/>
<path d="M161.731 34.4482C162.083 32.9849 162.625 31.6097 163.214 30.2481C163.817 28.8999 164.474 27.5722 165.314 26.3257C164.962 27.7889 164.42 29.1641 163.831 30.5258C163.221 31.8739 162.571 33.2017 161.731 34.4482Z" fill="white"/>
</g>
<defs>
<linearGradient id="paint0_linear_11117_32444" x1="179.073" y1="53.5178" x2="179.073" y2="110.557" gradientUnits="userSpaceOnUse">
<stop stop-color="#00BAEB"/>
<stop offset="1" stop-color="white"/>
</linearGradient>
<linearGradient id="paint1_linear_11117_32444" x1="196.919" y1="209.631" x2="196.919" y2="234.841" gradientUnits="userSpaceOnUse">
<stop stop-color="#1DE993"/>
<stop offset="1" stop-color="#1DE993" stop-opacity="0"/>
</linearGradient>
<linearGradient id="paint2_linear_11117_32444" x1="287.986" y1="186.693" x2="287.986" y2="234.99" gradientUnits="userSpaceOnUse">
<stop stop-color="#1DE993"/>
<stop offset="1" stop-color="#1DE993" stop-opacity="0"/>
</linearGradient>
<linearGradient id="paint3_linear_11117_32444" x1="250.224" y1="153.819" x2="250.224" y2="217.702" gradientUnits="userSpaceOnUse">
<stop stop-color="#00BAEB"/>
<stop offset="1" stop-color="white"/>
</linearGradient>
<linearGradient id="paint4_linear_11117_32444" x1="49.7434" y1="118.565" x2="49.7434" y2="184.616" gradientUnits="userSpaceOnUse">
<stop stop-color="#00BAEB"/>
<stop offset="1" stop-color="white"/>
</linearGradient>
<linearGradient id="paint5_linear_11117_32444" x1="64.4484" y1="194.417" x2="64.4484" y2="242.056" gradientUnits="userSpaceOnUse">
<stop stop-color="#1DE993"/>
<stop offset="1" stop-color="#1DE993" stop-opacity="0"/>
</linearGradient>
<clipPath id="clip0_11117_32444">
<rect width="298.317" height="247.4" fill="white" transform="translate(0.68335)"/>
</clipPath>
</defs>
</svg>
