<svg width="286" height="245" viewBox="0 0 286 245" fill="none" xmlns="http://www.w3.org/2000/svg">
<path d="M10.0002 243.718C10.0002 243.718 11.4093 234.485 29.3893 232.001C47.3694 229.517 64.0886 209.601 93.741 212.49C123.393 215.381 147.997 233.519 181.75 227.961C215.503 222.403 236.638 229.488 244.209 235.074C251.779 240.66 283.112 233.763 285.426 244L10.0002 243.718Z" fill="#EDF1F4"/>
<path d="M87.7335 184.502C87.7335 184.502 78.331 173.533 87.1531 166.565C87.1531 166.565 93.5965 162.663 98.8523 162.981C98.8523 162.981 91.407 175.466 93.8162 176.709C96.2253 177.95 101.11 162.198 101.11 162.198C101.11 162.198 115.775 160.777 120.492 163.045C120.492 163.045 107.955 173.305 110.594 173.915C113.236 174.526 126.776 164.456 126.776 164.456C126.776 164.456 140.425 166.779 139.697 175.105C138.968 183.43 134.266 186.002 132.2 185.781C130.132 185.559 118.041 180.945 117.777 182.638C117.515 184.331 124.792 189.867 129.889 190.126C129.889 190.126 120.267 200.737 113.871 197.674C107.476 194.612 106.93 189.756 102.944 187.936C98.9577 186.115 95.5538 186.12 97.2004 187.977C98.8469 189.835 106.062 191.64 108.341 195.673C110.621 199.705 112.666 202.425 106.049 201.43C99.4327 200.435 88.6765 195.594 88.205 190.049C87.7335 184.502 87.7335 184.502 87.7335 184.502Z" fill="#599DAD"/>
<path d="M132.991 175.329C132.991 175.329 95.9203 173.9 87.7321 184.503C87.7321 184.503 85.9213 189.924 80.3494 194.862L79.4814 197.229C79.4814 197.229 85.9052 190.455 88.2036 190.046C88.2054 190.048 84.6104 176.913 132.991 175.329Z" fill="#D2DBE2"/>
<path d="M80.3512 194.864C80.3512 194.864 72.3934 200.748 71.8416 211.263L73.2863 211.392C73.2863 211.392 75.8276 200.52 80.4208 196.268C85.014 192.015 80.3512 194.864 80.3512 194.864Z" fill="#D2DBE2"/>
<path opacity="0.9" d="M54.8601 170.708C54.8601 170.708 69.8167 162.333 62.8376 150.966C62.8376 150.966 57.2532 143.986 51.2706 142.192C51.2706 142.192 54.4619 159.143 51.2706 159.541C48.0792 159.94 49.0775 140.397 49.0775 140.397C49.0775 140.397 33.3227 132.82 27.1418 133.418C27.1418 133.418 36.914 149.969 33.7227 149.571C30.5314 149.173 19.5644 132.421 19.5644 132.421C19.5644 132.421 3.41131 129.43 0.818244 139.002C-1.77482 148.574 2.41301 153.36 4.80607 153.959C7.19912 154.557 22.5539 154.357 22.1557 156.352C21.7574 158.347 11.387 161.536 5.60434 159.741C5.60434 159.741 11.9852 175.496 20.3609 174.698C28.7366 173.9 31.3296 168.715 36.514 168.317C41.6983 167.919 45.4879 169.314 42.8949 170.71C40.3018 172.107 31.5279 171.167 27.34 174.728C23.1522 178.289 19.7626 180.482 27.5401 182.077C35.3175 183.672 49.2775 182.675 52.0688 176.693C54.8601 170.708 54.8601 170.708 54.8601 170.708Z" fill="url(#paint0_linear_11117_32550)"/>
<path d="M8.19556 141.992C8.19556 141.992 50.074 155.552 54.8601 170.709C54.8601 170.709 54.66 177.49 58.8479 185.267V188.258C58.8479 188.258 54.46 178.088 52.067 176.691C52.0688 176.691 61.441 163.53 8.19556 141.992Z" fill="white"/>
<path d="M58.8476 185.265C58.8476 185.265 65.3053 195.073 61.6246 207.01L59.9638 206.563C59.9638 206.563 61.5764 193.414 58.1976 186.801C54.8187 180.19 58.8476 185.265 58.8476 185.265Z" fill="#D2DBE2"/>
<path opacity="0.9" d="M78.6544 159.157C78.6544 159.157 58.9385 148.117 68.1392 133.134C68.1392 133.134 75.4988 123.933 83.3851 121.567C83.3851 121.567 79.1794 143.911 83.3851 144.436C87.5908 144.961 86.2764 119.2 86.2764 119.2C86.2764 119.2 107.044 109.212 115.193 110C115.193 110 102.312 131.818 106.517 131.293C110.723 130.767 125.181 108.685 125.181 108.685C125.181 108.685 146.474 104.742 149.892 117.361C153.309 129.98 147.789 136.288 144.635 137.077C141.481 137.866 121.24 137.602 121.765 140.231C122.29 142.86 135.961 147.065 143.583 144.699C143.583 144.699 135.171 165.465 124.129 164.415C113.089 163.363 109.671 156.528 102.837 156.003C96.0022 155.478 91.0072 157.318 94.4253 159.157C97.8416 160.997 109.409 159.761 114.929 164.454C120.449 169.147 124.917 172.039 114.666 174.142C104.414 176.246 86.0121 174.932 82.3333 167.045C78.6544 159.157 78.6544 159.157 78.6544 159.157Z" fill="url(#paint1_linear_11117_32550)"/>
<path d="M140.167 121.302C140.167 121.302 84.9645 139.177 78.655 159.156C78.655 159.156 78.9176 168.094 73.3975 178.345V182.288C73.3975 182.288 79.1801 168.881 82.3357 167.04C82.3357 167.044 69.9793 149.694 140.167 121.302Z" fill="#D2DBE2"/>
<path d="M73.3973 178.347C73.3973 178.347 64.8841 191.275 69.7363 207.012L71.9258 206.424C71.9258 206.424 69.7988 189.091 74.2545 180.374C78.7102 171.656 73.3973 178.347 73.3973 178.347Z" fill="#D2DBE2"/>
<path d="M77.9908 241.137C99.3193 241.137 116.61 223.847 116.61 202.518H39.3716C39.3716 223.847 56.6623 241.137 77.9908 241.137Z" fill="#D1BCE3"/>
<path opacity="0.2" d="M87.4927 240.84C85.9211 241.037 84.321 241.135 82.6941 241.135C61.3656 241.135 44.0767 223.844 44.0767 202.516H53.6703C53.6721 222.221 68.4286 238.478 87.4927 240.84Z" fill="white"/>
<path d="M117.488 202.516H38.1013V203.7H117.488V202.516Z" fill="#D1BCE3"/>
<path opacity="0.9" d="M151.112 51.6266C151.112 51.6266 139.513 29.7393 156.893 21.4045C156.893 21.4045 169.141 17.3044 177.812 19.8122C177.812 19.8122 160.659 37.8965 164.22 40.8789C167.781 43.8644 181.882 19.3498 181.882 19.3498C181.882 19.3498 206.948 22.4884 213.987 28.0582C213.987 28.0582 189.154 40.5023 193.343 42.5171C197.529 44.5319 223.972 32.7829 223.972 32.7829C223.972 32.7829 245.93 41.8067 241.579 55.4603C237.228 69.1139 228.394 71.6462 225.02 70.4979C221.645 69.3496 203.157 57.077 202.079 59.8114C201.001 62.5458 211.094 74.5428 219.52 76.8945C219.52 76.8945 199.43 91.0257 189.883 83.4931C180.339 75.9636 181.251 67.6349 175.268 63.0909C169.285 58.5438 163.589 57.273 165.644 60.9964C167.699 64.7229 179.089 70.4581 181.386 78.0611C183.682 85.6641 186.08 90.9828 175.387 86.8277C164.695 82.6725 148.524 70.5255 149.823 61.073C151.112 51.6266 151.112 51.6266 151.112 51.6266Z" fill="url(#paint2_linear_11117_32550)"/>
<path d="M230.271 53.3142C230.271 53.3142 168.795 36.9722 151.112 51.6271C151.112 51.6271 146.041 60.017 134.865 66.1809L132.522 69.8124C132.522 69.8124 145.818 60.8989 149.817 61.0795C149.817 61.0795 148.745 37.753 230.271 53.3142Z" fill="#D2DBE2"/>
<path d="M134.864 66.1778C134.864 66.1778 119.34 73.0276 114.456 90.4076L116.823 91.167C116.823 91.167 125.167 73.937 134.448 68.5539C143.735 63.1709 134.864 66.1778 134.864 66.1778Z" fill="#599DAD"/>
<path opacity="0.9" d="M89.451 61.5372C89.451 61.5372 112.867 49.325 102.64 31.5004C102.64 31.5004 94.3622 20.4967 85.2307 17.4578C85.2307 17.4578 89.3675 43.7063 84.4355 44.1739C79.5034 44.6414 81.935 14.5921 81.935 14.5921C81.935 14.5921 58.022 2.20041 48.4752 2.837C48.4752 2.837 62.7641 28.7745 57.8676 28.0127C52.9731 27.253 36.8517 0.954355 36.8517 0.954355C36.8517 0.954355 12.1143 -4.39303 7.68315 10.2278C3.25204 24.8485 9.48232 32.4125 13.1391 33.4415C16.7958 34.4726 40.4521 34.8691 39.7466 37.9227C39.0411 40.9763 22.9259 45.4136 14.1034 42.3851C14.1034 42.3851 23.2077 66.9389 36.142 66.0935C49.0763 65.2503 53.3071 57.3837 61.3094 57.008C69.3117 56.6323 75.0828 58.9553 71.0274 60.9862C66.9719 63.017 53.5033 61.1698 46.8911 66.4588C40.2788 71.7498 34.9586 74.9725 46.8618 77.786C58.7651 80.5995 80.307 79.7041 84.8821 70.6207C89.451 61.5372 89.451 61.5372 89.451 61.5372Z" fill="url(#paint3_linear_11117_32550)"/>
<path d="M18.9108 15.176C18.9108 15.176 82.7789 37.9786 89.4538 61.5367C89.4538 61.5367 88.836 71.9685 94.9285 84.1369L94.7907 88.7433C94.7907 88.7433 88.502 72.8806 84.8807 70.6202C84.8786 70.6223 99.9148 50.7835 18.9108 15.176Z" fill="#D2DBE2"/>
<path d="M94.926 84.1368C94.926 84.1368 104.421 99.5361 98.205 117.751L95.667 116.987C95.667 116.987 98.7539 96.8123 93.8532 86.4744C88.9524 76.1345 94.926 84.1368 94.926 84.1368Z" fill="#6BB7BF"/>
<path d="M201.303 61H89.3032C82.6758 61 77.3032 66.3726 77.3032 73V232C77.3032 238.627 82.6758 244 89.3032 244H201.303C207.931 244 213.303 238.627 213.303 232V73C213.303 66.3726 207.931 61 201.303 61Z" fill="white"/>
<path d="M203.185 60.3103H89.0376C82.4102 60.3103 77.0376 65.6829 77.0376 72.3103V231.552C77.0376 238.179 82.4102 243.552 89.0376 243.552H203.185C209.812 243.552 215.185 238.179 215.185 231.552V72.3103C215.185 65.6829 209.812 60.3103 203.185 60.3103Z" fill="url(#paint4_linear_11117_32550)"/>
<path d="M178.692 102.563H105.43C104.679 102.563 104.062 101.947 104.062 101.195V100.493C104.062 99.7416 104.679 99.1255 105.43 99.1255H178.692C179.444 99.1255 180.06 99.7416 180.06 100.493V101.195C180.06 101.947 179.444 102.563 178.692 102.563Z" fill="white"/>
<path d="M150.336 108.344H105.143C104.55 108.344 104.064 107.859 104.064 107.266V105.989C104.064 105.394 104.55 104.91 105.143 104.91H150.338C150.931 104.91 151.417 105.396 151.417 105.989V107.266C151.417 107.859 150.931 108.344 150.336 108.344Z" fill="white"/>
<path d="M97.007 107.79V100.771H96.0801C95.5176 100.771 95.2372 100.537 95.2372 100.069C95.2372 99.7317 95.4569 99.4942 95.898 99.3531C96.123 99.2781 96.4802 99.2227 96.9713 99.1852C97.4624 99.1477 97.8571 99.1299 98.1571 99.1299C98.4464 99.1299 98.6303 99.1888 98.7054 99.3049C98.7804 99.4228 98.8179 99.7192 98.8179 100.196V107.791H99.7733C100.391 107.791 100.7 108.057 100.7 108.591C100.7 109.152 100.391 109.434 99.7733 109.434H95.9266C95.6551 109.434 95.4283 109.361 95.2461 109.216C95.064 109.072 94.9729 108.868 94.9729 108.606C94.9729 108.063 95.2872 107.791 95.9141 107.791H97.007V107.79Z" fill="white"/>
<g opacity="0.3">
<path d="M178.692 138.754H105.431C104.679 138.754 104.063 138.138 104.063 137.386V136.684C104.063 135.933 104.679 135.316 105.431 135.316H178.692C179.444 135.316 180.06 135.933 180.06 136.684V137.386C180.06 138.138 179.444 138.754 178.692 138.754Z" fill="white"/>
<path d="M150.336 144.535H105.143C104.55 144.535 104.065 144.049 104.065 143.456V142.179C104.065 141.587 104.55 141.101 105.143 141.101H150.338C150.931 141.101 151.417 141.587 151.417 142.179V143.456C151.417 144.049 150.931 144.535 150.336 144.535Z" fill="white"/>
<path d="M100.845 143.834C100.845 144.302 100.518 144.536 99.8642 144.536H95.7942C95.2067 144.536 94.9138 144.3 94.9138 143.829C94.9138 143.681 94.9924 143.506 95.1496 143.308C95.3799 143.043 95.7192 142.645 96.1675 142.116C96.8461 141.265 97.4122 140.529 97.8676 139.907C98.0248 139.7 98.248 139.386 98.5373 138.964C98.7766 138.543 98.8963 138.188 98.8963 137.898C98.8963 137.575 98.7927 137.309 98.5855 137.098C98.3784 136.887 98.1141 136.782 97.7908 136.782C97.4765 136.782 97.2033 136.88 96.9711 137.08C96.814 137.212 96.689 137.461 96.5997 137.825C96.4836 138.296 96.4086 138.57 96.3764 138.643C96.2532 138.907 96.0496 139.039 95.7692 139.039C95.521 139.039 95.3263 138.948 95.1853 138.766C95.0531 138.609 94.987 138.402 94.987 138.146C94.987 137.857 95.0317 137.562 95.1228 137.266C95.321 136.628 95.6728 136.141 96.1764 135.802C96.6568 135.478 97.239 135.318 97.9266 135.318C98.6784 135.318 99.307 135.546 99.8124 136.002C100.334 136.482 100.595 137.095 100.595 137.841C100.595 138.396 100.409 138.968 100.036 139.555C99.8285 139.879 99.4035 140.45 98.757 141.27C98.4266 141.693 97.9051 142.306 97.1944 143.109H99.8749C100.521 143.108 100.845 143.35 100.845 143.834Z" fill="white"/>
</g>
<g opacity="0.3">
<path d="M178.693 168.942H105.431C104.679 168.942 104.063 168.326 104.063 167.574V166.873C104.063 166.121 104.679 165.505 105.431 165.505H178.693C179.444 165.505 180.06 166.121 180.06 166.873V167.574C180.06 168.328 179.444 168.942 178.693 168.942Z" fill="white"/>
<path d="M150.336 174.725H105.143C104.55 174.725 104.065 174.239 104.065 173.646V172.369C104.065 171.776 104.55 171.291 105.143 171.291H150.338C150.931 171.291 151.417 171.776 151.417 172.369V173.646C151.417 174.239 150.931 174.725 150.336 174.725Z" fill="white"/>
<path d="M100.845 171.846C100.845 172.725 100.536 173.432 99.9199 173.964C99.3359 174.471 98.5966 174.725 97.7001 174.725C97.0072 174.725 96.4143 174.56 95.9249 174.23C95.1463 173.707 94.7588 173.076 94.7588 172.341C94.7588 172.13 94.8266 171.948 94.9624 171.796C95.0981 171.644 95.2713 171.567 95.4821 171.567C95.7017 171.567 95.9089 171.716 96.1035 172.012C96.4161 172.503 96.5982 172.773 96.6482 172.825C96.9268 173.121 97.2858 173.267 97.7269 173.267C98.318 173.267 98.7412 173.048 98.9948 172.608C99.1127 172.389 99.1716 172.11 99.1716 171.771C99.1716 170.942 98.6859 170.482 97.7126 170.389C97.1626 170.339 96.8875 170.107 96.8875 169.69C96.8875 169.387 97.0465 169.171 97.3661 169.044C97.9626 168.824 98.2644 168.71 98.2734 168.701C98.593 168.49 98.752 168.122 98.752 167.597C98.752 167.285 98.6591 167.038 98.4734 166.856C98.2876 166.674 98.0394 166.583 97.7269 166.583C97.3394 166.583 97.0358 166.676 96.8179 166.862C96.6321 167.022 96.4768 167.297 96.35 167.687C96.2482 167.983 96.0553 168.131 95.7696 168.131C95.5678 168.131 95.3999 168.042 95.2695 167.865C95.1392 167.687 95.0731 167.494 95.0731 167.281C95.0731 167.019 95.1445 166.756 95.2892 166.495C95.5267 166.056 95.8892 165.713 96.3803 165.469C96.8286 165.24 97.3179 165.126 97.8519 165.126C98.5698 165.126 99.1681 165.344 99.6467 165.779C100.124 166.215 100.363 166.788 100.363 167.497C100.363 168.351 100.007 169.028 99.2984 169.526C100.329 169.939 100.845 170.712 100.845 171.846Z" fill="white"/>
</g>
<g opacity="0.3">
<path d="M170.159 72.4812H124.522C123.741 72.4812 123.102 71.8419 123.102 71.0597V69.9078C123.102 69.1274 123.741 68.488 124.522 68.488H170.159C170.942 68.488 171.579 69.1274 171.579 69.9078V71.0597C171.579 71.8419 170.94 72.4812 170.159 72.4812Z" fill="white"/>
<path d="M182.058 78.6364H112.619C111.66 78.6364 110.878 77.8524 110.878 76.8952V76.388C110.878 75.429 111.662 74.645 112.619 74.645H182.058C183.017 74.645 183.801 75.429 183.801 76.388V76.8952C183.801 77.8524 183.017 78.6364 182.058 78.6364Z" fill="white"/>
</g>
<path opacity="0.2" d="M141.988 121.093C126.938 121.093 112.657 119.206 102.011 116.505C91.255 113.778 85.4617 109.321 85.4617 105.367C85.4617 101.785 90.1835 98.4878 99.1163 95.8376C90.5549 98.3789 85.9778 102.11 85.9778 105.367C85.9778 108.982 91.9122 112.56 102.259 115.184C112.869 117.873 126.978 119.356 141.988 119.356C156.998 119.356 171.108 117.875 181.716 115.184C192.063 112.56 197.998 108.983 197.998 105.367C197.998 101.54 191.749 96.7806 181.689 92.9517C170.251 88.596 156.151 86.9798 141.988 86.9798C115.396 86.9798 104.449 90.0836 94.9517 93.975C104.49 90.0675 115.302 85.6404 141.988 85.6404C156.208 85.6404 170.37 88.0495 181.861 92.4266C192.133 96.3377 198.514 101.297 198.514 105.369C198.514 109.323 192.59 113.002 181.834 115.729C171.186 118.427 157.035 121.093 141.988 121.093Z" fill="#002448"/>
<path d="M48.1018 231.104C48.1018 231.104 34.0882 195.222 24.2606 200.935C14.433 206.648 48.1018 231.104 48.1018 231.104Z" fill="#EDF1F4"/>
<path d="M41.1728 231.104C41.1728 231.104 22.6606 215.107 14.2045 218.076C5.7485 221.048 41.1728 231.104 41.1728 231.104Z" fill="#EDF1F4"/>
<path d="M217.185 236.271C217.185 236.271 221.451 221.437 226.455 223.187C231.461 224.938 217.185 236.271 217.185 236.271Z" fill="#EDF1F4"/>
<path d="M221.078 235.462C221.078 235.462 231.968 228.313 234.361 230.523C236.754 232.733 221.078 235.462 221.078 235.462Z" fill="#EDF1F4"/>
<g opacity="0.5">
<path d="M183.863 203.702H98.9132C98.3453 203.702 97.8792 203.238 97.8792 202.668C97.8792 202.1 98.3435 201.634 98.9132 201.634H183.861C184.429 201.634 184.895 202.099 184.895 202.668C184.895 203.236 184.431 203.702 183.863 203.702Z" fill="white"/>
<path d="M183.863 207.84H98.9132C98.3453 207.84 97.8792 207.374 97.8792 206.806C97.8792 206.238 98.3435 205.772 98.9132 205.772H183.861C184.429 205.772 184.895 206.238 184.895 206.806C184.895 207.374 184.431 207.84 183.863 207.84Z" fill="white"/>
<path d="M183.863 212.426H98.9132C98.3453 212.426 97.8792 211.962 97.8792 211.392C97.8792 210.824 98.3435 210.358 98.9132 210.358H183.861C184.429 210.358 184.895 210.822 184.895 211.392C184.895 211.96 184.431 212.426 183.863 212.426Z" fill="white"/>
<path d="M172.71 217.01H98.8447C98.3143 217.01 97.8804 216.576 97.8804 216.046V215.908C97.8804 215.378 98.3143 214.944 98.8447 214.944H172.71C173.24 214.944 173.674 215.378 173.674 215.908V216.046C173.674 216.576 173.24 217.01 172.71 217.01Z" fill="white"/>
</g>
<path d="M220.254 94.9297L219.266 102.989L215.486 110.069L219.438 108.256C219.438 108.256 219.275 111.946 218.949 115.363L225.694 112.698L224.542 119.941L228.821 117.312V94.9297H220.254Z" fill="#FDAA95"/>
<path d="M212.766 79.6996L210.99 79.1194C210.99 79.1194 206.747 75.457 203.882 75.0399C201.017 74.6139 193.602 77.7052 196.974 79.1194C200.347 80.5427 204.653 80.4067 204.653 80.4067C204.653 80.4067 203.71 81.9207 203.039 82.9723C202.368 84.0239 202.296 86.0455 203.882 84.5678C205.469 83.0811 208.297 80.7966 208.297 80.7966L212.141 81.8028L212.766 79.6996Z" fill="#FDAA95"/>
<path d="M222.955 120.929C226.596 118.681 229.176 114.734 229.851 110.508C230.097 108.972 230.36 107.341 230.609 105.805C231.297 101.554 229.729 97.2521 226.463 94.4469L212.69 82.6187C212.279 82.2658 212.114 81.7043 212.268 81.1851C212.522 80.3319 213.508 79.9419 214.277 80.3905L232.564 91.0631C236.837 93.5563 239.208 98.3596 238.588 103.267L236.8 117.44C236.703 118.211 236.679 118.99 236.728 119.766L239.094 157.055C239.467 162.929 234.803 167.898 228.917 167.898H226.419C222.629 167.898 219.449 165.041 219.045 161.273L218.086 152.332C217.675 148.509 212.719 147.276 210.565 150.461C209.288 152.35 206.72 152.845 204.833 151.565L185.072 138.172C184.314 137.658 184.014 136.687 184.35 135.835C184.803 134.685 186.194 134.238 187.232 134.909L195.594 140.313C200.886 143.732 207.983 141.532 210.412 135.719L212.851 129.883C213.845 127.503 215.56 125.495 217.754 124.14L222.955 120.929Z" fill="url(#paint5_linear_11117_32550)"/>
<path d="M219.765 167.898L228.305 239.108L232.04 242.462L232.321 175.096L243.209 205.185L269.326 232.145H273.623L249.01 202.374L239.782 167.898H219.765Z" fill="#015EA5"/>
<path d="M228.813 111.356L231.723 93.6696C231.723 93.6696 224.262 89.1277 221.17 89.2909C218.088 89.4541 218.36 94.2407 220.255 94.9297C222.313 94.9297 226.691 96.915 226.691 96.915L228.813 111.356Z" fill="#003A75"/>
<path d="M226.528 101.947C226.528 101.947 228.559 99.3357 229.366 101.203C230.173 103.071 228.314 108.437 226.528 106.008" fill="#F2967F"/>
<path d="M185.226 133.612C185.226 133.612 182.225 127.402 181.455 125.716C180.693 124.03 179.923 126.215 180.693 128.572C181.455 130.92 181.455 130.92 181.455 130.92L179.923 131.074C179.923 131.074 176.197 127.602 174.157 128.572C172.117 129.542 175.789 134.591 177.62 135.969C179.46 137.347 183.766 137.293 183.766 137.293L185.226 133.612Z" fill="#FDAA95"/>
<path d="M228.305 239.108L204.435 244.275H231.723L232.04 242.462L228.305 239.108Z" fill="#D1BCE3"/>
<path d="M269.326 232.145L266.353 241.691L256.444 244.275H269.326L277.431 234.058L273.623 232.145H269.326Z" fill="#D1BCE3"/>
<path d="M222.15 110.559C222.467 110.858 222.866 111.057 223.31 111.148C223.754 111.239 224.253 111.166 224.661 110.922C225.06 110.668 225.341 110.287 225.531 109.888C225.613 109.68 225.685 109.471 225.739 109.272C225.767 109.054 225.812 108.846 225.821 108.628C225.613 109.009 225.44 109.38 225.223 109.716C224.987 110.033 224.742 110.341 224.425 110.532C223.79 110.931 222.956 110.831 222.15 110.559Z" fill="#F2967F"/>
<path d="M219.439 108.256C220.019 108.111 220.545 107.884 221.062 107.63L221.198 107.558L221.17 107.395C221.098 106.987 220.989 106.597 220.78 106.225C220.663 106.053 220.545 105.835 220.264 105.763C219.937 105.736 219.838 106.008 219.765 106.18C219.919 106.053 220.101 105.926 220.2 105.999C220.3 106.044 220.382 106.234 220.436 106.397C220.563 106.733 220.654 107.123 220.744 107.485L220.853 107.25C220.354 107.531 219.874 107.857 219.439 108.256Z" fill="#F2967F"/>
<path d="M228.658 102.418C228.631 102.255 228.577 102.1 228.486 101.955C228.405 101.81 228.223 101.647 227.988 101.693C227.562 101.81 227.38 102.146 227.226 102.427C226.918 103.016 226.755 103.642 226.619 104.267L226.564 104.53L226.818 104.503C226.936 104.494 227.054 104.476 227.154 104.494C227.262 104.512 227.308 104.521 227.317 104.603C227.335 104.793 227.19 105.056 227.063 105.282C227.172 105.21 227.271 105.11 227.362 105.01C227.444 104.902 227.543 104.793 227.562 104.612C227.598 104.412 227.38 104.222 227.235 104.195C227.081 104.149 226.936 104.131 226.791 104.131L226.99 104.376C227.099 104.077 227.172 103.778 227.28 103.487C227.371 103.188 227.48 102.898 227.598 102.626C227.716 102.363 227.861 102.064 228.051 101.974C228.223 101.874 228.495 102.155 228.658 102.418Z" fill="#F2967F"/>
<path d="M220.953 102.101C220.953 102.418 221.107 102.681 221.288 102.681C221.469 102.681 221.624 102.427 221.624 102.101C221.624 101.774 221.469 101.521 221.288 101.521C221.107 101.521 220.953 101.783 220.953 102.101Z" fill="#003A75"/>
<path d="M220.735 99.4354C220.735 99.4354 222.222 98.0212 223.038 99.9159L220.735 99.4354Z" fill="#003A75"/>
<defs>
<linearGradient id="paint0_linear_11117_32550" x1="32.3466" y1="131.979" x2="32.3466" y2="182.755" gradientUnits="userSpaceOnUse">
<stop stop-color="#00BAEB"/>
<stop offset="1" stop-color="#00BAEB" stop-opacity="0"/>
</linearGradient>
<linearGradient id="paint1_linear_11117_32550" x1="108.331" y1="108.102" x2="108.331" y2="175.037" gradientUnits="userSpaceOnUse">
<stop stop-color="#EDF1F4"/>
<stop offset="1" stop-color="#EDF1F4" stop-opacity="0"/>
</linearGradient>
<linearGradient id="paint2_linear_11117_32550" x1="194.735" y1="19" x2="194.735" y2="88.2817" gradientUnits="userSpaceOnUse">
<stop stop-color="#EDF1F4"/>
<stop offset="1" stop-color="#EDF1F4" stop-opacity="0"/>
</linearGradient>
<linearGradient id="paint3_linear_11117_32550" x1="55.6884" y1="0" x2="55.6884" y2="79.2009" gradientUnits="userSpaceOnUse">
<stop stop-color="#EDF1F4"/>
<stop offset="1" stop-color="#EDF1F4" stop-opacity="0"/>
</linearGradient>
<linearGradient id="paint4_linear_11117_32550" x1="146.111" y1="60.3103" x2="146.111" y2="243.552" gradientUnits="userSpaceOnUse">
<stop stop-color="#D2DBE2"/>
<stop offset="1" stop-color="white"/>
</linearGradient>
<linearGradient id="paint5_linear_11117_32550" x1="211.778" y1="79.5093" x2="211.778" y2="167.898" gradientUnits="userSpaceOnUse">
<stop stop-color="#00BAEB"/>
<stop offset="1" stop-color="white"/>
</linearGradient>
</defs>
</svg>
