<svg width="258" height="71" viewBox="0 0 258 71" fill="none" xmlns="http://www.w3.org/2000/svg">
<rect width="258" height="71" rx="8" fill="white"/>
<path d="M62.1443 36.0156C62.1443 34.5636 62.0037 33.0647 61.7695 31.6595H41.4878V39.9502H53.1041C52.6357 42.6201 51.09 44.9621 48.7948 46.461L55.7272 51.8476C59.8023 48.0535 62.1443 42.5264 62.1443 36.0156Z" fill="#4280EF"/>
<path d="M41.4879 57C47.296 57 52.1674 55.0795 55.7272 51.8007L48.7949 46.461C46.8745 47.7725 44.392 48.5219 41.4879 48.5219C35.8671 48.5219 31.1362 44.7279 29.4031 39.6692L22.2834 45.1494C25.937 52.4097 33.3377 57 41.4879 57Z" fill="#34A353"/>
<path d="M29.4031 39.6223C28.5132 36.9524 28.5132 34.0484 29.4031 31.3785L22.2835 25.8513C19.2388 31.9406 19.2388 39.1071 22.2835 45.1495L29.4031 39.6223Z" fill="#F6B704"/>
<path d="M41.4879 22.5257C44.5325 22.4789 47.5302 23.6499 49.7317 25.7577L55.8678 19.5748C51.98 15.9213 46.8276 13.954 41.4879 14.0008C33.3377 14.0008 25.937 18.5911 22.2834 25.8514L29.4031 31.3785C31.1362 26.2729 35.8671 22.5257 41.4879 22.5257Z" fill="#E54335"/>
<path d="M79.6883 27.252C78.8243 27.252 78.0383 27.06 77.3303 26.676C76.6343 26.28 76.0763 25.71 75.6563 24.966C75.2483 24.21 75.0443 23.292 75.0443 22.212V19.188C75.0443 17.568 75.5003 16.326 76.4123 15.462C77.3243 14.586 78.5603 14.148 80.1203 14.148C81.6683 14.148 82.8623 14.562 83.7023 15.39C84.5543 16.206 84.9803 17.316 84.9803 18.72V18.792H82.6403V18.648C82.6403 18.204 82.5443 17.802 82.3523 17.442C82.1723 17.082 81.8963 16.8 81.5243 16.596C81.1523 16.38 80.6843 16.272 80.1203 16.272C79.2803 16.272 78.6203 16.53 78.1403 17.046C77.6603 17.562 77.4203 18.264 77.4203 19.152V22.248C77.4203 23.124 77.6603 23.832 78.1403 24.372C78.6203 24.9 79.2923 25.164 80.1563 25.164C81.0203 25.164 81.6503 24.936 82.0463 24.48C82.4423 24.024 82.6403 23.448 82.6403 22.752V22.572H79.6523V20.556H84.9803V27H82.7843V25.794H82.4603C82.3763 25.998 82.2383 26.214 82.0463 26.442C81.8663 26.67 81.5903 26.862 81.2183 27.018C80.8463 27.174 80.3363 27.252 79.6883 27.252ZM91.5703 27.252C90.6823 27.252 89.8843 27.072 89.1763 26.712C88.4683 26.352 87.9103 25.83 87.5023 25.146C87.0943 24.462 86.8903 23.64 86.8903 22.68V22.392C86.8903 21.432 87.0943 20.61 87.5023 19.926C87.9103 19.242 88.4683 18.72 89.1763 18.36C89.8843 18 90.6823 17.82 91.5703 17.82C92.4583 17.82 93.2563 18 93.9643 18.36C94.6723 18.72 95.2303 19.242 95.6383 19.926C96.0463 20.61 96.2503 21.432 96.2503 22.392V22.68C96.2503 23.64 96.0463 24.462 95.6383 25.146C95.2303 25.83 94.6723 26.352 93.9643 26.712C93.2563 27.072 92.4583 27.252 91.5703 27.252ZM91.5703 25.236C92.2663 25.236 92.8423 25.014 93.2983 24.57C93.7543 24.114 93.9823 23.466 93.9823 22.626V22.446C93.9823 21.606 93.7543 20.964 93.2983 20.52C92.8543 20.064 92.2783 19.836 91.5703 19.836C90.8743 19.836 90.2983 20.064 89.8423 20.52C89.3863 20.964 89.1583 21.606 89.1583 22.446V22.626C89.1583 23.466 89.3863 24.114 89.8423 24.57C90.2983 25.014 90.8743 25.236 91.5703 25.236ZM102.592 27.252C101.704 27.252 100.906 27.072 100.198 26.712C99.4897 26.352 98.9317 25.83 98.5237 25.146C98.1157 24.462 97.9117 23.64 97.9117 22.68V22.392C97.9117 21.432 98.1157 20.61 98.5237 19.926C98.9317 19.242 99.4897 18.72 100.198 18.36C100.906 18 101.704 17.82 102.592 17.82C103.48 17.82 104.278 18 104.986 18.36C105.694 18.72 106.252 19.242 106.66 19.926C107.068 20.61 107.272 21.432 107.272 22.392V22.68C107.272 23.64 107.068 24.462 106.66 25.146C106.252 25.83 105.694 26.352 104.986 26.712C104.278 27.072 103.48 27.252 102.592 27.252ZM102.592 25.236C103.288 25.236 103.864 25.014 104.32 24.57C104.776 24.114 105.004 23.466 105.004 22.626V22.446C105.004 21.606 104.776 20.964 104.32 20.52C103.876 20.064 103.3 19.836 102.592 19.836C101.896 19.836 101.32 20.064 100.864 20.52C100.408 20.964 100.18 21.606 100.18 22.446V22.626C100.18 23.466 100.408 24.114 100.864 24.57C101.32 25.014 101.896 25.236 102.592 25.236ZM108.933 22.572V22.284C108.933 21.348 109.119 20.55 109.491 19.89C109.863 19.218 110.355 18.708 110.967 18.36C111.591 18 112.269 17.82 113.001 17.82C113.817 17.82 114.435 17.964 114.855 18.252C115.275 18.54 115.581 18.84 115.773 19.152H116.097V18.072H118.329V28.584C118.329 29.196 118.149 29.682 117.789 30.042C117.429 30.414 116.949 30.6 116.349 30.6H110.373V28.62H115.557C115.893 28.62 116.061 28.44 116.061 28.08V25.758H115.737C115.617 25.95 115.449 26.148 115.233 26.352C115.017 26.544 114.729 26.706 114.369 26.838C114.009 26.97 113.553 27.036 113.001 27.036C112.269 27.036 111.591 26.862 110.967 26.514C110.355 26.154 109.863 25.644 109.491 24.984C109.119 24.312 108.933 23.508 108.933 22.572ZM113.649 25.056C114.345 25.056 114.927 24.834 115.395 24.39C115.863 23.946 116.097 23.322 116.097 22.518V22.338C116.097 21.522 115.863 20.898 115.395 20.466C114.939 20.022 114.357 19.8 113.649 19.8C112.953 19.8 112.371 20.022 111.903 20.466C111.435 20.898 111.201 21.522 111.201 22.338V22.518C111.201 23.322 111.435 23.946 111.903 24.39C112.371 24.834 112.953 25.056 113.649 25.056ZM120.844 27V14.4H123.112V27H120.844ZM129.693 27.252C128.805 27.252 128.019 27.066 127.335 26.694C126.663 26.31 126.135 25.776 125.751 25.092C125.379 24.396 125.193 23.58 125.193 22.644V22.428C125.193 21.492 125.379 20.682 125.751 19.998C126.123 19.302 126.645 18.768 127.317 18.396C127.989 18.012 128.769 17.82 129.657 17.82C130.533 17.82 131.295 18.018 131.943 18.414C132.591 18.798 133.095 19.338 133.455 20.034C133.815 20.718 133.995 21.516 133.995 22.428V23.202H127.497C127.521 23.814 127.749 24.312 128.181 24.696C128.613 25.08 129.141 25.272 129.765 25.272C130.401 25.272 130.869 25.134 131.169 24.858C131.469 24.582 131.697 24.276 131.853 23.94L133.707 24.912C133.539 25.224 133.293 25.566 132.969 25.938C132.657 26.298 132.237 26.61 131.709 26.874C131.181 27.126 130.509 27.252 129.693 27.252ZM127.515 21.51H131.691C131.643 20.994 131.433 20.58 131.061 20.268C130.701 19.956 130.227 19.8 129.639 19.8C129.027 19.8 128.541 19.956 128.181 20.268C127.821 20.58 127.599 20.994 127.515 21.51ZM140.152 27V24.912H141.808V16.488H140.152V14.4H146.632C147.4 14.4 148.066 14.532 148.63 14.796C149.206 15.048 149.65 15.414 149.962 15.894C150.286 16.362 150.448 16.926 150.448 17.586V17.766C150.448 18.342 150.34 18.816 150.124 19.188C149.908 19.548 149.65 19.83 149.35 20.034C149.062 20.226 148.786 20.364 148.522 20.448V20.772C148.786 20.844 149.074 20.982 149.386 21.186C149.698 21.378 149.962 21.66 150.178 22.032C150.406 22.404 150.52 22.89 150.52 23.49V23.67C150.52 24.366 150.358 24.966 150.034 25.47C149.71 25.962 149.26 26.34 148.684 26.604C148.12 26.868 147.46 27 146.704 27H140.152ZM144.184 24.84H146.416C146.932 24.84 147.346 24.714 147.658 24.462C147.982 24.21 148.144 23.85 148.144 23.382V23.202C148.144 22.734 147.988 22.374 147.676 22.122C147.364 21.87 146.944 21.744 146.416 21.744H144.184V24.84ZM144.184 19.584H146.38C146.872 19.584 147.274 19.458 147.586 19.206C147.91 18.954 148.072 18.606 148.072 18.162V17.982C148.072 17.526 147.916 17.178 147.604 16.938C147.292 16.686 146.884 16.56 146.38 16.56H144.184V19.584ZM156.605 27.252C155.717 27.252 154.931 27.066 154.247 26.694C153.575 26.31 153.047 25.776 152.663 25.092C152.291 24.396 152.105 23.58 152.105 22.644V22.428C152.105 21.492 152.291 20.682 152.663 19.998C153.035 19.302 153.557 18.768 154.229 18.396C154.901 18.012 155.681 17.82 156.569 17.82C157.445 17.82 158.207 18.018 158.855 18.414C159.503 18.798 160.007 19.338 160.367 20.034C160.727 20.718 160.907 21.516 160.907 22.428V23.202H154.409C154.433 23.814 154.661 24.312 155.093 24.696C155.525 25.08 156.053 25.272 156.677 25.272C157.313 25.272 157.781 25.134 158.081 24.858C158.381 24.582 158.609 24.276 158.765 23.94L160.619 24.912C160.451 25.224 160.205 25.566 159.881 25.938C159.569 26.298 159.149 26.61 158.621 26.874C158.093 27.126 157.421 27.252 156.605 27.252ZM154.427 21.51H158.603C158.555 20.994 158.345 20.58 157.973 20.268C157.613 19.956 157.139 19.8 156.551 19.8C155.939 19.8 155.453 19.956 155.093 20.268C154.733 20.58 154.511 20.994 154.427 21.51ZM163.611 27L162.351 18.072H164.601L165.393 25.47H165.717L166.869 18.072H170.505L171.657 25.47H171.981L172.773 18.072H175.023L173.763 27H170.001L168.849 19.602H168.525L167.373 27H163.611ZM181.039 27.252C180.151 27.252 179.365 27.066 178.681 26.694C178.009 26.31 177.481 25.776 177.097 25.092C176.725 24.396 176.539 23.58 176.539 22.644V22.428C176.539 21.492 176.725 20.682 177.097 19.998C177.469 19.302 177.991 18.768 178.663 18.396C179.335 18.012 180.115 17.82 181.003 17.82C181.879 17.82 182.641 18.018 183.289 18.414C183.937 18.798 184.441 19.338 184.801 20.034C185.161 20.718 185.341 21.516 185.341 22.428V23.202H178.843C178.867 23.814 179.095 24.312 179.527 24.696C179.959 25.08 180.487 25.272 181.111 25.272C181.747 25.272 182.215 25.134 182.515 24.858C182.815 24.582 183.043 24.276 183.199 23.94L185.053 24.912C184.885 25.224 184.639 25.566 184.315 25.938C184.003 26.298 183.583 26.61 183.055 26.874C182.527 27.126 181.855 27.252 181.039 27.252ZM178.861 21.51H183.037C182.989 20.994 182.779 20.58 182.407 20.268C182.047 19.956 181.573 19.8 180.985 19.8C180.373 19.8 179.887 19.956 179.527 20.268C179.167 20.58 178.945 20.994 178.861 21.51ZM187.359 27V18.072H189.591V19.08H189.915C190.047 18.72 190.263 18.456 190.563 18.288C190.875 18.12 191.235 18.036 191.643 18.036H192.723V20.052H191.607C191.031 20.052 190.557 20.208 190.185 20.52C189.813 20.82 189.627 21.288 189.627 21.924V27H187.359ZM197.916 27C197.328 27 196.848 26.82 196.476 26.46C196.116 26.088 195.936 25.596 195.936 24.984V19.944H193.704V18.072H195.936V15.3H198.204V18.072H200.652V19.944H198.204V24.588C198.204 24.948 198.372 25.128 198.708 25.128H200.436V27H197.916ZM206.107 27.144C205.411 27.144 204.799 26.988 204.271 26.676C203.755 26.352 203.353 25.908 203.065 25.344C202.777 24.78 202.633 24.132 202.633 23.4V18.072H204.901V23.22C204.901 23.892 205.063 24.396 205.387 24.732C205.723 25.068 206.197 25.236 206.809 25.236C207.505 25.236 208.045 25.008 208.429 24.552C208.813 24.084 209.005 23.436 209.005 22.608V18.072H211.273V27H209.041V25.83H208.717C208.573 26.13 208.303 26.424 207.907 26.712C207.511 27 206.911 27.144 206.107 27.144ZM213.797 27V18.072H216.029V19.242H216.353C216.497 18.93 216.767 18.636 217.163 18.36C217.559 18.072 218.159 17.928 218.963 17.928C219.659 17.928 220.265 18.09 220.781 18.414C221.309 18.726 221.717 19.164 222.005 19.728C222.293 20.28 222.437 20.928 222.437 21.672V27H220.169V21.852C220.169 21.18 220.001 20.676 219.665 20.34C219.341 20.004 218.873 19.836 218.261 19.836C217.565 19.836 217.025 20.07 216.641 20.538C216.257 20.994 216.065 21.636 216.065 22.464V27H213.797ZM224.457 22.572V22.284C224.457 21.348 224.643 20.55 225.015 19.89C225.387 19.218 225.879 18.708 226.491 18.36C227.115 18 227.793 17.82 228.525 17.82C229.341 17.82 229.959 17.964 230.379 18.252C230.799 18.54 231.105 18.84 231.297 19.152H231.621V18.072H233.853V28.584C233.853 29.196 233.673 29.682 233.313 30.042C232.953 30.414 232.473 30.6 231.873 30.6H225.897V28.62H231.081C231.417 28.62 231.585 28.44 231.585 28.08V25.758H231.261C231.141 25.95 230.973 26.148 230.757 26.352C230.541 26.544 230.253 26.706 229.893 26.838C229.533 26.97 229.077 27.036 228.525 27.036C227.793 27.036 227.115 26.862 226.491 26.514C225.879 26.154 225.387 25.644 225.015 24.984C224.643 24.312 224.457 23.508 224.457 22.572ZM229.173 25.056C229.869 25.056 230.451 24.834 230.919 24.39C231.387 23.946 231.621 23.322 231.621 22.518V22.338C231.621 21.522 231.387 20.898 230.919 20.466C230.463 20.022 229.881 19.8 229.173 19.8C228.477 19.8 227.895 20.022 227.427 20.466C226.959 20.898 226.725 21.522 226.725 22.338V22.518C226.725 23.322 226.959 23.946 227.427 24.39C227.895 24.834 228.477 25.056 229.173 25.056Z" fill="#002448"/>
<path d="M79.5803 56.252C78.6323 56.252 77.8103 56.078 77.1143 55.73C76.4183 55.382 75.8783 54.89 75.4943 54.254C75.1223 53.618 74.9363 52.88 74.9363 52.04V51.842H76.8623V52.022C76.8623 52.79 77.0963 53.408 77.5643 53.876C78.0443 54.332 78.7103 54.56 79.5623 54.56C80.4383 54.56 81.1163 54.32 81.5963 53.84C82.0763 53.36 82.3163 52.712 82.3163 51.896V51.734C82.3163 50.954 82.0763 50.33 81.5963 49.862C81.1283 49.394 80.5283 49.16 79.7963 49.16C79.3883 49.16 79.0463 49.226 78.7703 49.358C78.5063 49.478 78.2903 49.628 78.1223 49.808C77.9663 49.988 77.8343 50.162 77.7263 50.33H75.3323V43.4H83.7743V45.11H77.2223V48.818H77.5103C77.6303 48.614 77.7983 48.422 78.0143 48.242C78.2423 48.05 78.5363 47.894 78.8963 47.774C79.2563 47.654 79.6883 47.594 80.1923 47.594C80.9363 47.594 81.6083 47.756 82.2083 48.08C82.8203 48.392 83.3063 48.86 83.6663 49.484C84.0263 50.096 84.2063 50.84 84.2063 51.716V51.914C84.2063 52.79 84.0203 53.552 83.6483 54.2C83.2763 54.848 82.7423 55.352 82.0463 55.712C81.3623 56.072 80.5403 56.252 79.5803 56.252ZM87.4037 56.252C86.9837 56.252 86.6297 56.114 86.3417 55.838C86.0657 55.562 85.9277 55.208 85.9277 54.776C85.9277 54.344 86.0657 53.996 86.3417 53.732C86.6297 53.456 86.9837 53.318 87.4037 53.318C87.8237 53.318 88.1717 53.456 88.4477 53.732C88.7357 54.008 88.8797 54.356 88.8797 54.776C88.8797 55.208 88.7357 55.562 88.4477 55.838C88.1717 56.114 87.8237 56.252 87.4037 56.252ZM95.4442 56.252C93.9802 56.252 92.8102 55.838 91.9342 55.01C91.0702 54.17 90.6382 52.91 90.6382 51.23V48.17C90.6382 46.526 91.0702 45.278 91.9342 44.426C92.8102 43.574 93.9802 43.148 95.4442 43.148C96.9202 43.148 98.0902 43.574 98.9542 44.426C99.8302 45.278 100.268 46.526 100.268 48.17V51.23C100.268 52.91 99.8302 54.17 98.9542 55.01C98.0902 55.838 96.9202 56.252 95.4442 56.252ZM95.4442 54.56C96.4402 54.56 97.1782 54.278 97.6582 53.714C98.1382 53.138 98.3782 52.334 98.3782 51.302V48.062C98.3782 47.03 98.1202 46.238 97.6042 45.686C97.0882 45.122 96.3682 44.84 95.4442 44.84C94.5082 44.84 93.7882 45.128 93.2842 45.704C92.7802 46.268 92.5282 47.054 92.5282 48.062V51.302C92.5282 52.358 92.7682 53.168 93.2482 53.732C93.7402 54.284 94.4722 54.56 95.4442 54.56Z" fill="#57738F"/>
<g clip-path="url(#clip0_11000_6730)">
<path d="M126.745 57.9864L121.144 53.8704L115.544 57.9864L117.694 51.3391L112.097 47.2494H119.008L121.144 40.5909L123.281 47.2494H130.191L124.594 51.3391L126.745 57.9864Z" fill="#FF9900"/>
</g>
<g clip-path="url(#clip1_11000_6730)">
<path d="M149.245 57.9864L143.644 53.8704L138.044 57.9864L140.194 51.3391L134.597 47.2494H141.508L143.644 40.5909L145.781 47.2494H152.691L147.094 51.3391L149.245 57.9864Z" fill="#FF9900"/>
</g>
<g clip-path="url(#clip2_11000_6730)">
<path d="M171.745 57.9864L166.144 53.8704L160.544 57.9864L162.694 51.3391L157.097 47.2494H164.008L166.144 40.5909L168.281 47.2494H175.191L169.594 51.3391L171.745 57.9864Z" fill="#FF9900"/>
</g>
<g clip-path="url(#clip3_11000_6730)">
<path d="M194.245 57.9864L188.644 53.8704L183.044 57.9864L185.194 51.3391L179.597 47.2494H186.508L188.644 40.5909L190.781 47.2494H197.691L192.094 51.3391L194.245 57.9864Z" fill="#FF9900"/>
</g>
<g clip-path="url(#clip4_11000_6730)">
<path d="M216.745 57.9864L211.144 53.8704L205.544 57.9864L207.694 51.3391L202.097 47.2494H209.008L211.144 40.5909L213.281 47.2494H220.191L214.594 51.3391L216.745 57.9864Z" fill="#FF9900"/>
</g>
<defs>
<clipPath id="clip0_11000_6730">
<rect width="18" height="18" fill="white" transform="translate(112.144 40.5)"/>
</clipPath>
<clipPath id="clip1_11000_6730">
<rect width="18" height="18" fill="white" transform="translate(134.644 40.5)"/>
</clipPath>
<clipPath id="clip2_11000_6730">
<rect width="18" height="18" fill="white" transform="translate(157.144 40.5)"/>
</clipPath>
<clipPath id="clip3_11000_6730">
<rect width="18" height="18" fill="white" transform="translate(179.644 40.5)"/>
</clipPath>
<clipPath id="clip4_11000_6730">
<rect width="18" height="18" fill="white" transform="translate(202.144 40.5)"/>
</clipPath>
</defs>
</svg>
