<svg width="270" height="153" viewBox="0 0 270 153" fill="none" xmlns="http://www.w3.org/2000/svg">
<path opacity="0.9" d="M70.6475 40.3022C68.2023 37.3422 65.3606 34.9344 62.4422 32.9646C62.3882 32.9293 62.3467 32.8981 62.2927 32.8629C61.3358 32.2194 60.3665 31.6257 59.3992 31.0819C59.2663 32.8649 58.3655 34.0751 57.0121 34.9427C58.0043 33.0725 57.7594 31.2832 56.3811 29.5666C56.323 29.496 56.242 29.4296 56.1569 29.3923C53.6308 28.1842 51.2167 27.273 49.1078 26.5859C49.0434 26.5734 48.9874 26.5527 48.9314 26.5319C45.2677 25.3633 42.5776 24.9025 41.9902 24.8029C41.9113 24.7883 41.8677 24.7842 41.8677 24.7842C41.8677 24.7842 41.8635 24.8278 41.8635 24.9066C41.8386 25.7764 41.7432 31.3165 43.3186 38.1559C43.3352 38.2078 43.3435 38.268 43.3622 38.3199C43.8085 40.2088 44.3752 42.1973 45.1079 44.2087C46.0793 46.0893 47.7586 46.4671 48.8795 46.3924C48.0097 46.9653 47.1151 47.2143 46.1291 46.7785C47.5095 49.9273 49.3112 53.0865 51.6921 55.9676C51.7564 56.0465 51.8291 56.1337 51.9017 56.2063L52.0387 56.3724C53.309 57.8607 54.679 59.212 56.1112 60.4325C56.159 60.474 56.1984 60.5051 56.2399 60.5404C66.2345 69.0156 78.9898 71.2511 80.3514 71.4691C80.4303 71.4836 80.4739 71.4877 80.4739 71.4877C80.4739 71.4877 80.4781 71.4442 80.4781 71.3653C80.4988 70.6035 80.5735 66.4521 79.6021 60.9846C79.5938 60.9265 79.5834 60.8809 79.573 60.8227C79.2638 59.0999 78.8507 57.2484 78.2903 55.3345C78.2633 55.237 78.2363 55.1394 78.2093 55.0439C77.462 52.5012 76.4761 49.8609 75.1601 47.2559C74.336 47.8973 73.6407 48.4058 73.6407 48.4058L73.8462 44.8626C72.9142 43.3016 71.8535 41.7614 70.6475 40.3022ZM43.329 29.9921C43.3311 29.7368 43.5469 29.5334 43.794 29.5417C44.0472 29.5438 44.2465 29.7514 44.2444 30.0067C44.2423 30.262 44.0347 30.4592 43.7794 30.4571C43.5324 30.4488 43.3269 30.2475 43.329 29.9921ZM43.8126 31.4784C44.1198 31.223 44.5682 31.2666 44.8214 31.5738C45.0768 31.881 45.0394 32.3356 44.7322 32.5909C44.425 32.8463 43.9621 32.8006 43.7089 32.4934C43.4535 32.1862 43.5054 31.7337 43.8126 31.4784ZM50.7518 46.6394C50.9656 46.4629 51.2748 46.5003 51.4492 46.712C51.6194 46.9175 51.5966 47.2268 51.3828 47.4032C51.169 47.5797 50.8597 47.5423 50.6916 47.3368C50.5172 47.1251 50.538 46.8137 50.7518 46.6394ZM50.6044 49.0327C50.9759 48.7255 51.5239 48.7774 51.8228 49.1406C52.13 49.5122 52.0781 50.0602 51.7066 50.3653C51.3433 50.6663 50.7953 50.6144 50.4881 50.2428C50.1892 49.8796 50.2411 49.3316 50.6044 49.0327ZM59.9409 32.4145C60.0447 32.3294 60.188 32.3439 60.2731 32.4456C60.3582 32.5473 60.3519 32.701 60.2481 32.7861C60.1464 32.8712 59.9949 32.8483 59.9098 32.7466C59.8247 32.6428 59.8392 32.4975 59.9409 32.4145ZM54.8035 30.9221C55.0402 30.7269 55.3868 30.7602 55.5819 30.9968C55.7771 31.2334 55.7438 31.5801 55.5072 31.7752C55.2706 31.9703 54.9239 31.9371 54.7288 31.7005C54.5337 31.4638 54.5669 31.1172 54.8035 30.9221ZM55.5446 32.9127C55.6401 32.8338 55.7916 32.8421 55.8767 32.9438C55.9618 33.0455 55.9473 33.2054 55.8518 33.2822C55.7501 33.3673 55.5902 33.3527 55.5051 33.2489C55.4221 33.1472 55.4429 32.9978 55.5446 32.9127Z" fill="url(#paint0_linear_11117_32204)"/>
<path d="M61.448 39.5381L64.8729 37.7696L64.9394 37.9149L61.4127 39.7395L60.3188 46.9796L65.7717 53.5762L67.1002 45.3979L67.2517 45.4186L65.9087 53.7422L75.3615 65.1773L78.2073 55.0416C78.2343 55.1392 78.2613 55.2367 78.2883 55.3322L76.4845 61.7649L79.5711 60.8204C79.5794 60.8785 79.5898 60.9242 79.6001 60.9823L76.4326 61.9538L75.4881 65.3247L80.5363 71.4335L80.4097 71.5373L73.0699 62.6595L68.0778 62.3897L68.0861 62.2236L72.9329 62.4934L67.8578 56.3535L61.3276 56.3597C60.1445 57.3228 57.6847 59.3446 56.24 60.5381C56.2006 60.5049 56.1591 60.4717 56.1114 60.4302C57.6432 59.164 60.269 57.0073 61.064 56.3618L52.0388 56.3701L51.9018 56.204L67.7208 56.1853L57.5976 43.9386L52.7508 44.744L52.73 44.5904L57.4813 43.7975L53.1887 38.604L43.3623 38.3176C43.3457 38.2657 43.3374 38.2055 43.3187 38.1536L48.207 38.2968C46.9367 36.9684 45.1246 35.0795 44.9938 34.9881L45.0353 34.9259L45.0291 34.9176L44.9668 34.8761L45.0291 34.8387C45.081 34.8366 45.1308 34.8345 48.4374 38.3031L53.0497 38.4359L41.8616 24.9023C41.8616 24.8213 41.8657 24.7798 41.8657 24.7798C41.8657 24.7798 41.9093 24.7839 41.9882 24.7985L50.7685 35.4199L48.9294 26.5255C48.9854 26.5462 49.0415 26.5649 49.1058 26.5794L50.9906 35.6877L60.1818 46.8073L62.2908 32.8564C62.3447 32.8896 62.3862 32.9228 62.4402 32.9581L61.448 39.5381Z" fill="white"/>
<path d="M152.565 152.384H75.3274C72.7265 152.384 70.6155 150.275 70.6155 147.672V12.0203H157.274V147.672C157.277 150.275 155.166 152.384 152.565 152.384Z" fill="white"/>
<path d="M149.676 0.201172H77.7526C72.8684 0.201172 68.9121 4.15748 68.9121 9.04164V143.94C68.9121 146.603 70.0953 148.997 71.9634 150.62C72.0257 150.672 72.0879 150.726 72.1523 150.78C73.6779 152.033 75.6312 152.783 77.7546 152.783H149.68C151.804 152.783 153.759 152.036 155.283 150.78C157.261 149.159 158.525 146.697 158.525 143.942V9.04164C158.523 4.15956 154.56 0.201172 149.676 0.201172ZM156.648 140.497C156.648 145.624 152.254 149.779 146.83 149.779H80.6025C75.1808 149.779 70.7844 145.624 70.7844 140.497V17.7949C70.7844 14.6066 73.5181 12.0224 76.8912 12.0224H150.544C153.917 12.0224 156.648 14.6066 156.648 17.7949V140.497Z" fill="#EDF1F4"/>
<circle cx="77.3657" cy="6.11744" r="1.48438" fill="#FF6259"/>
<circle cx="82.4548" cy="6.11744" r="1.48438" fill="#FFBE2F"/>
<circle cx="87.5442" cy="6.11744" r="1.48438" fill="#29CD41"/>
<path d="M102.053 65.2802H85.3577C84.9965 65.2802 84.7039 64.9397 84.7039 64.5184C84.7039 64.0991 84.9965 63.7566 85.3577 63.7566H102.053C102.414 63.7566 102.707 64.097 102.707 64.5184C102.707 64.9397 102.414 65.2802 102.053 65.2802Z" fill="#EDF1F4"/>
<path d="M131.54 65.2804H105.675C105.314 65.2804 105.021 64.94 105.021 64.5186C105.021 64.0993 105.314 63.7568 105.675 63.7568H131.54C131.901 63.7568 132.194 64.0972 132.194 64.5186C132.194 64.94 131.901 65.2804 131.54 65.2804Z" fill="#EDF1F4"/>
<path d="M141.222 65.2804H135.794C135.48 65.2804 135.225 64.9835 135.225 64.6182C135.225 64.2529 135.48 63.9561 135.794 63.9561H141.222C141.537 63.9561 141.79 64.2529 141.79 64.6182C141.79 64.9835 141.535 65.2804 141.222 65.2804Z" fill="#EDF1F4"/>
<path d="M141.136 73.143H85.3577C84.9965 73.143 84.7039 72.8025 84.7039 72.3812C84.7039 71.9619 84.9965 71.6194 85.3577 71.6194H141.136C141.497 71.6194 141.79 71.9598 141.79 72.3812C141.79 72.8025 141.497 73.143 141.136 73.143Z" fill="#EDF1F4"/>
<path d="M102.053 88.0216H85.3577C84.9965 88.0216 84.7039 87.6812 84.7039 87.2598C84.7039 86.8405 84.9965 86.498 85.3577 86.498H102.053C102.414 86.498 102.707 86.8385 102.707 87.2598C102.707 87.6812 102.414 88.0216 102.053 88.0216Z" fill="#EDF1F4"/>
<path d="M131.54 88.0216H105.675C105.314 88.0216 105.021 87.6812 105.021 87.2598C105.021 86.8405 105.314 86.498 105.675 86.498H131.54C131.901 86.498 132.194 86.8385 132.194 87.2598C132.194 87.6812 131.901 88.0216 131.54 88.0216Z" fill="#EDF1F4"/>
<path d="M113.114 80.1608H85.3577C84.9965 80.1608 84.7039 79.8204 84.7039 79.399C84.7039 78.9797 84.9965 78.6372 85.3577 78.6372H113.114C113.475 78.6372 113.768 78.9776 113.768 79.399C113.768 79.8183 113.475 80.1608 113.114 80.1608Z" fill="#EDF1F4"/>
<path d="M141.136 80.1608H119.765C119.404 80.1608 119.111 79.8204 119.111 79.399C119.111 78.9797 119.404 78.6372 119.765 78.6372H141.136C141.498 78.6372 141.79 78.9776 141.79 79.399C141.79 79.8183 141.498 80.1608 141.136 80.1608Z" fill="#EDF1F4"/>
<path d="M141.222 88.0216H135.794C135.48 88.0216 135.225 87.7247 135.225 87.3594C135.225 86.9941 135.48 86.6973 135.794 86.6973H141.222C141.537 86.6973 141.79 86.9941 141.79 87.3594C141.79 87.7268 141.535 88.0216 141.222 88.0216Z" fill="#EDF1F4"/>
<path d="M9.01079 111.549C13.9873 111.549 18.0216 107.515 18.0216 102.539C18.0216 97.5621 13.9873 93.5278 9.01079 93.5278C4.03427 93.5278 0 97.5621 0 102.539C0 107.515 4.03427 111.549 9.01079 111.549Z" fill="#015EA5"/>
<path d="M45.9752 133.979C48.5545 124.325 49.9247 115.283 48.2485 107.78H54.1617L56.9662 134.356C57.1054 135.677 56.2115 136.84 55.0575 136.84H47.8162C46.5248 136.84 45.596 135.4 45.9752 133.979Z" fill="#EDF1F4"/>
<path d="M62.0906 103.246C62.8939 101.307 61.9729 99.0831 60.0334 98.2797C58.0939 97.4763 55.8704 98.3973 55.067 100.337C54.2636 102.276 55.1846 104.5 57.1241 105.303C59.0636 106.107 61.2872 105.186 62.0906 103.246Z" fill="#015EA5"/>
<path d="M48.4867 93.1894C43.2624 93.1894 38.2321 92.5354 33.5097 90.7384L9.01074 78.3809V125.736L33.5097 113.118C38.2321 111.321 43.3924 110.388 48.6168 110.388L48.4867 93.1894Z" fill="#EDF1F4"/>
<path d="M18.4337 93.6159V83.1323L9.01074 78.3787V125.733L33.5097 113.116C38.2321 111.319 43.3924 110.386 48.6168 110.386V104.043C48.6168 104.044 18.4337 103.724 18.4337 93.6159Z" fill="#EDF1F4"/>
<path d="M44.7422 112.147H45.55C46.16 112.147 46.6564 111.652 46.6564 111.04V92.6833C46.6564 92.0733 46.1618 91.5769 45.55 91.5769H44.7422C44.1322 91.5769 43.6357 92.0715 43.6357 92.6833V111.042C43.6376 111.652 44.1322 112.147 44.7422 112.147Z" fill="#D2DBE2"/>
<path d="M8.93194 126.391H10.0677C10.9268 126.391 11.6229 125.695 11.6229 124.836V78.888C11.6229 78.0289 10.9268 77.3328 10.0677 77.3328H8.93194C8.07281 77.3328 7.37671 78.0289 7.37671 78.888V124.838C7.37671 125.695 8.07281 126.391 8.93194 126.391Z" fill="#D2DBE2"/>
<path d="M48.565 92.8831C54.3976 92.8831 59.1255 96.871 59.1255 101.791C59.1255 106.712 54.3976 110.699 48.565 110.699H46.6562V92.8849H48.565V92.8831Z" fill="#EDF1F4"/>
<path d="M48.5656 92.8831C48.747 92.8831 48.9265 92.8867 49.106 92.894V102.324C49.106 105.834 53.5665 108.162 57.2119 106.47C57.4262 106.369 57.6149 106.266 57.7669 106.158C55.9552 108.868 52.5151 110.698 48.5638 110.698H46.655V92.8831H48.5656Z" fill="#EDF1F4"/>
<path d="M93.8598 44.8777H85.7251V52.975H93.8598V44.8777Z" fill="#F8EFFF"/>
<path d="M105.822 30.2688H97.6877V52.975H105.822V30.2688Z" fill="#D1BCE3"/>
<path d="M117.785 36.303H109.65V52.9751H117.785V36.303Z" fill="#F8EFFF"/>
<path d="M129.745 40.6702H121.61V52.9771H129.745V40.6702Z" fill="#D1BCE3"/>
<path d="M141.707 23.282H133.573V52.9751H141.707V23.282Z" fill="#F8EFFF"/>
<path opacity="0.2" d="M59.044 141.553C59.1332 141.698 59.1623 141.873 59.1208 142.043C59.0647 142.269 58.8987 142.444 58.6745 142.508L56.5137 143.139C56.2895 143.203 56.0549 143.147 55.8868 142.985C55.7187 142.823 55.6502 142.593 55.7062 142.367L56.2397 140.181C56.2957 139.955 56.4618 139.78 56.686 139.716C56.9101 139.652 57.1447 139.708 57.3128 139.87L58.9381 141.426C58.9817 141.464 59.017 141.507 59.044 141.553ZM56.2168 142.593C56.2251 142.605 56.2335 142.616 56.2397 142.62C56.2563 142.637 56.304 142.672 56.3725 142.653L58.5333 142.022C58.6018 142.001 58.6226 141.947 58.6267 141.925C58.633 141.902 58.6392 141.844 58.5894 141.794L56.9641 140.237C56.9122 140.187 56.8541 140.198 56.8313 140.204C56.8084 140.21 56.7545 140.233 56.7379 140.301L56.2044 142.487C56.1899 142.533 56.2023 142.568 56.2168 142.593Z" fill="#015EA5"/>
<path opacity="0.1" d="M173.777 4.47076L174.572 3.67577C174.753 3.49518 174.753 3.2025 174.572 3.02192C174.392 2.84133 174.099 2.84133 173.918 3.02192L173.123 3.81691L172.328 3.02192C172.148 2.84133 171.855 2.84133 171.675 3.02192C171.494 3.2025 171.494 3.49518 171.675 3.67577L172.469 4.47076L171.677 5.26369C171.496 5.44427 171.496 5.73695 171.677 5.91754C171.766 6.00679 171.884 6.05246 172.002 6.05246C172.121 6.05246 172.239 6.00679 172.328 5.91754L173.121 5.12461L173.914 5.91754C174.003 6.00679 174.122 6.05246 174.24 6.05246C174.358 6.05246 174.477 6.00679 174.566 5.91754C174.747 5.73695 174.747 5.44427 174.566 5.26369L173.777 4.47076Z" fill="#015EA5"/>
<path opacity="0.2" d="M204.454 72.1972C203.454 72.1972 202.64 71.3835 202.64 70.383C202.64 69.3825 203.454 68.5688 204.454 68.5688C205.455 68.5688 206.268 69.3825 206.268 70.383C206.268 71.3814 205.455 72.1972 204.454 72.1972ZM204.454 69.1355C203.767 69.1355 203.207 69.696 203.207 70.383C203.207 71.0701 203.767 71.6305 204.454 71.6305C205.141 71.6305 205.702 71.0701 205.702 70.383C205.702 69.6939 205.141 69.1355 204.454 69.1355Z" fill="#015EA5"/>
<path opacity="0.2" d="M28.6247 48.1625C27.6242 48.1625 26.8105 47.3488 26.8105 46.3484C26.8105 45.3479 27.6242 44.5342 28.6247 44.5342C29.6252 44.5342 30.4389 45.3479 30.4389 46.3484C30.4389 47.3488 29.6252 48.1625 28.6247 48.1625ZM28.6247 45.1008C27.9377 45.1008 27.3772 45.6613 27.3772 46.3484C27.3772 47.0354 27.9377 47.5959 28.6247 47.5959C29.3118 47.5959 29.8722 47.0354 29.8722 46.3484C29.8722 45.6592 29.3118 45.1008 28.6247 45.1008Z" fill="#015EA5"/>
<path d="M154.704 145.789L153.569 147.715C153.569 147.715 151.203 147.738 150.625 147.715C150.477 147.709 150.416 147.526 150.53 147.431C151.431 146.661 154.704 145.789 154.704 145.789Z" fill="#D1BCE3"/>
<path d="M181.921 147.43C182.822 146.661 184.923 146.124 184.923 146.124L184.814 147.715C184.814 147.715 182.595 147.738 182.017 147.715C181.868 147.709 181.808 147.527 181.921 147.43Z" fill="#D1BCE3"/>
<path d="M166.104 65.2519C166.104 65.2519 151.454 64.8718 157.987 50.7288C157.987 50.7288 158.495 52.042 159.446 51.2587C160.397 50.4754 159.193 47.0508 157.417 48.4464C155.641 49.842 150.441 57.3247 151.455 64.5541C152.47 71.7835 160.017 74.638 162.236 75.2403C164.455 75.8426 166.104 65.2519 166.104 65.2519Z" fill="#FFA8A8"/>
<path d="M176.759 61.5735C176.759 61.5735 167.878 64.9649 162.523 63.8428C162.39 63.8147 162.256 63.879 162.198 64.0027C161.705 65.0645 159.591 70.0265 160.177 76.0322C160.177 76.0322 165.66 77.8079 171.812 77.7445C177.963 77.6812 176.759 61.5735 176.759 61.5735Z" fill="url(#paint1_linear_11117_32204)"/>
<path d="M160.177 76.0325C159.982 74.0377 160.086 72.1594 160.328 70.4994C166.744 71.2626 171.487 67.5996 171.487 67.5996L173.154 77.4352C172.751 77.6302 172.304 77.7388 171.812 77.7438C165.66 77.8082 160.177 76.0325 160.177 76.0325Z" fill="url(#paint2_linear_11117_32204)"/>
<path d="M172.027 82.2891C172.027 82.2891 166.982 92.3549 163.415 109.334C159.848 126.314 156.708 140.297 153.569 147.716C153.569 147.716 171.976 131.594 171.404 111.332C171.404 111.332 182.391 100.203 181.107 85.5066L172.027 82.2891Z" fill="#015EA5"/>
<path d="M180.713 93.2153C178.717 103.924 171.405 111.332 171.405 111.332C171.405 111.332 167.411 101.358 169.611 92.0248C170.667 87.5444 175.732 89.7303 180.713 93.2153Z" fill="#015EA5"/>
<path d="M169.697 85.698C169.697 85.698 168.808 99.0598 172.747 113.043C176.684 127.026 182.526 136.871 184.813 147.715C184.813 147.715 188.385 122.46 180.537 111.045C180.537 111.045 183.248 90.9265 182.249 84.9338L169.697 85.698Z" fill="#015EA5"/>
<path d="M182.249 84.9355C183.248 90.9282 180.537 111.047 180.537 111.047C180.537 111.047 179.106 93.094 175.458 85.4202C175.447 85.3971 175.437 85.3739 175.427 85.3508L182.249 84.9355Z" fill="#015EA5"/>
<path d="M176.758 61.5735C176.758 61.5735 171.159 65.0454 168.26 75.2399C166.484 81.4869 169.401 86.8773 169.401 86.8773C169.401 86.8773 179.992 87.8918 182.782 85.9894C185.573 84.0871 179.548 64.427 176.758 61.5735Z" fill="url(#paint3_linear_11117_32204)"/>
<path d="M181.073 71.4387C183.045 77.7611 184.407 84.8829 182.783 85.99C180.988 87.2136 175.965 87.2307 172.61 87.0869L181.073 71.4387Z" fill="url(#paint4_linear_11117_32204)"/>
<path d="M172.509 88.9066C172.509 88.9066 166.865 84.3408 166.104 75.7158C166.104 75.7158 174.221 79.5205 172.509 88.9066Z" fill="#00BAEB"/>
<path d="M177.932 80.7895L169.612 82.9301C169.612 82.9301 168.877 82.4927 167.864 81.8241C167.59 79.9298 167.576 77.6494 168.261 75.2402C168.591 74.0799 168.956 73.0081 169.343 72.0177C172.429 70.0017 175.104 67.845 175.104 67.845L177.932 80.7895Z" fill="url(#paint5_linear_11117_32204)"/>
<path d="M168.958 75.24C168.958 75.24 158.811 83.326 149.552 83.8328C149.552 83.8328 147.016 83.0716 146.318 83.8328C145.62 84.5939 148.094 86.9407 149.743 86.2429C149.743 86.2429 165.601 93.1173 174.158 86.3706C174.158 86.3706 173.144 77.999 168.958 75.24Z" fill="#FFA8A8"/>
<path d="M176.759 61.5735C186.335 61.7635 190.076 80.028 172.509 88.9063C172.509 88.9063 172.065 80.8525 166.105 75.7155C166.105 75.7155 171.432 73.5598 174.666 68.5495C177.9 63.5392 176.759 61.5735 176.759 61.5735Z" fill="url(#paint6_linear_11117_32204)"/>
<path d="M174.81 59.5491C174.81 59.5491 174.145 62.9516 175.124 64.4799C176.085 63.7741 176.867 62.0085 176.825 61.6807C176.746 61.0533 176.51 60.262 176.51 60.262L174.81 59.5491Z" fill="#FFA8A8"/>
<path d="M175.545 60.6357C175.193 60.7986 174.869 60.9816 174.616 61.1546C174.565 61.9529 174.577 62.9071 174.793 63.6924C175.481 62.6366 175.764 61.7448 175.545 60.6357Z" fill="#FF8787"/>
<path d="M173.472 60.3703C172.063 59.409 170.653 54.4681 171.524 53.6537C172.254 52.971 173.939 53.5029 175.328 55.0302C177.947 54.4018 177.954 59.6866 175.95 60.87C175.556 60.8348 173.472 60.3703 173.472 60.3703Z" fill="#003A75"/>
<path d="M175.738 59.3037C175.716 59.3289 175.678 59.3108 175.681 59.2766C175.766 58.1766 175.174 56.9731 174.2 56.9952C172.551 57.0324 173.246 62.6138 174.139 62.7203C175.164 62.843 177.143 59.4697 176.552 59.0152C176.252 58.7849 175.887 59.1348 175.738 59.3037Z" fill="#FFA8A8"/>
<path d="M175.05 58.8861C174.95 58.6538 174.506 58.6458 174.307 58.9172C174.554 58.8096 174.921 58.8157 175.05 58.8861Z" fill="#212529"/>
<path d="M173.598 61.0959C173.592 61.3272 173.778 61.7374 173.839 61.8641C174.125 61.9013 175.263 61.473 175.273 60.4353C175.025 60.7007 173.87 61.299 173.598 61.0959Z" fill="white"/>
<path d="M182.086 130.319C184.812 136.788 184.813 147.716 184.813 147.716C182.755 137.959 177.819 129.009 173.983 117.126C174.005 117.155 179.364 123.864 182.086 130.319Z" fill="#015EA5"/>
<path d="M163.648 108.245C163.648 108.252 164.328 118.844 162.521 128.733C160.713 138.626 153.569 147.716 153.569 147.716C156.708 140.296 159.847 126.313 163.415 109.334C163.491 108.967 163.569 108.605 163.648 108.245Z" fill="#015EA5"/>
<path opacity="0.9" d="M223.596 143.443L243.403 142.827C245.186 131.797 246.081 114.843 239.422 98.9401C228.318 72.4187 200.415 58.8752 200.415 58.8752C200.415 58.8752 190.516 88.33 201.619 114.85C206.801 127.227 215.641 136.777 223.596 143.443Z" fill="url(#paint7_linear_11117_32204)"/>
<path opacity="0.9" d="M251.122 145.742L242.464 143.453C242.797 138.416 244.122 130.859 248.666 124.536C256.245 113.991 269.903 110.872 269.903 110.872C269.903 110.872 271.276 124.849 263.698 135.395C260.161 140.316 255.3 143.618 251.122 145.742Z" fill="url(#paint8_linear_11117_32204)"/>
<defs>
<linearGradient id="paint0_linear_11117_32204" x1="61.1707" y1="24.7842" x2="61.1707" y2="71.4877" gradientUnits="userSpaceOnUse">
<stop stop-color="#00BAEB"/>
<stop offset="1" stop-color="#00BAEB" stop-opacity="0"/>
</linearGradient>
<linearGradient id="paint1_linear_11117_32204" x1="168.465" y1="61.5735" x2="168.465" y2="77.7462" gradientUnits="userSpaceOnUse">
<stop stop-color="#00BAEB"/>
<stop offset="1" stop-color="white"/>
</linearGradient>
<linearGradient id="paint2_linear_11117_32204" x1="166.614" y1="67.5996" x2="166.614" y2="77.7455" gradientUnits="userSpaceOnUse">
<stop stop-color="#00BAEB"/>
<stop offset="1" stop-color="white"/>
</linearGradient>
<linearGradient id="paint3_linear_11117_32204" x1="175.595" y1="61.5735" x2="175.595" y2="87.1475" gradientUnits="userSpaceOnUse">
<stop stop-color="#00BAEB"/>
<stop offset="1" stop-color="white"/>
</linearGradient>
<linearGradient id="paint4_linear_11117_32204" x1="178.056" y1="71.4387" x2="178.056" y2="87.1483" gradientUnits="userSpaceOnUse">
<stop stop-color="#00BAEB"/>
<stop offset="1" stop-color="white"/>
</linearGradient>
<linearGradient id="paint5_linear_11117_32204" x1="172.81" y1="67.845" x2="172.81" y2="82.9301" gradientUnits="userSpaceOnUse">
<stop stop-color="#00BAEB"/>
<stop offset="1" stop-color="white"/>
</linearGradient>
<linearGradient id="paint6_linear_11117_32204" x1="175.459" y1="61.5735" x2="175.459" y2="88.9063" gradientUnits="userSpaceOnUse">
<stop stop-color="#00BAEB"/>
<stop offset="1" stop-color="white"/>
</linearGradient>
<linearGradient id="paint7_linear_11117_32204" x1="220.52" y1="58.8752" x2="220.52" y2="143.443" gradientUnits="userSpaceOnUse">
<stop stop-color="#EDF1F4"/>
<stop offset="1" stop-color="#EDF1F4" stop-opacity="0"/>
</linearGradient>
<linearGradient id="paint8_linear_11117_32204" x1="256.232" y1="110.872" x2="256.232" y2="145.742" gradientUnits="userSpaceOnUse">
<stop stop-color="#EDF1F4"/>
<stop offset="1" stop-color="#EDF1F4" stop-opacity="0"/>
</linearGradient>
</defs>
</svg>
