<svg width="338" height="258" viewBox="0 0 338 258" fill="none" xmlns="http://www.w3.org/2000/svg">
<g clip-path="url(#clip0_11117_32099)">
<path fill-rule="evenodd" clip-rule="evenodd" d="M156.971 51.1854H232.189C232.189 51.1854 226.543 50.8385 222.804 47.5929C219.064 44.3489 217.227 39.829 213.623 40.351C210.018 40.873 211.854 45.2746 211.854 45.2746C211.854 45.2746 205.697 37.5583 193.899 37.8424C182.1 38.1264 187.098 45.7383 187.098 45.7383C187.098 45.7383 182.737 42.4298 178.747 44.5085C174.757 46.5873 178.738 49.4429 182.85 48.749C182.851 48.752 182.134 50.143 156.971 51.1854Z" fill="url(#paint0_linear_11117_32099)"/>
<path d="M20.4961 150.163H0.39624V242.024H20.4961V150.163Z" fill="url(#paint1_linear_11117_32099)"/>
<path d="M55.7751 166.716H35.6753V242.024H55.7751V166.716Z" fill="url(#paint2_linear_11117_32099)"/>
<path d="M91.0527 184.679H70.9529V242.025H91.0527V184.679Z" fill="url(#paint3_linear_11117_32099)"/>
<path d="M126.332 150.163H106.232V242.024H126.332V150.163Z" fill="url(#paint4_linear_11117_32099)"/>
<path d="M161.609 121.016H141.51V242.026H161.609V121.016Z" fill="url(#paint5_linear_11117_32099)"/>
<path d="M196.887 112.653H176.787V242.026H196.887V112.653Z" fill="url(#paint6_linear_11117_32099)"/>
<path d="M232.166 101.036H212.066V242.025H232.166V101.036Z" fill="url(#paint7_linear_11117_32099)"/>
<path d="M267.444 112.653H247.344V242.025H267.444V112.653Z" fill="url(#paint8_linear_11117_32099)"/>
<path d="M302.723 55.3552H282.623V242.026H302.723V55.3552Z" fill="url(#paint9_linear_11117_32099)"/>
<path d="M338 10.6941H317.9V242.025H338V10.6941Z" fill="url(#paint10_linear_11117_32099)"/>
<path d="M302.561 10.0276C302.454 9.94163 302.311 9.91246 302.179 9.94777L275.973 17.1221C275.818 17.1651 275.699 17.291 275.666 17.4491C275.634 17.6073 275.692 17.77 275.818 17.8713L283.4 23.974L234.917 80.5059L167.847 91.7534C166.339 92.0067 165.008 92.8234 164.101 94.0547L142.882 122.826L82.4582 139.441C80.7064 139.923 79.3016 141.162 78.6031 142.838L55.032 199.47C53.7915 202.453 55.207 205.889 58.1901 207.131C58.9086 207.43 59.6655 207.581 60.4423 207.581C62.8159 207.581 64.9391 206.165 65.8526 203.973L88.3245 149.982L147.947 133.587C149.209 133.24 150.333 132.467 151.108 131.414L172.124 102.918L238.95 91.7104C240.301 91.4832 241.537 90.7861 242.428 89.7468L292.531 31.3249L300.612 37.8284C300.737 37.9297 300.909 37.9512 301.057 37.8852C301.204 37.8192 301.302 37.6764 301.31 37.5152L302.723 10.3807C302.729 10.2471 302.669 10.1136 302.561 10.0276Z" fill="url(#paint11_linear_11117_32099)"/>
<path fill-rule="evenodd" clip-rule="evenodd" d="M118.892 79.3299H0C0 79.3299 8.92302 78.9031 14.8354 74.9252C20.7477 70.9473 23.6509 65.4065 29.3468 66.0452C35.0442 66.6838 32.1425 72.0834 32.1425 72.0834C32.1425 72.0834 41.8731 62.623 60.5221 62.97C79.1711 63.317 71.2721 72.6515 71.2721 72.6515C71.2721 72.6515 78.1655 68.5953 84.4708 71.1438C90.7777 73.6939 84.4862 77.1928 77.9874 76.3423C77.9858 76.3453 79.1189 78.051 118.892 79.3299Z" fill="url(#paint12_linear_11117_32099)"/>
<path d="M144.237 203.175C144.445 202.226 144.557 201.24 144.557 200.23C144.557 192.635 138.399 186.477 130.804 186.477C130.213 186.477 129.631 186.518 129.058 186.59C128.71 182.031 124.902 178.437 120.253 178.437C119.082 178.437 117.966 178.667 116.943 179.08C116.128 172.61 110.61 167.605 103.92 167.605C102.655 167.605 101.432 167.788 100.273 168.123C100.289 167.865 100.298 167.605 100.298 167.343C100.298 159.946 94.3011 153.949 86.9042 153.949C79.5072 153.949 73.5104 159.946 73.5104 167.343C73.5104 167.596 73.5197 167.849 73.5335 168.1C72.4004 167.78 71.206 167.607 69.9701 167.607C63.2794 167.607 57.7616 172.612 56.9464 179.081C55.9239 178.668 54.8077 178.438 53.6363 178.438C48.986 178.438 45.1785 182.031 44.8315 186.592C44.2589 186.52 43.6785 186.478 43.0859 186.478C35.4909 186.478 29.3329 192.636 29.3329 200.231C29.3329 201.243 29.445 202.227 29.6522 203.176C19.5962 203.948 11.6772 212.351 11.6772 222.605C11.6772 233.367 20.4022 242.092 31.1645 242.092H142.724C153.486 242.092 162.211 233.367 162.211 222.605C162.213 212.349 154.294 203.947 144.237 203.175Z" fill="url(#paint13_linear_11117_32099)"/>
<path d="M63.7307 112.36H110.133C110.133 112.36 97.7969 0.644043 86.9318 0.644043C76.0666 0.644043 63.7307 112.36 63.7307 112.36Z" fill="#D1BCE3"/>
<path d="M86.9316 0.644043L86.9102 112.36H110.133C110.133 112.36 97.7968 0.644043 86.9316 0.644043Z" fill="#D1BCE3"/>
<path d="M78.087 132.345H95.7765C96.0405 132.345 96.2478 132.122 96.2294 131.86C95.8548 126.809 92.5202 84.0513 86.9318 84.0513C81.3434 84.0513 78.0087 126.809 77.6341 131.86C77.6142 132.122 77.823 132.345 78.087 132.345Z" fill="#EDF1F4"/>
<path d="M61.4109 132.345H45.5837C45.3197 132.345 45.1262 132.098 45.1907 131.843C46.4849 126.715 57.5405 84.0496 67.2434 84.0496L61.8131 131.985C61.7901 132.191 61.6166 132.345 61.4109 132.345Z" fill="#EDF1F4"/>
<path d="M46.0107 132.345L47.8807 136.783C47.9636 136.98 48.1571 137.109 48.3705 137.109H58.8042C59.0283 137.109 59.2279 136.967 59.3047 136.757L60.8906 132.345H46.0107Z" fill="#015EA5"/>
<path d="M112.362 132.345H128.409C128.607 132.345 128.753 132.16 128.705 131.967C127.572 127.459 116.409 84.0496 106.622 84.0496L112.061 132.074C112.077 132.23 112.207 132.345 112.362 132.345Z" fill="#EDF1F4"/>
<path d="M127.883 132.345L125.988 136.842C125.92 137.003 125.761 137.109 125.586 137.109H115.023C114.839 137.109 114.675 136.994 114.612 136.82L113.003 132.345H127.883Z" fill="#015EA5"/>
<path d="M78.5771 132.345L81.0152 136.794C81.1211 136.987 81.3253 137.109 81.5464 137.109H92.6188C92.8521 137.109 93.064 136.975 93.1653 136.765L95.284 132.345H78.5771Z" fill="#015EA5"/>
<path d="M90.7981 25.6961C91.3872 23.5595 90.1327 21.3498 87.9961 20.7606C85.8594 20.1715 83.6497 21.426 83.0606 23.5627C82.4715 25.6993 83.726 27.909 85.8626 28.4981C87.9993 29.0872 90.2089 27.8327 90.7981 25.6961Z" fill="white"/>
<path opacity="0.2" d="M81.0999 142.2H92.9123L86.8433 198.782L81.0999 142.2Z" fill="url(#paint14_linear_11117_32099)"/>
<path opacity="0.2" d="M114.874 142.2H126.046L118.764 180.525L114.874 142.2Z" fill="url(#paint15_linear_11117_32099)"/>
<path opacity="0.2" d="M58.8411 141.363H47.6704L54.9522 179.688L58.8411 141.363Z" fill="url(#paint16_linear_11117_32099)"/>
<path d="M52.3743 132.345H61.4109C61.6166 132.345 61.7901 132.19 61.8131 131.985L67.2434 84.0496C67.2419 84.0511 60.9887 89.1405 52.3743 132.345Z" fill="#D2DBE2"/>
<path d="M121.488 132.345H112.451C112.245 132.345 112.072 132.19 112.049 131.985L106.619 84.0496C106.62 84.0511 112.873 89.1405 121.488 132.345Z" fill="#D2DBE2"/>
<path d="M95.7769 132.345C96.0409 132.345 96.2482 132.122 96.2298 131.86C95.8551 126.809 92.5205 84.0513 86.9321 84.0513V132.346H95.7769V132.345Z" fill="#D2DBE2"/>
<path fill-rule="evenodd" clip-rule="evenodd" d="M293.836 242.272C285.655 240.718 276.924 239.444 267.809 238.412C268.835 237.786 269.727 237.117 269.591 236.833C269.393 236.413 266.899 236.384 266.119 236.903C266.863 235.543 268.095 232.216 267.605 231.881C267.115 231.548 264.815 234.31 264.158 235.204C264.734 232.368 265.33 228.95 264.57 228.886C263.811 228.821 262.475 233.162 262.064 234.405C261.723 233.025 260.358 231.814 259.936 231.998C259.514 232.181 259.787 234.212 260.087 234.821C258.676 234.044 254.89 232.482 254.609 232.859C254.328 233.237 257.105 235.993 258.439 236.727C256.981 236.42 256.009 236.235 255.752 236.608C255.676 236.72 255.901 236.965 256.267 237.253C235.3 235.386 212.763 234.646 190.494 234.611C190.512 234.557 190.516 234.51 190.493 234.47C190.133 233.817 188.494 233.986 186.029 234.289C188.36 233.263 193.423 229.098 193.023 228.435C192.623 227.771 186.095 229.822 183.631 230.909C184.23 229.944 185.03 226.624 184.364 226.262C183.697 225.9 181.233 227.711 180.433 229.944C179.967 227.831 178.502 220.468 177.237 220.468C175.972 220.468 176.371 226.202 176.838 230.971C175.906 229.402 172.574 224.512 171.708 224.996C170.843 225.479 172.307 231.152 173.307 233.506C172.108 232.54 167.978 232.237 167.579 232.902C167.382 233.228 168.038 233.962 169.014 234.788C139.838 235.293 112.186 236.809 90.3895 238.346C90.583 238.151 90.6797 237.989 90.629 237.881C90.431 237.462 87.9361 237.433 87.1562 237.952C87.9008 236.591 89.1321 233.265 88.6424 232.93C88.1526 232.597 85.8528 235.359 85.1957 236.252C85.7714 233.417 86.3671 229.999 85.6071 229.935C84.8487 229.87 83.513 234.21 83.1016 235.454C82.7607 234.074 81.3959 232.862 80.9737 233.047C80.5515 233.229 80.8248 235.26 81.1241 235.87C79.7132 235.093 75.9272 233.53 75.6463 233.908C75.3653 234.285 78.1426 237.041 79.4768 237.775C78.0183 237.468 77.0464 237.284 76.7901 237.657C76.6365 237.88 77.6943 238.636 78.6692 239.217C77.4886 239.309 76.3341 239.399 75.2041 239.49C75.4697 239.269 75.6708 239.059 75.6186 238.977C75.5311 238.842 74.6744 238.93 74.4319 239.137C74.6222 238.641 74.8863 237.453 74.7021 237.358C74.5178 237.262 73.8608 238.299 73.6796 238.632C73.7425 237.637 73.7824 236.443 73.5199 236.45C73.2574 236.458 73.0056 237.998 72.9242 238.44C72.7415 237.981 72.2165 237.619 72.0798 237.698C71.9432 237.778 72.1351 238.463 72.2656 238.661C71.7451 238.449 70.3726 238.062 70.2943 238.202C70.216 238.343 71.2999 239.178 71.7912 239.378C71.2769 239.33 70.9345 239.304 70.8639 239.442C70.8301 239.509 71.0788 239.662 71.3659 239.802C54.7159 241.173 44.5554 242.28 44.5554 242.28H293.836V242.272Z" fill="url(#paint17_linear_11117_32099)"/>
<path d="M219.89 257.397C277.111 257.397 323.498 254.949 323.498 251.929C323.498 248.908 277.111 246.46 219.89 246.46C162.669 246.46 116.282 248.908 116.282 251.929C116.282 254.949 162.669 257.397 219.89 257.397Z" fill="#EDF1F4"/>
<path d="M236.024 250.16L234.853 252.947C234.853 252.947 231.24 252.982 230.357 252.947C230.132 252.937 230.038 252.658 230.211 252.512C231.587 251.338 236.024 250.16 236.024 250.16Z" fill="#D1BCE3"/>
<path d="M287.585 251.792C288.962 250.618 291.896 249.882 291.896 249.882L292.002 252.227C292.002 252.227 288.613 252.262 287.731 252.227C287.505 252.217 287.413 251.938 287.585 251.792Z" fill="#D1BCE3"/>
<path d="M250.081 119.697C245.607 117.07 241.591 108.618 243.622 107.197C245.653 105.775 251.16 108.479 251.63 109.213C269.637 104.825 289.823 129.976 285.903 135.315C285.119 136.385 282.494 137.35 279.885 136.052C296.706 168.705 269.497 171.331 262.381 165.393C256.366 160.374 255.124 143.675 255.124 143.675L254.277 121.744L250.081 119.697Z" fill="#003A75"/>
<path d="M233.322 142.284C233.322 142.284 233.733 149.352 241.165 155.647C241.165 155.647 242.157 146.085 233.322 142.284Z" fill="#00BAEB"/>
<path d="M236.033 141.945C236.033 141.945 220.636 152.693 205.627 155.647L204.658 157.825C204.658 157.825 230.677 158.019 241.198 148.965L236.033 141.945Z" fill="#FFA8A8"/>
<path d="M241.199 148.966L236.097 142.032L234.163 143.182C234.163 143.182 235.27 146.517 234.852 148.528C234.852 148.528 225.503 153.855 204.66 157.826C204.658 157.826 230.676 158.019 241.199 148.966Z" fill="#FF8787"/>
<path d="M254.528 122.094C254.528 122.094 251.72 123.353 248.816 126.064C245.911 128.775 241.069 136.716 233.322 142.284C233.322 142.284 239.713 148.626 241.165 155.647C241.165 155.647 249.881 151.247 253.173 146.112C256.464 140.976 254.528 122.094 254.528 122.094Z" fill="url(#paint18_linear_11117_32099)"/>
<path d="M252.737 131.446C252.737 131.446 246.59 141.625 237.453 147.419C239.002 149.736 240.539 152.628 241.164 155.647C241.164 155.647 249.88 151.245 253.171 146.111C254.47 144.086 254.955 139.923 255.066 135.622L252.737 131.446Z" fill="url(#paint19_linear_11117_32099)"/>
<path d="M257.327 161.796C257.327 161.796 248.222 187.687 246.491 202.996C244.761 218.306 234.853 252.947 234.853 252.947C234.853 252.947 261.536 219.831 259.357 201.966C259.357 201.966 272.428 183.563 271.34 160.956L257.327 161.796Z" fill="#015EA5"/>
<path d="M256.891 170.06C255.187 183.262 259.357 201.968 259.357 201.968C259.357 201.968 269.26 188.023 271.108 169.5C264.124 165.855 257.647 164.214 256.891 170.06Z" fill="#015EA5"/>
<path d="M247.222 198.083C246.914 199.803 246.665 201.453 246.49 202.996C244.758 218.306 234.851 252.947 234.851 252.947C234.851 252.947 241.261 242.071 244.844 230.837C248.428 219.605 247.222 198.083 247.222 198.083Z" fill="#015EA5"/>
<path d="M255.253 161.206C255.253 161.206 258.579 184.942 268.36 204.156C278.141 223.37 288.995 242.975 292 252.227C292 252.227 294.174 215.719 279.521 199.108C279.521 199.108 282.113 177.744 270.945 161.037L255.253 161.206Z" fill="#015EA5"/>
<path d="M279.523 199.108C279.523 199.108 282.115 177.744 270.947 161.037L263.318 161.119C266.711 167.191 277.342 186.885 279.523 199.108Z" fill="#015EA5"/>
<path d="M254.528 122.094C254.528 122.094 253.174 136.214 247.085 143.657C246.941 143.833 246.907 144.077 247.007 144.283L255.787 162.666C255.787 162.666 266.178 165.484 273.357 162.554C273.956 162.31 274.289 161.67 274.138 161.041C272.776 155.311 265.708 127.727 254.528 122.094Z" fill="url(#paint20_linear_11117_32099)"/>
<path d="M259.919 134.383C259.919 134.383 257.917 145.347 251.387 153.458L255.786 162.668C255.786 162.668 255.794 162.669 255.806 162.672L268.472 149.498L259.919 134.383Z" fill="url(#paint21_linear_11117_32099)"/>
<path d="M256.078 149.498C256.078 149.498 257.724 156.47 269.344 161.796C269.344 161.796 268.279 150.95 256.078 149.498Z" fill="#00BAEB"/>
<path d="M261.404 146.111C261.404 146.111 256.174 161.022 238.551 170.026C238.551 170.026 233.805 170.802 235.064 173.997C236.323 177.191 240.874 175.642 239.518 173.221C239.518 173.221 262.081 168.186 268.472 155.209L261.404 146.111Z" fill="#FFA8A8"/>
<path d="M239.52 173.223C239.52 173.223 262.082 168.187 268.473 155.211L263.748 149.128L259.102 150.825C259.102 150.825 262.228 153.71 263.002 156.277C263.002 156.277 257.458 164.968 239.52 173.223Z" fill="#FF8787"/>
<path d="M254.528 122.094C254.528 122.094 265.955 134.973 256.077 149.498C256.077 149.498 266.439 152.888 269.344 161.796C269.344 161.796 287.161 130.228 254.528 122.094Z" fill="url(#paint22_linear_11117_32099)"/>
<path d="M255.539 122.679C254.983 121.966 254.295 119.86 254.295 119.86C255.072 117.763 254.451 116.327 253.678 117.259C253.64 117.305 253.569 117.296 253.552 117.238C253.123 115.75 252.146 115.111 251.291 115.082C250.153 115.044 249.188 116.289 249.126 118.133C249.036 120.859 250.055 123.271 251.114 123.307C251.541 123.32 252.017 122.998 252.449 122.576C252.832 123.66 252.381 125.163 253.313 125.238C254.55 125.339 255.967 123.228 255.539 122.679Z" fill="#FFA8A8"/>
<path d="M251.918 118.704C251.661 118.451 251.013 118.392 250.732 118.805C250.594 118.512 250.758 118.015 251.286 117.936C251.728 117.87 252.255 118.352 251.918 118.704Z" fill="#212529"/>
<path d="M250.024 120.962C250.044 121.251 250.253 121.665 250.363 121.86C251.226 121.926 251.911 121.372 252.058 120.476C251.55 120.873 250.422 121.197 250.024 120.962Z" fill="white"/>
<path d="M253.755 120.6C253.755 120.6 253.353 121.395 252.448 122.577C252.734 123.38 252.559 124.413 252.829 124.925C253.712 124.004 254.051 121.998 253.755 120.6Z" fill="#FF8787"/>
<path d="M264.364 126.031C264.364 126.031 272.777 140.382 264.738 154.764C266.654 156.57 268.397 158.888 269.344 161.796C269.344 161.796 283.066 137.48 264.364 126.031Z" fill="url(#paint23_linear_11117_32099)"/>
<path d="M268.362 204.156C278.143 223.37 288.997 242.975 292.002 252.227C292.002 252.227 288.615 232.098 284.935 224.739C281.255 217.379 268.362 204.156 268.362 204.156Z" fill="#015EA5"/>
<path d="M195.532 250.005L197.266 252.946C197.266 252.946 200.878 252.982 201.761 252.946C201.987 252.937 202.08 252.658 201.907 252.512C200.531 251.338 195.532 250.005 195.532 250.005Z" fill="#D1BCE3"/>
<path d="M153.976 252.512C152.599 251.338 149.392 250.518 149.392 250.518L149.557 252.947C149.557 252.947 152.946 252.982 153.829 252.947C154.056 252.937 154.148 252.66 153.976 252.512Z" fill="#D1BCE3"/>
<path d="M178.125 127.033C178.125 127.033 200.494 126.452 190.52 104.857C190.52 104.857 189.744 106.862 188.292 105.666C186.84 104.47 188.679 99.2411 191.39 101.372C194.102 103.503 202.042 114.929 200.493 125.967C198.944 137.006 187.42 141.364 184.032 142.284C180.643 143.204 178.125 127.033 178.125 127.033Z" fill="#FFA8A8"/>
<path d="M161.858 121.417C161.858 121.417 175.417 126.595 183.594 124.882C183.797 124.839 184.002 124.937 184.09 125.126C184.844 126.747 188.071 134.324 187.176 143.494C187.176 143.494 178.804 146.205 169.411 146.109C160.018 146.012 161.858 121.417 161.858 121.417Z" fill="url(#paint24_linear_11117_32099)"/>
<path d="M200.495 125.967C200.513 125.838 200.529 125.709 200.544 125.58C196.687 133.512 186.946 135.045 186.946 135.045L185.128 141.951C189.409 140.529 199.085 136.017 200.495 125.967Z" fill="#FF8787"/>
<path d="M187.176 143.494C187.474 140.448 187.316 137.58 186.946 135.045C177.149 136.21 169.907 130.617 169.907 130.617L167.362 145.635C167.977 145.933 168.659 146.099 169.411 146.107C178.804 146.205 187.176 143.494 187.176 143.494Z" fill="url(#paint25_linear_11117_32099)"/>
<path d="M169.083 153.046C169.083 153.046 176.785 168.416 182.232 194.342C187.68 220.268 192.473 241.619 197.266 252.948C197.266 252.948 169.161 228.33 170.033 197.393C170.033 197.393 153.257 180.399 155.218 157.959L169.083 153.046Z" fill="#015EA5"/>
<path d="M155.82 169.73C158.867 186.081 170.032 197.393 170.032 197.393C170.032 197.393 176.13 182.163 172.771 167.913C171.159 161.071 163.425 164.409 155.82 169.73Z" fill="#015EA5"/>
<path d="M172.64 158.252C172.64 158.252 173.997 178.655 167.984 200.006C161.971 221.357 153.051 236.389 149.559 252.946C149.559 252.946 144.105 214.385 156.088 196.955C156.088 196.955 151.949 166.236 153.474 157.085L172.64 158.252Z" fill="#015EA5"/>
<path d="M153.473 157.087C151.949 166.237 156.088 196.957 156.088 196.957C156.088 196.957 158.272 169.544 163.842 157.827C163.859 157.792 163.875 157.757 163.89 157.721L153.473 157.087Z" fill="#015EA5"/>
<path d="M161.858 121.417C161.858 121.417 170.408 126.718 174.834 142.284C177.545 151.823 173.092 160.053 173.092 160.053C173.092 160.053 156.921 161.603 152.66 158.698C148.398 155.793 157.598 125.774 161.858 121.417Z" fill="url(#paint26_linear_11117_32099)"/>
<path d="M155.27 136.479C152.259 146.133 150.179 157.007 152.659 158.698C155.399 160.566 163.069 160.592 168.192 160.373L155.27 136.479Z" fill="url(#paint27_linear_11117_32099)"/>
<path d="M168.346 163.152C168.346 163.152 176.963 156.18 178.125 143.01C178.125 143.01 165.731 148.82 168.346 163.152Z" fill="#00BAEB"/>
<path d="M160.066 150.757L172.77 154.026C172.77 154.026 173.893 153.358 175.439 152.337C175.858 149.444 175.878 145.962 174.832 142.284C174.329 140.512 173.771 138.876 173.18 137.363C168.468 134.285 164.383 130.992 164.383 130.992L160.066 150.757Z" fill="url(#paint28_linear_11117_32099)"/>
<path d="M173.768 142.284C173.768 142.284 189.262 154.631 203.399 155.404C203.399 155.404 207.272 154.242 208.338 155.404C209.403 156.567 205.627 160.15 203.109 159.084C203.109 159.084 178.894 169.581 165.828 159.279C165.828 159.279 167.377 146.497 173.768 142.284Z" fill="#FFA8A8"/>
<path d="M173.054 157.637C173.338 152.027 176.65 144.392 176.65 144.392C175.64 143.692 174.864 143.121 174.375 142.75C174.037 142.785 173.543 142.839 172.938 142.903C167.243 147.621 165.829 159.281 165.829 159.281C178.896 169.583 203.11 159.086 203.11 159.086C188.269 163.055 173.054 157.637 173.054 157.637Z" fill="#FF8787"/>
<path d="M161.858 121.417C147.236 121.707 141.523 149.595 168.346 163.152C168.346 163.152 169.024 150.854 178.125 143.01C178.125 143.01 169.992 139.719 165.053 132.068C160.115 124.418 161.858 121.417 161.858 121.417Z" fill="url(#paint29_linear_11117_32099)"/>
<path d="M164.833 118.325C164.833 118.325 165.848 123.52 164.354 125.854C162.886 124.776 161.692 122.08 161.756 121.579C161.878 120.621 162.237 119.413 162.237 119.413L164.833 118.325Z" fill="#FFA8A8"/>
<path d="M163.71 119.984C164.248 120.233 164.742 120.512 165.129 120.776C165.207 121.995 165.189 123.452 164.859 124.651C163.809 123.039 163.376 121.678 163.71 119.984Z" fill="#FF8787"/>
<path d="M166.876 119.579C169.027 118.111 171.18 110.567 169.85 109.323C168.736 108.281 166.163 109.093 164.042 111.425C160.043 110.465 160.032 118.535 163.092 120.342C163.694 120.288 166.876 119.579 166.876 119.579Z" fill="#003A75"/>
<path d="M163.416 117.95C163.45 117.988 163.508 117.961 163.503 117.909C163.373 116.229 164.277 114.391 165.765 114.425C168.283 114.482 167.22 123.004 165.857 123.167C164.293 123.354 161.271 118.203 162.172 117.509C162.631 117.158 163.189 117.692 163.416 117.95Z" fill="#FFA8A8"/>
<path d="M164.466 117.313C164.619 116.958 165.296 116.946 165.6 117.36C165.224 117.196 164.664 117.205 164.466 117.313Z" fill="#212529"/>
<path d="M166.685 120.688C166.694 121.041 166.41 121.667 166.316 121.861C165.879 121.917 164.142 121.263 164.127 119.679C164.505 120.084 166.269 120.998 166.685 120.688Z" fill="white"/>
<path d="M153.724 226.385C149.56 236.261 149.559 252.948 149.559 252.948C152.701 238.05 160.238 224.384 166.097 206.24C166.063 206.283 157.88 216.528 153.724 226.385Z" fill="#015EA5"/>
<path d="M181.876 192.679C181.876 192.69 180.839 208.863 183.597 223.964C186.358 239.069 197.266 252.948 197.266 252.948C192.473 241.619 187.68 220.268 182.233 194.342C182.116 193.782 181.996 193.229 181.876 192.679Z" fill="#015EA5"/>
<path d="M11.6788 101.885L4.61499 108.881H9.21467V132.211H14.1429V108.881H18.7411L11.6788 101.885Z" fill="url(#paint30_linear_11117_32099)"/>
<path d="M137.988 15.0894L128.343 24.6434H134.624V56.5019H141.353V24.6434H147.632L137.988 15.0894Z" fill="url(#paint31_linear_11117_32099)"/>
<path d="M49.7091 32.5919C49.7675 32.0699 49.7997 31.5387 49.7997 30.9998C49.7997 30.4609 49.769 29.9312 49.7091 29.4077L47.6718 28.8074C47.4784 27.7465 47.1467 26.7348 46.6954 25.789L47.9896 24.1079C47.463 23.1791 46.8335 22.3163 46.1166 21.5348L44.1207 22.2456C43.3531 21.5148 42.4903 20.8838 41.5522 20.3741L41.6105 18.257C40.6541 17.821 39.6408 17.4878 38.5845 17.2744L37.387 19.0216C36.8665 18.9525 36.3353 18.9172 35.7965 18.9172C35.2576 18.9172 34.7264 18.9525 34.2059 19.0216L33.0084 17.2744C31.9521 17.4878 30.9388 17.821 29.9824 18.257L30.0407 20.3741C29.1027 20.8838 28.2398 21.5148 27.4722 22.2456L25.4763 21.5348C24.7594 22.3163 24.1299 23.1791 23.6033 24.1079L24.8975 25.789C24.4462 26.7332 24.1145 27.7465 23.9211 28.8074L21.8838 29.4077C21.8255 29.9297 21.7932 30.4609 21.7932 30.9998C21.7932 31.5387 21.8239 32.0683 21.8838 32.5919L23.9257 33.1937C24.1207 34.2515 24.4538 35.2602 24.9052 36.2013L23.6048 37.8916C24.1314 38.8205 24.7609 39.6833 25.4779 40.4647L27.4906 39.7478C28.2536 40.4724 29.1119 41.0973 30.0422 41.6039L29.9824 43.7426C30.9388 44.1786 31.9521 44.5117 33.0084 44.7251L34.2182 42.958C34.734 43.0256 35.2606 43.0609 35.7949 43.0609C36.3292 43.0609 36.8558 43.0256 37.3716 42.958L38.5814 44.7251C39.6377 44.5117 40.651 44.1786 41.6075 43.7426L41.5476 41.6039C42.4795 41.0973 43.3362 40.4724 44.0992 39.7478L46.112 40.4647C46.8289 39.6833 47.4584 38.8205 47.985 37.8916L46.6846 36.2013C47.136 35.2602 47.4691 34.2499 47.6641 33.1937L49.7091 32.5919ZM35.7965 37.864C32.0059 37.864 28.9322 34.7904 28.9322 30.9998C28.9322 27.2092 32.0059 24.1356 35.7965 24.1356C39.587 24.1356 42.6607 27.2092 42.6607 30.9998C42.6607 34.7919 39.5886 37.864 35.7965 37.864Z" fill="url(#paint32_linear_11117_32099)"/>
</g>
<defs>
<linearGradient id="paint0_linear_11117_32099" x1="194.58" y1="37.8347" x2="194.58" y2="51.1854" gradientUnits="userSpaceOnUse">
<stop stop-color="#EDF1F4"/>
<stop offset="1" stop-color="#EDF1F4" stop-opacity="0"/>
</linearGradient>
<linearGradient id="paint1_linear_11117_32099" x1="9.30943" y1="31.1559" x2="10.4579" y2="197.698" gradientUnits="userSpaceOnUse">
<stop stop-color="#DBE4FF"/>
<stop offset="1" stop-color="white"/>
</linearGradient>
<linearGradient id="paint2_linear_11117_32099" x1="44.5288" y1="30.9133" x2="45.6773" y2="197.454" gradientUnits="userSpaceOnUse">
<stop stop-color="#DBE4FF"/>
<stop offset="1" stop-color="white"/>
</linearGradient>
<linearGradient id="paint3_linear_11117_32099" x1="79.7434" y1="30.6702" x2="80.8918" y2="197.212" gradientUnits="userSpaceOnUse">
<stop stop-color="#DBE4FF"/>
<stop offset="1" stop-color="white"/>
</linearGradient>
<linearGradient id="paint4_linear_11117_32099" x1="115.139" y1="30.4264" x2="116.287" y2="196.968" gradientUnits="userSpaceOnUse">
<stop stop-color="#DBE4FF"/>
<stop offset="1" stop-color="white"/>
</linearGradient>
<linearGradient id="paint5_linear_11117_32099" x1="150.516" y1="30.1823" x2="151.664" y2="196.724" gradientUnits="userSpaceOnUse">
<stop stop-color="#DBE4FF"/>
<stop offset="1" stop-color="white"/>
</linearGradient>
<linearGradient id="paint6_linear_11117_32099" x1="186.837" y1="112.653" x2="186.837" y2="242.026" gradientUnits="userSpaceOnUse">
<stop stop-color="#EDF1F4"/>
<stop offset="1" stop-color="#EDF1F4" stop-opacity="0"/>
</linearGradient>
<linearGradient id="paint7_linear_11117_32099" x1="222.116" y1="101.036" x2="222.116" y2="242.025" gradientUnits="userSpaceOnUse">
<stop stop-color="#EDF1F4"/>
<stop offset="1" stop-color="#EDF1F4" stop-opacity="0"/>
</linearGradient>
<linearGradient id="paint8_linear_11117_32099" x1="256.374" y1="29.4522" x2="257.523" y2="195.994" gradientUnits="userSpaceOnUse">
<stop stop-color="#DBE4FF"/>
<stop offset="1" stop-color="white"/>
</linearGradient>
<linearGradient id="paint9_linear_11117_32099" x1="292.673" y1="55.3552" x2="292.673" y2="242.026" gradientUnits="userSpaceOnUse">
<stop stop-color="#EDF1F4"/>
<stop offset="1" stop-color="#EDF1F4" stop-opacity="0"/>
</linearGradient>
<linearGradient id="paint10_linear_11117_32099" x1="327.95" y1="10.6941" x2="327.95" y2="242.025" gradientUnits="userSpaceOnUse">
<stop stop-color="#EDF1F4"/>
<stop offset="1" stop-color="#EDF1F4" stop-opacity="0"/>
</linearGradient>
<linearGradient id="paint11_linear_11117_32099" x1="178.653" y1="9.93311" x2="178.653" y2="207.581" gradientUnits="userSpaceOnUse">
<stop stop-color="#EDF1F4"/>
<stop offset="1" stop-color="#EDF1F4" stop-opacity="0"/>
</linearGradient>
<linearGradient id="paint12_linear_11117_32099" x1="59.4459" y1="62.9607" x2="59.4459" y2="79.3299" gradientUnits="userSpaceOnUse">
<stop stop-color="#EDF1F4"/>
<stop offset="1" stop-color="#EDF1F4" stop-opacity="0"/>
</linearGradient>
<linearGradient id="paint13_linear_11117_32099" x1="86.9441" y1="153.949" x2="86.9441" y2="242.092" gradientUnits="userSpaceOnUse">
<stop stop-color="#EDF1F4"/>
<stop offset="1" stop-color="#EDF1F4" stop-opacity="0"/>
</linearGradient>
<linearGradient id="paint14_linear_11117_32099" x1="87.0061" y1="142.2" x2="87.0061" y2="198.782" gradientUnits="userSpaceOnUse">
<stop stop-color="#FF5252"/>
<stop offset="1" stop-color="#FF5252" stop-opacity="0"/>
</linearGradient>
<linearGradient id="paint15_linear_11117_32099" x1="120.46" y1="142.2" x2="120.46" y2="180.525" gradientUnits="userSpaceOnUse">
<stop stop-color="#FF5252"/>
<stop offset="1" stop-color="#FF5252" stop-opacity="0"/>
</linearGradient>
<linearGradient id="paint16_linear_11117_32099" x1="53.2557" y1="141.363" x2="53.2557" y2="179.688" gradientUnits="userSpaceOnUse">
<stop stop-color="#FF5252"/>
<stop offset="1" stop-color="#FF5252" stop-opacity="0"/>
</linearGradient>
<linearGradient id="paint17_linear_11117_32099" x1="169.199" y1="219.021" x2="169.199" y2="253.69" gradientUnits="userSpaceOnUse">
<stop stop-color="#DBE4FF"/>
<stop offset="1" stop-color="white"/>
</linearGradient>
<linearGradient id="paint18_linear_11117_32099" x1="244.208" y1="122.094" x2="244.208" y2="155.647" gradientUnits="userSpaceOnUse">
<stop stop-color="#00BAEB"/>
<stop offset="1" stop-color="white"/>
</linearGradient>
<linearGradient id="paint19_linear_11117_32099" x1="246.259" y1="131.446" x2="246.259" y2="155.647" gradientUnits="userSpaceOnUse">
<stop stop-color="#00BAEB"/>
<stop offset="1" stop-color="white"/>
</linearGradient>
<linearGradient id="paint20_linear_11117_32099" x1="260.562" y1="122.094" x2="260.562" y2="163.886" gradientUnits="userSpaceOnUse">
<stop stop-color="#00BAEB"/>
<stop offset="1" stop-color="white"/>
</linearGradient>
<linearGradient id="paint21_linear_11117_32099" x1="259.93" y1="134.383" x2="259.93" y2="162.672" gradientUnits="userSpaceOnUse">
<stop stop-color="#00BAEB"/>
<stop offset="1" stop-color="white"/>
</linearGradient>
<linearGradient id="paint22_linear_11117_32099" x1="264.363" y1="122.094" x2="264.363" y2="161.796" gradientUnits="userSpaceOnUse">
<stop stop-color="#00BAEB"/>
<stop offset="1" stop-color="white"/>
</linearGradient>
<linearGradient id="paint23_linear_11117_32099" x1="269.281" y1="126.031" x2="269.281" y2="161.796" gradientUnits="userSpaceOnUse">
<stop stop-color="#00BAEB"/>
<stop offset="1" stop-color="white"/>
</linearGradient>
<linearGradient id="paint24_linear_11117_32099" x1="174.522" y1="121.417" x2="174.522" y2="146.111" gradientUnits="userSpaceOnUse">
<stop stop-color="#00BAEB"/>
<stop offset="1" stop-color="white"/>
</linearGradient>
<linearGradient id="paint25_linear_11117_32099" x1="177.347" y1="130.617" x2="177.347" y2="146.109" gradientUnits="userSpaceOnUse">
<stop stop-color="#00BAEB"/>
<stop offset="1" stop-color="white"/>
</linearGradient>
<linearGradient id="paint26_linear_11117_32099" x1="163.635" y1="121.417" x2="163.635" y2="160.466" gradientUnits="userSpaceOnUse">
<stop stop-color="#00BAEB"/>
<stop offset="1" stop-color="white"/>
</linearGradient>
<linearGradient id="paint27_linear_11117_32099" x1="159.876" y1="136.479" x2="159.876" y2="160.466" gradientUnits="userSpaceOnUse">
<stop stop-color="#00BAEB"/>
<stop offset="1" stop-color="white"/>
</linearGradient>
<linearGradient id="paint28_linear_11117_32099" x1="167.887" y1="130.992" x2="167.887" y2="154.026" gradientUnits="userSpaceOnUse">
<stop stop-color="#00BAEB"/>
<stop offset="1" stop-color="white"/>
</linearGradient>
<linearGradient id="paint29_linear_11117_32099" x1="163.842" y1="121.417" x2="163.842" y2="163.152" gradientUnits="userSpaceOnUse">
<stop stop-color="#00BAEB"/>
<stop offset="1" stop-color="white"/>
</linearGradient>
<linearGradient id="paint30_linear_11117_32099" x1="11.678" y1="101.885" x2="11.678" y2="132.211" gradientUnits="userSpaceOnUse">
<stop stop-color="#EDF1F4"/>
<stop offset="1" stop-color="#EDF1F4" stop-opacity="0"/>
</linearGradient>
<linearGradient id="paint31_linear_11117_32099" x1="137.988" y1="15.0894" x2="137.988" y2="56.5019" gradientUnits="userSpaceOnUse">
<stop stop-color="#EDF1F4"/>
<stop offset="1" stop-color="#EDF1F4" stop-opacity="0"/>
</linearGradient>
<linearGradient id="paint32_linear_11117_32099" x1="35.7965" y1="17.2744" x2="35.7965" y2="44.7251" gradientUnits="userSpaceOnUse">
<stop stop-color="#EDF1F4"/>
<stop offset="1" stop-color="#EDF1F4" stop-opacity="0"/>
</linearGradient>
<clipPath id="clip0_11117_32099">
<rect width="338" height="256.753" fill="white" transform="translate(0 0.644043)"/>
</clipPath>
</defs>
</svg>
