<svg width="534" height="534" viewBox="0 0 534 534" fill="none" xmlns="http://www.w3.org/2000/svg">
<g opacity="0.7">
<circle opacity="0.1" cx="267" cy="267" r="212.5" stroke="#002448"/>
<circle opacity="0.05" cx="267" cy="267" r="266.5" stroke="#002448"/>
<circle opacity="0.15" cx="267" cy="267" r="150.5" stroke="#002448"/>
<circle cx="267" cy="267" r="108.5" stroke="#D2DBE2"/>
</g>
<g filter="url(#filter0_d_10797_2072)">
<circle cx="267" cy="267" r="78" fill="white"/>
</g>
<path d="M267.141 266.1V264.299C267.141 254.35 255.562 246.283 241.281 246.283V284.11C241.281 294.06 252.86 302.124 267.141 302.124C281.421 302.124 293 294.06 293 284.11C292.997 274.164 281.421 266.1 267.141 266.1Z" fill="url(#paint0_linear_10797_2072)"/>
<path d="M267.141 284.113V285.914C276.166 285.914 284.108 289.137 288.733 294.02C291.426 291.178 292.997 287.775 292.997 284.113C292.997 274.164 281.418 266.1 267.137 266.1V264.299C267.141 254.35 255.562 246.283 241.281 246.283V266.097C255.562 266.1 267.141 274.164 267.141 284.113Z" fill="url(#paint1_linear_10797_2072)"/>
<path d="M292.997 231.873C278.716 231.873 267.137 239.937 267.137 249.887V264.297V266.097V284.111C267.137 290.776 261.936 296.595 254.209 299.708C258.012 301.241 262.428 302.124 267.137 302.124C281.418 302.124 292.997 294.06 292.997 284.111V231.873Z" fill="url(#paint2_linear_10797_2072)"/>
<rect opacity="0.7" x="85.5" y="43.5" width="99" height="126" rx="49.5" fill="url(#paint3_linear_10797_2072)" stroke="#F0E3FB"/>
<mask id="mask0_10797_2072" style="mask-type:alpha" maskUnits="userSpaceOnUse" x="115" y="58" width="40" height="40">
<rect x="115" y="58" width="40" height="40" rx="20" fill="#D9D9D9"/>
</mask>
<g mask="url(#mask0_10797_2072)">
<rect x="115" y="58" width="40" height="40" fill="#C7B9DA"/>
<rect x="115" y="58" width="40" height="40"/>
</g>
<path d="M113.812 118.182C113.188 118.182 112.62 118.043 112.109 117.766C111.606 117.48 111.203 117.068 110.9 116.531C110.605 115.985 110.458 115.322 110.458 114.542V112.358C110.458 111.188 110.787 110.291 111.446 109.667C112.104 109.034 112.997 108.718 114.124 108.718C115.242 108.718 116.104 109.017 116.711 109.615C117.326 110.204 117.634 111.006 117.634 112.02V112.072H115.944V111.968C115.944 111.647 115.874 111.357 115.736 111.097C115.606 110.837 115.406 110.633 115.138 110.486C114.869 110.33 114.531 110.252 114.124 110.252C113.517 110.252 113.04 110.438 112.694 110.811C112.347 111.184 112.174 111.691 112.174 112.332V114.568C112.174 115.201 112.347 115.712 112.694 116.102C113.04 116.483 113.526 116.674 114.15 116.674C114.774 116.674 115.229 116.509 115.515 116.18C115.801 115.851 115.944 115.435 115.944 114.932V114.802H113.786V113.346H117.634V118H116.048V117.129H115.814C115.753 117.276 115.653 117.432 115.515 117.597C115.385 117.762 115.185 117.9 114.917 118.013C114.648 118.126 114.28 118.182 113.812 118.182ZM122.393 118.182C121.752 118.182 121.175 118.052 120.664 117.792C120.153 117.532 119.75 117.155 119.455 116.661C119.16 116.167 119.013 115.573 119.013 114.88V114.672C119.013 113.979 119.16 113.385 119.455 112.891C119.75 112.397 120.153 112.02 120.664 111.76C121.175 111.5 121.752 111.37 122.393 111.37C123.034 111.37 123.611 111.5 124.122 111.76C124.633 112.02 125.036 112.397 125.331 112.891C125.626 113.385 125.773 113.979 125.773 114.672V114.88C125.773 115.573 125.626 116.167 125.331 116.661C125.036 117.155 124.633 117.532 124.122 117.792C123.611 118.052 123.034 118.182 122.393 118.182ZM122.393 116.726C122.896 116.726 123.312 116.566 123.641 116.245C123.97 115.916 124.135 115.448 124.135 114.841V114.711C124.135 114.104 123.97 113.641 123.641 113.32C123.32 112.991 122.904 112.826 122.393 112.826C121.89 112.826 121.474 112.991 121.145 113.32C120.816 113.641 120.651 114.104 120.651 114.711V114.841C120.651 115.448 120.816 115.916 121.145 116.245C121.474 116.566 121.89 116.726 122.393 116.726ZM130.353 118.182C129.712 118.182 129.135 118.052 128.624 117.792C128.113 117.532 127.71 117.155 127.415 116.661C127.12 116.167 126.973 115.573 126.973 114.88V114.672C126.973 113.979 127.12 113.385 127.415 112.891C127.71 112.397 128.113 112.02 128.624 111.76C129.135 111.5 129.712 111.37 130.353 111.37C130.994 111.37 131.571 111.5 132.082 111.76C132.593 112.02 132.996 112.397 133.291 112.891C133.586 113.385 133.733 113.979 133.733 114.672V114.88C133.733 115.573 133.586 116.167 133.291 116.661C132.996 117.155 132.593 117.532 132.082 117.792C131.571 118.052 130.994 118.182 130.353 118.182ZM130.353 116.726C130.856 116.726 131.272 116.566 131.601 116.245C131.93 115.916 132.095 115.448 132.095 114.841V114.711C132.095 114.104 131.93 113.641 131.601 113.32C131.28 112.991 130.864 112.826 130.353 112.826C129.85 112.826 129.434 112.991 129.105 113.32C128.776 113.641 128.611 114.104 128.611 114.711V114.841C128.611 115.448 128.776 115.916 129.105 116.245C129.434 116.566 129.85 116.726 130.353 116.726ZM134.933 114.802V114.594C134.933 113.918 135.067 113.342 135.336 112.865C135.605 112.38 135.96 112.011 136.402 111.76C136.853 111.5 137.342 111.37 137.871 111.37C138.46 111.37 138.907 111.474 139.21 111.682C139.513 111.89 139.734 112.107 139.873 112.332H140.107V111.552H141.719V119.144C141.719 119.586 141.589 119.937 141.329 120.197C141.069 120.466 140.722 120.6 140.289 120.6H135.973V119.17H139.717C139.96 119.17 140.081 119.04 140.081 118.78V117.103H139.847C139.76 117.242 139.639 117.385 139.483 117.532C139.327 117.671 139.119 117.788 138.859 117.883C138.599 117.978 138.27 118.026 137.871 118.026C137.342 118.026 136.853 117.9 136.402 117.649C135.96 117.389 135.605 117.021 135.336 116.544C135.067 116.059 134.933 115.478 134.933 114.802ZM138.339 116.596C138.842 116.596 139.262 116.436 139.6 116.115C139.938 115.794 140.107 115.344 140.107 114.763V114.633C140.107 114.044 139.938 113.593 139.6 113.281C139.271 112.96 138.85 112.8 138.339 112.8C137.836 112.8 137.416 112.96 137.078 113.281C136.74 113.593 136.571 114.044 136.571 114.633V114.763C136.571 115.344 136.74 115.794 137.078 116.115C137.416 116.436 137.836 116.596 138.339 116.596ZM143.535 118V108.9H145.173V118H143.535ZM149.926 118.182C149.285 118.182 148.717 118.048 148.223 117.779C147.738 117.502 147.356 117.116 147.079 116.622C146.81 116.119 146.676 115.53 146.676 114.854V114.698C146.676 114.022 146.81 113.437 147.079 112.943C147.348 112.44 147.725 112.055 148.21 111.786C148.695 111.509 149.259 111.37 149.9 111.37C150.533 111.37 151.083 111.513 151.551 111.799C152.019 112.076 152.383 112.466 152.643 112.969C152.903 113.463 153.033 114.039 153.033 114.698V115.257H148.34C148.357 115.699 148.522 116.059 148.834 116.336C149.146 116.613 149.527 116.752 149.978 116.752C150.437 116.752 150.775 116.652 150.992 116.453C151.209 116.254 151.373 116.033 151.486 115.79L152.825 116.492C152.704 116.717 152.526 116.964 152.292 117.233C152.067 117.493 151.763 117.718 151.382 117.909C151.001 118.091 150.515 118.182 149.926 118.182ZM148.353 114.035H151.369C151.334 113.662 151.183 113.363 150.914 113.138C150.654 112.913 150.312 112.8 149.887 112.8C149.445 112.8 149.094 112.913 148.834 113.138C148.574 113.363 148.414 113.662 148.353 114.035ZM154.465 115.426V113.944H158.313V115.426H154.465ZM106.832 135V125.9H112.682V127.46H108.548V129.631H112.318V131.191H108.548V133.44H112.76V135H106.832ZM113.51 135L115.85 131.75L113.536 128.552H115.434L116.903 130.697H117.137L118.606 128.552H120.504L118.19 131.75L120.53 135H118.606L117.137 132.829H116.903L115.434 135H113.51ZM121.775 137.6V128.552H123.387V129.332H123.621C123.769 129.081 123.998 128.86 124.31 128.669C124.622 128.47 125.069 128.37 125.649 128.37C126.169 128.37 126.65 128.5 127.092 128.76C127.534 129.011 127.89 129.384 128.158 129.878C128.427 130.372 128.561 130.97 128.561 131.672V131.88C128.561 132.582 128.427 133.18 128.158 133.674C127.89 134.168 127.534 134.545 127.092 134.805C126.65 135.056 126.169 135.182 125.649 135.182C125.259 135.182 124.93 135.134 124.661 135.039C124.401 134.952 124.189 134.84 124.024 134.701C123.868 134.554 123.743 134.406 123.647 134.259H123.413V137.6H121.775ZM125.155 133.752C125.667 133.752 126.087 133.592 126.416 133.271C126.754 132.942 126.923 132.465 126.923 131.841V131.711C126.923 131.087 126.754 130.615 126.416 130.294C126.078 129.965 125.658 129.8 125.155 129.8C124.653 129.8 124.232 129.965 123.894 130.294C123.556 130.615 123.387 131.087 123.387 131.711V131.841C123.387 132.465 123.556 132.942 123.894 133.271C124.232 133.592 124.653 133.752 125.155 133.752ZM133.003 135.182C132.362 135.182 131.794 135.048 131.3 134.779C130.815 134.502 130.434 134.116 130.156 133.622C129.888 133.119 129.753 132.53 129.753 131.854V131.698C129.753 131.022 129.888 130.437 130.156 129.943C130.425 129.44 130.802 129.055 131.287 128.786C131.773 128.509 132.336 128.37 132.977 128.37C133.61 128.37 134.16 128.513 134.628 128.799C135.096 129.076 135.46 129.466 135.72 129.969C135.98 130.463 136.11 131.039 136.11 131.698V132.257H131.417C131.435 132.699 131.599 133.059 131.911 133.336C132.223 133.613 132.605 133.752 133.055 133.752C133.515 133.752 133.853 133.652 134.069 133.453C134.286 133.254 134.451 133.033 134.563 132.79L135.902 133.492C135.781 133.717 135.603 133.964 135.369 134.233C135.144 134.493 134.841 134.718 134.459 134.909C134.078 135.091 133.593 135.182 133.003 135.182ZM131.43 131.035H134.446C134.412 130.662 134.26 130.363 133.991 130.138C133.731 129.913 133.389 129.8 132.964 129.8C132.522 129.8 132.171 129.913 131.911 130.138C131.651 130.363 131.491 130.662 131.43 131.035ZM137.568 135V128.552H139.18V129.28H139.414C139.51 129.02 139.666 128.829 139.882 128.708C140.108 128.587 140.368 128.526 140.662 128.526H141.442V129.982H140.636C140.22 129.982 139.878 130.095 139.609 130.32C139.341 130.537 139.206 130.875 139.206 131.334V135H137.568ZM145.193 135C144.768 135 144.421 134.87 144.153 134.61C143.893 134.341 143.763 133.986 143.763 133.544V129.904H142.151V128.552H143.763V126.55H145.401V128.552H147.169V129.904H145.401V133.258C145.401 133.518 145.522 133.648 145.765 133.648H147.013V135H145.193ZM151.361 135.182C150.719 135.182 150.152 135.048 149.658 134.779C149.172 134.502 148.791 134.116 148.514 133.622C148.245 133.119 148.111 132.53 148.111 131.854V131.698C148.111 131.022 148.245 130.437 148.514 129.943C148.782 129.44 149.159 129.055 149.645 128.786C150.13 128.509 150.693 128.37 151.335 128.37C151.967 128.37 152.518 128.513 152.986 128.799C153.454 129.076 153.818 129.466 154.078 129.969C154.338 130.463 154.468 131.039 154.468 131.698V132.257H149.775C149.792 132.699 149.957 133.059 150.269 133.336C150.581 133.613 150.962 133.752 151.413 133.752C151.872 133.752 152.21 133.652 152.427 133.453C152.643 133.254 152.808 133.033 152.921 132.79L154.26 133.492C154.138 133.717 153.961 133.964 153.727 134.233C153.501 134.493 153.198 134.718 152.817 134.909C152.435 135.091 151.95 135.182 151.361 135.182ZM149.788 131.035H152.804C152.769 130.662 152.617 130.363 152.349 130.138C152.089 129.913 151.746 129.8 151.322 129.8C150.88 129.8 150.529 129.913 150.269 130.138C150.009 130.363 149.848 130.662 149.788 131.035ZM155.926 135V128.552H157.538V129.397H157.772C157.876 129.172 158.071 128.959 158.357 128.76C158.643 128.552 159.076 128.448 159.657 128.448C160.159 128.448 160.597 128.565 160.97 128.799C161.351 129.024 161.646 129.341 161.854 129.748C162.062 130.147 162.166 130.615 162.166 131.152V135H160.528V131.282C160.528 130.797 160.406 130.433 160.164 130.19C159.93 129.947 159.592 129.826 159.15 129.826C158.647 129.826 158.257 129.995 157.98 130.333C157.702 130.662 157.564 131.126 157.564 131.724V135H155.926Z" fill="#002448"/>
<rect opacity="0.7" x="407.5" y="209.5" width="99" height="129" rx="49.5" fill="url(#paint4_linear_10797_2072)" stroke="#BCFFFC"/>
<mask id="mask1_10797_2072" style="mask-type:alpha" maskUnits="userSpaceOnUse" x="437" y="224" width="40" height="40">
<rect x="437" y="224" width="40" height="40" rx="20" fill="#D9D9D9"/>
</mask>
<g mask="url(#mask1_10797_2072)">
<rect x="437" y="224" width="40" height="40" fill="#D1DFC3"/>
<rect x="437" y="224" width="40" height="40"/>
</g>
<path d="M418.58 284V274.9H422.324C422.896 274.9 423.399 275.017 423.832 275.251C424.274 275.476 424.617 275.797 424.859 276.213C425.111 276.629 425.236 277.123 425.236 277.695V277.877C425.236 278.44 425.106 278.934 424.846 279.359C424.595 279.775 424.248 280.1 423.806 280.334C423.373 280.559 422.879 280.672 422.324 280.672H420.296V284H418.58ZM420.296 279.112H422.155C422.563 279.112 422.892 278.999 423.143 278.774C423.395 278.549 423.52 278.241 423.52 277.851V277.721C423.52 277.331 423.395 277.023 423.143 276.798C422.892 276.573 422.563 276.46 422.155 276.46H420.296V279.112ZM428.353 284.182C427.894 284.182 427.482 284.104 427.118 283.948C426.754 283.783 426.464 283.549 426.247 283.246C426.039 282.934 425.935 282.557 425.935 282.115C425.935 281.673 426.039 281.305 426.247 281.01C426.464 280.707 426.758 280.481 427.131 280.334C427.512 280.178 427.946 280.1 428.431 280.1H430.199V279.736C430.199 279.433 430.104 279.186 429.913 278.995C429.722 278.796 429.419 278.696 429.003 278.696C428.596 278.696 428.292 278.791 428.093 278.982C427.894 279.164 427.764 279.402 427.703 279.697L426.195 279.19C426.299 278.861 426.464 278.562 426.689 278.293C426.923 278.016 427.231 277.795 427.612 277.63C428.002 277.457 428.474 277.37 429.029 277.37C429.878 277.37 430.55 277.582 431.044 278.007C431.538 278.432 431.785 279.047 431.785 279.853V282.258C431.785 282.518 431.906 282.648 432.149 282.648H432.669V284H431.577C431.256 284 430.992 283.922 430.784 283.766C430.576 283.61 430.472 283.402 430.472 283.142V283.129H430.225C430.19 283.233 430.112 283.372 429.991 283.545C429.87 283.71 429.679 283.857 429.419 283.987C429.159 284.117 428.804 284.182 428.353 284.182ZM428.639 282.856C429.098 282.856 429.471 282.73 429.757 282.479C430.052 282.219 430.199 281.877 430.199 281.452V281.322H428.548C428.245 281.322 428.006 281.387 427.833 281.517C427.66 281.647 427.573 281.829 427.573 282.063C427.573 282.297 427.664 282.488 427.846 282.635C428.028 282.782 428.292 282.856 428.639 282.856ZM436.494 284.182C435.653 284.182 434.964 284 434.427 283.636C433.889 283.272 433.564 282.752 433.452 282.076L434.96 281.686C435.02 281.989 435.12 282.228 435.259 282.401C435.406 282.574 435.584 282.7 435.792 282.778C436.008 282.847 436.242 282.882 436.494 282.882C436.875 282.882 437.157 282.817 437.339 282.687C437.521 282.548 437.612 282.379 437.612 282.18C437.612 281.981 437.525 281.829 437.352 281.725C437.178 281.612 436.901 281.521 436.52 281.452L436.156 281.387C435.705 281.3 435.293 281.183 434.921 281.036C434.548 280.88 434.249 280.668 434.024 280.399C433.798 280.13 433.686 279.784 433.686 279.359C433.686 278.718 433.92 278.228 434.388 277.89C434.856 277.543 435.471 277.37 436.234 277.37C436.953 277.37 437.551 277.53 438.028 277.851C438.504 278.172 438.816 278.592 438.964 279.112L437.443 279.58C437.373 279.251 437.23 279.017 437.014 278.878C436.806 278.739 436.546 278.67 436.234 278.67C435.922 278.67 435.683 278.726 435.519 278.839C435.354 278.943 435.272 279.09 435.272 279.281C435.272 279.489 435.358 279.645 435.532 279.749C435.705 279.844 435.939 279.918 436.234 279.97L436.598 280.035C437.083 280.122 437.521 280.239 437.911 280.386C438.309 280.525 438.621 280.728 438.847 280.997C439.081 281.257 439.198 281.612 439.198 282.063C439.198 282.739 438.951 283.263 438.457 283.636C437.971 284 437.317 284.182 436.494 284.182ZM443.311 284.182C442.47 284.182 441.781 284 441.244 283.636C440.707 283.272 440.382 282.752 440.269 282.076L441.777 281.686C441.838 281.989 441.937 282.228 442.076 282.401C442.223 282.574 442.401 282.7 442.609 282.778C442.826 282.847 443.06 282.882 443.311 282.882C443.692 282.882 443.974 282.817 444.156 282.687C444.338 282.548 444.429 282.379 444.429 282.18C444.429 281.981 444.342 281.829 444.169 281.725C443.996 281.612 443.718 281.521 443.337 281.452L442.973 281.387C442.522 281.3 442.111 281.183 441.738 281.036C441.365 280.88 441.066 280.668 440.841 280.399C440.616 280.13 440.503 279.784 440.503 279.359C440.503 278.718 440.737 278.228 441.205 277.89C441.673 277.543 442.288 277.37 443.051 277.37C443.77 277.37 444.368 277.53 444.845 277.851C445.322 278.172 445.634 278.592 445.781 279.112L444.26 279.58C444.191 279.251 444.048 279.017 443.831 278.878C443.623 278.739 443.363 278.67 443.051 278.67C442.739 278.67 442.501 278.726 442.336 278.839C442.171 278.943 442.089 279.09 442.089 279.281C442.089 279.489 442.176 279.645 442.349 279.749C442.522 279.844 442.756 279.918 443.051 279.97L443.415 280.035C443.9 280.122 444.338 280.239 444.728 280.386C445.127 280.525 445.439 280.728 445.664 280.997C445.898 281.257 446.015 281.612 446.015 282.063C446.015 282.739 445.768 283.263 445.274 283.636C444.789 284 444.134 284.182 443.311 284.182ZM447.451 284V277.552H449.089V284H447.451ZM448.27 276.798C447.975 276.798 447.724 276.703 447.516 276.512C447.316 276.321 447.217 276.07 447.217 275.758C447.217 275.446 447.316 275.195 447.516 275.004C447.724 274.813 447.975 274.718 448.27 274.718C448.573 274.718 448.824 274.813 449.024 275.004C449.223 275.195 449.323 275.446 449.323 275.758C449.323 276.07 449.223 276.321 449.024 276.512C448.824 276.703 448.573 276.798 448.27 276.798ZM453.972 284.182C453.33 284.182 452.754 284.052 452.243 283.792C451.731 283.532 451.328 283.155 451.034 282.661C450.739 282.167 450.592 281.573 450.592 280.88V280.672C450.592 279.979 450.739 279.385 451.034 278.891C451.328 278.397 451.731 278.02 452.243 277.76C452.754 277.5 453.33 277.37 453.972 277.37C454.613 277.37 455.189 277.5 455.701 277.76C456.212 278.02 456.615 278.397 456.91 278.891C457.204 279.385 457.352 279.979 457.352 280.672V280.88C457.352 281.573 457.204 282.167 456.91 282.661C456.615 283.155 456.212 283.532 455.701 283.792C455.189 284.052 454.613 284.182 453.972 284.182ZM453.972 282.726C454.474 282.726 454.89 282.566 455.22 282.245C455.549 281.916 455.714 281.448 455.714 280.841V280.711C455.714 280.104 455.549 279.641 455.22 279.32C454.899 278.991 454.483 278.826 453.972 278.826C453.469 278.826 453.053 278.991 452.724 279.32C452.394 279.641 452.23 280.104 452.23 280.711V280.841C452.23 281.448 452.394 281.916 452.724 282.245C453.053 282.566 453.469 282.726 453.972 282.726ZM458.864 284V277.552H460.476V278.397H460.71C460.814 278.172 461.009 277.959 461.295 277.76C461.581 277.552 462.014 277.448 462.595 277.448C463.097 277.448 463.535 277.565 463.908 277.799C464.289 278.024 464.584 278.341 464.792 278.748C465 279.147 465.104 279.615 465.104 280.152V284H463.466V280.282C463.466 279.797 463.344 279.433 463.102 279.19C462.868 278.947 462.53 278.826 462.088 278.826C461.585 278.826 461.195 278.995 460.918 279.333C460.64 279.662 460.502 280.126 460.502 280.724V284H458.864ZM466.874 284V277.552H468.512V284H466.874ZM467.693 276.798C467.399 276.798 467.147 276.703 466.939 276.512C466.74 276.321 466.64 276.07 466.64 275.758C466.64 275.446 466.74 275.195 466.939 275.004C467.147 274.813 467.399 274.718 467.693 274.718C467.997 274.718 468.248 274.813 468.447 275.004C468.647 275.195 468.746 275.446 468.746 275.758C468.746 276.07 468.647 276.321 468.447 276.512C468.248 276.703 467.997 276.798 467.693 276.798ZM473.265 284.182C472.624 284.182 472.056 284.048 471.562 283.779C471.077 283.502 470.696 283.116 470.418 282.622C470.15 282.119 470.015 281.53 470.015 280.854V280.698C470.015 280.022 470.15 279.437 470.418 278.943C470.687 278.44 471.064 278.055 471.549 277.786C472.035 277.509 472.598 277.37 473.239 277.37C473.872 277.37 474.422 277.513 474.89 277.799C475.358 278.076 475.722 278.466 475.982 278.969C476.242 279.463 476.372 280.039 476.372 280.698V281.257H471.679C471.697 281.699 471.861 282.059 472.173 282.336C472.485 282.613 472.867 282.752 473.317 282.752C473.777 282.752 474.115 282.652 474.331 282.453C474.548 282.254 474.713 282.033 474.825 281.79L476.164 282.492C476.043 282.717 475.865 282.964 475.631 283.233C475.406 283.493 475.103 283.718 474.721 283.909C474.34 284.091 473.855 284.182 473.265 284.182ZM471.692 280.035H474.708C474.674 279.662 474.522 279.363 474.253 279.138C473.993 278.913 473.651 278.8 473.226 278.8C472.784 278.8 472.433 278.913 472.173 279.138C471.913 279.363 471.753 279.662 471.692 280.035ZM477.83 284V277.552H479.442V278.28H479.676C479.772 278.02 479.928 277.829 480.144 277.708C480.37 277.587 480.63 277.526 480.924 277.526H481.704V278.982H480.898C480.482 278.982 480.14 279.095 479.871 279.32C479.603 279.537 479.468 279.875 479.468 280.334V284H477.83ZM485.455 284C485.03 284 484.683 283.87 484.415 283.61C484.155 283.341 484.025 282.986 484.025 282.544V278.904H482.413V277.552H484.025V275.55H485.663V277.552H487.431V278.904H485.663V282.258C485.663 282.518 485.784 282.648 486.027 282.648H487.275V284H485.455ZM491.623 284.182C490.982 284.182 490.414 284.048 489.92 283.779C489.435 283.502 489.053 283.116 488.776 282.622C488.507 282.119 488.373 281.53 488.373 280.854V280.698C488.373 280.022 488.507 279.437 488.776 278.943C489.045 278.44 489.422 278.055 489.907 277.786C490.392 277.509 490.956 277.37 491.597 277.37C492.23 277.37 492.78 277.513 493.248 277.799C493.716 278.076 494.08 278.466 494.34 278.969C494.6 279.463 494.73 280.039 494.73 280.698V281.257H490.037C490.054 281.699 490.219 282.059 490.531 282.336C490.843 282.613 491.224 282.752 491.675 282.752C492.134 282.752 492.472 282.652 492.689 282.453C492.906 282.254 493.07 282.033 493.183 281.79L494.522 282.492C494.401 282.717 494.223 282.964 493.989 283.233C493.764 283.493 493.46 283.718 493.079 283.909C492.698 284.091 492.212 284.182 491.623 284.182ZM490.05 280.035H493.066C493.031 279.662 492.88 279.363 492.611 279.138C492.351 278.913 492.009 278.8 491.584 278.8C491.142 278.8 490.791 278.913 490.531 279.138C490.271 279.363 490.111 279.662 490.05 280.035ZM429.403 301V299.492H430.599V293.408H429.403V291.9H433.147C434.369 291.9 435.297 292.212 435.929 292.836C436.571 293.451 436.891 294.37 436.891 295.592V297.308C436.891 298.53 436.571 299.453 435.929 300.077C435.297 300.692 434.369 301 433.147 301H429.403ZM432.315 299.44H433.173C433.867 299.44 434.374 299.258 434.694 298.894C435.015 298.53 435.175 298.019 435.175 297.36V295.54C435.175 294.873 435.015 294.361 434.694 294.006C434.374 293.642 433.867 293.46 433.173 293.46H432.315V299.44ZM441.311 301.182C440.67 301.182 440.102 301.048 439.608 300.779C439.123 300.502 438.742 300.116 438.464 299.622C438.196 299.119 438.061 298.53 438.061 297.854V297.698C438.061 297.022 438.196 296.437 438.464 295.943C438.733 295.44 439.11 295.055 439.595 294.786C440.081 294.509 440.644 294.37 441.285 294.37C441.918 294.37 442.468 294.513 442.936 294.799C443.404 295.076 443.768 295.466 444.028 295.969C444.288 296.463 444.418 297.039 444.418 297.698V298.257H439.725C439.743 298.699 439.907 299.059 440.219 299.336C440.531 299.613 440.913 299.752 441.363 299.752C441.823 299.752 442.161 299.652 442.377 299.453C442.594 299.254 442.759 299.033 442.871 298.79L444.21 299.492C444.089 299.717 443.911 299.964 443.677 300.233C443.452 300.493 443.149 300.718 442.767 300.909C442.386 301.091 441.901 301.182 441.311 301.182ZM439.738 297.035H442.754C442.72 296.662 442.568 296.363 442.299 296.138C442.039 295.913 441.697 295.8 441.272 295.8C440.83 295.8 440.479 295.913 440.219 296.138C439.959 296.363 439.799 296.662 439.738 297.035ZM448.554 301.182C447.714 301.182 447.025 301 446.487 300.636C445.95 300.272 445.625 299.752 445.512 299.076L447.02 298.686C447.081 298.989 447.181 299.228 447.319 299.401C447.467 299.574 447.644 299.7 447.852 299.778C448.069 299.847 448.303 299.882 448.554 299.882C448.936 299.882 449.217 299.817 449.399 299.687C449.581 299.548 449.672 299.379 449.672 299.18C449.672 298.981 449.586 298.829 449.412 298.725C449.239 298.612 448.962 298.521 448.58 298.452L448.216 298.387C447.766 298.3 447.354 298.183 446.981 298.036C446.609 297.88 446.31 297.668 446.084 297.399C445.859 297.13 445.746 296.784 445.746 296.359C445.746 295.718 445.98 295.228 446.448 294.89C446.916 294.543 447.532 294.37 448.294 294.37C449.014 294.37 449.612 294.53 450.088 294.851C450.565 295.172 450.877 295.592 451.024 296.112L449.503 296.58C449.434 296.251 449.291 296.017 449.074 295.878C448.866 295.739 448.606 295.67 448.294 295.67C447.982 295.67 447.744 295.726 447.579 295.839C447.415 295.943 447.332 296.09 447.332 296.281C447.332 296.489 447.419 296.645 447.592 296.749C447.766 296.844 448 296.918 448.294 296.97L448.658 297.035C449.144 297.122 449.581 297.239 449.971 297.386C450.37 297.525 450.682 297.728 450.907 297.997C451.141 298.257 451.258 298.612 451.258 299.063C451.258 299.739 451.011 300.263 450.517 300.636C450.032 301 449.378 301.182 448.554 301.182ZM452.694 301V294.552H454.332V301H452.694ZM453.513 293.798C453.218 293.798 452.967 293.703 452.759 293.512C452.559 293.321 452.46 293.07 452.46 292.758C452.46 292.446 452.559 292.195 452.759 292.004C452.967 291.813 453.218 291.718 453.513 291.718C453.816 291.718 454.067 291.813 454.267 292.004C454.466 292.195 454.566 292.446 454.566 292.758C454.566 293.07 454.466 293.321 454.267 293.512C454.067 293.703 453.816 293.798 453.513 293.798ZM455.835 297.802V297.594C455.835 296.918 455.969 296.342 456.238 295.865C456.506 295.38 456.862 295.011 457.304 294.76C457.754 294.5 458.244 294.37 458.773 294.37C459.362 294.37 459.808 294.474 460.112 294.682C460.415 294.89 460.636 295.107 460.775 295.332H461.009V294.552H462.621V302.144C462.621 302.586 462.491 302.937 462.231 303.197C461.971 303.466 461.624 303.6 461.191 303.6H456.875V302.17H460.619C460.861 302.17 460.983 302.04 460.983 301.78V300.103H460.749C460.662 300.242 460.541 300.385 460.385 300.532C460.229 300.671 460.021 300.788 459.761 300.883C459.501 300.978 459.171 301.026 458.773 301.026C458.244 301.026 457.754 300.9 457.304 300.649C456.862 300.389 456.506 300.021 456.238 299.544C455.969 299.059 455.835 298.478 455.835 297.802ZM459.241 299.596C459.743 299.596 460.164 299.436 460.502 299.115C460.84 298.794 461.009 298.344 461.009 297.763V297.633C461.009 297.044 460.84 296.593 460.502 296.281C460.172 295.96 459.752 295.8 459.241 295.8C458.738 295.8 458.318 295.96 457.98 296.281C457.642 296.593 457.473 297.044 457.473 297.633V297.763C457.473 298.344 457.642 298.794 457.98 299.115C458.318 299.436 458.738 299.596 459.241 299.596ZM464.437 301V294.552H466.049V295.397H466.283C466.387 295.172 466.582 294.959 466.868 294.76C467.154 294.552 467.587 294.448 468.168 294.448C468.671 294.448 469.108 294.565 469.481 294.799C469.862 295.024 470.157 295.341 470.365 295.748C470.573 296.147 470.677 296.615 470.677 297.152V301H469.039V297.282C469.039 296.797 468.918 296.433 468.675 296.19C468.441 295.947 468.103 295.826 467.661 295.826C467.158 295.826 466.768 295.995 466.491 296.333C466.214 296.662 466.075 297.126 466.075 297.724V301H464.437ZM475.386 301.182C474.744 301.182 474.177 301.048 473.683 300.779C473.197 300.502 472.816 300.116 472.539 299.622C472.27 299.119 472.136 298.53 472.136 297.854V297.698C472.136 297.022 472.27 296.437 472.539 295.943C472.807 295.44 473.184 295.055 473.67 294.786C474.155 294.509 474.718 294.37 475.36 294.37C475.992 294.37 476.543 294.513 477.011 294.799C477.479 295.076 477.843 295.466 478.103 295.969C478.363 296.463 478.493 297.039 478.493 297.698V298.257H473.8C473.817 298.699 473.982 299.059 474.294 299.336C474.606 299.613 474.987 299.752 475.438 299.752C475.897 299.752 476.235 299.652 476.452 299.453C476.668 299.254 476.833 299.033 476.946 298.79L478.285 299.492C478.163 299.717 477.986 299.964 477.752 300.233C477.526 300.493 477.223 300.718 476.842 300.909C476.46 301.091 475.975 301.182 475.386 301.182ZM473.813 297.035H476.829C476.794 296.662 476.642 296.363 476.374 296.138C476.114 295.913 475.771 295.8 475.347 295.8C474.905 295.8 474.554 295.913 474.294 296.138C474.034 296.363 473.873 296.662 473.813 297.035ZM479.951 301V294.552H481.563V295.28H481.797C481.892 295.02 482.048 294.829 482.265 294.708C482.49 294.587 482.75 294.526 483.045 294.526H483.825V295.982H483.019C482.603 295.982 482.26 296.095 481.992 296.32C481.723 296.537 481.589 296.875 481.589 297.334V301H479.951Z" fill="#002448"/>
<rect opacity="0.7" x="142.5" y="390.5" width="99" height="117" rx="49.5" fill="url(#paint5_linear_10797_2072)" stroke="#BCE2FF"/>
<mask id="mask2_10797_2072" style="mask-type:alpha" maskUnits="userSpaceOnUse" x="172" y="405" width="40" height="40">
<rect x="172" y="405" width="40" height="40" rx="20" fill="#D9D9D9"/>
</mask>
<g mask="url(#mask2_10797_2072)">
<rect x="172" y="405" width="40" height="40" fill="#CFC3A7"/>
<rect x="172" y="405" width="40" height="40"/>
</g>
<path d="M160.702 465V463.492H161.898V457.408H160.702V455.9H164.446C165.668 455.9 166.596 456.212 167.228 456.836C167.87 457.451 168.19 458.37 168.19 459.592V461.308C168.19 462.53 167.87 463.453 167.228 464.077C166.596 464.692 165.668 465 164.446 465H160.702ZM163.614 463.44H164.472C165.166 463.44 165.673 463.258 165.993 462.894C166.314 462.53 166.474 462.019 166.474 461.36V459.54C166.474 458.873 166.314 458.361 165.993 458.006C165.673 457.642 165.166 457.46 164.472 457.46H163.614V463.44ZM172.611 465.182C171.969 465.182 171.402 465.048 170.908 464.779C170.422 464.502 170.041 464.116 169.764 463.622C169.495 463.119 169.361 462.53 169.361 461.854V461.698C169.361 461.022 169.495 460.437 169.764 459.943C170.032 459.44 170.409 459.055 170.895 458.786C171.38 458.509 171.943 458.37 172.585 458.37C173.217 458.37 173.768 458.513 174.236 458.799C174.704 459.076 175.068 459.466 175.328 459.969C175.588 460.463 175.718 461.039 175.718 461.698V462.257H171.025C171.042 462.699 171.207 463.059 171.519 463.336C171.831 463.613 172.212 463.752 172.663 463.752C173.122 463.752 173.46 463.652 173.677 463.453C173.893 463.254 174.058 463.033 174.171 462.79L175.51 463.492C175.388 463.717 175.211 463.964 174.977 464.233C174.751 464.493 174.448 464.718 174.067 464.909C173.685 465.091 173.2 465.182 172.611 465.182ZM171.038 461.035H174.054C174.019 460.662 173.867 460.363 173.599 460.138C173.339 459.913 172.996 459.8 172.572 459.8C172.13 459.8 171.779 459.913 171.519 460.138C171.259 460.363 171.098 460.662 171.038 461.035ZM178.35 465L176.296 458.552H178.038L179.533 463.804H179.767L181.262 458.552H183.004L180.95 465H178.35ZM186.88 465.182C186.239 465.182 185.671 465.048 185.177 464.779C184.692 464.502 184.311 464.116 184.033 463.622C183.765 463.119 183.63 462.53 183.63 461.854V461.698C183.63 461.022 183.765 460.437 184.033 459.943C184.302 459.44 184.679 459.055 185.164 458.786C185.65 458.509 186.213 458.37 186.854 458.37C187.487 458.37 188.037 458.513 188.505 458.799C188.973 459.076 189.337 459.466 189.597 459.969C189.857 460.463 189.987 461.039 189.987 461.698V462.257H185.294C185.312 462.699 185.476 463.059 185.788 463.336C186.1 463.613 186.482 463.752 186.932 463.752C187.392 463.752 187.73 463.652 187.946 463.453C188.163 463.254 188.328 463.033 188.44 462.79L189.779 463.492C189.658 463.717 189.48 463.964 189.246 464.233C189.021 464.493 188.718 464.718 188.336 464.909C187.955 465.091 187.47 465.182 186.88 465.182ZM185.307 461.035H188.323C188.289 460.662 188.137 460.363 187.868 460.138C187.608 459.913 187.266 459.8 186.841 459.8C186.399 459.8 186.048 459.913 185.788 460.138C185.528 460.363 185.368 460.662 185.307 461.035ZM191.445 465V455.9H193.083V465H191.445ZM197.966 465.182C197.325 465.182 196.749 465.052 196.237 464.792C195.726 464.532 195.323 464.155 195.028 463.661C194.734 463.167 194.586 462.573 194.586 461.88V461.672C194.586 460.979 194.734 460.385 195.028 459.891C195.323 459.397 195.726 459.02 196.237 458.76C196.749 458.5 197.325 458.37 197.966 458.37C198.608 458.37 199.184 458.5 199.695 458.76C200.207 459.02 200.61 459.397 200.904 459.891C201.199 460.385 201.346 460.979 201.346 461.672V461.88C201.346 462.573 201.199 463.167 200.904 463.661C200.61 464.155 200.207 464.532 199.695 464.792C199.184 465.052 198.608 465.182 197.966 465.182ZM197.966 463.726C198.469 463.726 198.885 463.566 199.214 463.245C199.544 462.916 199.708 462.448 199.708 461.841V461.711C199.708 461.104 199.544 460.641 199.214 460.32C198.894 459.991 198.478 459.826 197.966 459.826C197.464 459.826 197.048 459.991 196.718 460.32C196.389 460.641 196.224 461.104 196.224 461.711V461.841C196.224 462.448 196.389 462.916 196.718 463.245C197.048 463.566 197.464 463.726 197.966 463.726ZM202.858 467.6V458.552H204.47V459.332H204.704C204.852 459.081 205.081 458.86 205.393 458.669C205.705 458.47 206.152 458.37 206.732 458.37C207.252 458.37 207.733 458.5 208.175 458.76C208.617 459.011 208.973 459.384 209.241 459.878C209.51 460.372 209.644 460.97 209.644 461.672V461.88C209.644 462.582 209.51 463.18 209.241 463.674C208.973 464.168 208.617 464.545 208.175 464.805C207.733 465.056 207.252 465.182 206.732 465.182C206.342 465.182 206.013 465.134 205.744 465.039C205.484 464.952 205.272 464.84 205.107 464.701C204.951 464.554 204.826 464.406 204.73 464.259H204.496V467.6H202.858ZM206.238 463.752C206.75 463.752 207.17 463.592 207.499 463.271C207.837 462.942 208.006 462.465 208.006 461.841V461.711C208.006 461.087 207.837 460.615 207.499 460.294C207.161 459.965 206.741 459.8 206.238 459.8C205.736 459.8 205.315 459.965 204.977 460.294C204.639 460.615 204.47 461.087 204.47 461.711V461.841C204.47 462.465 204.639 462.942 204.977 463.271C205.315 463.592 205.736 463.752 206.238 463.752ZM214.086 465.182C213.445 465.182 212.877 465.048 212.383 464.779C211.898 464.502 211.517 464.116 211.239 463.622C210.971 463.119 210.836 462.53 210.836 461.854V461.698C210.836 461.022 210.971 460.437 211.239 459.943C211.508 459.44 211.885 459.055 212.37 458.786C212.856 458.509 213.419 458.37 214.06 458.37C214.693 458.37 215.243 458.513 215.711 458.799C216.179 459.076 216.543 459.466 216.803 459.969C217.063 460.463 217.193 461.039 217.193 461.698V462.257H212.5C212.518 462.699 212.682 463.059 212.994 463.336C213.306 463.613 213.688 463.752 214.138 463.752C214.598 463.752 214.936 463.652 215.152 463.453C215.369 463.254 215.534 463.033 215.646 462.79L216.985 463.492C216.864 463.717 216.686 463.964 216.452 464.233C216.227 464.493 215.924 464.718 215.542 464.909C215.161 465.091 214.676 465.182 214.086 465.182ZM212.513 461.035H215.529C215.495 460.662 215.343 460.363 215.074 460.138C214.814 459.913 214.472 459.8 214.047 459.8C213.605 459.8 213.254 459.913 212.994 460.138C212.734 460.363 212.574 460.662 212.513 461.035ZM218.651 465V458.552H220.263V459.28H220.497C220.593 459.02 220.749 458.829 220.965 458.708C221.191 458.587 221.451 458.526 221.745 458.526H222.525V459.982H221.719C221.303 459.982 220.961 460.095 220.692 460.32C220.424 460.537 220.289 460.875 220.289 461.334V465H218.651ZM163.832 482V472.9H169.682V474.46H165.548V476.631H169.318V478.191H165.548V480.44H169.76V482H163.832ZM170.51 482L172.85 478.75L170.536 475.552H172.434L173.903 477.697H174.137L175.606 475.552H177.504L175.19 478.75L177.53 482H175.606L174.137 479.829H173.903L172.434 482H170.51ZM178.775 484.6V475.552H180.387V476.332H180.621C180.769 476.081 180.998 475.86 181.31 475.669C181.622 475.47 182.069 475.37 182.649 475.37C183.169 475.37 183.65 475.5 184.092 475.76C184.534 476.011 184.89 476.384 185.158 476.878C185.427 477.372 185.561 477.97 185.561 478.672V478.88C185.561 479.582 185.427 480.18 185.158 480.674C184.89 481.168 184.534 481.545 184.092 481.805C183.65 482.056 183.169 482.182 182.649 482.182C182.259 482.182 181.93 482.134 181.661 482.039C181.401 481.952 181.189 481.84 181.024 481.701C180.868 481.554 180.743 481.406 180.647 481.259H180.413V484.6H178.775ZM182.155 480.752C182.667 480.752 183.087 480.592 183.416 480.271C183.754 479.942 183.923 479.465 183.923 478.841V478.711C183.923 478.087 183.754 477.615 183.416 477.294C183.078 476.965 182.658 476.8 182.155 476.8C181.653 476.8 181.232 476.965 180.894 477.294C180.556 477.615 180.387 478.087 180.387 478.711V478.841C180.387 479.465 180.556 479.942 180.894 480.271C181.232 480.592 181.653 480.752 182.155 480.752ZM190.003 482.182C189.362 482.182 188.794 482.048 188.3 481.779C187.815 481.502 187.434 481.116 187.156 480.622C186.888 480.119 186.753 479.53 186.753 478.854V478.698C186.753 478.022 186.888 477.437 187.156 476.943C187.425 476.44 187.802 476.055 188.287 475.786C188.773 475.509 189.336 475.37 189.977 475.37C190.61 475.37 191.16 475.513 191.628 475.799C192.096 476.076 192.46 476.466 192.72 476.969C192.98 477.463 193.11 478.039 193.11 478.698V479.257H188.417C188.435 479.699 188.599 480.059 188.911 480.336C189.223 480.613 189.605 480.752 190.055 480.752C190.515 480.752 190.853 480.652 191.069 480.453C191.286 480.254 191.451 480.033 191.563 479.79L192.902 480.492C192.781 480.717 192.603 480.964 192.369 481.233C192.144 481.493 191.841 481.718 191.459 481.909C191.078 482.091 190.593 482.182 190.003 482.182ZM188.43 478.035H191.446C191.412 477.662 191.26 477.363 190.991 477.138C190.731 476.913 190.389 476.8 189.964 476.8C189.522 476.8 189.171 476.913 188.911 477.138C188.651 477.363 188.491 477.662 188.43 478.035ZM194.568 482V475.552H196.18V476.28H196.414C196.51 476.02 196.666 475.829 196.882 475.708C197.108 475.587 197.368 475.526 197.662 475.526H198.442V476.982H197.636C197.22 476.982 196.878 477.095 196.609 477.32C196.341 477.537 196.206 477.875 196.206 478.334V482H194.568ZM202.193 482C201.768 482 201.421 481.87 201.153 481.61C200.893 481.341 200.763 480.986 200.763 480.544V476.904H199.151V475.552H200.763V473.55H202.401V475.552H204.169V476.904H202.401V480.258C202.401 480.518 202.522 480.648 202.765 480.648H204.013V482H202.193ZM208.361 482.182C207.719 482.182 207.152 482.048 206.658 481.779C206.172 481.502 205.791 481.116 205.514 480.622C205.245 480.119 205.111 479.53 205.111 478.854V478.698C205.111 478.022 205.245 477.437 205.514 476.943C205.782 476.44 206.159 476.055 206.645 475.786C207.13 475.509 207.693 475.37 208.335 475.37C208.967 475.37 209.518 475.513 209.986 475.799C210.454 476.076 210.818 476.466 211.078 476.969C211.338 477.463 211.468 478.039 211.468 478.698V479.257H206.775C206.792 479.699 206.957 480.059 207.269 480.336C207.581 480.613 207.962 480.752 208.413 480.752C208.872 480.752 209.21 480.652 209.427 480.453C209.643 480.254 209.808 480.033 209.921 479.79L211.26 480.492C211.138 480.717 210.961 480.964 210.727 481.233C210.501 481.493 210.198 481.718 209.817 481.909C209.435 482.091 208.95 482.182 208.361 482.182ZM206.788 478.035H209.804C209.769 477.662 209.617 477.363 209.349 477.138C209.089 476.913 208.746 476.8 208.322 476.8C207.88 476.8 207.529 476.913 207.269 477.138C207.009 477.363 206.848 477.662 206.788 478.035ZM212.926 482V475.552H214.538V476.397H214.772C214.876 476.172 215.071 475.959 215.357 475.76C215.643 475.552 216.076 475.448 216.657 475.448C217.159 475.448 217.597 475.565 217.97 475.799C218.351 476.024 218.646 476.341 218.854 476.748C219.062 477.147 219.166 477.615 219.166 478.152V482H217.528V478.282C217.528 477.797 217.406 477.433 217.164 477.19C216.93 476.947 216.592 476.826 216.15 476.826C215.647 476.826 215.257 476.995 214.98 477.333C214.702 477.662 214.564 478.126 214.564 478.724V482H212.926Z" fill="#002448"/>
<g filter="url(#filter1_d_10797_2072)">
<circle cx="104" cy="298" r="31" fill="white"/>
</g>
<g clip-path="url(#clip0_10797_2072)">
<path d="M90.8833 304.232L100.09 288.214L108.067 292.84L98.8618 308.859L90.8833 304.232Z" fill="#FBBC04"/>
<path d="M117.35 304.176L108.138 288.152C106.949 285.893 104.163 285.03 101.914 286.225C99.6644 287.419 98.8063 290.218 99.9943 292.477C100.046 292.576 100.102 292.673 100.161 292.769L109.373 308.793C110.615 311.022 113.422 311.818 115.642 310.57C117.862 309.322 118.654 306.503 117.412 304.273C117.391 304.237 117.371 304.201 117.35 304.166V304.176Z" fill="#4285F4"/>
<path d="M94.918 311.136C97.4618 311.136 99.524 309.065 99.524 306.509C99.524 303.954 97.4618 301.883 94.918 301.883C92.3742 301.883 90.312 303.954 90.312 306.509C90.312 309.065 92.3742 311.136 94.918 311.136Z" fill="#34A853"/>
</g>
<g filter="url(#filter2_d_10797_2072)">
<circle cx="330" cy="122" r="31" fill="white"/>
</g>
<g clip-path="url(#clip1_10797_2072)">
<path d="M325.251 137C328.149 137 330.5 134.76 330.5 132V127H325.251C322.354 127 320.002 129.24 320.002 132C320.002 134.76 322.354 137 325.251 137Z" fill="#0ACF83"/>
<path d="M320.002 122C320.002 119.24 322.354 117 325.251 117H330.5V127H325.251C322.354 127 320.002 124.76 320.002 122Z" fill="#A259FF"/>
<path d="M320.002 112C320.002 109.24 322.354 107 325.251 107H330.5V117H325.251C322.354 117 320.002 114.76 320.002 112Z" fill="#F24E1E"/>
<path d="M330.5 107H335.749C338.646 107 340.998 109.24 340.998 112C340.998 114.76 338.646 117 335.749 117H330.5V107Z" fill="#FF7262"/>
<path d="M340.998 122C340.998 124.76 338.646 127 335.749 127C332.852 127 330.5 124.76 330.5 122C330.5 119.24 332.852 117 335.749 117C338.646 117 340.998 119.24 340.998 122Z" fill="#1ABCFE"/>
</g>
<g filter="url(#filter3_d_10797_2072)">
<circle cx="345" cy="390" r="31" fill="white"/>
</g>
<g clip-path="url(#clip2_10797_2072)">
<path d="M329.559 390C329.559 396.112 333.111 401.394 338.262 403.897L330.896 383.715C330.013 385.693 329.557 387.834 329.559 390ZM355.425 389.22C355.425 387.312 354.739 385.99 354.151 384.962C353.368 383.69 352.635 382.613 352.635 381.341C352.635 379.921 353.711 378.6 355.228 378.6C355.296 378.6 355.361 378.608 355.428 378.612C352.681 376.095 349.02 374.559 345 374.559C339.606 374.559 334.86 377.326 332.099 381.519C332.461 381.53 332.803 381.537 333.092 381.537C334.707 381.537 337.208 381.341 337.208 381.341C338.04 381.292 338.138 382.514 337.307 382.613C337.307 382.613 336.47 382.711 335.539 382.76L341.162 399.486L344.542 389.351L342.136 382.76C341.304 382.711 340.517 382.613 340.517 382.613C339.685 382.564 339.782 381.292 340.614 381.341C340.614 381.341 343.164 381.537 344.682 381.537C346.296 381.537 348.797 381.341 348.797 381.341C349.63 381.292 349.728 382.514 348.896 382.613C348.896 382.613 348.058 382.711 347.129 382.76L352.709 399.359L354.249 394.212C354.917 392.076 355.425 390.542 355.425 389.22Z" fill="#00749A"/>
<path d="M345.271 391.35L340.638 404.813C342.055 405.23 343.524 405.442 345 405.442C346.798 405.442 348.523 405.131 350.128 404.567C350.085 404.499 350.048 404.428 350.018 404.354L345.271 391.35ZM358.55 382.591C358.616 383.083 358.654 383.611 358.654 384.179C358.654 385.746 358.361 387.507 357.479 389.71L352.763 403.347C357.353 400.67 360.441 395.696 360.441 390C360.445 387.41 359.795 384.862 358.55 382.591Z" fill="#00749A"/>
<path d="M345 372C335.075 372 327 380.075 327 390C327 399.926 335.075 408 345 408C354.925 408 363.001 399.926 363.001 390C363.001 380.075 354.925 372 345 372ZM345 407.175C335.53 407.175 327.826 399.47 327.826 390C327.826 380.53 335.53 372.826 345 372.826C354.47 372.826 362.174 380.53 362.174 390C362.174 399.47 354.47 407.175 345 407.175Z" fill="#00749A"/>
</g>
<defs>
<filter id="filter0_d_10797_2072" x="169" y="179" width="196" height="196" filterUnits="userSpaceOnUse" color-interpolation-filters="sRGB">
<feFlood flood-opacity="0" result="BackgroundImageFix"/>
<feColorMatrix in="SourceAlpha" type="matrix" values="0 0 0 0 0 0 0 0 0 0 0 0 0 0 0 0 0 0 127 0" result="hardAlpha"/>
<feOffset dy="10"/>
<feGaussianBlur stdDeviation="10"/>
<feComposite in2="hardAlpha" operator="out"/>
<feColorMatrix type="matrix" values="0 0 0 0 0 0 0 0 0 0.141176 0 0 0 0 0.282353 0 0 0 0.1 0"/>
<feBlend mode="normal" in2="BackgroundImageFix" result="effect1_dropShadow_10797_2072"/>
<feBlend mode="normal" in="SourceGraphic" in2="effect1_dropShadow_10797_2072" result="shape"/>
</filter>
<filter id="filter1_d_10797_2072" x="53" y="257" width="102" height="102" filterUnits="userSpaceOnUse" color-interpolation-filters="sRGB">
<feFlood flood-opacity="0" result="BackgroundImageFix"/>
<feColorMatrix in="SourceAlpha" type="matrix" values="0 0 0 0 0 0 0 0 0 0 0 0 0 0 0 0 0 0 127 0" result="hardAlpha"/>
<feOffset dy="10"/>
<feGaussianBlur stdDeviation="10"/>
<feComposite in2="hardAlpha" operator="out"/>
<feColorMatrix type="matrix" values="0 0 0 0 0 0 0 0 0 0.141176 0 0 0 0 0.282353 0 0 0 0.1 0"/>
<feBlend mode="normal" in2="BackgroundImageFix" result="effect1_dropShadow_10797_2072"/>
<feBlend mode="normal" in="SourceGraphic" in2="effect1_dropShadow_10797_2072" result="shape"/>
</filter>
<filter id="filter2_d_10797_2072" x="279" y="81" width="102" height="102" filterUnits="userSpaceOnUse" color-interpolation-filters="sRGB">
<feFlood flood-opacity="0" result="BackgroundImageFix"/>
<feColorMatrix in="SourceAlpha" type="matrix" values="0 0 0 0 0 0 0 0 0 0 0 0 0 0 0 0 0 0 127 0" result="hardAlpha"/>
<feOffset dy="10"/>
<feGaussianBlur stdDeviation="10"/>
<feComposite in2="hardAlpha" operator="out"/>
<feColorMatrix type="matrix" values="0 0 0 0 0 0 0 0 0 0.141176 0 0 0 0 0.282353 0 0 0 0.1 0"/>
<feBlend mode="normal" in2="BackgroundImageFix" result="effect1_dropShadow_10797_2072"/>
<feBlend mode="normal" in="SourceGraphic" in2="effect1_dropShadow_10797_2072" result="shape"/>
</filter>
<filter id="filter3_d_10797_2072" x="294" y="349" width="102" height="102" filterUnits="userSpaceOnUse" color-interpolation-filters="sRGB">
<feFlood flood-opacity="0" result="BackgroundImageFix"/>
<feColorMatrix in="SourceAlpha" type="matrix" values="0 0 0 0 0 0 0 0 0 0 0 0 0 0 0 0 0 0 127 0" result="hardAlpha"/>
<feOffset dy="10"/>
<feGaussianBlur stdDeviation="10"/>
<feComposite in2="hardAlpha" operator="out"/>
<feColorMatrix type="matrix" values="0 0 0 0 0 0 0 0 0 0.141176 0 0 0 0 0.282353 0 0 0 0.1 0"/>
<feBlend mode="normal" in2="BackgroundImageFix" result="effect1_dropShadow_10797_2072"/>
<feBlend mode="normal" in="SourceGraphic" in2="effect1_dropShadow_10797_2072" result="shape"/>
</filter>
<linearGradient id="paint0_linear_10797_2072" x1="241.281" y1="274.205" x2="292.998" y2="274.205" gradientUnits="userSpaceOnUse">
<stop stop-color="#1BB2E2"/>
<stop offset="0.00334227" stop-color="#1BB2E2"/>
<stop offset="0.313" stop-color="#3588C0"/>
<stop offset="0.5932" stop-color="#4769A8"/>
<stop offset="0.8316" stop-color="#525799"/>
<stop offset="1" stop-color="#565094"/>
</linearGradient>
<linearGradient id="paint1_linear_10797_2072" x1="267.14" y1="231.268" x2="267.14" y2="285.192" gradientUnits="userSpaceOnUse">
<stop stop-color="#1BB2E2"/>
<stop offset="0.00334227" stop-color="#1BB2E2"/>
<stop offset="0.313" stop-color="#3588C0"/>
<stop offset="0.5932" stop-color="#4769A8"/>
<stop offset="0.8316" stop-color="#525799"/>
<stop offset="1" stop-color="#565094"/>
</linearGradient>
<linearGradient id="paint2_linear_10797_2072" x1="273.604" y1="211.135" x2="273.604" y2="292.689" gradientUnits="userSpaceOnUse">
<stop stop-color="#565094"/>
<stop offset="1" stop-color="#1BB2E2"/>
</linearGradient>
<linearGradient id="paint3_linear_10797_2072" x1="135" y1="43" x2="135" y2="170" gradientUnits="userSpaceOnUse">
<stop stop-color="#EFE2FB"/>
<stop offset="1" stop-color="white"/>
</linearGradient>
<linearGradient id="paint4_linear_10797_2072" x1="457" y1="209" x2="457" y2="339" gradientUnits="userSpaceOnUse">
<stop stop-color="#BCFFFC"/>
<stop offset="1" stop-color="white"/>
</linearGradient>
<linearGradient id="paint5_linear_10797_2072" x1="192" y1="390" x2="192" y2="508" gradientUnits="userSpaceOnUse">
<stop stop-color="#BCE2FF"/>
<stop offset="1" stop-color="white"/>
</linearGradient>
<clipPath id="clip0_10797_2072">
<rect width="27.688" height="25.4729" fill="white" transform="translate(90.312 285.687)"/>
</clipPath>
<clipPath id="clip1_10797_2072">
<rect width="21" height="30" fill="white" transform="translate(320 107)"/>
</clipPath>
<clipPath id="clip2_10797_2072">
<rect width="36" height="36" fill="white" transform="translate(327 372)"/>
</clipPath>
</defs>
</svg>
