<svg width="572" height="542" viewBox="0 0 572 542" fill="none" xmlns="http://www.w3.org/2000/svg">
<circle opacity="0.4" cx="87" cy="94" r="87" fill="url(#paint0_linear_11004_28994)"/>
<circle opacity="0.3" cx="154" cy="412" r="73" fill="url(#paint1_linear_11004_28994)"/>
<circle opacity="0.3" cx="488" cy="71" r="43" fill="url(#paint2_linear_11004_28994)"/>
<circle cx="201" cy="15" r="15" fill="#F3F6F8"/>
<g filter="url(#filter0_d_11004_28994)">
<rect x="53" y="56" width="263" height="209" rx="8" fill="white"/>
</g>
<circle cx="76.5" cy="79.5" r="3.5" fill="#FF6259"/>
<circle cx="88.5" cy="79.5" r="3.5" fill="#FFBE2F"/>
<circle cx="100.5" cy="79.5" r="3.5" fill="#29CD41"/>
<path d="M73.288 114L76.232 102.8H79.912L82.856 114H80.68L80.072 111.536H76.072L75.464 114H73.288ZM76.568 109.584H79.576L78.216 104.128H77.928L76.568 109.584ZM84.2606 114V106.064H86.2446V107.104H86.5326C86.6606 106.827 86.9006 106.565 87.2526 106.32C87.6046 106.064 88.138 105.936 88.8526 105.936C89.4713 105.936 90.01 106.08 90.4686 106.368C90.938 106.645 91.3006 107.035 91.5566 107.536C91.8126 108.027 91.9406 108.603 91.9406 109.264V114H89.9246V109.424C89.9246 108.827 89.7753 108.379 89.4766 108.08C89.1886 107.781 88.7726 107.632 88.2286 107.632C87.61 107.632 87.13 107.84 86.7886 108.256C86.4473 108.661 86.2766 109.232 86.2766 109.968V114H84.2606ZM95.2133 114V107.728H93.1973V106.064H95.2133V104.592C95.2133 104.048 95.3733 103.616 95.6933 103.296C96.0239 102.965 96.4506 102.8 96.9733 102.8H99.0533V104.464H97.6773C97.3786 104.464 97.2293 104.624 97.2293 104.944V106.064H99.3093V107.728H97.2293V114H95.2133ZM104.396 114.224C103.607 114.224 102.897 114.064 102.268 113.744C101.639 113.424 101.143 112.96 100.78 112.352C100.417 111.744 100.236 111.013 100.236 110.16V109.904C100.236 109.051 100.417 108.32 100.78 107.712C101.143 107.104 101.639 106.64 102.268 106.32C102.897 106 103.607 105.84 104.396 105.84C105.185 105.84 105.895 106 106.524 106.32C107.153 106.64 107.649 107.104 108.012 107.712C108.375 108.32 108.556 109.051 108.556 109.904V110.16C108.556 111.013 108.375 111.744 108.012 112.352C107.649 112.96 107.153 113.424 106.524 113.744C105.895 114.064 105.185 114.224 104.396 114.224ZM104.396 112.432C105.015 112.432 105.527 112.235 105.932 111.84C106.337 111.435 106.54 110.859 106.54 110.112V109.952C106.54 109.205 106.337 108.635 105.932 108.24C105.537 107.835 105.025 107.632 104.396 107.632C103.777 107.632 103.265 107.835 102.86 108.24C102.455 108.635 102.252 109.205 102.252 109.952V110.112C102.252 110.859 102.455 111.435 102.86 111.84C103.265 112.235 103.777 112.432 104.396 112.432ZM110.417 114V106.064H112.401V106.96H112.689C112.806 106.64 112.998 106.405 113.265 106.256C113.542 106.107 113.862 106.032 114.225 106.032H115.185V107.824H114.193C113.681 107.824 113.26 107.963 112.929 108.24C112.598 108.507 112.433 108.923 112.433 109.488V114H110.417ZM119.679 114.224C119.05 114.224 118.458 114.069 117.903 113.76C117.359 113.44 116.922 112.976 116.591 112.368C116.261 111.76 116.095 111.024 116.095 110.16V109.904C116.095 109.04 116.261 108.304 116.591 107.696C116.922 107.088 117.359 106.629 117.903 106.32C118.447 106 119.039 105.84 119.679 105.84C120.159 105.84 120.559 105.899 120.879 106.016C121.21 106.123 121.477 106.261 121.679 106.432C121.882 106.603 122.037 106.784 122.143 106.976H122.431V102.8H124.447V114H122.463V113.04H122.175C121.994 113.339 121.711 113.611 121.327 113.856C120.954 114.101 120.405 114.224 119.679 114.224ZM120.287 112.464C120.906 112.464 121.423 112.267 121.839 111.872C122.255 111.467 122.463 110.88 122.463 110.112V109.952C122.463 109.184 122.255 108.603 121.839 108.208C121.434 107.803 120.917 107.6 120.287 107.6C119.669 107.6 119.151 107.803 118.735 108.208C118.319 108.603 118.111 109.184 118.111 109.952V110.112C118.111 110.88 118.319 111.467 118.735 111.872C119.151 112.267 119.669 112.464 120.287 112.464ZM130.299 114.224C129.509 114.224 128.811 114.059 128.203 113.728C127.605 113.387 127.136 112.912 126.795 112.304C126.464 111.685 126.299 110.96 126.299 110.128V109.936C126.299 109.104 126.464 108.384 126.795 107.776C127.125 107.157 127.589 106.683 128.187 106.352C128.784 106.011 129.477 105.84 130.266 105.84C131.045 105.84 131.723 106.016 132.299 106.368C132.875 106.709 133.323 107.189 133.642 107.808C133.963 108.416 134.123 109.125 134.123 109.936V110.624H128.347C128.368 111.168 128.571 111.611 128.955 111.952C129.339 112.293 129.808 112.464 130.363 112.464C130.928 112.464 131.344 112.341 131.611 112.096C131.877 111.851 132.08 111.579 132.219 111.28L133.867 112.144C133.717 112.421 133.499 112.725 133.211 113.056C132.933 113.376 132.56 113.653 132.091 113.888C131.621 114.112 131.024 114.224 130.299 114.224ZM128.363 109.12H132.075C132.032 108.661 131.845 108.293 131.515 108.016C131.195 107.739 130.773 107.6 130.251 107.6C129.707 107.6 129.275 107.739 128.955 108.016C128.635 108.293 128.437 108.661 128.363 109.12ZM135.917 114V106.064H137.901V106.96H138.189C138.306 106.64 138.498 106.405 138.765 106.256C139.042 106.107 139.362 106.032 139.725 106.032H140.685V107.824H139.693C139.181 107.824 138.76 107.963 138.429 108.24C138.098 108.507 137.933 108.923 137.933 109.488V114H135.917ZM145.285 114.128C144.666 114.128 144.122 113.989 143.653 113.712C143.194 113.424 142.837 113.029 142.581 112.528C142.325 112.027 142.197 111.451 142.197 110.8V106.064H144.213V110.64C144.213 111.237 144.357 111.685 144.645 111.984C144.943 112.283 145.365 112.432 145.909 112.432C146.527 112.432 147.007 112.229 147.349 111.824C147.69 111.408 147.861 110.832 147.861 110.096V106.064H149.877V114H147.893V112.96H147.605C147.477 113.227 147.237 113.488 146.885 113.744C146.533 114 145.999 114.128 145.285 114.128ZM152.12 114V106.064H154.104V107.104H154.392C154.52 106.827 154.76 106.565 155.112 106.32C155.464 106.064 155.997 105.936 156.712 105.936C157.331 105.936 157.869 106.08 158.328 106.368C158.797 106.645 159.16 107.035 159.416 107.536C159.672 108.027 159.8 108.603 159.8 109.264V114H157.784V109.424C157.784 108.827 157.635 108.379 157.336 108.08C157.048 107.781 156.632 107.632 156.088 107.632C155.469 107.632 154.989 107.84 154.648 108.256C154.307 108.661 154.136 109.232 154.136 109.968V114H152.12ZM161.595 110.064V109.808C161.595 108.976 161.761 108.267 162.091 107.68C162.422 107.083 162.859 106.629 163.403 106.32C163.958 106 164.561 105.84 165.211 105.84C165.937 105.84 166.486 105.968 166.859 106.224C167.233 106.48 167.505 106.747 167.675 107.024H167.963V106.064H169.947V115.408C169.947 115.952 169.787 116.384 169.467 116.704C169.147 117.035 168.721 117.2 168.187 117.2H162.875V115.44H167.483C167.782 115.44 167.931 115.28 167.931 114.96V112.896H167.643C167.537 113.067 167.387 113.243 167.195 113.424C167.003 113.595 166.747 113.739 166.427 113.856C166.107 113.973 165.702 114.032 165.211 114.032C164.561 114.032 163.958 113.877 163.403 113.568C162.859 113.248 162.422 112.795 162.091 112.208C161.761 111.611 161.595 110.896 161.595 110.064ZM165.787 112.272C166.406 112.272 166.923 112.075 167.339 111.68C167.755 111.285 167.963 110.731 167.963 110.016V109.856C167.963 109.131 167.755 108.576 167.339 108.192C166.934 107.797 166.417 107.6 165.787 107.6C165.169 107.6 164.651 107.797 164.235 108.192C163.819 108.576 163.611 109.131 163.611 109.856V110.016C163.611 110.731 163.819 111.285 164.235 111.68C164.651 112.075 165.169 112.272 165.787 112.272ZM179.861 114.224C179.072 114.224 178.373 114.059 177.765 113.728C177.168 113.387 176.698 112.912 176.357 112.304C176.026 111.685 175.861 110.96 175.861 110.128V109.936C175.861 109.104 176.026 108.384 176.357 107.776C176.688 107.157 177.152 106.683 177.749 106.352C178.346 106.011 179.04 105.84 179.829 105.84C180.608 105.84 181.285 106.016 181.861 106.368C182.437 106.709 182.885 107.189 183.205 107.808C183.525 108.416 183.685 109.125 183.685 109.936V110.624H177.909C177.93 111.168 178.133 111.611 178.517 111.952C178.901 112.293 179.37 112.464 179.925 112.464C180.49 112.464 180.906 112.341 181.173 112.096C181.44 111.851 181.642 111.579 181.781 111.28L183.429 112.144C183.28 112.421 183.061 112.725 182.773 113.056C182.496 113.376 182.122 113.653 181.653 113.888C181.184 114.112 180.586 114.224 179.861 114.224ZM177.925 109.12H181.637C181.594 108.661 181.408 108.293 181.077 108.016C180.757 107.739 180.336 107.6 179.813 107.6C179.269 107.6 178.837 107.739 178.517 108.016C178.197 108.293 178 108.661 177.925 109.12ZM185.479 114V106.064H187.463V106.96H187.751C187.869 106.64 188.061 106.405 188.327 106.256C188.605 106.107 188.925 106.032 189.287 106.032H190.247V107.824H189.255C188.743 107.824 188.322 107.963 187.991 108.24C187.661 108.507 187.495 108.923 187.495 109.488V114H185.479ZM193.135 114V107.728H191.119V106.064H193.135V104.592C193.135 104.048 193.295 103.616 193.615 103.296C193.946 102.965 194.372 102.8 194.895 102.8H196.975V104.464H195.599C195.3 104.464 195.151 104.624 195.151 104.944V106.064H197.231V107.728H195.151V114H193.135ZM201.816 114.128C201.197 114.128 200.653 113.989 200.184 113.712C199.725 113.424 199.368 113.029 199.112 112.528C198.856 112.027 198.728 111.451 198.728 110.8V106.064H200.744V110.64C200.744 111.237 200.888 111.685 201.176 111.984C201.475 112.283 201.896 112.432 202.44 112.432C203.059 112.432 203.539 112.229 203.88 111.824C204.221 111.408 204.392 110.832 204.392 110.096V106.064H206.408V114H204.424V112.96H204.136C204.008 113.227 203.768 113.488 203.416 113.744C203.064 114 202.531 114.128 201.816 114.128ZM204.216 105.2C203.853 105.2 203.544 105.088 203.288 104.864C203.043 104.629 202.92 104.315 202.92 103.92C202.92 103.525 203.043 103.216 203.288 102.992C203.544 102.757 203.853 102.64 204.216 102.64C204.589 102.64 204.899 102.757 205.144 102.992C205.389 103.216 205.512 103.525 205.512 103.92C205.512 104.315 205.389 104.629 205.144 104.864C204.899 105.088 204.589 105.2 204.216 105.2ZM200.92 105.2C200.557 105.2 200.248 105.088 199.992 104.864C199.747 104.629 199.624 104.315 199.624 103.92C199.624 103.525 199.747 103.216 199.992 102.992C200.248 102.757 200.557 102.64 200.92 102.64C201.293 102.64 201.603 102.757 201.848 102.992C202.093 103.216 202.216 103.525 202.216 103.92C202.216 104.315 202.093 104.629 201.848 104.864C201.603 105.088 201.293 105.2 200.92 105.2ZM208.651 114V102.8H210.667V114H208.651ZM212.901 114V102.8H214.917V114H212.901ZM220.767 114.224C219.978 114.224 219.279 114.059 218.671 113.728C218.074 113.387 217.605 112.912 217.263 112.304C216.933 111.685 216.767 110.96 216.767 110.128V109.936C216.767 109.104 216.933 108.384 217.263 107.776C217.594 107.157 218.058 106.683 218.655 106.352C219.253 106.011 219.946 105.84 220.735 105.84C221.514 105.84 222.191 106.016 222.767 106.368C223.343 106.709 223.791 107.189 224.111 107.808C224.431 108.416 224.591 109.125 224.591 109.936V110.624H218.815C218.837 111.168 219.039 111.611 219.423 111.952C219.807 112.293 220.277 112.464 220.831 112.464C221.397 112.464 221.813 112.341 222.079 112.096C222.346 111.851 222.549 111.579 222.687 111.28L224.335 112.144C224.186 112.421 223.967 112.725 223.679 113.056C223.402 113.376 223.029 113.653 222.559 113.888C222.09 114.112 221.493 114.224 220.767 114.224ZM218.831 109.12H222.543C222.501 108.661 222.314 108.293 221.983 108.016C221.663 107.739 221.242 107.6 220.719 107.6C220.175 107.6 219.743 107.739 219.423 108.016C219.103 108.293 218.906 108.661 218.831 109.12ZM226.386 114V106.064H228.37V107.104H228.658C228.786 106.827 229.026 106.565 229.378 106.32C229.73 106.064 230.263 105.936 230.978 105.936C231.596 105.936 232.135 106.08 232.594 106.368C233.063 106.645 233.426 107.035 233.682 107.536C233.938 108.027 234.066 108.603 234.066 109.264V114H232.05V109.424C232.05 108.827 231.9 108.379 231.602 108.08C231.314 107.781 230.898 107.632 230.354 107.632C229.735 107.632 229.255 107.84 228.914 108.256C228.572 108.661 228.402 109.232 228.402 109.968V114H226.386Z" fill="#57738F"/>
<path d="M78.16 143V130.88H77.8L75.92 135.32H73.24L76.1 129H80.72V143H78.16ZM88.523 143.28C86.8696 143.28 85.543 142.827 84.543 141.92C83.543 141 83.043 139.613 83.043 137.76V134.24C83.043 132.44 83.543 131.073 84.543 130.14C85.543 129.193 86.8696 128.72 88.523 128.72C90.1896 128.72 91.5163 129.193 92.503 130.14C93.503 131.073 94.003 132.44 94.003 134.24V137.76C94.003 139.613 93.503 141 92.503 141.92C91.5163 142.827 90.1896 143.28 88.523 143.28ZM88.523 141C89.523 141 90.2563 140.727 90.723 140.18C91.203 139.633 91.443 138.853 91.443 137.84V134.12C91.443 133.093 91.1763 132.32 90.643 131.8C90.123 131.267 89.4163 131 88.523 131C87.603 131 86.883 131.273 86.363 131.82C85.8563 132.367 85.603 133.133 85.603 134.12V137.84C85.603 138.893 85.843 139.687 86.323 140.22C86.8163 140.74 87.5496 141 88.523 141ZM101.492 143.28C99.8384 143.28 98.5117 142.827 97.5117 141.92C96.5117 141 96.0117 139.613 96.0117 137.76V134.24C96.0117 132.44 96.5117 131.073 97.5117 130.14C98.5117 129.193 99.8384 128.72 101.492 128.72C103.158 128.72 104.485 129.193 105.472 130.14C106.472 131.073 106.972 132.44 106.972 134.24V137.76C106.972 139.613 106.472 141 105.472 141.92C104.485 142.827 103.158 143.28 101.492 143.28ZM101.492 141C102.492 141 103.225 140.727 103.692 140.18C104.172 139.633 104.412 138.853 104.412 137.84V134.12C104.412 133.093 104.145 132.32 103.612 131.8C103.092 131.267 102.385 131 101.492 131C100.572 131 99.8517 131.273 99.3317 131.82C98.8251 132.367 98.5717 133.133 98.5717 134.12V137.84C98.5717 138.893 98.8117 139.687 99.2917 140.22C99.7851 140.74 100.518 141 101.492 141ZM110.94 143.26L109.42 142.04L120.18 128.74L121.7 129.96L110.94 143.26ZM119.38 143.2C118.367 143.2 117.574 142.933 117 142.4C116.427 141.853 116.14 141.113 116.14 140.18V140.04C116.14 139.093 116.427 138.353 117 137.82C117.574 137.273 118.367 137 119.38 137C120.367 137 121.154 137.273 121.74 137.82C122.327 138.353 122.62 139.093 122.62 140.04V140.18C122.62 141.113 122.334 141.853 121.76 142.4C121.187 142.933 120.394 143.2 119.38 143.2ZM119.38 141.56C119.767 141.56 120.067 141.44 120.28 141.2C120.507 140.96 120.62 140.647 120.62 140.26V139.94C120.62 139.553 120.507 139.24 120.28 139C120.067 138.76 119.767 138.64 119.38 138.64C118.994 138.64 118.687 138.76 118.46 139C118.247 139.24 118.14 139.553 118.14 139.94V140.26C118.14 140.647 118.247 140.96 118.46 141.2C118.687 141.44 118.994 141.56 119.38 141.56ZM111.74 135C110.727 135 109.934 134.733 109.36 134.2C108.787 133.653 108.5 132.913 108.5 131.98V131.84C108.5 130.893 108.787 130.153 109.36 129.62C109.934 129.073 110.727 128.8 111.74 128.8C112.727 128.8 113.514 129.073 114.1 129.62C114.687 130.153 114.98 130.893 114.98 131.84V131.98C114.98 132.913 114.694 133.653 114.12 134.2C113.547 134.733 112.754 135 111.74 135ZM111.74 133.36C112.127 133.36 112.427 133.24 112.64 133C112.867 132.76 112.98 132.447 112.98 132.06V131.74C112.98 131.353 112.867 131.04 112.64 130.8C112.427 130.56 112.127 130.44 111.74 130.44C111.354 130.44 111.047 130.56 110.82 130.8C110.607 131.04 110.5 131.353 110.5 131.74V132.06C110.5 132.447 110.607 132.76 110.82 133C111.047 133.24 111.354 133.36 111.74 133.36Z" fill="#003A75"/>
<circle cx="83" cy="174" r="10" fill="url(#paint3_linear_11004_28994)"/>
<g clip-path="url(#clip0_11004_28994)">
<path d="M80.9586 178.146C80.7671 178.147 80.5775 178.109 80.4005 178.036C80.2236 177.963 80.0629 177.856 79.9276 177.72L77.2087 175.002L77.8961 174.314L80.6149 177.033C80.7061 177.124 80.8297 177.175 80.9586 177.175C81.0875 177.175 81.2111 177.124 81.3023 177.033L88.1044 170.231L88.7918 170.918L81.9896 177.72C81.8543 177.856 81.6936 177.963 81.5167 178.036C81.3397 178.109 81.1501 178.147 80.9586 178.146Z" fill="#003A75"/>
</g>
<rect x="105" y="169" width="118" height="11" rx="5.5" fill="#EDF1F4"/>
<circle cx="83" cy="203" r="10" fill="url(#paint4_linear_11004_28994)"/>
<g clip-path="url(#clip1_11004_28994)">
<path d="M80.9586 207.146C80.7671 207.147 80.5775 207.109 80.4005 207.036C80.2236 206.963 80.0629 206.856 79.9276 206.72L77.2087 204.002L77.8961 203.314L80.6149 206.033C80.7061 206.124 80.8297 206.175 80.9586 206.175C81.0875 206.175 81.2111 206.124 81.3023 206.033L88.1044 199.231L88.7918 199.918L81.9896 206.72C81.8543 206.856 81.6936 206.963 81.5167 207.036C81.3397 207.109 81.1501 207.147 80.9586 207.146Z" fill="#003A75"/>
</g>
<rect x="105" y="198" width="161" height="11" rx="5.5" fill="#EDF1F4"/>
<circle cx="83" cy="232" r="10" fill="url(#paint5_linear_11004_28994)"/>
<g clip-path="url(#clip2_11004_28994)">
<path d="M80.9586 236.146C80.7671 236.147 80.5775 236.109 80.4005 236.036C80.2236 235.963 80.0629 235.856 79.9276 235.72L77.2087 233.002L77.8961 232.314L80.6149 235.033C80.7061 235.124 80.8297 235.175 80.9586 235.175C81.0875 235.175 81.2111 235.124 81.3023 235.033L88.1044 228.231L88.7918 228.918L81.9896 235.72C81.8543 235.856 81.6936 235.963 81.5167 236.036C81.3397 236.109 81.1501 236.147 80.9586 236.146Z" fill="#003A75"/>
</g>
<rect x="105" y="227" width="83" height="11" rx="5.5" fill="#EDF1F4"/>
<g filter="url(#filter1_d_11004_28994)">
<rect x="113" y="285" width="263" height="167" rx="8" fill="white"/>
</g>
<path d="M137.312 319.196C136.64 319.196 136.029 319.047 135.478 318.748C134.937 318.44 134.503 317.997 134.176 317.418C133.859 316.83 133.7 316.116 133.7 315.276V312.924C133.7 311.664 134.055 310.698 134.764 310.026C135.473 309.345 136.435 309.004 137.648 309.004C138.852 309.004 139.781 309.326 140.434 309.97C141.097 310.605 141.428 311.468 141.428 312.56V312.616H139.608V312.504C139.608 312.159 139.533 311.846 139.384 311.566C139.244 311.286 139.029 311.067 138.74 310.908C138.451 310.74 138.087 310.656 137.648 310.656C136.995 310.656 136.481 310.857 136.108 311.258C135.735 311.659 135.548 312.205 135.548 312.896V315.304C135.548 315.985 135.735 316.536 136.108 316.956C136.481 317.367 137.004 317.572 137.676 317.572C138.348 317.572 138.838 317.395 139.146 317.04C139.454 316.685 139.608 316.237 139.608 315.696V315.556H137.284V313.988H141.428V319H139.72V318.062H139.468C139.403 318.221 139.295 318.389 139.146 318.566C139.006 318.743 138.791 318.893 138.502 319.014C138.213 319.135 137.816 319.196 137.312 319.196ZM143.25 319V309.2H145.014V319H143.25ZM149.614 319.112C149.073 319.112 148.597 318.991 148.186 318.748C147.785 318.496 147.472 318.151 147.248 317.712C147.024 317.273 146.912 316.769 146.912 316.2V312.056H148.676V316.06C148.676 316.583 148.802 316.975 149.054 317.236C149.316 317.497 149.684 317.628 150.16 317.628C150.702 317.628 151.122 317.451 151.42 317.096C151.719 316.732 151.868 316.228 151.868 315.584V312.056H153.632V319H151.896V318.09H151.644C151.532 318.323 151.322 318.552 151.014 318.776C150.706 319 150.24 319.112 149.614 319.112ZM151.714 311.3C151.397 311.3 151.126 311.202 150.902 311.006C150.688 310.801 150.58 310.525 150.58 310.18C150.58 309.835 150.688 309.564 150.902 309.368C151.126 309.163 151.397 309.06 151.714 309.06C152.041 309.06 152.312 309.163 152.526 309.368C152.741 309.564 152.848 309.835 152.848 310.18C152.848 310.525 152.741 310.801 152.526 311.006C152.312 311.202 152.041 311.3 151.714 311.3ZM148.83 311.3C148.513 311.3 148.242 311.202 148.018 311.006C147.804 310.801 147.696 310.525 147.696 310.18C147.696 309.835 147.804 309.564 148.018 309.368C148.242 309.163 148.513 309.06 148.83 309.06C149.157 309.06 149.428 309.163 149.642 309.368C149.857 309.564 149.964 309.835 149.964 310.18C149.964 310.525 149.857 310.801 149.642 311.006C149.428 311.202 149.157 311.3 148.83 311.3ZM158.857 319.196C158.185 319.196 157.574 319.056 157.023 318.776C156.482 318.496 156.053 318.09 155.735 317.558C155.418 317.026 155.259 316.382 155.259 315.626V315.43C155.259 314.674 155.418 314.03 155.735 313.498C156.053 312.966 156.482 312.56 157.023 312.28C157.574 312 158.185 311.86 158.857 311.86C159.52 311.86 160.089 311.977 160.565 312.21C161.041 312.443 161.424 312.765 161.713 313.176C162.012 313.577 162.208 314.035 162.301 314.548L160.593 314.912C160.556 314.632 160.472 314.38 160.341 314.156C160.211 313.932 160.024 313.755 159.781 313.624C159.548 313.493 159.254 313.428 158.899 313.428C158.545 313.428 158.223 313.507 157.933 313.666C157.653 313.815 157.429 314.044 157.261 314.352C157.103 314.651 157.023 315.019 157.023 315.458V315.598C157.023 316.037 157.103 316.41 157.261 316.718C157.429 317.017 157.653 317.245 157.933 317.404C158.223 317.553 158.545 317.628 158.899 317.628C159.431 317.628 159.833 317.493 160.103 317.222C160.383 316.942 160.561 316.578 160.635 316.13L162.343 316.536C162.222 317.031 162.012 317.483 161.713 317.894C161.424 318.295 161.041 318.613 160.565 318.846C160.089 319.079 159.52 319.196 158.857 319.196ZM163.798 319V309.2H165.562V314.618H165.814L168.11 312.056H170.406L167.2 315.416L170.518 319H168.25L165.814 316.242H165.562V319H163.798ZM171.701 319V309.2H173.465V319H171.701ZM175.419 319V312.056H177.183V319H175.419ZM176.301 311.244C175.984 311.244 175.713 311.141 175.489 310.936C175.275 310.731 175.167 310.46 175.167 310.124C175.167 309.788 175.275 309.517 175.489 309.312C175.713 309.107 175.984 309.004 176.301 309.004C176.628 309.004 176.899 309.107 177.113 309.312C177.328 309.517 177.435 309.788 177.435 310.124C177.435 310.46 177.328 310.731 177.113 310.936C176.899 311.141 176.628 311.244 176.301 311.244ZM182.4 319.196C181.728 319.196 181.117 319.056 180.566 318.776C180.025 318.496 179.596 318.09 179.278 317.558C178.961 317.026 178.802 316.382 178.802 315.626V315.43C178.802 314.674 178.961 314.03 179.278 313.498C179.596 312.966 180.025 312.56 180.566 312.28C181.117 312 181.728 311.86 182.4 311.86C183.063 311.86 183.632 311.977 184.108 312.21C184.584 312.443 184.967 312.765 185.256 313.176C185.555 313.577 185.751 314.035 185.844 314.548L184.136 314.912C184.099 314.632 184.015 314.38 183.884 314.156C183.754 313.932 183.567 313.755 183.324 313.624C183.091 313.493 182.797 313.428 182.442 313.428C182.088 313.428 181.766 313.507 181.476 313.666C181.196 313.815 180.972 314.044 180.804 314.352C180.646 314.651 180.566 315.019 180.566 315.458V315.598C180.566 316.037 180.646 316.41 180.804 316.718C180.972 317.017 181.196 317.245 181.476 317.404C181.766 317.553 182.088 317.628 182.442 317.628C182.974 317.628 183.376 317.493 183.646 317.222C183.926 316.942 184.104 316.578 184.178 316.13L185.886 316.536C185.765 317.031 185.555 317.483 185.256 317.894C184.967 318.295 184.584 318.613 184.108 318.846C183.632 319.079 183.063 319.196 182.4 319.196ZM187.341 319V309.2H189.105V312.91H189.357C189.432 312.761 189.549 312.611 189.707 312.462C189.866 312.313 190.076 312.191 190.337 312.098C190.608 311.995 190.949 311.944 191.359 311.944C191.901 311.944 192.372 312.07 192.773 312.322C193.184 312.565 193.501 312.905 193.725 313.344C193.949 313.773 194.061 314.277 194.061 314.856V319H192.297V314.996C192.297 314.473 192.167 314.081 191.905 313.82C191.653 313.559 191.289 313.428 190.813 313.428C190.272 313.428 189.852 313.61 189.553 313.974C189.255 314.329 189.105 314.828 189.105 315.472V319H187.341ZM199.132 319.196C198.442 319.196 197.83 319.051 197.298 318.762C196.776 318.463 196.365 318.048 196.066 317.516C195.777 316.975 195.632 316.34 195.632 315.612V315.444C195.632 314.716 195.777 314.086 196.066 313.554C196.356 313.013 196.762 312.597 197.284 312.308C197.807 312.009 198.414 311.86 199.104 311.86C199.786 311.86 200.378 312.014 200.882 312.322C201.386 312.621 201.778 313.041 202.058 313.582C202.338 314.114 202.478 314.735 202.478 315.444V316.046H197.424C197.443 316.522 197.62 316.909 197.956 317.208C198.292 317.507 198.703 317.656 199.188 317.656C199.683 317.656 200.047 317.549 200.28 317.334C200.514 317.119 200.691 316.881 200.812 316.62L202.254 317.376C202.124 317.619 201.932 317.885 201.68 318.174C201.438 318.454 201.111 318.697 200.7 318.902C200.29 319.098 199.767 319.196 199.132 319.196ZM197.438 314.73H200.686C200.649 314.329 200.486 314.007 200.196 313.764C199.916 313.521 199.548 313.4 199.09 313.4C198.614 313.4 198.236 313.521 197.956 313.764C197.676 314.007 197.504 314.329 197.438 314.73ZM207.547 319V309.2H209.395V313.092H209.647L212.825 309.2H215.191L211.103 314.03L215.331 319H212.895L209.647 315.024H209.395V319H207.547ZM218.849 319.112C218.307 319.112 217.831 318.991 217.421 318.748C217.019 318.496 216.707 318.151 216.483 317.712C216.259 317.273 216.147 316.769 216.147 316.2V312.056H217.911V316.06C217.911 316.583 218.037 316.975 218.289 317.236C218.55 317.497 218.919 317.628 219.395 317.628C219.936 317.628 220.356 317.451 220.655 317.096C220.953 316.732 221.103 316.228 221.103 315.584V312.056H222.867V319H221.131V318.09H220.879C220.767 318.323 220.557 318.552 220.249 318.776C219.941 319 219.474 319.112 218.849 319.112ZM224.83 319V312.056H226.566V312.966H226.818C226.93 312.723 227.14 312.495 227.448 312.28C227.756 312.056 228.222 311.944 228.848 311.944C229.389 311.944 229.86 312.07 230.262 312.322C230.672 312.565 230.99 312.905 231.214 313.344C231.438 313.773 231.55 314.277 231.55 314.856V319H229.786V314.996C229.786 314.473 229.655 314.081 229.394 313.82C229.142 313.559 228.778 313.428 228.302 313.428C227.76 313.428 227.34 313.61 227.042 313.974C226.743 314.329 226.594 314.828 226.594 315.472V319H224.83ZM236.257 319.196C235.706 319.196 235.188 319.061 234.703 318.79C234.227 318.51 233.844 318.104 233.555 317.572C233.265 317.04 233.121 316.396 233.121 315.64V315.416C233.121 314.66 233.265 314.016 233.555 313.484C233.844 312.952 234.227 312.551 234.703 312.28C235.179 312 235.697 311.86 236.257 311.86C236.677 311.86 237.027 311.911 237.307 312.014C237.596 312.107 237.829 312.229 238.007 312.378C238.184 312.527 238.319 312.686 238.413 312.854H238.665V309.2H240.429V319H238.693V318.16H238.441C238.282 318.421 238.035 318.659 237.699 318.874C237.372 319.089 236.891 319.196 236.257 319.196ZM236.789 317.656C237.33 317.656 237.783 317.483 238.147 317.138C238.511 316.783 238.693 316.27 238.693 315.598V315.458C238.693 314.786 238.511 314.277 238.147 313.932C237.792 313.577 237.339 313.4 236.789 313.4C236.247 313.4 235.795 313.577 235.431 313.932C235.067 314.277 234.885 314.786 234.885 315.458V315.598C234.885 316.27 235.067 316.783 235.431 317.138C235.795 317.483 236.247 317.656 236.789 317.656ZM245.548 319.196C244.858 319.196 244.246 319.051 243.714 318.762C243.192 318.463 242.781 318.048 242.482 317.516C242.193 316.975 242.048 316.34 242.048 315.612V315.444C242.048 314.716 242.193 314.086 242.482 313.554C242.772 313.013 243.178 312.597 243.7 312.308C244.223 312.009 244.83 311.86 245.52 311.86C246.202 311.86 246.794 312.014 247.298 312.322C247.802 312.621 248.194 313.041 248.474 313.582C248.754 314.114 248.894 314.735 248.894 315.444V316.046H243.84C243.859 316.522 244.036 316.909 244.372 317.208C244.708 317.507 245.119 317.656 245.604 317.656C246.099 317.656 246.463 317.549 246.696 317.334C246.93 317.119 247.107 316.881 247.228 316.62L248.67 317.376C248.54 317.619 248.348 317.885 248.096 318.174C247.854 318.454 247.527 318.697 247.116 318.902C246.706 319.098 246.183 319.196 245.548 319.196ZM243.854 314.73H247.102C247.065 314.329 246.902 314.007 246.612 313.764C246.332 313.521 245.964 313.4 245.506 313.4C245.03 313.4 244.652 313.521 244.372 313.764C244.092 314.007 243.92 314.329 243.854 314.73ZM250.464 319V312.056H252.2V312.966H252.452C252.564 312.723 252.774 312.495 253.082 312.28C253.39 312.056 253.857 311.944 254.482 311.944C255.024 311.944 255.495 312.07 255.896 312.322C256.307 312.565 256.624 312.905 256.848 313.344C257.072 313.773 257.184 314.277 257.184 314.856V319H255.42V314.996C255.42 314.473 255.29 314.081 255.028 313.82C254.776 313.559 254.412 313.428 253.936 313.428C253.395 313.428 252.975 313.61 252.676 313.974C252.378 314.329 252.228 314.828 252.228 315.472V319H250.464Z" fill="#405A75"/>
<path d="M148.681 339.192C148.681 338.652 148.629 338.094 148.542 337.571H140.995V340.656H145.318C145.143 341.649 144.568 342.521 143.714 343.079L146.294 345.083C147.81 343.671 148.681 341.615 148.681 339.192Z" fill="#4280EF"/>
<path d="M140.995 347C143.157 347 144.969 346.285 146.294 345.065L143.714 343.078C143 343.566 142.076 343.845 140.995 343.845C138.904 343.845 137.144 342.434 136.499 340.551L133.85 342.59C135.209 345.292 137.963 347 140.995 347Z" fill="#34A353"/>
<path d="M136.499 340.534C136.168 339.54 136.168 338.46 136.499 337.466L133.85 335.41C132.717 337.676 132.717 340.342 133.85 342.59L136.499 340.534Z" fill="#F6B704"/>
<path d="M140.995 334.172C142.128 334.155 143.244 334.591 144.063 335.375L146.346 333.074C144.899 331.715 142.982 330.983 140.995 331C137.963 331 135.209 332.708 133.85 335.41L136.499 337.466C137.144 335.567 138.904 334.172 140.995 334.172Z" fill="#E54335"/>
<path d="M163.832 345.224C162.989 345.224 162.259 345.069 161.64 344.76C161.021 344.451 160.541 344.013 160.2 343.448C159.869 342.883 159.704 342.227 159.704 341.48V341.304H161.416V341.464C161.416 342.147 161.624 342.696 162.04 343.112C162.467 343.517 163.059 343.72 163.816 343.72C164.595 343.72 165.197 343.507 165.624 343.08C166.051 342.653 166.264 342.077 166.264 341.352V341.208C166.264 340.515 166.051 339.96 165.624 339.544C165.208 339.128 164.675 338.92 164.024 338.92C163.661 338.92 163.357 338.979 163.112 339.096C162.877 339.203 162.685 339.336 162.536 339.496C162.397 339.656 162.28 339.811 162.184 339.96H160.056V333.8H167.56V335.32H161.736V338.616H161.992C162.099 338.435 162.248 338.264 162.44 338.104C162.643 337.933 162.904 337.795 163.224 337.688C163.544 337.581 163.928 337.528 164.376 337.528C165.037 337.528 165.635 337.672 166.168 337.96C166.712 338.237 167.144 338.653 167.464 339.208C167.784 339.752 167.944 340.413 167.944 341.192V341.368C167.944 342.147 167.779 342.824 167.448 343.4C167.117 343.976 166.643 344.424 166.024 344.744C165.416 345.064 164.685 345.224 163.832 345.224ZM170.786 345.224C170.413 345.224 170.098 345.101 169.842 344.856C169.597 344.611 169.474 344.296 169.474 343.912C169.474 343.528 169.597 343.219 169.842 342.984C170.098 342.739 170.413 342.616 170.786 342.616C171.159 342.616 171.469 342.739 171.714 342.984C171.97 343.229 172.098 343.539 172.098 343.912C172.098 344.296 171.97 344.611 171.714 344.856C171.469 345.101 171.159 345.224 170.786 345.224ZM177.933 345.224C176.632 345.224 175.592 344.856 174.813 344.12C174.045 343.373 173.661 342.253 173.661 340.76V338.04C173.661 336.579 174.045 335.469 174.813 334.712C175.592 333.955 176.632 333.576 177.933 333.576C179.245 333.576 180.285 333.955 181.053 334.712C181.832 335.469 182.221 336.579 182.221 338.04V340.76C182.221 342.253 181.832 343.373 181.053 344.12C180.285 344.856 179.245 345.224 177.933 345.224ZM177.933 343.72C178.819 343.72 179.475 343.469 179.901 342.968C180.328 342.456 180.541 341.741 180.541 340.824V337.944C180.541 337.027 180.312 336.323 179.853 335.832C179.395 335.331 178.755 335.08 177.933 335.08C177.101 335.08 176.461 335.336 176.013 335.848C175.565 336.349 175.341 337.048 175.341 337.944V340.824C175.341 341.763 175.555 342.483 175.981 342.984C176.419 343.475 177.069 343.72 177.933 343.72Z" fill="#57738F"/>
<g clip-path="url(#clip3_11004_28994)">
<path d="M201.08 345.572L196.413 342.142L191.746 345.572L193.538 340.033L188.874 336.624H194.632L196.413 331.076L198.194 336.624H203.952L199.288 340.033L201.08 345.572Z" fill="#FF9900"/>
</g>
<g clip-path="url(#clip4_11004_28994)">
<path d="M219.83 345.572L215.163 342.142L210.496 345.572L212.288 340.033L207.624 336.624H213.382L215.163 331.076L216.944 336.624H222.702L218.038 340.033L219.83 345.572Z" fill="#FF9900"/>
</g>
<g clip-path="url(#clip5_11004_28994)">
<path d="M238.58 345.572L233.913 342.142L229.246 345.572L231.038 340.033L226.374 336.624H232.132L233.913 331.076L235.694 336.624H241.452L236.788 340.033L238.58 345.572Z" fill="#FF9900"/>
</g>
<g clip-path="url(#clip6_11004_28994)">
<path d="M257.33 345.572L252.663 342.142L247.996 345.572L249.788 340.033L245.124 336.624H250.882L252.663 331.076L254.444 336.624H260.202L255.538 340.033L257.33 345.572Z" fill="#FF9900"/>
</g>
<g clip-path="url(#clip7_11004_28994)">
<path d="M276.08 345.572L271.413 342.142L266.746 345.572L268.538 340.033L263.874 336.624H269.632L271.413 331.076L273.194 336.624H278.952L274.288 340.033L276.08 345.572Z" fill="#FF9900"/>
</g>
<rect x="164" y="369" width="96" height="11" rx="5.5" fill="#EDF1F4"/>
<rect x="164" y="388" width="123" height="5" rx="2.5" fill="#EDF1F4"/>
<mask id="mask0_11004_28994" style="mask-type:alpha" maskUnits="userSpaceOnUse" x="133" y="369" width="24" height="24">
<rect x="133" y="369" width="24" height="24" rx="12" fill="#D9D9D9"/>
</mask>
<g mask="url(#mask0_11004_28994)">
<rect x="133" y="369" width="24" height="24" fill="#DBC0DD"/>
<rect x="133" y="369" width="24" height="24"/>
</g>
<rect x="164" y="408" width="164" height="11" rx="5.5" fill="#EDF1F4"/>
<rect x="164" y="427" width="107" height="5" rx="2.5" fill="#EDF1F4"/>
<circle cx="145" cy="420" r="12" fill="#EDF1F4"/>
<g filter="url(#filter2_d_11004_28994)">
<rect x="336" y="56" width="161" height="209" rx="8" fill="white"/>
</g>
<path d="M360.944 92.224C360.08 92.224 359.317 92.0693 358.656 91.76C357.995 91.4507 357.477 91.008 357.104 90.432C356.731 89.856 356.544 89.1627 356.544 88.352V87.904H358.624V88.352C358.624 89.024 358.832 89.5307 359.248 89.872C359.664 90.2027 360.229 90.368 360.944 90.368C361.669 90.368 362.208 90.224 362.56 89.936C362.923 89.648 363.104 89.28 363.104 88.832C363.104 88.5227 363.013 88.272 362.832 88.08C362.661 87.888 362.405 87.7333 362.064 87.616C361.733 87.488 361.328 87.3707 360.848 87.264L360.48 87.184C359.712 87.0133 359.051 86.8 358.496 86.544C357.952 86.2773 357.531 85.9307 357.232 85.504C356.944 85.0773 356.8 84.5227 356.8 83.84C356.8 83.1573 356.96 82.576 357.28 82.096C357.611 81.6053 358.069 81.232 358.656 80.976C359.253 80.7093 359.952 80.576 360.752 80.576C361.552 80.576 362.261 80.7147 362.88 80.992C363.509 81.2587 364 81.664 364.352 82.208C364.715 82.7413 364.896 83.4133 364.896 84.224V84.704H362.816V84.224C362.816 83.7973 362.731 83.456 362.56 83.2C362.4 82.9333 362.165 82.7413 361.856 82.624C361.547 82.496 361.179 82.432 360.752 82.432C360.112 82.432 359.637 82.5547 359.328 82.8C359.029 83.0347 358.88 83.36 358.88 83.776C358.88 84.0533 358.949 84.288 359.088 84.48C359.237 84.672 359.456 84.832 359.744 84.96C360.032 85.088 360.4 85.2 360.848 85.296L361.216 85.376C362.016 85.5467 362.709 85.7653 363.296 86.032C363.893 86.2987 364.357 86.6507 364.688 87.088C365.019 87.5253 365.184 88.0853 365.184 88.768C365.184 89.4507 365.008 90.0533 364.656 90.576C364.315 91.088 363.824 91.4933 363.184 91.792C362.555 92.08 361.808 92.224 360.944 92.224ZM370.551 92.224C369.783 92.224 369.084 92.064 368.455 91.744C367.836 91.424 367.346 90.96 366.983 90.352C366.62 89.744 366.439 89.008 366.439 88.144V87.92C366.439 87.056 366.62 86.32 366.983 85.712C367.346 85.104 367.836 84.64 368.455 84.32C369.084 84 369.783 83.84 370.551 83.84C371.308 83.84 371.959 83.9733 372.503 84.24C373.047 84.5067 373.484 84.8747 373.815 85.344C374.156 85.8027 374.38 86.3253 374.487 86.912L372.535 87.328C372.492 87.008 372.396 86.72 372.247 86.464C372.098 86.208 371.884 86.0053 371.607 85.856C371.34 85.7067 371.004 85.632 370.599 85.632C370.194 85.632 369.826 85.7227 369.495 85.904C369.175 86.0747 368.919 86.336 368.727 86.688C368.546 87.0293 368.455 87.4507 368.455 87.952V88.112C368.455 88.6133 368.546 89.04 368.727 89.392C368.919 89.7333 369.175 89.9947 369.495 90.176C369.826 90.3467 370.194 90.432 370.599 90.432C371.207 90.432 371.666 90.2773 371.975 89.968C372.295 89.648 372.498 89.232 372.583 88.72L374.535 89.184C374.396 89.7493 374.156 90.2667 373.815 90.736C373.484 91.1947 373.047 91.5573 372.503 91.824C371.959 92.0907 371.308 92.224 370.551 92.224ZM376.198 92V80.8H378.214V85.04H378.502C378.587 84.8693 378.721 84.6987 378.902 84.528C379.083 84.3573 379.323 84.2187 379.622 84.112C379.931 83.9947 380.321 83.936 380.79 83.936C381.409 83.936 381.947 84.08 382.406 84.368C382.875 84.6453 383.238 85.0347 383.494 85.536C383.75 86.0267 383.878 86.6027 383.878 87.264V92H381.862V87.424C381.862 86.8267 381.713 86.3787 381.414 86.08C381.126 85.7813 380.71 85.632 380.166 85.632C379.547 85.632 379.067 85.84 378.726 86.256C378.385 86.6613 378.214 87.232 378.214 87.968V92H376.198ZM386.058 92V84.064H388.042V85.104H388.33C388.458 84.8267 388.698 84.5653 389.049 84.32C389.402 84.064 389.935 83.936 390.65 83.936C391.268 83.936 391.807 84.08 392.266 84.368C392.735 84.6453 393.098 85.0347 393.354 85.536C393.61 86.0267 393.738 86.6027 393.738 87.264V92H391.722V87.424C391.722 86.8267 391.572 86.3787 391.274 86.08C390.986 85.7813 390.57 85.632 390.026 85.632C389.407 85.632 388.927 85.84 388.586 86.256C388.244 86.6613 388.074 87.232 388.074 87.968V92H386.058ZM399.533 92.224C398.744 92.224 398.045 92.0587 397.437 91.728C396.84 91.3867 396.37 90.912 396.029 90.304C395.698 89.6853 395.533 88.96 395.533 88.128V87.936C395.533 87.104 395.698 86.384 396.029 85.776C396.36 85.1573 396.824 84.6827 397.421 84.352C398.018 84.0107 398.712 83.84 399.501 83.84C400.28 83.84 400.957 84.016 401.533 84.368C402.109 84.7093 402.557 85.1893 402.877 85.808C403.197 86.416 403.357 87.1253 403.357 87.936V88.624H397.581C397.602 89.168 397.805 89.6107 398.189 89.952C398.573 90.2933 399.042 90.464 399.597 90.464C400.162 90.464 400.578 90.3413 400.845 90.096C401.112 89.8507 401.314 89.5787 401.453 89.28L403.101 90.144C402.952 90.4213 402.733 90.7253 402.445 91.056C402.168 91.376 401.794 91.6533 401.325 91.888C400.856 92.112 400.258 92.224 399.533 92.224ZM397.597 87.12H401.309C401.266 86.6613 401.08 86.2933 400.749 86.016C400.429 85.7387 400.008 85.6 399.485 85.6C398.941 85.6 398.509 85.7387 398.189 86.016C397.869 86.2933 397.672 86.6613 397.597 87.12ZM405.151 92V80.8H407.167V92H405.151ZM409.401 92V80.8H411.417V92H409.401ZM417.267 92.224C416.478 92.224 415.779 92.0587 415.171 91.728C414.574 91.3867 414.105 90.912 413.763 90.304C413.433 89.6853 413.267 88.96 413.267 88.128V87.936C413.267 87.104 413.433 86.384 413.763 85.776C414.094 85.1573 414.558 84.6827 415.155 84.352C415.753 84.0107 416.446 83.84 417.235 83.84C418.014 83.84 418.691 84.016 419.267 84.368C419.843 84.7093 420.291 85.1893 420.611 85.808C420.931 86.416 421.091 87.1253 421.091 87.936V88.624H415.315C415.337 89.168 415.539 89.6107 415.923 89.952C416.307 90.2933 416.777 90.464 417.331 90.464C417.897 90.464 418.313 90.3413 418.579 90.096C418.846 89.8507 419.049 89.5787 419.187 89.28L420.835 90.144C420.686 90.4213 420.467 90.7253 420.179 91.056C419.902 91.376 419.529 91.6533 419.059 91.888C418.59 92.112 417.993 92.224 417.267 92.224ZM415.331 87.12H419.043C419.001 86.6613 418.814 86.2933 418.483 86.016C418.163 85.7387 417.742 85.6 417.219 85.6C416.675 85.6 416.243 85.7387 415.923 86.016C415.603 86.2933 415.406 86.6613 415.331 87.12ZM426.182 92.224C425.147 92.224 424.299 92 423.638 91.552C422.976 91.104 422.576 90.464 422.438 89.632L424.294 89.152C424.368 89.5253 424.491 89.8187 424.662 90.032C424.843 90.2453 425.062 90.4 425.318 90.496C425.584 90.5813 425.872 90.624 426.182 90.624C426.651 90.624 426.998 90.544 427.222 90.384C427.446 90.2133 427.558 90.0053 427.558 89.76C427.558 89.5147 427.451 89.328 427.238 89.2C427.024 89.0613 426.683 88.9493 426.214 88.864L425.766 88.784C425.211 88.6773 424.704 88.5333 424.246 88.352C423.787 88.16 423.419 87.8987 423.142 87.568C422.864 87.2373 422.726 86.8107 422.726 86.288C422.726 85.4987 423.014 84.896 423.59 84.48C424.166 84.0533 424.923 83.84 425.862 83.84C426.747 83.84 427.483 84.0373 428.07 84.432C428.656 84.8267 429.04 85.344 429.222 85.984L427.35 86.56C427.264 86.1547 427.088 85.8667 426.822 85.696C426.566 85.5253 426.246 85.44 425.862 85.44C425.478 85.44 425.184 85.5093 424.982 85.648C424.779 85.776 424.678 85.9573 424.678 86.192C424.678 86.448 424.784 86.64 424.998 86.768C425.211 86.8853 425.499 86.976 425.862 87.04L426.31 87.12C426.907 87.2267 427.446 87.3707 427.926 87.552C428.416 87.7227 428.8 87.9733 429.078 88.304C429.366 88.624 429.51 89.0613 429.51 89.616C429.51 90.448 429.206 91.0933 428.598 91.552C428 92 427.195 92.224 426.182 92.224ZM361.376 112.224C360.459 112.224 359.669 112.059 359.008 111.728C358.357 111.387 357.856 110.907 357.504 110.288C357.163 109.659 356.992 108.917 356.992 108.064V100.8H359.104V108.128C359.104 108.811 359.296 109.349 359.68 109.744C360.075 110.139 360.64 110.336 361.376 110.336C362.112 110.336 362.672 110.139 363.056 109.744C363.451 109.349 363.648 108.811 363.648 108.128V100.8H365.76V108.064C365.76 108.917 365.584 109.659 365.232 110.288C364.891 110.907 364.389 111.387 363.728 111.728C363.077 112.059 362.293 112.224 361.376 112.224ZM367.87 115.2V104.064H369.854V105.024H370.142C370.323 104.715 370.606 104.443 370.99 104.208C371.374 103.963 371.923 103.84 372.638 103.84C373.278 103.84 373.87 104 374.414 104.32C374.958 104.629 375.395 105.088 375.726 105.696C376.057 106.304 376.222 107.04 376.222 107.904V108.16C376.222 109.024 376.057 109.76 375.726 110.368C375.395 110.976 374.958 111.44 374.414 111.76C373.87 112.069 373.278 112.224 372.638 112.224C372.158 112.224 371.753 112.165 371.422 112.048C371.102 111.941 370.841 111.803 370.638 111.632C370.446 111.451 370.291 111.269 370.174 111.088H369.886V115.2H367.87ZM372.03 110.464C372.659 110.464 373.177 110.267 373.582 109.872C373.998 109.467 374.206 108.88 374.206 108.112V107.952C374.206 107.184 373.998 106.603 373.582 106.208C373.166 105.803 372.649 105.6 372.03 105.6C371.411 105.6 370.894 105.803 370.478 106.208C370.062 106.603 369.854 107.184 369.854 107.952V108.112C369.854 108.88 370.062 109.467 370.478 109.872C370.894 110.267 371.411 110.464 372.03 110.464ZM381.273 112.224C380.644 112.224 380.052 112.069 379.497 111.76C378.953 111.44 378.516 110.976 378.185 110.368C377.854 109.76 377.689 109.024 377.689 108.16V107.904C377.689 107.04 377.854 106.304 378.185 105.696C378.516 105.088 378.953 104.629 379.497 104.32C380.041 104 380.633 103.84 381.273 103.84C381.753 103.84 382.153 103.899 382.473 104.016C382.804 104.123 383.07 104.261 383.273 104.432C383.476 104.603 383.63 104.784 383.737 104.976H384.025V100.8H386.041V112H384.057V111.04H383.769C383.588 111.339 383.305 111.611 382.921 111.856C382.548 112.101 381.998 112.224 381.273 112.224ZM381.881 110.464C382.5 110.464 383.017 110.267 383.433 109.872C383.849 109.467 384.057 108.88 384.057 108.112V107.952C384.057 107.184 383.849 106.603 383.433 106.208C383.028 105.803 382.51 105.6 381.881 105.6C381.262 105.6 380.745 105.803 380.329 106.208C379.913 106.603 379.705 107.184 379.705 107.952V108.112C379.705 108.88 379.913 109.467 380.329 109.872C380.745 110.267 381.262 110.464 381.881 110.464ZM390.74 112.224C390.175 112.224 389.668 112.128 389.22 111.936C388.772 111.733 388.415 111.445 388.148 111.072C387.892 110.688 387.764 110.224 387.764 109.68C387.764 109.136 387.892 108.683 388.148 108.32C388.415 107.947 388.778 107.669 389.236 107.488C389.706 107.296 390.239 107.2 390.836 107.2H393.012V106.752C393.012 106.379 392.895 106.075 392.66 105.84C392.426 105.595 392.052 105.472 391.54 105.472C391.039 105.472 390.666 105.589 390.42 105.824C390.175 106.048 390.015 106.341 389.94 106.704L388.084 106.08C388.212 105.675 388.415 105.307 388.692 104.976C388.98 104.635 389.359 104.363 389.828 104.16C390.308 103.947 390.89 103.84 391.572 103.84C392.618 103.84 393.444 104.101 394.052 104.624C394.66 105.147 394.964 105.904 394.964 106.896V109.856C394.964 110.176 395.114 110.336 395.412 110.336H396.052V112H394.708C394.314 112 393.988 111.904 393.732 111.712C393.476 111.52 393.348 111.264 393.348 110.944V110.928H393.044C393.002 111.056 392.906 111.227 392.756 111.44C392.607 111.643 392.372 111.824 392.052 111.984C391.732 112.144 391.295 112.224 390.74 112.224ZM391.092 110.592C391.658 110.592 392.116 110.437 392.468 110.128C392.831 109.808 393.012 109.387 393.012 108.864V108.704H390.98C390.607 108.704 390.314 108.784 390.1 108.944C389.887 109.104 389.78 109.328 389.78 109.616C389.78 109.904 389.892 110.139 390.116 110.32C390.34 110.501 390.666 110.592 391.092 110.592ZM399.988 112C399.465 112 399.039 111.84 398.708 111.52C398.388 111.189 398.228 110.752 398.228 110.208V105.728H396.244V104.064H398.228V101.6H400.244V104.064H402.42V105.728H400.244V109.856C400.244 110.176 400.393 110.336 400.692 110.336H402.228V112H399.988ZM407.58 112.224C406.79 112.224 406.092 112.059 405.484 111.728C404.886 111.387 404.417 110.912 404.076 110.304C403.745 109.685 403.58 108.96 403.58 108.128V107.936C403.58 107.104 403.745 106.384 404.076 105.776C404.406 105.157 404.87 104.683 405.468 104.352C406.065 104.011 406.758 103.84 407.548 103.84C408.326 103.84 409.004 104.016 409.58 104.368C410.156 104.709 410.604 105.189 410.924 105.808C411.244 106.416 411.404 107.125 411.404 107.936V108.624H405.628C405.649 109.168 405.852 109.611 406.236 109.952C406.62 110.293 407.089 110.464 407.644 110.464C408.209 110.464 408.625 110.341 408.892 110.096C409.158 109.851 409.361 109.579 409.5 109.28L411.148 110.144C410.998 110.421 410.78 110.725 410.492 111.056C410.214 111.376 409.841 111.653 409.372 111.888C408.902 112.112 408.305 112.224 407.58 112.224ZM405.644 107.12H409.356C409.313 106.661 409.126 106.293 408.796 106.016C408.476 105.739 408.054 105.6 407.532 105.6C406.988 105.6 406.556 105.739 406.236 106.016C405.916 106.293 405.718 106.661 405.644 107.12Z" fill="#405A75"/>
<rect x="356" y="130" width="88" height="11" rx="5.5" fill="#EDF1F4"/>
<rect x="356" y="151" width="113" height="5" rx="2.5" fill="#EDF1F4"/>
<rect x="356" y="163" width="58" height="5" rx="2.5" fill="#EDF1F4"/>
<rect x="356" y="188" width="88" height="11" rx="5.5" fill="#EDF1F4"/>
<rect x="356" y="209" width="113" height="5" rx="2.5" fill="#EDF1F4"/>
<rect x="356" y="221" width="58" height="5" rx="2.5" fill="#EDF1F4"/>
<defs>
<filter id="filter0_d_11004_28994" x="8" y="26" width="383" height="329" filterUnits="userSpaceOnUse" color-interpolation-filters="sRGB">
<feFlood flood-opacity="0" result="BackgroundImageFix"/>
<feColorMatrix in="SourceAlpha" type="matrix" values="0 0 0 0 0 0 0 0 0 0 0 0 0 0 0 0 0 0 127 0" result="hardAlpha"/>
<feOffset dx="15" dy="30"/>
<feGaussianBlur stdDeviation="30"/>
<feComposite in2="hardAlpha" operator="out"/>
<feColorMatrix type="matrix" values="0 0 0 0 0 0 0 0 0 0.141176 0 0 0 0 0.282353 0 0 0 0.1 0"/>
<feBlend mode="normal" in2="BackgroundImageFix" result="effect1_dropShadow_11004_28994"/>
<feBlend mode="normal" in="SourceGraphic" in2="effect1_dropShadow_11004_28994" result="shape"/>
</filter>
<filter id="filter1_d_11004_28994" x="68" y="255" width="383" height="287" filterUnits="userSpaceOnUse" color-interpolation-filters="sRGB">
<feFlood flood-opacity="0" result="BackgroundImageFix"/>
<feColorMatrix in="SourceAlpha" type="matrix" values="0 0 0 0 0 0 0 0 0 0 0 0 0 0 0 0 0 0 127 0" result="hardAlpha"/>
<feOffset dx="15" dy="30"/>
<feGaussianBlur stdDeviation="30"/>
<feComposite in2="hardAlpha" operator="out"/>
<feColorMatrix type="matrix" values="0 0 0 0 0 0 0 0 0 0.141176 0 0 0 0 0.282353 0 0 0 0.1 0"/>
<feBlend mode="normal" in2="BackgroundImageFix" result="effect1_dropShadow_11004_28994"/>
<feBlend mode="normal" in="SourceGraphic" in2="effect1_dropShadow_11004_28994" result="shape"/>
</filter>
<filter id="filter2_d_11004_28994" x="291" y="26" width="281" height="329" filterUnits="userSpaceOnUse" color-interpolation-filters="sRGB">
<feFlood flood-opacity="0" result="BackgroundImageFix"/>
<feColorMatrix in="SourceAlpha" type="matrix" values="0 0 0 0 0 0 0 0 0 0 0 0 0 0 0 0 0 0 127 0" result="hardAlpha"/>
<feOffset dx="15" dy="30"/>
<feGaussianBlur stdDeviation="30"/>
<feComposite in2="hardAlpha" operator="out"/>
<feColorMatrix type="matrix" values="0 0 0 0 0 0 0 0 0 0.141176 0 0 0 0 0.282353 0 0 0 0.1 0"/>
<feBlend mode="normal" in2="BackgroundImageFix" result="effect1_dropShadow_11004_28994"/>
<feBlend mode="normal" in="SourceGraphic" in2="effect1_dropShadow_11004_28994" result="shape"/>
</filter>
<linearGradient id="paint0_linear_11004_28994" x1="87" y1="7" x2="87" y2="181" gradientUnits="userSpaceOnUse">
<stop stop-color="#D2DBE2"/>
<stop offset="1" stop-color="#D2DBE2" stop-opacity="0"/>
</linearGradient>
<linearGradient id="paint1_linear_11004_28994" x1="227" y1="412" x2="81" y2="412" gradientUnits="userSpaceOnUse">
<stop stop-color="#00F5EB"/>
<stop offset="1" stop-color="#00F5EB" stop-opacity="0"/>
</linearGradient>
<linearGradient id="paint2_linear_11004_28994" x1="445" y1="71" x2="531" y2="71" gradientUnits="userSpaceOnUse">
<stop stop-color="#D1BCE3"/>
<stop offset="1" stop-color="#D1BCE3" stop-opacity="0"/>
</linearGradient>
<linearGradient id="paint3_linear_11004_28994" x1="83" y1="164" x2="83" y2="184" gradientUnits="userSpaceOnUse">
<stop stop-color="#00F5EB"/>
<stop offset="1" stop-color="#00F5EB" stop-opacity="0"/>
</linearGradient>
<linearGradient id="paint4_linear_11004_28994" x1="83" y1="193" x2="83" y2="213" gradientUnits="userSpaceOnUse">
<stop stop-color="#00F5EB"/>
<stop offset="1" stop-color="#00F5EB" stop-opacity="0"/>
</linearGradient>
<linearGradient id="paint5_linear_11004_28994" x1="83" y1="222" x2="83" y2="242" gradientUnits="userSpaceOnUse">
<stop stop-color="#00F5EB"/>
<stop offset="1" stop-color="#00F5EB" stop-opacity="0"/>
</linearGradient>
<clipPath id="clip0_11004_28994">
<rect width="11.6667" height="11.6667" fill="white" transform="translate(77.1667 168.167)"/>
</clipPath>
<clipPath id="clip1_11004_28994">
<rect width="11.6667" height="11.6667" fill="white" transform="translate(77.1667 197.167)"/>
</clipPath>
<clipPath id="clip2_11004_28994">
<rect width="11.6667" height="11.6667" fill="white" transform="translate(77.1667 226.167)"/>
</clipPath>
<clipPath id="clip3_11004_28994">
<rect width="15" height="15" fill="white" transform="translate(188.913 331)"/>
</clipPath>
<clipPath id="clip4_11004_28994">
<rect width="15" height="15" fill="white" transform="translate(207.663 331)"/>
</clipPath>
<clipPath id="clip5_11004_28994">
<rect width="15" height="15" fill="white" transform="translate(226.413 331)"/>
</clipPath>
<clipPath id="clip6_11004_28994">
<rect width="15" height="15" fill="white" transform="translate(245.163 331)"/>
</clipPath>
<clipPath id="clip7_11004_28994">
<rect width="15" height="15" fill="white" transform="translate(263.913 331)"/>
</clipPath>
</defs>
</svg>
